%FSLAX25Y25*%
%MOIN*%
G70*
G01*
G75*
G04 Layer_Physical_Order=1*
G04 Layer_Color=255*
%ADD10R,0.03543X0.04331*%
%ADD11R,0.04331X0.03543*%
%ADD12R,0.03543X0.03937*%
%ADD13R,0.04016X0.01614*%
%ADD14R,0.05512X0.04921*%
%ADD15R,0.05512X0.04724*%
%ADD16R,0.04724X0.05512*%
%ADD17O,0.02362X0.08661*%
%ADD18C,0.01000*%
%ADD19C,0.05906*%
%ADD20R,0.05906X0.05906*%
%ADD21C,0.10000*%
%ADD22R,0.05906X0.05906*%
%ADD23C,0.06000*%
%ADD24C,0.05000*%
%ADD25C,0.10787*%
D10*
X34500Y169626D02*
D03*
Y177500D02*
D03*
Y211374D02*
D03*
Y203500D02*
D03*
Y186563D02*
D03*
Y194437D02*
D03*
X220500Y246626D02*
D03*
Y254500D02*
D03*
X221000Y171626D02*
D03*
Y179500D02*
D03*
X220700Y93326D02*
D03*
Y101200D02*
D03*
X157000Y286549D02*
D03*
Y294423D02*
D03*
X158000Y202000D02*
D03*
Y209874D02*
D03*
Y146549D02*
D03*
Y154423D02*
D03*
X165250Y294423D02*
D03*
Y286549D02*
D03*
X173500Y294423D02*
D03*
Y286549D02*
D03*
X166250Y209874D02*
D03*
Y202000D02*
D03*
X174500Y209874D02*
D03*
Y202000D02*
D03*
X166250Y154423D02*
D03*
Y146549D02*
D03*
X174500Y154423D02*
D03*
Y146549D02*
D03*
X215800Y268800D02*
D03*
Y193900D02*
D03*
Y115900D02*
D03*
D11*
X236374Y254500D02*
D03*
X228500D02*
D03*
X236374Y246500D02*
D03*
X228500D02*
D03*
X236874Y179500D02*
D03*
X229000D02*
D03*
X236874Y171500D02*
D03*
X229000D02*
D03*
X236574Y101200D02*
D03*
X228700D02*
D03*
X236574Y93200D02*
D03*
X228700D02*
D03*
D12*
X204383Y265454D02*
D03*
Y272147D02*
D03*
Y190553D02*
D03*
Y197247D02*
D03*
Y112554D02*
D03*
Y119246D02*
D03*
D13*
X109000Y268000D02*
D03*
Y270559D02*
D03*
Y273118D02*
D03*
Y275677D02*
D03*
X90102Y268000D02*
D03*
Y270559D02*
D03*
Y273118D02*
D03*
Y275677D02*
D03*
X109000Y196000D02*
D03*
Y198559D02*
D03*
Y201118D02*
D03*
Y203677D02*
D03*
X90102Y196000D02*
D03*
Y198559D02*
D03*
Y201118D02*
D03*
Y203677D02*
D03*
X109000Y122000D02*
D03*
Y124559D02*
D03*
Y127118D02*
D03*
Y129677D02*
D03*
X90102Y122000D02*
D03*
Y124559D02*
D03*
Y127118D02*
D03*
Y129677D02*
D03*
D14*
X117000Y261945D02*
D03*
Y255055D02*
D03*
X81000Y261945D02*
D03*
Y255055D02*
D03*
X117500Y189445D02*
D03*
Y182555D02*
D03*
X81500Y189445D02*
D03*
Y182555D02*
D03*
X117000Y115945D02*
D03*
Y109055D02*
D03*
X81000Y115945D02*
D03*
Y109055D02*
D03*
D15*
X107000Y254957D02*
D03*
Y262043D02*
D03*
X91000Y254957D02*
D03*
Y262043D02*
D03*
X107500Y182457D02*
D03*
Y189543D02*
D03*
X91500Y182457D02*
D03*
Y189543D02*
D03*
X107000Y108957D02*
D03*
Y116043D02*
D03*
X147000Y286457D02*
D03*
Y293543D02*
D03*
X91000Y108957D02*
D03*
Y116043D02*
D03*
X148500Y201908D02*
D03*
Y208995D02*
D03*
X149000Y146457D02*
D03*
Y153543D02*
D03*
X137000Y286457D02*
D03*
Y293543D02*
D03*
X138000Y201908D02*
D03*
Y208995D02*
D03*
Y146457D02*
D03*
Y153543D02*
D03*
D16*
X218043Y284500D02*
D03*
X210957D02*
D03*
X248957Y264500D02*
D03*
X256043D02*
D03*
X218543Y209500D02*
D03*
X211457D02*
D03*
X249457Y189500D02*
D03*
X256543D02*
D03*
X218043Y131400D02*
D03*
X210957D02*
D03*
X248957Y111500D02*
D03*
X256043D02*
D03*
X141543Y261900D02*
D03*
X134457D02*
D03*
X172457Y243100D02*
D03*
X179543D02*
D03*
X141543Y114400D02*
D03*
X134457D02*
D03*
X172457Y95400D02*
D03*
X179543D02*
D03*
D17*
X241000Y284449D02*
D03*
X236000D02*
D03*
X231000D02*
D03*
X226000D02*
D03*
X241000Y265551D02*
D03*
X236000D02*
D03*
X231000D02*
D03*
X226000D02*
D03*
X241500Y209449D02*
D03*
X236500D02*
D03*
X231500D02*
D03*
X226500D02*
D03*
X241500Y190551D02*
D03*
X236500D02*
D03*
X231500D02*
D03*
X226500D02*
D03*
X241000Y131449D02*
D03*
X236000D02*
D03*
X231000D02*
D03*
X226000D02*
D03*
X241000Y112551D02*
D03*
X236000D02*
D03*
X231000D02*
D03*
X226000D02*
D03*
X164500Y261949D02*
D03*
X159500D02*
D03*
X154500D02*
D03*
X149500D02*
D03*
X164500Y243051D02*
D03*
X159500D02*
D03*
X154500D02*
D03*
X149500D02*
D03*
X164500Y114449D02*
D03*
X159500D02*
D03*
X154500D02*
D03*
X149500D02*
D03*
X164500Y95551D02*
D03*
X159500D02*
D03*
X154500D02*
D03*
X149500D02*
D03*
D18*
X68453Y174953D02*
Y180547D01*
X50047Y174953D02*
X68453D01*
X74453Y133547D02*
Y186047D01*
X50047D02*
X74453D01*
X241000Y265551D02*
X242051Y264500D01*
X248957D01*
X256043D02*
X264000D01*
X256543Y189500D02*
X264500D01*
X218595Y209449D02*
X226500D01*
X203500Y209500D02*
X211457D01*
X241000Y112551D02*
X242051Y111500D01*
X248957D01*
X256043D02*
X264000D01*
X203100Y131400D02*
X210957D01*
X141543Y114400D02*
X149451D01*
X126400D02*
X134457D01*
X141543Y261900D02*
X149451D01*
X126400D02*
X134457D01*
X164500Y243051D02*
X172408D01*
X179543Y243100D02*
X187400D01*
X109000Y273118D02*
Y275677D01*
X115823D01*
X117000Y247000D02*
Y255055D01*
X107000Y247000D02*
Y254957D01*
X91000Y247000D02*
Y254957D01*
X81000Y247000D02*
Y255055D01*
Y261945D02*
X90902D01*
X90102Y262941D02*
Y268000D01*
X109000Y264043D02*
Y268000D01*
X107000Y262043D02*
X109000Y264043D01*
X107000Y262043D02*
X116902D01*
X117500Y174500D02*
Y182555D01*
X107500Y174500D02*
Y182457D01*
X91500Y174500D02*
Y182457D01*
X81500Y174500D02*
Y182555D01*
Y189445D02*
X91402D01*
X90102Y190941D02*
Y196000D01*
X109000Y191043D02*
Y196000D01*
X107500Y189543D02*
X109000Y191043D01*
X107500Y189543D02*
X117402D01*
X109000Y201118D02*
Y203677D01*
X117000Y101000D02*
Y109055D01*
X107000Y101000D02*
Y108957D01*
X91000Y101000D02*
Y108957D01*
X81000Y101000D02*
Y109055D01*
Y115945D02*
X90902D01*
X90102Y116941D02*
Y122000D01*
X109000Y118043D02*
Y122000D01*
X107000Y116043D02*
X109000Y118043D01*
X107000Y116043D02*
X116902D01*
X109000Y127118D02*
Y129677D01*
X116177D01*
X35374Y170500D02*
X44500D01*
X38437Y186563D02*
X44500Y180500D01*
X34500Y186563D02*
X38437D01*
X30000Y179000D02*
X31500Y177500D01*
X30000Y179000D02*
Y193500D01*
X30937Y194437D01*
X30000Y195500D02*
Y202000D01*
X31500Y203500D01*
X34500D01*
X236000Y254874D02*
Y265551D01*
X231000Y257000D02*
Y265551D01*
X228500Y254500D02*
X231000Y257000D01*
X220626Y246500D02*
X228500D01*
X225949Y284500D02*
X226000Y284449D01*
X218043Y284500D02*
X225949D01*
X236374Y246500D02*
Y254500D01*
X213500D02*
X220500D01*
X223000Y260000D02*
X228500Y254500D01*
X221126Y171500D02*
X229000D01*
X214000Y179500D02*
X221000D01*
X204383Y190553D02*
X210936Y184000D01*
X224500D01*
X229000Y179500D01*
X236000Y101774D02*
Y112551D01*
X236574Y93200D02*
Y101200D01*
X231000Y103500D02*
Y112551D01*
X228700Y101200D02*
X231000Y103500D01*
X220826Y93200D02*
X228700D01*
X214200Y101200D02*
X220700D01*
X222900Y107000D02*
X228700Y101200D01*
X209936Y107000D02*
X222900D01*
X204383Y112554D02*
X209936Y107000D01*
X159500Y114449D02*
Y145049D01*
X158000Y146549D02*
X159500Y145049D01*
X149880Y154423D02*
X158000D01*
X149000Y153543D02*
X149880Y154423D01*
X138000Y153543D02*
X149000D01*
X138000Y138500D02*
Y146457D01*
X133043Y153543D02*
X138000D01*
X125500Y146000D02*
X133043Y153543D01*
X125500Y129000D02*
Y146000D01*
X121059Y124559D02*
X125500Y129000D01*
X109000Y124559D02*
X121059D01*
X149000Y146457D02*
X166158D01*
X158000Y154423D02*
X161923Y150500D01*
X170000D01*
X170500Y150000D01*
Y120449D02*
Y150000D01*
X164500Y114449D02*
X170500Y120449D01*
X166250Y154423D02*
X174500D01*
X197254Y119246D02*
X204383D01*
X174500Y142000D02*
Y146549D01*
Y142000D02*
X197254Y119246D01*
X204383D02*
Y122617D01*
X198000Y129000D02*
X204383Y122617D01*
X198000Y129000D02*
Y136500D01*
X200500Y139000D01*
X179000Y154500D02*
X192500Y141000D01*
X174577Y154500D02*
X179000D01*
X148592Y202000D02*
X158000D01*
X149380Y209874D02*
X158000D01*
X129408Y201908D02*
X138000D01*
Y208995D02*
X148500D01*
X129495D02*
X138000D01*
X119059Y198559D02*
X129495Y208995D01*
X109000Y198559D02*
X119059D01*
X166250Y209874D02*
X174500D01*
X203500Y198129D02*
X204383Y197247D01*
X236500Y209449D02*
Y216500D01*
X198500Y207500D02*
Y212000D01*
X203000Y216500D01*
X236500D01*
X202000Y219000D02*
X241500D01*
X192874Y209874D02*
X202000Y219000D01*
X174500Y209874D02*
X192874D01*
X241500Y209449D02*
Y219000D01*
X174500Y202000D02*
X203000D01*
X198500Y207500D02*
X203500Y202500D01*
Y198129D02*
Y202500D01*
X158000Y202000D02*
X162000D01*
X166250D01*
X149500Y233000D02*
Y243051D01*
Y177000D02*
X210000D01*
X215374Y171626D01*
X221000D01*
X145000Y247000D02*
X148500Y250500D01*
X158000Y209874D02*
Y218000D01*
X145000Y231000D02*
Y247000D01*
Y231000D02*
X158000Y218000D01*
X159500Y243051D02*
Y244992D01*
X153992Y250500D02*
X159500Y244992D01*
X148500Y250500D02*
X153992D01*
X154500Y225500D02*
Y243051D01*
Y225500D02*
X162000Y218000D01*
Y202000D02*
Y218000D01*
X31500Y177500D02*
X34500D01*
X30000Y176000D02*
X31500Y177500D01*
X73445Y115945D02*
X81000D01*
X236874Y171500D02*
Y179500D01*
X229000D02*
X231500Y182000D01*
Y190551D01*
X236500Y179874D02*
Y190551D01*
X218043Y131400D02*
X225951D01*
X192500Y141000D02*
X241000D01*
X241500Y190551D02*
X242551Y189500D01*
X249457D01*
X164500Y95551D02*
X172306D01*
X179543Y95400D02*
X187400D01*
X154500Y105500D02*
Y114449D01*
X249457Y184543D02*
Y189500D01*
Y184543D02*
X310957D01*
X73000Y84000D02*
Y115500D01*
Y84000D02*
X79000Y78000D01*
X291500D01*
X141543Y85957D02*
Y114400D01*
X248957Y84043D02*
Y111500D01*
X249000Y84000D02*
X288500D01*
X311000Y106500D01*
X249000Y84000D02*
X250500D01*
X248957Y84043D02*
X249000Y84000D01*
X311000Y106500D02*
Y233500D01*
X226000Y129508D02*
Y131449D01*
X158000Y251500D02*
X207252D01*
X154500Y255000D02*
X158000Y251500D01*
X154500Y255000D02*
Y261949D01*
X212126Y246626D02*
X220500D01*
X207252Y251500D02*
X212126Y246626D01*
X198549Y286549D02*
X203500Y291500D01*
X241000Y284449D02*
Y286390D01*
X232967Y294423D02*
X241000Y286390D01*
X203500Y291500D02*
X230890D01*
X236000Y286390D01*
Y284449D02*
Y286390D01*
X173500Y294423D02*
X232967D01*
X204383Y272147D02*
Y273617D01*
X198549Y279451D02*
Y286549D01*
Y279451D02*
X204383Y273617D01*
X173500Y286549D02*
X198549D01*
X203000Y284500D02*
X210957D01*
X137000Y293543D02*
X147000D01*
X147880Y294423D02*
X157000D01*
X109000Y270559D02*
X120559D01*
X128000Y278000D01*
X137000Y278500D02*
Y286457D01*
X132043Y293543D02*
X137000D01*
X128000Y289500D02*
X132043Y293543D01*
X128000Y278000D02*
Y289500D01*
X159500Y261949D02*
Y279000D01*
X157000Y281500D02*
X159500Y279000D01*
X147000Y286457D02*
X157000D01*
X165158D01*
X157000Y281500D02*
Y286457D01*
Y286549D01*
X164500Y261949D02*
Y278000D01*
X169500Y283000D01*
Y290500D01*
X161000D02*
X169500D01*
X161000D02*
Y294500D01*
X157077D02*
X161000D01*
X149500Y261949D02*
Y278000D01*
X291500Y78000D02*
X331000Y117500D01*
Y233500D01*
X172457Y237043D02*
Y243100D01*
Y237043D02*
X176000Y233500D01*
X311000D01*
X109000Y203677D02*
X115677D01*
X40047Y194953D02*
X44500Y190500D01*
X45594D01*
X80882Y127118D02*
X90102D01*
X74453Y133547D02*
X80882Y127118D01*
X45594Y190500D02*
X50047Y186047D01*
X54500Y190500D02*
X80445D01*
X65382Y201118D02*
X90102D01*
X61547Y204953D02*
X65382Y201118D01*
X62000Y195500D02*
X65059Y198559D01*
X90102D01*
X52500Y180500D02*
X54500D01*
X34500Y177500D02*
X39750D01*
X30000Y158500D02*
Y159000D01*
Y176000D01*
Y159000D02*
X73000Y116000D01*
X44500Y170500D02*
X45594D01*
X39750Y177500D02*
X41203Y176047D01*
X45594Y170500D02*
X50047Y174953D01*
X41203Y176047D02*
X48047D01*
X52500Y180500D01*
X90000Y129780D02*
Y154500D01*
X35374Y210500D02*
X44500D01*
X40047Y194953D02*
Y202344D01*
X44500Y200500D02*
X45500D01*
X50500Y195500D01*
X62000D01*
X40047Y202344D02*
X42656Y204953D01*
X61547D01*
X90102Y198559D02*
X99441D01*
X90102Y124559D02*
X99059D01*
X99500Y125000D01*
Y270500D01*
X99441Y270559D02*
X99500Y270500D01*
X90102Y270559D02*
X99441D01*
X72500Y262000D02*
X80945D01*
X75677Y275677D02*
X90102D01*
X44500Y210500D02*
Y244500D01*
X75677Y275677D01*
X248957Y258543D02*
Y264500D01*
Y258543D02*
X249500Y258000D01*
X218043Y276957D02*
Y284500D01*
X210000Y93500D02*
X220526D01*
X154500Y105500D02*
X198000D01*
X210000Y93500D01*
X141543Y85957D02*
X146500Y81000D01*
X290500D02*
X321000Y111500D01*
Y233500D01*
X172457Y95400D02*
Y101957D01*
X195543D01*
X213500Y84000D02*
X249000D01*
X195543Y101957D02*
X213500Y84000D01*
X218043Y123457D02*
Y131400D01*
X204500Y81000D02*
Y86000D01*
X146500Y81000D02*
X204500D01*
X290500D01*
X231000Y279500D02*
Y284449D01*
X243492Y280000D02*
X287700D01*
X242110Y278618D02*
X243492Y280000D01*
X234008Y279500D02*
X234890Y278618D01*
X231000Y279500D02*
X234008D01*
X234890Y278618D02*
X242110D01*
X226000Y265551D02*
Y270500D01*
X229008D02*
X229889Y271382D01*
X226000Y270500D02*
X229008D01*
X229889Y271382D02*
X286318D01*
X287700Y270000D01*
X231500Y204500D02*
Y209449D01*
X234508Y204500D02*
X235389Y203618D01*
X231500Y204500D02*
X234508D01*
X284782Y203618D02*
X287700Y200700D01*
X235389Y203618D02*
X284782D01*
X226500Y190551D02*
Y195500D01*
X229508D02*
X230389Y196382D01*
X226500Y195500D02*
X229508D01*
X230389Y196382D02*
X282018D01*
X287700Y190700D01*
X236000Y131449D02*
Y139000D01*
X200500D02*
X236000D01*
X241000Y131449D02*
Y141000D01*
X231000Y126500D02*
Y131449D01*
Y126500D02*
X234008D01*
X236001Y124506D01*
X284594D02*
X287700Y121400D01*
X236001Y124506D02*
X284594D01*
X226000Y112551D02*
Y117500D01*
X229008D02*
X229889Y118382D01*
X226000Y117500D02*
X229008D01*
X229889Y118382D02*
X280718D01*
X287700Y111400D01*
X180000Y301000D02*
X295500D01*
X321000Y275500D01*
Y233500D02*
Y275500D01*
X249500Y258000D02*
X295500D01*
X204383Y265454D02*
X209836Y260000D01*
X223000D01*
X218000Y201000D02*
Y208957D01*
X165250Y294423D02*
X173500D01*
X30937Y194437D02*
X31063D01*
X34500D01*
X30000Y195500D02*
X31063Y194437D01*
X84000Y206500D02*
X90000D01*
X90102Y203677D02*
Y206398D01*
Y201118D02*
X95618D01*
X96118Y201618D01*
Y239882D01*
X95500Y240500D02*
X96118Y239882D01*
X77000Y240500D02*
X95500D01*
X67500Y250000D02*
X77000Y240500D01*
X67500Y250000D02*
Y263500D01*
X77000Y273000D01*
X89984D01*
D19*
X341000Y233500D02*
D03*
X331000D02*
D03*
X321000D02*
D03*
X54500Y210500D02*
D03*
X44500D02*
D03*
X54500Y200500D02*
D03*
X44500D02*
D03*
X54500Y190500D02*
D03*
X44500D02*
D03*
X54500Y180500D02*
D03*
X44500D02*
D03*
X54500Y170500D02*
D03*
D20*
X311000Y233500D02*
D03*
D21*
X97500Y326250D02*
D03*
X282500D02*
D03*
Y53750D02*
D03*
X97500D02*
D03*
D22*
X44500Y170500D02*
D03*
D23*
X287700Y270000D02*
D03*
Y280000D02*
D03*
Y190700D02*
D03*
Y200700D02*
D03*
Y111400D02*
D03*
Y121400D02*
D03*
D24*
X68453Y180547D02*
D03*
X264000Y264500D02*
D03*
X203000Y284500D02*
D03*
X264500Y189500D02*
D03*
X203500Y209500D02*
D03*
X264000Y111500D02*
D03*
X203100Y131400D02*
D03*
X126400Y114400D02*
D03*
Y261900D02*
D03*
X187400Y243100D02*
D03*
X115823Y275677D02*
D03*
X117000Y247000D02*
D03*
X107000D02*
D03*
X91000D02*
D03*
X81000D02*
D03*
X117500Y174500D02*
D03*
X107500D02*
D03*
X91500D02*
D03*
X81500D02*
D03*
X116000Y203500D02*
D03*
X117000Y101000D02*
D03*
X107000D02*
D03*
X91000D02*
D03*
X81000D02*
D03*
X116177Y129677D02*
D03*
X213500Y254500D02*
D03*
X214000Y179500D02*
D03*
X214200Y101200D02*
D03*
X138000Y138500D02*
D03*
X129408Y201908D02*
D03*
X149500Y233000D02*
D03*
Y177000D02*
D03*
X187400Y95400D02*
D03*
X137000Y278500D02*
D03*
X149500Y278000D02*
D03*
X180000Y301000D02*
D03*
X90000Y154500D02*
D03*
X72500Y262000D02*
D03*
X218043Y276957D02*
D03*
Y123457D02*
D03*
X204500Y86000D02*
D03*
X297500Y258000D02*
D03*
X218000Y201000D02*
D03*
X84000Y206500D02*
D03*
D25*
X267700Y250000D02*
D03*
Y290000D02*
D03*
Y170700D02*
D03*
Y210700D02*
D03*
Y91400D02*
D03*
Y131400D02*
D03*
M02*
