M48
;Layer_Color=9474304
;FILE_FORMAT=2:5
INCH,LZ
;TYPE=PLATED
T1F00S00C0.02800
T2F00S00C0.03543
T3F00S00C0.03819
T4F00S00C0.08228
T5F00S00C0.14950
%
T01
X0081Y0101
X0091
X0107
X0117
X01264Y01144
X0116177Y0129677
X0138Y01385
X009Y01545
X02031Y01314
X0218043Y0123457
X02142Y01012
X02045Y0086
X01874Y00954
X0264Y01115
X02645Y01895
X0218Y0201
X02035Y02095
X0214Y01795
X02135Y02545
X0218043Y0276957
X0203Y02845
X018Y0301
X01874Y02431
X0264Y02645
X02975Y0258
X01495Y0278
X0137Y02785
X0115823Y0275677
X01264Y02619
X0117Y0247
X0107
X0091
X0081
X00725Y0262
X0084Y02065
X00815Y01745
X00915
X01075
X01175
X0116Y02035
X0129408Y0201908
X01495Y0177
Y0233
X0068453Y0180547
T02
X0321Y02335
X0331
X0341
X0311
X00545Y02105
X00445
Y02005
X00545
Y01905
X00445
Y01805
X00545
Y01705
X00445
T03
X02877Y01114
Y01214
Y01907
Y02007
Y027
Y028
T04
X02677Y00914
Y01314
Y01707
Y02107
Y025
Y029
T05
X00975Y005375
X02825
X00975Y032625
X02825
M30
