%FSLAX25Y25*%
%MOIN*%
G70*
G01*
G75*
G04 Layer_Color=8421504*
%ADD10R,0.03543X0.04331*%
%ADD11R,0.04331X0.03543*%
%ADD12R,0.03543X0.03937*%
%ADD13R,0.04016X0.01614*%
%ADD14R,0.05512X0.04921*%
%ADD15R,0.05512X0.04724*%
%ADD16R,0.04724X0.05512*%
%ADD17O,0.02362X0.08661*%
%ADD18C,0.01000*%
%ADD19C,0.05906*%
%ADD20R,0.05906X0.05906*%
%ADD21C,0.10000*%
%ADD22R,0.05906X0.05906*%
%ADD23C,0.06000*%
%ADD24C,0.05000*%
%ADD25C,0.10787*%
%ADD26R,0.04724X0.04724*%
%ADD27C,0.00787*%
%ADD28C,0.00984*%
%ADD29C,0.02362*%
%ADD30C,0.00800*%
%ADD31C,0.02000*%
D10*
X34500Y169626D02*
D03*
Y177500D02*
D03*
Y211374D02*
D03*
Y203500D02*
D03*
Y186563D02*
D03*
Y194437D02*
D03*
X220500Y246626D02*
D03*
Y254500D02*
D03*
X221000Y171626D02*
D03*
Y179500D02*
D03*
X220700Y93326D02*
D03*
Y101200D02*
D03*
X157000Y286549D02*
D03*
Y294423D02*
D03*
X158000Y202000D02*
D03*
Y209874D02*
D03*
Y146549D02*
D03*
Y154423D02*
D03*
X165250Y294423D02*
D03*
Y286549D02*
D03*
X173500Y294423D02*
D03*
Y286549D02*
D03*
X166250Y209874D02*
D03*
Y202000D02*
D03*
X174500Y209874D02*
D03*
Y202000D02*
D03*
X166250Y154423D02*
D03*
Y146549D02*
D03*
X174500Y154423D02*
D03*
Y146549D02*
D03*
X215800Y268800D02*
D03*
Y193900D02*
D03*
Y115900D02*
D03*
D11*
X236374Y254500D02*
D03*
X228500D02*
D03*
X236374Y246500D02*
D03*
X228500D02*
D03*
X236874Y179500D02*
D03*
X229000D02*
D03*
X236874Y171500D02*
D03*
X229000D02*
D03*
X236574Y101200D02*
D03*
X228700D02*
D03*
X236574Y93200D02*
D03*
X228700D02*
D03*
D12*
X204383Y265454D02*
D03*
Y272147D02*
D03*
Y190553D02*
D03*
Y197247D02*
D03*
Y112554D02*
D03*
Y119246D02*
D03*
D13*
X109000Y268000D02*
D03*
Y270559D02*
D03*
Y273118D02*
D03*
Y275677D02*
D03*
X90102Y268000D02*
D03*
Y270559D02*
D03*
Y273118D02*
D03*
Y275677D02*
D03*
X109000Y196000D02*
D03*
Y198559D02*
D03*
Y201118D02*
D03*
Y203677D02*
D03*
X90102Y196000D02*
D03*
Y198559D02*
D03*
Y201118D02*
D03*
Y203677D02*
D03*
X109000Y122000D02*
D03*
Y124559D02*
D03*
Y127118D02*
D03*
Y129677D02*
D03*
X90102Y122000D02*
D03*
Y124559D02*
D03*
Y127118D02*
D03*
Y129677D02*
D03*
D14*
X117000Y261945D02*
D03*
Y255055D02*
D03*
X81000Y261945D02*
D03*
Y255055D02*
D03*
X117500Y189445D02*
D03*
Y182555D02*
D03*
X81500Y189445D02*
D03*
Y182555D02*
D03*
X117000Y115945D02*
D03*
Y109055D02*
D03*
X81000Y115945D02*
D03*
Y109055D02*
D03*
D15*
X107000Y254957D02*
D03*
Y262043D02*
D03*
X91000Y254957D02*
D03*
Y262043D02*
D03*
X107500Y182457D02*
D03*
Y189543D02*
D03*
X91500Y182457D02*
D03*
Y189543D02*
D03*
X107000Y108957D02*
D03*
Y116043D02*
D03*
X147000Y286457D02*
D03*
Y293543D02*
D03*
X91000Y108957D02*
D03*
Y116043D02*
D03*
X148500Y201908D02*
D03*
Y208995D02*
D03*
X149000Y146457D02*
D03*
Y153543D02*
D03*
X137000Y286457D02*
D03*
Y293543D02*
D03*
X138000Y201908D02*
D03*
Y208995D02*
D03*
Y146457D02*
D03*
Y153543D02*
D03*
D16*
X218043Y284500D02*
D03*
X210957D02*
D03*
X248957Y264500D02*
D03*
X256043D02*
D03*
X218543Y209500D02*
D03*
X211457D02*
D03*
X249457Y189500D02*
D03*
X256543D02*
D03*
X218043Y131400D02*
D03*
X210957D02*
D03*
X248957Y111500D02*
D03*
X256043D02*
D03*
X141543Y261900D02*
D03*
X134457D02*
D03*
X172457Y243100D02*
D03*
X179543D02*
D03*
X141543Y114400D02*
D03*
X134457D02*
D03*
X172457Y95400D02*
D03*
X179543D02*
D03*
D17*
X241000Y284449D02*
D03*
X236000D02*
D03*
X231000D02*
D03*
X226000D02*
D03*
X241000Y265551D02*
D03*
X236000D02*
D03*
X231000D02*
D03*
X226000D02*
D03*
X241500Y209449D02*
D03*
X236500D02*
D03*
X231500D02*
D03*
X226500D02*
D03*
X241500Y190551D02*
D03*
X236500D02*
D03*
X231500D02*
D03*
X226500D02*
D03*
X241000Y131449D02*
D03*
X236000D02*
D03*
X231000D02*
D03*
X226000D02*
D03*
X241000Y112551D02*
D03*
X236000D02*
D03*
X231000D02*
D03*
X226000D02*
D03*
X164500Y261949D02*
D03*
X159500D02*
D03*
X154500D02*
D03*
X149500D02*
D03*
X164500Y243051D02*
D03*
X159500D02*
D03*
X154500D02*
D03*
X149500D02*
D03*
X164500Y114449D02*
D03*
X159500D02*
D03*
X154500D02*
D03*
X149500D02*
D03*
X164500Y95551D02*
D03*
X159500D02*
D03*
X154500D02*
D03*
X149500D02*
D03*
M02*
