%FSLAX25Y25*%
%MOIN*%
G70*
G01*
G75*
G04 Layer_Color=65535*
%ADD10R,0.03543X0.04331*%
%ADD11R,0.04331X0.03543*%
%ADD12R,0.03543X0.03937*%
%ADD13R,0.04016X0.01614*%
%ADD14R,0.05512X0.04921*%
%ADD15R,0.05512X0.04724*%
%ADD16R,0.04724X0.05512*%
%ADD17O,0.02362X0.08661*%
%ADD18C,0.01000*%
%ADD19C,0.05906*%
%ADD20R,0.05906X0.05906*%
%ADD21C,0.10000*%
%ADD22R,0.05906X0.05906*%
%ADD23C,0.06000*%
%ADD24C,0.05000*%
%ADD25C,0.10787*%
%ADD26R,0.04724X0.04724*%
%ADD27C,0.00787*%
%ADD28C,0.00984*%
%ADD29C,0.02362*%
%ADD30C,0.00800*%
%ADD31C,0.02000*%
G36*
X191234Y30017D02*
X191474D01*
Y29777D01*
X191713D01*
Y29538D01*
X191953D01*
Y29298D01*
X192433D01*
Y29058D01*
Y28818D01*
X192912D01*
Y28578D01*
X193152D01*
Y28339D01*
X193392D01*
Y28099D01*
X193632D01*
Y27859D01*
X197469D01*
Y27619D01*
X197229D01*
Y27379D01*
X196989D01*
Y27139D01*
Y26900D01*
X192673D01*
Y27139D01*
Y27379D01*
X192433D01*
Y27619D01*
X191953D01*
Y27859D01*
X191713D01*
Y28099D01*
X191474D01*
Y28339D01*
Y28578D01*
X191234D01*
Y28818D01*
X190754D01*
Y29058D01*
X190514D01*
Y29298D01*
X190275D01*
Y29538D01*
Y29777D01*
X186917D01*
Y30017D01*
X187397D01*
Y30257D01*
X191234D01*
Y30017D01*
D02*
G37*
G36*
X193632Y30257D02*
X194831D01*
Y30017D01*
X196030D01*
Y29777D01*
Y29538D01*
X195790D01*
Y29777D01*
X194831D01*
Y29538D01*
Y29298D01*
X194591D01*
Y29538D01*
X194351D01*
Y29777D01*
X194112D01*
Y30017D01*
X193632D01*
Y30257D01*
X193152D01*
Y30497D01*
X193632D01*
Y30257D01*
D02*
G37*
G36*
X190514Y33135D02*
X190754D01*
Y32895D01*
X190994D01*
Y32655D01*
X191234D01*
Y32415D01*
X191474D01*
Y32175D01*
X191713D01*
Y31936D01*
X191953D01*
Y31696D01*
X192193D01*
Y31456D01*
X187637D01*
Y31696D01*
Y31936D01*
Y32175D01*
Y32415D01*
Y32655D01*
Y32895D01*
X188356D01*
Y33135D01*
X188596D01*
Y33375D01*
X190514D01*
Y33135D01*
D02*
G37*
G36*
X189795Y27379D02*
Y27139D01*
X190035D01*
Y26900D01*
X190514D01*
Y26660D01*
X186437D01*
Y26900D01*
Y27139D01*
Y27379D01*
X186198D01*
Y27619D01*
X189795D01*
Y27379D01*
D02*
G37*
G36*
X192193Y22823D02*
X191953D01*
Y22583D01*
X192193D01*
Y22343D01*
Y22103D01*
X191713D01*
Y21863D01*
Y21624D01*
Y21384D01*
X191474D01*
Y21624D01*
Y21863D01*
Y22103D01*
X191234D01*
Y22343D01*
Y22583D01*
Y22823D01*
Y23063D01*
X192193D01*
Y22823D01*
D02*
G37*
G36*
X185238Y38171D02*
Y37931D01*
X184999D01*
Y37691D01*
Y37451D01*
X184519D01*
Y37212D01*
Y36972D01*
X184279D01*
Y36732D01*
Y36492D01*
Y36252D01*
X184039D01*
Y36013D01*
Y35773D01*
X183560D01*
Y35533D01*
X183800D01*
Y35293D01*
Y35053D01*
X183320D01*
Y34813D01*
Y34574D01*
Y34334D01*
X183080D01*
Y34094D01*
Y33854D01*
Y33614D01*
X183800D01*
Y33854D01*
X184039D01*
Y34094D01*
Y34334D01*
Y34574D01*
X184279D01*
Y34813D01*
X184519D01*
Y35053D01*
X184999D01*
Y35293D01*
Y35533D01*
Y35773D01*
X185238D01*
Y36013D01*
X185478D01*
Y36252D01*
Y36492D01*
X185718D01*
Y36732D01*
Y36972D01*
X186198D01*
Y37212D01*
Y37451D01*
X186437D01*
Y37691D01*
X186677D01*
Y37451D01*
Y37212D01*
Y36972D01*
Y36732D01*
Y36492D01*
X186917D01*
Y36252D01*
Y36013D01*
Y35773D01*
Y35533D01*
Y35293D01*
Y35053D01*
X186677D01*
Y34813D01*
Y34574D01*
X186917D01*
Y34334D01*
X186677D01*
Y34094D01*
Y33854D01*
Y33614D01*
X186917D01*
Y33375D01*
Y33135D01*
Y32895D01*
Y32655D01*
Y32415D01*
X186677D01*
Y32175D01*
Y31936D01*
Y31696D01*
X186917D01*
Y31456D01*
Y31216D01*
Y30976D01*
X186677D01*
Y30737D01*
Y30497D01*
Y30257D01*
X186437D01*
Y30017D01*
X186198D01*
Y29777D01*
X185958D01*
Y29538D01*
X185718D01*
Y29298D01*
X185478D01*
Y29058D01*
X185238D01*
Y28818D01*
X184999D01*
Y28578D01*
X184759D01*
Y28339D01*
X184519D01*
Y28099D01*
X184279D01*
Y27859D01*
X184039D01*
Y27619D01*
X183800D01*
Y27379D01*
X183560D01*
Y27139D01*
X183320D01*
Y26900D01*
X183080D01*
Y26660D01*
X182840D01*
Y26420D01*
X182600D01*
Y26180D01*
X182361D01*
Y25940D01*
X182121D01*
Y25701D01*
X181881D01*
Y25461D01*
X181641D01*
Y25221D01*
X181401D01*
Y24981D01*
X181162D01*
Y24741D01*
X180922D01*
Y24501D01*
X180682D01*
Y24262D01*
X180442D01*
Y24022D01*
X180202D01*
Y23782D01*
X179963D01*
Y23542D01*
X179723D01*
Y23302D01*
X179483D01*
Y23063D01*
X179243D01*
Y23302D01*
Y23542D01*
Y23782D01*
X179003D01*
Y24022D01*
Y24262D01*
Y24501D01*
Y24741D01*
Y24981D01*
Y25221D01*
Y25461D01*
Y25701D01*
X178524D01*
Y25940D01*
Y26180D01*
X178763D01*
Y26420D01*
Y26660D01*
Y26900D01*
Y27139D01*
Y27379D01*
Y27619D01*
Y27859D01*
Y28099D01*
X178284D01*
Y28339D01*
Y28578D01*
Y28818D01*
Y29058D01*
Y29298D01*
Y29538D01*
Y29777D01*
Y30017D01*
X178763D01*
Y30257D01*
X178524D01*
Y30497D01*
X179003D01*
Y30737D01*
Y30976D01*
Y31216D01*
X179243D01*
Y31456D01*
Y31696D01*
X179483D01*
Y31936D01*
Y32175D01*
Y32415D01*
X179963D01*
Y32655D01*
X179723D01*
Y32895D01*
X180202D01*
Y33135D01*
Y33375D01*
Y33614D01*
X180442D01*
Y33854D01*
Y34094D01*
X180682D01*
Y34334D01*
Y34574D01*
Y34813D01*
X181162D01*
Y35053D01*
X180922D01*
Y35293D01*
X181401D01*
Y35533D01*
Y35773D01*
Y36013D01*
X181641D01*
Y36252D01*
X181881D01*
Y36492D01*
X182361D01*
Y36732D01*
X182600D01*
Y36972D01*
X182840D01*
Y37212D01*
X183320D01*
Y37451D01*
X183560D01*
Y37691D01*
X184279D01*
Y37931D01*
Y38171D01*
X184519D01*
Y38411D01*
X185238D01*
Y38171D01*
D02*
G37*
G36*
X196030Y25461D02*
Y25221D01*
X187637D01*
Y25461D01*
X187157D01*
Y25701D01*
X196030D01*
Y25461D01*
D02*
G37*
G36*
X190275Y35053D02*
X190754D01*
Y34813D01*
X190994D01*
Y34574D01*
X191234D01*
Y34334D01*
Y34094D01*
X191953D01*
Y33854D01*
X192193D01*
Y33614D01*
X192433D01*
Y33375D01*
X192673D01*
Y33135D01*
Y32895D01*
X193152D01*
Y32655D01*
X193392D01*
Y32415D01*
X195790D01*
Y32175D01*
Y31936D01*
X195071D01*
Y31696D01*
X194831D01*
Y31456D01*
X193632D01*
Y31696D01*
X193392D01*
Y31936D01*
X193152D01*
Y32175D01*
X192912D01*
Y32415D01*
X192673D01*
Y32655D01*
X192433D01*
Y32895D01*
X192193D01*
Y33135D01*
X191953D01*
Y33375D01*
X191474D01*
Y33614D01*
X191234D01*
Y33854D01*
Y34094D01*
X190994D01*
Y34334D01*
X188356D01*
Y34574D01*
X187637D01*
Y34813D01*
Y35053D01*
Y35293D01*
X190275D01*
Y35053D01*
D02*
G37*
G36*
X194591Y41768D02*
X194831D01*
Y41528D01*
Y41289D01*
Y41049D01*
X195071D01*
Y40809D01*
X188116D01*
Y41049D01*
X188596D01*
Y41289D01*
Y41528D01*
Y41768D01*
X188836D01*
Y41528D01*
Y41289D01*
Y41049D01*
X194112D01*
Y41289D01*
X194351D01*
Y41528D01*
Y41768D01*
X194112D01*
Y42008D01*
X194591D01*
Y41768D01*
D02*
G37*
G36*
X189076Y42008D02*
Y41768D01*
X188836D01*
Y42008D01*
Y42248D01*
X189076D01*
Y42008D01*
D02*
G37*
G36*
X194112Y42488D02*
Y42248D01*
X193872D01*
Y42488D01*
Y42727D01*
X194112D01*
Y42488D01*
D02*
G37*
G36*
X195790Y39610D02*
X195551D01*
Y39370D01*
X195790D01*
Y39130D01*
X193632D01*
Y39370D01*
X193152D01*
Y39610D01*
X192912D01*
Y39850D01*
X195790D01*
Y39610D01*
D02*
G37*
G36*
X190754Y37212D02*
X190994D01*
Y36972D01*
X191234D01*
Y36732D01*
Y36492D01*
X191474D01*
Y36252D01*
X191953D01*
Y36013D01*
X192193D01*
Y35773D01*
X192433D01*
Y35533D01*
Y35293D01*
X192673D01*
Y35053D01*
X193392D01*
Y34813D01*
X193872D01*
Y34574D01*
X195071D01*
Y34334D01*
Y34094D01*
X195551D01*
Y33854D01*
X195790D01*
Y33614D01*
X193872D01*
Y33854D01*
X193632D01*
Y34094D01*
X193392D01*
Y34334D01*
X193152D01*
Y34574D01*
X192912D01*
Y34813D01*
X192673D01*
Y35053D01*
X192433D01*
Y35293D01*
X192193D01*
Y35533D01*
X191953D01*
Y35773D01*
X191474D01*
Y36013D01*
X191234D01*
Y36252D01*
X190994D01*
Y36492D01*
X190754D01*
Y36732D01*
X187637D01*
Y36972D01*
Y37212D01*
X188116D01*
Y37451D01*
X190754D01*
Y37212D01*
D02*
G37*
G36*
X197949Y38651D02*
X198188D01*
Y38411D01*
X198668D01*
Y38171D01*
X198908D01*
Y37931D01*
X199148D01*
Y37691D01*
X199627D01*
Y37451D01*
X199867D01*
Y37212D01*
X200587D01*
Y36972D01*
X200826D01*
Y36732D01*
Y36492D01*
X201546D01*
Y36252D01*
X201786D01*
Y36013D01*
X202026D01*
Y35773D01*
Y35533D01*
Y35293D01*
X202265D01*
Y35053D01*
Y34813D01*
X202505D01*
Y34574D01*
Y34334D01*
Y34094D01*
X202985D01*
Y33854D01*
X202745D01*
Y33614D01*
X203225D01*
Y33375D01*
Y33135D01*
Y32895D01*
X203464D01*
Y32655D01*
Y32415D01*
X203704D01*
Y32175D01*
Y31936D01*
Y31696D01*
X204184D01*
Y31456D01*
X203944D01*
Y31216D01*
X204424D01*
Y30976D01*
Y30737D01*
Y30497D01*
X204663D01*
Y30257D01*
Y30017D01*
X204903D01*
Y29777D01*
Y29538D01*
Y29298D01*
Y29058D01*
Y28818D01*
X204663D01*
Y28578D01*
Y28339D01*
Y28099D01*
Y27859D01*
Y27619D01*
Y27379D01*
Y27139D01*
Y26900D01*
Y26660D01*
Y26420D01*
Y26180D01*
X204424D01*
Y25940D01*
Y25701D01*
Y25461D01*
Y25221D01*
Y24981D01*
Y24741D01*
Y24501D01*
Y24262D01*
X203944D01*
Y24022D01*
Y23782D01*
Y23542D01*
Y23302D01*
X204184D01*
Y23063D01*
Y22823D01*
X203944D01*
Y23063D01*
X203704D01*
Y23302D01*
X203464D01*
Y23542D01*
Y23782D01*
X203225D01*
Y24022D01*
X202745D01*
Y24262D01*
X202505D01*
Y24501D01*
X202265D01*
Y24741D01*
Y24981D01*
X202026D01*
Y25221D01*
X201546D01*
Y25461D01*
X201306D01*
Y25701D01*
X201066D01*
Y25940D01*
Y26180D01*
X200826D01*
Y26420D01*
X200347D01*
Y26660D01*
X200107D01*
Y26900D01*
X199867D01*
Y27139D01*
Y27379D01*
X199627D01*
Y27619D01*
X199148D01*
Y27859D01*
X198908D01*
Y28099D01*
X198668D01*
Y28339D01*
Y28578D01*
X198428D01*
Y28818D01*
X197949D01*
Y29058D01*
X197709D01*
Y29298D01*
X197469D01*
Y29538D01*
Y29777D01*
X197229D01*
Y30017D01*
X196749D01*
Y30257D01*
X196510D01*
Y30497D01*
X196270D01*
Y30737D01*
Y30976D01*
Y31216D01*
Y31456D01*
Y31696D01*
Y31936D01*
Y32175D01*
Y32415D01*
Y32655D01*
Y32895D01*
Y33135D01*
Y33375D01*
Y33614D01*
Y33854D01*
Y34094D01*
Y34334D01*
Y34574D01*
Y34813D01*
Y35053D01*
Y35293D01*
Y35533D01*
Y35773D01*
Y36013D01*
Y36252D01*
Y36492D01*
Y36732D01*
Y36972D01*
Y37212D01*
Y37451D01*
Y37691D01*
Y37931D01*
Y38171D01*
X196510D01*
Y37931D01*
X196749D01*
Y37691D01*
X196989D01*
Y37451D01*
X197229D01*
Y37212D01*
Y36972D01*
X197469D01*
Y36732D01*
Y36492D01*
X197709D01*
Y36252D01*
Y36013D01*
X198188D01*
Y35773D01*
X198428D01*
Y35533D01*
Y35293D01*
Y35053D01*
X198668D01*
Y34813D01*
X198908D01*
Y34574D01*
X199148D01*
Y34334D01*
X199388D01*
Y34094D01*
X199148D01*
Y33854D01*
X199627D01*
Y33614D01*
X200347D01*
Y33854D01*
Y34094D01*
X200107D01*
Y34334D01*
X199867D01*
Y34574D01*
Y34813D01*
Y35053D01*
X199627D01*
Y35293D01*
X199388D01*
Y35533D01*
Y35773D01*
Y36013D01*
X198908D01*
Y36252D01*
X199148D01*
Y36492D01*
Y36732D01*
Y36972D01*
X198668D01*
Y37212D01*
Y37451D01*
X198428D01*
Y37691D01*
Y37931D01*
Y38171D01*
X197949D01*
Y38411D01*
X197709D01*
Y38651D01*
Y38890D01*
X197949D01*
Y38651D01*
D02*
G37*
G36*
X191474D02*
X191953D01*
Y38411D01*
X192193D01*
Y38171D01*
X192433D01*
Y37931D01*
Y37691D01*
X192673D01*
Y37451D01*
X193152D01*
Y37212D01*
X195790D01*
Y36972D01*
X195551D01*
Y36732D01*
Y36492D01*
Y36252D01*
X195790D01*
Y36013D01*
X194831D01*
Y35773D01*
X193632D01*
Y36013D01*
X193392D01*
Y36252D01*
X192912D01*
Y36492D01*
Y36732D01*
X192673D01*
Y36972D01*
X192433D01*
Y37212D01*
X192193D01*
Y37451D01*
X191713D01*
Y37691D01*
Y37931D01*
X191474D01*
Y38171D01*
X191234D01*
Y38411D01*
X188596D01*
Y38651D01*
X188116D01*
Y38890D01*
X191474D01*
Y38651D01*
D02*
G37*
D18*
X380000Y190000D02*
G03*
X380000Y190000I-190000J0D01*
G01*
X90000Y280000D02*
Y283999D01*
X91999Y285998D01*
X93999Y283999D01*
Y280000D01*
Y282999D01*
X90000D01*
X95998Y285998D02*
Y280000D01*
X98997D01*
X99997Y281000D01*
Y284998D01*
X98997Y285998D01*
X95998D01*
X105995Y284998D02*
X104995Y285998D01*
X102996D01*
X101996Y284998D01*
Y281000D01*
X102996Y280000D01*
X104995D01*
X105995Y281000D01*
X107994Y280000D02*
X109994D01*
X108994D01*
Y285998D01*
X107994Y284998D01*
X88500Y207500D02*
Y211499D01*
X90499Y213498D01*
X92499Y211499D01*
Y207500D01*
Y210499D01*
X88500D01*
X94498Y213498D02*
Y207500D01*
X97497D01*
X98497Y208500D01*
Y212498D01*
X97497Y213498D01*
X94498D01*
X104495Y212498D02*
X103495Y213498D01*
X101496D01*
X100496Y212498D01*
Y208500D01*
X101496Y207500D01*
X103495D01*
X104495Y208500D01*
X110493Y207500D02*
X106494D01*
X110493Y211499D01*
Y212498D01*
X109493Y213498D01*
X107494D01*
X106494Y212498D01*
X88500Y134000D02*
Y137999D01*
X90499Y139998D01*
X92499Y137999D01*
Y134000D01*
Y136999D01*
X88500D01*
X94498Y139998D02*
Y134000D01*
X97497D01*
X98497Y135000D01*
Y138998D01*
X97497Y139998D01*
X94498D01*
X104495Y138998D02*
X103495Y139998D01*
X101496D01*
X100496Y138998D01*
Y135000D01*
X101496Y134000D01*
X103495D01*
X104495Y135000D01*
X106494Y138998D02*
X107494Y139998D01*
X109493D01*
X110493Y138998D01*
Y137999D01*
X109493Y136999D01*
X108493D01*
X109493D01*
X110493Y135999D01*
Y135000D01*
X109493Y134000D01*
X107494D01*
X106494Y135000D01*
X119498Y238501D02*
X120498Y239501D01*
Y241500D01*
X119498Y242500D01*
X115500D01*
X114500Y241500D01*
Y239501D01*
X115500Y238501D01*
X114500Y236502D02*
Y234503D01*
Y235502D01*
X120498D01*
X119498Y236502D01*
X108998Y238501D02*
X109998Y239501D01*
Y241500D01*
X108998Y242500D01*
X105000D01*
X104000Y241500D01*
Y239501D01*
X105000Y238501D01*
X104000Y232503D02*
Y236502D01*
X107999Y232503D01*
X108998D01*
X109998Y233503D01*
Y235502D01*
X108998Y236502D01*
X209499Y296498D02*
X208499Y297498D01*
X206500D01*
X205500Y296498D01*
Y292500D01*
X206500Y291500D01*
X208499D01*
X209499Y292500D01*
X211498Y291500D02*
X213497D01*
X212498D01*
Y297498D01*
X211498Y296498D01*
X220495Y291500D02*
X216496D01*
X220495Y295499D01*
Y296498D01*
X219496Y297498D01*
X217496D01*
X216496Y296498D01*
X92998Y238501D02*
X93998Y239501D01*
Y241500D01*
X92998Y242500D01*
X89000D01*
X88000Y241500D01*
Y239501D01*
X89000Y238501D01*
X92998Y236502D02*
X93998Y235502D01*
Y233503D01*
X92998Y232503D01*
X91999D01*
X90999Y233503D01*
Y234503D01*
Y233503D01*
X89999Y232503D01*
X89000D01*
X88000Y233503D01*
Y235502D01*
X89000Y236502D01*
X82998Y238501D02*
X83998Y239501D01*
Y241500D01*
X82998Y242500D01*
X79000D01*
X78000Y241500D01*
Y239501D01*
X79000Y238501D01*
X78000Y233503D02*
X83998D01*
X80999Y236502D01*
Y232503D01*
X264499Y273998D02*
X263499Y274998D01*
X261500D01*
X260500Y273998D01*
Y270000D01*
X261500Y269000D01*
X263499D01*
X264499Y270000D01*
X266498Y269000D02*
X268497D01*
X267498D01*
Y274998D01*
X266498Y273998D01*
X271496D02*
X272496Y274998D01*
X274496D01*
X275495Y273998D01*
Y272999D01*
X274496Y271999D01*
X273496D01*
X274496D01*
X275495Y270999D01*
Y270000D01*
X274496Y269000D01*
X272496D01*
X271496Y270000D01*
X119498Y166001D02*
X120498Y167001D01*
Y169000D01*
X119498Y170000D01*
X115500D01*
X114500Y169000D01*
Y167001D01*
X115500Y166001D01*
X120498Y160003D02*
Y164002D01*
X117499D01*
X118499Y162003D01*
Y161003D01*
X117499Y160003D01*
X115500D01*
X114500Y161003D01*
Y163002D01*
X115500Y164002D01*
X109498Y166001D02*
X110498Y167001D01*
Y169000D01*
X109498Y170000D01*
X105500D01*
X104500Y169000D01*
Y167001D01*
X105500Y166001D01*
X110498Y160003D02*
X109498Y162003D01*
X107499Y164002D01*
X105500D01*
X104500Y163002D01*
Y161003D01*
X105500Y160003D01*
X106499D01*
X107499Y161003D01*
Y164002D01*
X93498Y166001D02*
X94498Y167001D01*
Y169000D01*
X93498Y170000D01*
X89500D01*
X88500Y169000D01*
Y167001D01*
X89500Y166001D01*
X94498Y164002D02*
Y160003D01*
X93498D01*
X89500Y164002D01*
X88500D01*
X83498Y166001D02*
X84498Y167001D01*
Y169000D01*
X83498Y170000D01*
X79500D01*
X78500Y169000D01*
Y167001D01*
X79500Y166001D01*
X83498Y164002D02*
X84498Y163002D01*
Y161003D01*
X83498Y160003D01*
X82499D01*
X81499Y161003D01*
X80499Y160003D01*
X79500D01*
X78500Y161003D01*
Y163002D01*
X79500Y164002D01*
X80499D01*
X81499Y163002D01*
X82499Y164002D01*
X83498D01*
X81499Y163002D02*
Y161003D01*
X119498Y92501D02*
X120498Y93501D01*
Y95500D01*
X119498Y96500D01*
X115500D01*
X114500Y95500D01*
Y93501D01*
X115500Y92501D01*
Y90502D02*
X114500Y89502D01*
Y87503D01*
X115500Y86503D01*
X119498D01*
X120498Y87503D01*
Y89502D01*
X119498Y90502D01*
X118499D01*
X117499Y89502D01*
Y86503D01*
X108998Y92501D02*
X109998Y93501D01*
Y95500D01*
X108998Y96500D01*
X105000D01*
X104000Y95500D01*
Y93501D01*
X105000Y92501D01*
X104000Y90502D02*
Y88503D01*
Y89502D01*
X109998D01*
X108998Y90502D01*
Y85504D02*
X109998Y84504D01*
Y82504D01*
X108998Y81505D01*
X105000D01*
X104000Y82504D01*
Y84504D01*
X105000Y85504D01*
X108998D01*
X92998Y92501D02*
X93998Y93501D01*
Y95500D01*
X92998Y96500D01*
X89000D01*
X88000Y95500D01*
Y93501D01*
X89000Y92501D01*
X88000Y90502D02*
Y88503D01*
Y89502D01*
X93998D01*
X92998Y90502D01*
X88000Y85504D02*
Y83504D01*
Y84504D01*
X93998D01*
X92998Y85504D01*
X88000Y80505D02*
X89000D01*
Y79505D01*
X88000D01*
Y80505D01*
X82998Y92501D02*
X83998Y93501D01*
Y95500D01*
X82998Y96500D01*
X79000D01*
X78000Y95500D01*
Y93501D01*
X79000Y92501D01*
X78000Y90502D02*
Y88503D01*
Y89502D01*
X83998D01*
X82998Y90502D01*
X78000Y81505D02*
Y85504D01*
X81999Y81505D01*
X82998D01*
X83998Y82504D01*
Y84504D01*
X82998Y85504D01*
X78000Y79505D02*
X79000D01*
Y78506D01*
X78000D01*
Y79505D01*
X209499Y220998D02*
X208499Y221998D01*
X206500D01*
X205500Y220998D01*
Y217000D01*
X206500Y216000D01*
X208499D01*
X209499Y217000D01*
X215497Y216000D02*
X211498D01*
X215497Y219999D01*
Y220998D01*
X214497Y221998D01*
X212498D01*
X211498Y220998D01*
X221495Y216000D02*
X217496D01*
X221495Y219999D01*
Y220998D01*
X220495Y221998D01*
X218496D01*
X217496Y220998D01*
X264499Y198998D02*
X263499Y199998D01*
X261500D01*
X260500Y198998D01*
Y195000D01*
X261500Y194000D01*
X263499D01*
X264499Y195000D01*
X270497Y194000D02*
X266498D01*
X270497Y197999D01*
Y198998D01*
X269497Y199998D01*
X267498D01*
X266498Y198998D01*
X272496D02*
X273496Y199998D01*
X275495D01*
X276495Y198998D01*
Y197999D01*
X275495Y196999D01*
X274496D01*
X275495D01*
X276495Y195999D01*
Y195000D01*
X275495Y194000D01*
X273496D01*
X272496Y195000D01*
X208499Y142398D02*
X207499Y143398D01*
X205500D01*
X204500Y142398D01*
Y138400D01*
X205500Y137400D01*
X207499D01*
X208499Y138400D01*
X210498Y142398D02*
X211498Y143398D01*
X213497D01*
X214497Y142398D01*
Y141399D01*
X213497Y140399D01*
X212497D01*
X213497D01*
X214497Y139399D01*
Y138400D01*
X213497Y137400D01*
X211498D01*
X210498Y138400D01*
X220495Y137400D02*
X216496D01*
X220495Y141399D01*
Y142398D01*
X219495Y143398D01*
X217496D01*
X216496Y142398D01*
X263999Y121998D02*
X262999Y122998D01*
X261000D01*
X260000Y121998D01*
Y118000D01*
X261000Y117000D01*
X262999D01*
X263999Y118000D01*
X265998Y121998D02*
X266998Y122998D01*
X268997D01*
X269997Y121998D01*
Y120999D01*
X268997Y119999D01*
X267997D01*
X268997D01*
X269997Y118999D01*
Y118000D01*
X268997Y117000D01*
X266998D01*
X265998Y118000D01*
X271996Y121998D02*
X272996Y122998D01*
X274995D01*
X275995Y121998D01*
Y120999D01*
X274995Y119999D01*
X273995D01*
X274995D01*
X275995Y118999D01*
Y118000D01*
X274995Y117000D01*
X272996D01*
X271996Y118000D01*
X173999Y236098D02*
X172999Y237098D01*
X171000D01*
X170000Y236098D01*
Y232100D01*
X171000Y231100D01*
X172999D01*
X173999Y232100D01*
X178997Y231100D02*
Y237098D01*
X175998Y234099D01*
X179997D01*
X181996Y236098D02*
X182996Y237098D01*
X184995D01*
X185995Y236098D01*
Y235099D01*
X184995Y234099D01*
X183995D01*
X184995D01*
X185995Y233099D01*
Y232100D01*
X184995Y231100D01*
X182996D01*
X181996Y232100D01*
X131999Y125398D02*
X130999Y126398D01*
X129000D01*
X128000Y125398D01*
Y121400D01*
X129000Y120400D01*
X130999D01*
X131999Y121400D01*
X137997Y126398D02*
X133998D01*
Y123399D01*
X135997Y124399D01*
X136997D01*
X137997Y123399D01*
Y121400D01*
X136997Y120400D01*
X134998D01*
X133998Y121400D01*
X143995Y120400D02*
X139996D01*
X143995Y124399D01*
Y125398D01*
X142995Y126398D01*
X140996D01*
X139996Y125398D01*
X173999Y87898D02*
X172999Y88898D01*
X171000D01*
X170000Y87898D01*
Y83900D01*
X171000Y82900D01*
X172999D01*
X173999Y83900D01*
X179997Y88898D02*
X175998D01*
Y85899D01*
X177997Y86899D01*
X178997D01*
X179997Y85899D01*
Y83900D01*
X178997Y82900D01*
X176998D01*
X175998Y83900D01*
X181996Y87898D02*
X182996Y88898D01*
X184995D01*
X185995Y87898D01*
Y86899D01*
X184995Y85899D01*
X183995D01*
X184995D01*
X185995Y84899D01*
Y83900D01*
X184995Y82900D01*
X182996D01*
X181996Y83900D01*
X254348Y285951D02*
Y287950D01*
X253348Y288950D01*
X249350D01*
X248350Y287950D01*
Y285951D01*
X249350Y284951D01*
X253348D01*
X254348Y285951D01*
X248350Y282952D02*
X254348D01*
Y279953D01*
X253348Y278953D01*
X251349D01*
X250349Y279953D01*
Y282952D01*
X248350Y276954D02*
Y274955D01*
Y275954D01*
X254348D01*
X253348Y276954D01*
X254848Y210951D02*
Y212950D01*
X253848Y213950D01*
X249850D01*
X248850Y212950D01*
Y210951D01*
X249850Y209951D01*
X253848D01*
X254848Y210951D01*
X248850Y207952D02*
X254848D01*
Y204953D01*
X253848Y203953D01*
X251849D01*
X250849Y204953D01*
Y207952D01*
X248850Y197955D02*
Y201954D01*
X252849Y197955D01*
X253848D01*
X254848Y198955D01*
Y200954D01*
X253848Y201954D01*
X254348Y132951D02*
Y134950D01*
X253348Y135950D01*
X249350D01*
X248350Y134950D01*
Y132951D01*
X249350Y131951D01*
X253348D01*
X254348Y132951D01*
X248350Y129952D02*
X254348D01*
Y126953D01*
X253348Y125953D01*
X251349D01*
X250349Y126953D01*
Y129952D01*
X253348Y123954D02*
X254348Y122954D01*
Y120955D01*
X253348Y119955D01*
X252349D01*
X251349Y120955D01*
Y121955D01*
Y120955D01*
X250349Y119955D01*
X249350D01*
X248350Y120955D01*
Y122954D01*
X249350Y123954D01*
X177848Y263451D02*
Y265450D01*
X176848Y266450D01*
X172850D01*
X171850Y265450D01*
Y263451D01*
X172850Y262451D01*
X176848D01*
X177848Y263451D01*
X171850Y260452D02*
X177848D01*
Y257453D01*
X176848Y256453D01*
X174849D01*
X173849Y257453D01*
Y260452D01*
X171850Y251455D02*
X177848D01*
X174849Y254454D01*
Y250455D01*
X177848Y115951D02*
Y117950D01*
X176848Y118950D01*
X172850D01*
X171850Y117950D01*
Y115951D01*
X172850Y114951D01*
X176848D01*
X177848Y115951D01*
X171850Y112952D02*
X177848D01*
Y109953D01*
X176848Y108953D01*
X174849D01*
X173849Y109953D01*
Y112952D01*
X177848Y102955D02*
Y106954D01*
X174849D01*
X175849Y104955D01*
Y103955D01*
X174849Y102955D01*
X172850D01*
X171850Y103955D01*
Y105954D01*
X172850Y106954D01*
X193400Y276300D02*
X199398D01*
Y273301D01*
X198398Y272301D01*
X196399D01*
X195399Y273301D01*
Y276300D01*
Y274301D02*
X193400Y272301D01*
Y270302D02*
Y268303D01*
Y269302D01*
X199398D01*
X198398Y270302D01*
X193400Y261305D02*
Y265304D01*
X197399Y261305D01*
X198398D01*
X199398Y262304D01*
Y264304D01*
X198398Y265304D01*
X241000Y251500D02*
Y257498D01*
X243999D01*
X244999Y256498D01*
Y254499D01*
X243999Y253499D01*
X241000D01*
X242999D02*
X244999Y251500D01*
X246998D02*
X248997D01*
X247998D01*
Y257498D01*
X246998Y256498D01*
X251996D02*
X252996Y257498D01*
X254995D01*
X255995Y256498D01*
Y255499D01*
X254995Y254499D01*
X253996D01*
X254995D01*
X255995Y253499D01*
Y252500D01*
X254995Y251500D01*
X252996D01*
X251996Y252500D01*
X241000Y243000D02*
Y248998D01*
X243999D01*
X244999Y247998D01*
Y245999D01*
X243999Y244999D01*
X241000D01*
X242999D02*
X244999Y243000D01*
X246998D02*
X248997D01*
X247998D01*
Y248998D01*
X246998Y247998D01*
X255995Y248998D02*
X251996D01*
Y245999D01*
X253996Y246999D01*
X254995D01*
X255995Y245999D01*
Y244000D01*
X254995Y243000D01*
X252996D01*
X251996Y244000D01*
X213500Y235000D02*
Y240998D01*
X216499D01*
X217499Y239998D01*
Y237999D01*
X216499Y236999D01*
X213500D01*
X215499D02*
X217499Y235000D01*
X219498D02*
X221497D01*
X220498D01*
Y240998D01*
X219498Y239998D01*
X224496Y240998D02*
X228495D01*
Y239998D01*
X224496Y236000D01*
Y235000D01*
X193500Y202000D02*
X199498D01*
Y199001D01*
X198498Y198001D01*
X196499D01*
X195499Y199001D01*
Y202000D01*
Y200001D02*
X193500Y198001D01*
Y192003D02*
Y196002D01*
X197499Y192003D01*
X198498D01*
X199498Y193003D01*
Y195002D01*
X198498Y196002D01*
X193500Y186005D02*
Y190004D01*
X197499Y186005D01*
X198498D01*
X199498Y187005D01*
Y189004D01*
X198498Y190004D01*
X242500Y177000D02*
Y182998D01*
X245499D01*
X246499Y181998D01*
Y179999D01*
X245499Y178999D01*
X242500D01*
X244499D02*
X246499Y177000D01*
X252497D02*
X248498D01*
X252497Y180999D01*
Y181998D01*
X251497Y182998D01*
X249498D01*
X248498Y181998D01*
X254496D02*
X255496Y182998D01*
X257495D01*
X258495Y181998D01*
Y180999D01*
X257495Y179999D01*
X256495D01*
X257495D01*
X258495Y178999D01*
Y178000D01*
X257495Y177000D01*
X255496D01*
X254496Y178000D01*
X242500Y168000D02*
Y173998D01*
X245499D01*
X246499Y172998D01*
Y170999D01*
X245499Y169999D01*
X242500D01*
X244499D02*
X246499Y168000D01*
X252497D02*
X248498D01*
X252497Y171999D01*
Y172998D01*
X251497Y173998D01*
X249498D01*
X248498Y172998D01*
X258495Y173998D02*
X254496D01*
Y170999D01*
X256495Y171999D01*
X257495D01*
X258495Y170999D01*
Y169000D01*
X257495Y168000D01*
X255496D01*
X254496Y169000D01*
X213000Y160000D02*
Y165998D01*
X215999D01*
X216999Y164998D01*
Y162999D01*
X215999Y161999D01*
X213000D01*
X214999D02*
X216999Y160000D01*
X222997D02*
X218998D01*
X222997Y163999D01*
Y164998D01*
X221997Y165998D01*
X219998D01*
X218998Y164998D01*
X224996Y165998D02*
X228995D01*
Y164998D01*
X224996Y161000D01*
Y160000D01*
X193600Y123500D02*
X199598D01*
Y120501D01*
X198598Y119501D01*
X196599D01*
X195599Y120501D01*
Y123500D01*
Y121501D02*
X193600Y119501D01*
X198598Y117502D02*
X199598Y116502D01*
Y114503D01*
X198598Y113503D01*
X197599D01*
X196599Y114503D01*
Y115503D01*
Y114503D01*
X195599Y113503D01*
X194600D01*
X193600Y114503D01*
Y116502D01*
X194600Y117502D01*
X193600Y107505D02*
Y111504D01*
X197599Y107505D01*
X198598D01*
X199598Y108505D01*
Y110504D01*
X198598Y111504D01*
X212700Y81700D02*
Y87698D01*
X215699D01*
X216699Y86698D01*
Y84699D01*
X215699Y83699D01*
X212700D01*
X214699D02*
X216699Y81700D01*
X218698Y86698D02*
X219698Y87698D01*
X221697D01*
X222697Y86698D01*
Y85699D01*
X221697Y84699D01*
X220697D01*
X221697D01*
X222697Y83699D01*
Y82700D01*
X221697Y81700D01*
X219698D01*
X218698Y82700D01*
X224696Y87698D02*
X228695D01*
Y86698D01*
X224696Y82700D01*
Y81700D01*
X23002Y174999D02*
X22002Y173999D01*
Y172000D01*
X23002Y171000D01*
X27000D01*
X28000Y172000D01*
Y173999D01*
X27000Y174999D01*
X22002Y176998D02*
X28000D01*
X25001D01*
X24001Y177998D01*
Y179997D01*
X25001Y180997D01*
X28000D01*
Y185995D02*
Y183996D01*
X27000Y182996D01*
X25001D01*
X24001Y183996D01*
Y185995D01*
X25001Y186995D01*
X26001D01*
Y182996D01*
X28000Y191993D02*
Y189994D01*
X27000Y188994D01*
X25001D01*
X24001Y189994D01*
Y191993D01*
X25001Y192993D01*
X26001D01*
Y188994D01*
X23002Y195992D02*
X24001D01*
Y194992D01*
Y196992D01*
Y195992D01*
X27000D01*
X28000Y196992D01*
X24001Y200990D02*
Y202990D01*
X25001Y203989D01*
X28000D01*
Y200990D01*
X27000Y199991D01*
X26001Y200990D01*
Y203989D01*
X22002Y205989D02*
X28000D01*
X25001D01*
X24001Y206988D01*
Y208988D01*
X25001Y209987D01*
X28000D01*
D27*
X100191Y266721D02*
G03*
X98911Y266721I-640J0D01*
G01*
X100191Y194720D02*
G03*
X98911Y194720I-640J0D01*
G01*
X100191Y120721D02*
G03*
X98911Y120721I-640J0D01*
G01*
X100191Y266721D02*
X103705D01*
X95398D02*
X98911D01*
X95398D02*
Y276957D01*
X103705D01*
Y266721D02*
Y276957D01*
X100191Y194720D02*
X103705D01*
X95398D02*
X98911D01*
X95398D02*
Y204957D01*
X103705D01*
Y194720D02*
Y204957D01*
X100191Y120721D02*
X103705D01*
X95398D02*
X98911D01*
X95398D02*
Y130957D01*
X103705D01*
Y120721D02*
Y130957D01*
X223657Y278543D02*
X243342D01*
X223657Y271457D02*
X243342D01*
Y278543D01*
X223657Y271457D02*
Y278543D01*
X224158Y203543D02*
X243843D01*
X224158Y196457D02*
X243843D01*
Y203543D01*
X224158Y196457D02*
Y203543D01*
X223657Y125543D02*
X243342D01*
X223657Y118457D02*
X243342D01*
Y125543D01*
X223657Y118457D02*
Y125543D01*
X147158Y256043D02*
X166842D01*
X147158Y248957D02*
X166842D01*
Y256043D01*
X147158Y248957D02*
Y256043D01*
Y108543D02*
X166842D01*
X147158Y101457D02*
X166842D01*
Y108543D01*
X147158Y101457D02*
Y108543D01*
D28*
X244839Y284449D02*
G03*
X244839Y284449I-492J0D01*
G01*
X245339Y209449D02*
G03*
X245339Y209449I-492J0D01*
G01*
X244839Y131449D02*
G03*
X244839Y131449I-492J0D01*
G01*
X168339Y261949D02*
G03*
X168339Y261949I-492J0D01*
G01*
Y114449D02*
G03*
X168339Y114449I-492J0D01*
G01*
D29*
X240587Y274606D02*
G03*
X240587Y274606I-1181J0D01*
G01*
X241087Y199606D02*
G03*
X241087Y199606I-1181J0D01*
G01*
X240587Y121606D02*
G03*
X240587Y121606I-1181J0D01*
G01*
X164087Y252106D02*
G03*
X164087Y252106I-1181J0D01*
G01*
Y104606D02*
G03*
X164087Y104606I-1181J0D01*
G01*
D30*
X39500Y215500D02*
X59500D01*
Y165500D02*
Y215500D01*
X39500Y165500D02*
X59500D01*
X39500D02*
Y215500D01*
X145335Y302832D02*
X144502Y301999D01*
Y300333D01*
X145335Y299500D01*
X148667D01*
X149500Y300333D01*
Y301999D01*
X148667Y302832D01*
X149500Y304498D02*
Y306165D01*
Y305331D01*
X144502D01*
X145335Y304498D01*
X149500Y308664D02*
Y310330D01*
Y309497D01*
X144502D01*
X145335Y308664D01*
X146835Y187832D02*
X146002Y186999D01*
Y185333D01*
X146835Y184500D01*
X150167D01*
X151000Y185333D01*
Y186999D01*
X150167Y187832D01*
X151000Y192831D02*
Y189498D01*
X147668Y192831D01*
X146835D01*
X146002Y191998D01*
Y190331D01*
X146835Y189498D01*
X151000Y194497D02*
Y196163D01*
Y195330D01*
X146002D01*
X146835Y194497D01*
X147335Y162332D02*
X146502Y161499D01*
Y159833D01*
X147335Y159000D01*
X150667D01*
X151500Y159833D01*
Y161499D01*
X150667Y162332D01*
X147335Y163998D02*
X146502Y164831D01*
Y166498D01*
X147335Y167331D01*
X148168D01*
X149001Y166498D01*
Y165665D01*
Y166498D01*
X149834Y167331D01*
X150667D01*
X151500Y166498D01*
Y164831D01*
X150667Y163998D01*
X151500Y168997D02*
Y170663D01*
Y169830D01*
X146502D01*
X147335Y168997D01*
X134332Y272165D02*
X133499Y272998D01*
X131833D01*
X131000Y272165D01*
Y268833D01*
X131833Y268000D01*
X133499D01*
X134332Y268833D01*
X138498Y268000D02*
Y272998D01*
X135998Y270499D01*
X139331D01*
X144329Y268000D02*
X140997D01*
X144329Y271332D01*
Y272165D01*
X143496Y272998D01*
X141830D01*
X140997Y272165D01*
X135335Y302832D02*
X134502Y301999D01*
Y300333D01*
X135335Y299500D01*
X138667D01*
X139500Y300333D01*
Y301999D01*
X138667Y302832D01*
X134502Y304498D02*
X139500D01*
Y307831D01*
Y309497D02*
Y311163D01*
Y310330D01*
X134502D01*
X135335Y309497D01*
X136335Y185832D02*
X135502Y184999D01*
Y183333D01*
X136335Y182500D01*
X139667D01*
X140500Y183333D01*
Y184999D01*
X139667Y185832D01*
X135502Y187498D02*
X140500D01*
Y190831D01*
Y195829D02*
Y192497D01*
X137168Y195829D01*
X136335D01*
X135502Y194996D01*
Y193330D01*
X136335Y192497D01*
Y162332D02*
X135502Y161499D01*
Y159833D01*
X136335Y159000D01*
X139667D01*
X140500Y159833D01*
Y161499D01*
X139667Y162332D01*
X135502Y163998D02*
X140500D01*
Y167331D01*
X136335Y168997D02*
X135502Y169830D01*
Y171496D01*
X136335Y172329D01*
X137168D01*
X138001Y171496D01*
Y170663D01*
Y171496D01*
X138834Y172329D01*
X139667D01*
X140500Y171496D01*
Y169830D01*
X139667Y168997D01*
X175500Y299500D02*
X170502D01*
Y301999D01*
X171335Y302832D01*
X173001D01*
X173834Y301999D01*
Y299500D01*
Y301166D02*
X175500Y302832D01*
Y304498D02*
Y306165D01*
Y305331D01*
X170502D01*
X171335Y304498D01*
X175500Y308664D02*
Y310330D01*
Y309497D01*
X170502D01*
X171335Y308664D01*
X167500Y299500D02*
X162502D01*
Y301999D01*
X163335Y302832D01*
X165001D01*
X165834Y301999D01*
Y299500D01*
Y301166D02*
X167500Y302832D01*
Y304498D02*
Y306165D01*
Y305331D01*
X162502D01*
X163335Y304498D01*
X167500Y311163D02*
X162502D01*
X165001Y308664D01*
Y311996D01*
X159500Y299500D02*
X154502D01*
Y301999D01*
X155335Y302832D01*
X157001D01*
X157834Y301999D01*
Y299500D01*
Y301166D02*
X159500Y302832D01*
Y304498D02*
Y306165D01*
Y305331D01*
X154502D01*
X155335Y304498D01*
X154502Y311996D02*
X155335Y310330D01*
X157001Y308664D01*
X158667D01*
X159500Y309497D01*
Y311163D01*
X158667Y311996D01*
X157834D01*
X157001Y311163D01*
Y308664D01*
X177000Y184500D02*
X172002D01*
Y186999D01*
X172835Y187832D01*
X174501D01*
X175334Y186999D01*
Y184500D01*
Y186166D02*
X177000Y187832D01*
Y192831D02*
Y189498D01*
X173668Y192831D01*
X172835D01*
X172002Y191998D01*
Y190331D01*
X172835Y189498D01*
X177000Y194497D02*
Y196163D01*
Y195330D01*
X172002D01*
X172835Y194497D01*
X169000Y183000D02*
X164002D01*
Y185499D01*
X164835Y186332D01*
X166501D01*
X167334Y185499D01*
Y183000D01*
Y184666D02*
X169000Y186332D01*
Y191331D02*
Y187998D01*
X165668Y191331D01*
X164835D01*
X164002Y190498D01*
Y188831D01*
X164835Y187998D01*
X169000Y195496D02*
X164002D01*
X166501Y192997D01*
Y196329D01*
X160500Y183000D02*
X155502D01*
Y185499D01*
X156335Y186332D01*
X158001D01*
X158834Y185499D01*
Y183000D01*
Y184666D02*
X160500Y186332D01*
Y191331D02*
Y187998D01*
X157168Y191331D01*
X156335D01*
X155502Y190498D01*
Y188831D01*
X156335Y187998D01*
X155502Y196329D02*
X156335Y194663D01*
X158001Y192997D01*
X159667D01*
X160500Y193830D01*
Y195496D01*
X159667Y196329D01*
X158834D01*
X158001Y195496D01*
Y192997D01*
X177000Y159000D02*
X172002D01*
Y161499D01*
X172835Y162332D01*
X174501D01*
X175334Y161499D01*
Y159000D01*
Y160666D02*
X177000Y162332D01*
X172835Y163998D02*
X172002Y164831D01*
Y166498D01*
X172835Y167331D01*
X173668D01*
X174501Y166498D01*
Y165665D01*
Y166498D01*
X175334Y167331D01*
X176167D01*
X177000Y166498D01*
Y164831D01*
X176167Y163998D01*
X177000Y168997D02*
Y170663D01*
Y169830D01*
X172002D01*
X172835Y168997D01*
X241500Y98500D02*
Y103498D01*
X243999D01*
X244832Y102665D01*
Y100999D01*
X243999Y100166D01*
X241500D01*
X243166D02*
X244832Y98500D01*
X246498Y102665D02*
X247331Y103498D01*
X248998D01*
X249831Y102665D01*
Y101832D01*
X248998Y100999D01*
X248165D01*
X248998D01*
X249831Y100166D01*
Y99333D01*
X248998Y98500D01*
X247331D01*
X246498Y99333D01*
X251497Y102665D02*
X252330Y103498D01*
X253996D01*
X254829Y102665D01*
Y101832D01*
X253996Y100999D01*
X253163D01*
X253996D01*
X254829Y100166D01*
Y99333D01*
X253996Y98500D01*
X252330D01*
X251497Y99333D01*
X169000Y159000D02*
X164002D01*
Y161499D01*
X164835Y162332D01*
X166501D01*
X167334Y161499D01*
Y159000D01*
Y160666D02*
X169000Y162332D01*
X164835Y163998D02*
X164002Y164831D01*
Y166498D01*
X164835Y167331D01*
X165668D01*
X166501Y166498D01*
Y165665D01*
Y166498D01*
X167334Y167331D01*
X168167D01*
X169000Y166498D01*
Y164831D01*
X168167Y163998D01*
X169000Y171496D02*
X164002D01*
X166501Y168997D01*
Y172329D01*
X241500Y90500D02*
Y95498D01*
X243999D01*
X244832Y94665D01*
Y92999D01*
X243999Y92166D01*
X241500D01*
X243166D02*
X244832Y90500D01*
X246498Y94665D02*
X247331Y95498D01*
X248998D01*
X249831Y94665D01*
Y93832D01*
X248998Y92999D01*
X248165D01*
X248998D01*
X249831Y92166D01*
Y91333D01*
X248998Y90500D01*
X247331D01*
X246498Y91333D01*
X254829Y95498D02*
X251497D01*
Y92999D01*
X253163Y93832D01*
X253996D01*
X254829Y92999D01*
Y91333D01*
X253996Y90500D01*
X252330D01*
X251497Y91333D01*
X160500Y159000D02*
X155502D01*
Y161499D01*
X156335Y162332D01*
X158001D01*
X158834Y161499D01*
Y159000D01*
Y160666D02*
X160500Y162332D01*
X156335Y163998D02*
X155502Y164831D01*
Y166498D01*
X156335Y167331D01*
X157168D01*
X158001Y166498D01*
Y165665D01*
Y166498D01*
X158834Y167331D01*
X159667D01*
X160500Y166498D01*
Y164831D01*
X159667Y163998D01*
X155502Y172329D02*
X156335Y170663D01*
X158001Y168997D01*
X159667D01*
X160500Y169830D01*
Y171496D01*
X159667Y172329D01*
X158834D01*
X158001Y171496D01*
Y168997D01*
X37000Y216000D02*
X32002D01*
Y218499D01*
X32835Y219332D01*
X34501D01*
X35334Y218499D01*
Y216000D01*
Y217666D02*
X37000Y219332D01*
X32835Y224331D02*
X32002Y223498D01*
Y221831D01*
X32835Y220998D01*
X33668D01*
X34501Y221831D01*
Y223498D01*
X35334Y224331D01*
X36167D01*
X37000Y223498D01*
Y221831D01*
X36167Y220998D01*
X37000Y225997D02*
Y227663D01*
Y226830D01*
X32002D01*
X32835Y225997D01*
X37000Y151000D02*
X32002D01*
Y153499D01*
X32835Y154332D01*
X34501D01*
X35334Y153499D01*
Y151000D01*
Y152666D02*
X37000Y154332D01*
X32835Y159331D02*
X32002Y158498D01*
Y156831D01*
X32835Y155998D01*
X33668D01*
X34501Y156831D01*
Y158498D01*
X35334Y159331D01*
X36167D01*
X37000Y158498D01*
Y156831D01*
X36167Y155998D01*
X37000Y164329D02*
Y160997D01*
X33668Y164329D01*
X32835D01*
X32002Y163496D01*
Y161830D01*
X32835Y160997D01*
X46000Y161500D02*
Y163166D01*
Y162333D01*
X41002D01*
X41835Y161500D01*
X57000Y163332D02*
Y160000D01*
X53668Y163332D01*
X52835D01*
X52002Y162499D01*
Y160833D01*
X52835Y160000D01*
X46167Y218000D02*
X47000Y218833D01*
Y220499D01*
X46167Y221332D01*
X42835D01*
X42002Y220499D01*
Y218833D01*
X42835Y218000D01*
X43668D01*
X44501Y218833D01*
Y221332D01*
X57000Y218000D02*
Y219666D01*
Y218833D01*
X52002D01*
X52835Y218000D01*
Y222165D02*
X52002Y222998D01*
Y224664D01*
X52835Y225498D01*
X56167D01*
X57000Y224664D01*
Y222998D01*
X56167Y222165D01*
X52835D01*
D31*
X136000Y339497D02*
Y331166D01*
X137666Y329500D01*
X140998D01*
X142665Y331166D01*
Y339497D01*
X152661Y337831D02*
X150995Y339497D01*
X147663D01*
X145997Y337831D01*
Y336164D01*
X147663Y334498D01*
X150995D01*
X152661Y332832D01*
Y331166D01*
X150995Y329500D01*
X147663D01*
X145997Y331166D01*
X162658Y337831D02*
X160992Y339497D01*
X157660D01*
X155993Y337831D01*
Y331166D01*
X157660Y329500D01*
X160992D01*
X162658Y331166D01*
X175987Y329500D02*
Y339497D01*
X180985D01*
X182652Y337831D01*
Y334498D01*
X180985Y332832D01*
X175987D01*
X179319D02*
X182652Y329500D01*
X187650D02*
X190982D01*
X192648Y331166D01*
Y334498D01*
X190982Y336164D01*
X187650D01*
X185984Y334498D01*
Y331166D01*
X187650Y329500D01*
X195981Y339497D02*
Y329500D01*
X200979D01*
X202645Y331166D01*
Y332832D01*
Y334498D01*
X200979Y336164D01*
X195981D01*
X207644Y329500D02*
X210976D01*
X212642Y331166D01*
Y334498D01*
X210976Y336164D01*
X207644D01*
X205977Y334498D01*
Y331166D01*
X207644Y329500D01*
X217640Y337831D02*
Y336164D01*
X215974D01*
X219306D01*
X217640D01*
Y331166D01*
X219306Y329500D01*
X224305D02*
X227637D01*
X225971D01*
Y336164D01*
X224305D01*
X239300D02*
X234302D01*
X232635Y334498D01*
Y331166D01*
X234302Y329500D01*
X239300D01*
X242632D02*
X247631D01*
X249297Y331166D01*
X247631Y332832D01*
X244298D01*
X242632Y334498D01*
X244298Y336164D01*
X249297D01*
X174664Y55331D02*
X172998Y56997D01*
X169666D01*
X168000Y55331D01*
Y53664D01*
X169666Y51998D01*
X172998D01*
X174664Y50332D01*
Y48666D01*
X172998Y47000D01*
X169666D01*
X168000Y48666D01*
X182995Y56997D02*
X179663D01*
X177997Y55331D01*
Y48666D01*
X179663Y47000D01*
X182995D01*
X184661Y48666D01*
Y55331D01*
X182995Y56997D01*
X187994Y47000D02*
Y56997D01*
X194658Y47000D01*
Y56997D01*
X197990Y47000D02*
Y53664D01*
X201323Y56997D01*
X204655Y53664D01*
Y47000D01*
Y51998D01*
X197990D01*
X207987Y47000D02*
Y56997D01*
X212985D01*
X214652Y55331D01*
Y51998D01*
X212985Y50332D01*
X207987D01*
X211319D02*
X214652Y47000D01*
M02*
