%FSLAX25Y25*%
%MOIN*%
G70*
G01*
G75*
G04 Layer_Color=128*
%ADD10R,0.12992X0.05118*%
%ADD11R,0.12992X0.01969*%
%ADD12R,0.01969X0.01575*%
%ADD13R,0.03543X0.04331*%
%ADD14R,0.04331X0.03543*%
%ADD15C,0.01000*%
%ADD16R,0.03937X0.03543*%
%ADD17R,0.01614X0.04016*%
%ADD18R,0.04921X0.05512*%
%ADD19R,0.04724X0.05512*%
%ADD20R,0.05512X0.04724*%
%ADD21O,0.08661X0.02362*%
%ADD22R,0.03543X0.03937*%
%ADD23R,0.04016X0.01614*%
%ADD24R,0.05512X0.04724*%
%ADD25R,0.05512X0.04921*%
%ADD26O,0.02362X0.08661*%
%ADD27R,0.05906X0.05906*%
%ADD28C,0.05906*%
%ADD29R,0.05906X0.05906*%
%ADD30C,0.05000*%
%ADD31C,0.14950*%
%ADD32C,0.10000*%
%ADD33C,0.06000*%
%ADD34C,0.10787*%
%ADD35R,0.04724X0.04724*%
%ADD36R,0.10000X0.05984*%
%ADD37R,0.05984X0.10000*%
%ADD38R,0.04724X0.04724*%
%ADD39C,0.00787*%
%ADD40C,0.00800*%
%ADD41C,0.00700*%
%ADD42C,0.00984*%
%ADD43C,0.02362*%
%ADD44C,0.02000*%
%ADD45C,0.01500*%
%ADD46C,0.01200*%
D13*
X662500Y239177D02*
D03*
Y231303D02*
D03*
X704500D02*
D03*
Y239177D02*
D03*
X654500Y231303D02*
D03*
Y239177D02*
D03*
X662500Y351677D02*
D03*
Y343803D02*
D03*
X704500D02*
D03*
Y351677D02*
D03*
X654500Y343803D02*
D03*
Y351677D02*
D03*
D14*
X209403Y177000D02*
D03*
X217277D02*
D03*
X939403D02*
D03*
X947277D02*
D03*
X662500Y247500D02*
D03*
X654626D02*
D03*
X654500Y255500D02*
D03*
X662374D02*
D03*
X662500Y360000D02*
D03*
X654626D02*
D03*
X654500Y368000D02*
D03*
X662374D02*
D03*
D35*
X209600Y187100D02*
D03*
X217080D02*
D03*
X939600D02*
D03*
X947080D02*
D03*
D36*
X213600Y197100D02*
D03*
Y210604D02*
D03*
X943600Y197100D02*
D03*
Y210604D02*
D03*
D37*
X261500Y207000D02*
D03*
X275004D02*
D03*
X261500Y190000D02*
D03*
X275004D02*
D03*
X991500Y207000D02*
D03*
X1005004D02*
D03*
X991500Y190000D02*
D03*
X1005004D02*
D03*
D38*
X684500Y231500D02*
D03*
Y238980D02*
D03*
X674500D02*
D03*
Y231500D02*
D03*
X694500Y238980D02*
D03*
Y231500D02*
D03*
X684500Y344000D02*
D03*
Y351480D02*
D03*
X674500D02*
D03*
Y344000D02*
D03*
X694500Y351480D02*
D03*
Y344000D02*
D03*
M02*
