%FSLAX25Y25*%
%MOIN*%
G70*
G01*
G75*
G04 Layer_Color=65535*
%ADD10R,0.12992X0.05118*%
%ADD11R,0.12992X0.01969*%
%ADD12R,0.01969X0.01575*%
%ADD13R,0.03543X0.04331*%
%ADD14R,0.04331X0.03543*%
%ADD15C,0.01000*%
%ADD16R,0.03937X0.03543*%
%ADD17R,0.01614X0.04016*%
%ADD18R,0.04921X0.05512*%
%ADD19R,0.04724X0.05512*%
%ADD20R,0.05512X0.04724*%
%ADD21O,0.08661X0.02362*%
%ADD22R,0.03543X0.03937*%
%ADD23R,0.04016X0.01614*%
%ADD24R,0.05512X0.04724*%
%ADD25R,0.05512X0.04921*%
%ADD26O,0.02362X0.08661*%
%ADD27R,0.05906X0.05906*%
%ADD28C,0.05906*%
%ADD29R,0.05906X0.05906*%
%ADD30C,0.05000*%
%ADD31C,0.14950*%
%ADD32C,0.10000*%
%ADD33C,0.06000*%
%ADD34C,0.10787*%
%ADD35R,0.04724X0.04724*%
%ADD36R,0.10000X0.05984*%
%ADD37R,0.05984X0.10000*%
%ADD38R,0.04724X0.04724*%
%ADD39C,0.00787*%
%ADD40C,0.00800*%
%ADD41C,0.00700*%
%ADD42C,0.00984*%
%ADD43C,0.02362*%
%ADD44C,0.02000*%
%ADD45C,0.01500*%
G36*
X557025Y75981D02*
Y76365D01*
X557408D01*
X557792D01*
Y76748D01*
X558175D01*
Y77898D01*
X558558D01*
Y77515D01*
X558942D01*
Y78665D01*
X559325D01*
X559708D01*
Y79431D01*
X560091D01*
Y79814D01*
X560475D01*
Y85947D01*
X560858D01*
Y85564D01*
X561241D01*
Y85181D01*
X561625D01*
Y84797D01*
X562008D01*
Y78281D01*
X561625D01*
Y77898D01*
X561241D01*
Y77515D01*
X560858D01*
Y77131D01*
X560475D01*
Y76748D01*
X560091D01*
Y76365D01*
X559708D01*
Y75981D01*
X559325D01*
Y75598D01*
X558942D01*
Y75215D01*
X558558D01*
Y74832D01*
X558175D01*
Y74448D01*
X557792D01*
Y74065D01*
X557408D01*
Y69466D01*
X557792D01*
Y69082D01*
X557408D01*
X557025D01*
Y69466D01*
X556642D01*
Y75981D01*
X557025D01*
D02*
G37*
G36*
X556642Y79814D02*
Y81731D01*
X557025D01*
Y83264D01*
X557408D01*
Y83648D01*
X557792D01*
Y83264D01*
X557408D01*
Y82498D01*
X557792D01*
Y81731D01*
X558175D01*
Y80964D01*
X557792D01*
X557408D01*
Y80581D01*
X557025D01*
Y79431D01*
X556642D01*
Y79048D01*
X556258D01*
Y79814D01*
X556642D01*
D02*
G37*
G36*
X555492Y78665D02*
X555875D01*
Y78281D01*
X555492D01*
X555108D01*
Y78665D01*
X555492D01*
D02*
G37*
G36*
X561241Y73299D02*
Y73682D01*
X561625D01*
Y74065D01*
X562008D01*
Y74448D01*
X562391D01*
Y68316D01*
X562008D01*
X561625D01*
Y67932D01*
X561241D01*
Y67549D01*
X560858D01*
Y73299D01*
X561241D01*
D02*
G37*
G36*
X568524Y77131D02*
X568907D01*
X569290D01*
X569674D01*
Y76748D01*
X570057D01*
X570440D01*
X570824D01*
Y76365D01*
X570440D01*
X570057D01*
X569674D01*
Y75981D01*
X569290D01*
X568907D01*
X568524D01*
X568141D01*
Y77131D01*
X568524D01*
D02*
G37*
G36*
X543993Y66399D02*
X544376D01*
X544759D01*
Y66016D01*
X545143D01*
Y65249D01*
X545526D01*
X545909D01*
X546293D01*
Y64866D01*
X546676D01*
X547059D01*
Y64099D01*
X547442D01*
Y64483D01*
X547826D01*
X548209D01*
Y63716D01*
X548592D01*
X548976D01*
Y63333D01*
X549359D01*
X549742D01*
X550126D01*
X550509D01*
Y62949D01*
X550892D01*
X551275D01*
X551659D01*
Y63716D01*
X551275D01*
X550892D01*
Y64483D01*
X550509D01*
X550126D01*
Y64866D01*
X549742D01*
Y65249D01*
X549359D01*
X548976D01*
Y66016D01*
X548592D01*
Y65632D01*
X548209D01*
Y66016D01*
X547826D01*
Y66782D01*
X547442D01*
X547059D01*
X546676D01*
Y67166D01*
X546293D01*
Y67932D01*
X545909D01*
Y67549D01*
X545526D01*
X545143D01*
Y68316D01*
X544759D01*
Y68699D01*
X545143D01*
X545526D01*
X545909D01*
X546293D01*
X546676D01*
Y69082D01*
X547059D01*
X547442D01*
X547826D01*
X548209D01*
X548592D01*
X548976D01*
Y68699D01*
X549359D01*
X549742D01*
X550126D01*
Y69082D01*
X550509D01*
Y68699D01*
X550892D01*
X551275D01*
X551659D01*
Y69082D01*
X552042D01*
X552425D01*
X552809D01*
X553192D01*
Y68699D01*
X553575D01*
X553959D01*
X554342D01*
Y69082D01*
X554725D01*
X555108D01*
X555492D01*
Y68699D01*
X555875D01*
X556258D01*
X556642D01*
Y68316D01*
X557025D01*
Y67932D01*
X557408D01*
Y67549D01*
X557792D01*
Y67166D01*
X558175D01*
Y66782D01*
X558558D01*
Y66399D01*
X558942D01*
Y66016D01*
X559325D01*
Y65632D01*
X559708D01*
Y65249D01*
X560091D01*
Y64866D01*
X560475D01*
Y64483D01*
X560858D01*
Y64099D01*
X561241D01*
Y63716D01*
X561625D01*
Y63333D01*
X562008D01*
Y62949D01*
X562391D01*
Y62566D01*
X562775D01*
Y62183D01*
X563158D01*
Y61800D01*
X563541D01*
Y61416D01*
X563924D01*
Y61033D01*
X564308D01*
Y60650D01*
X564691D01*
Y60266D01*
X565074D01*
Y59500D01*
X565457D01*
X565841D01*
Y59116D01*
X566224D01*
Y58733D01*
X566607D01*
Y58350D01*
X566991D01*
Y57583D01*
X567374D01*
X567757D01*
Y57200D01*
X568141D01*
Y56817D01*
X567757D01*
X567374D01*
X566991D01*
Y56050D01*
X566607D01*
Y56433D01*
X566224D01*
X565841D01*
X565457D01*
X565074D01*
X564691D01*
X564308D01*
X563924D01*
Y55667D01*
X563541D01*
X563158D01*
X562775D01*
X562391D01*
X562008D01*
X561625D01*
X561241D01*
X560858D01*
X560475D01*
X560091D01*
Y55283D01*
X559708D01*
X559325D01*
X558942D01*
X558558D01*
X558175D01*
X557792D01*
X557408D01*
X557025D01*
Y55667D01*
X556642D01*
X556258D01*
Y56433D01*
X555875D01*
Y56050D01*
X555492D01*
Y56433D01*
X555108D01*
Y56817D01*
X554725D01*
X554342D01*
Y57200D01*
X553959D01*
X553575D01*
Y57583D01*
X553192D01*
X552809D01*
X552425D01*
Y58350D01*
X552042D01*
Y57967D01*
X551659D01*
Y58733D01*
X551275D01*
X550892D01*
X550509D01*
Y59116D01*
X550126D01*
X549742D01*
Y59500D01*
X549359D01*
X548976D01*
X548592D01*
Y60266D01*
X548209D01*
Y59883D01*
X547826D01*
Y60266D01*
X547442D01*
Y60650D01*
X547059D01*
Y61033D01*
X546676D01*
Y61800D01*
X546293D01*
Y62183D01*
X545909D01*
Y63333D01*
X545526D01*
X545143D01*
Y63716D01*
X544759D01*
Y64866D01*
X544376D01*
Y65249D01*
X543993D01*
Y66016D01*
X543610D01*
Y66399D01*
X543993D01*
D02*
G37*
G36*
X564308Y83648D02*
X564691D01*
Y69849D01*
X564308D01*
Y69466D01*
X563924D01*
Y83648D01*
X564308D01*
D02*
G37*
G36*
X552425Y74832D02*
Y75598D01*
X552809D01*
Y75981D01*
X553192D01*
X553575D01*
Y76365D01*
X553959D01*
Y76748D01*
X554342D01*
Y77515D01*
X554725D01*
Y77898D01*
X555108D01*
Y77515D01*
X554725D01*
Y70232D01*
X554342D01*
X553959D01*
X553575D01*
X553192D01*
X552809D01*
X552425D01*
Y71382D01*
X552042D01*
Y74832D01*
X552425D01*
D02*
G37*
G36*
X541693Y82881D02*
X542076D01*
X542460D01*
X542843D01*
Y79814D01*
X542460D01*
Y79048D01*
X542076D01*
X541693D01*
Y78665D01*
X541310D01*
Y82881D01*
X541693D01*
D02*
G37*
G36*
X538627Y81348D02*
Y81731D01*
X539010D01*
Y81348D01*
X539393D01*
Y82114D01*
X539777D01*
Y70999D01*
X539393D01*
Y71382D01*
X539010D01*
X538627D01*
Y72149D01*
X539010D01*
X539393D01*
Y80581D01*
X539010D01*
X538627D01*
X538243D01*
Y81348D01*
X538627D01*
D02*
G37*
G36*
X537860Y72532D02*
X538243D01*
X538627D01*
Y72149D01*
X538243D01*
X537860D01*
X537477D01*
Y72532D01*
X537860D01*
D02*
G37*
G36*
X543226Y76365D02*
Y76748D01*
X543610D01*
X543993D01*
Y77515D01*
X544376D01*
Y77898D01*
X544759D01*
Y78281D01*
X545143D01*
Y78665D01*
X545526D01*
Y79048D01*
X545909D01*
Y82881D01*
X546293D01*
X546676D01*
X547059D01*
X547442D01*
Y81731D01*
X547826D01*
X548209D01*
Y79814D01*
X547826D01*
Y79431D01*
X547442D01*
Y79048D01*
X547059D01*
Y78665D01*
X546676D01*
Y78281D01*
X546293D01*
Y77898D01*
X545909D01*
Y77515D01*
X545526D01*
Y77131D01*
X545143D01*
Y76748D01*
X544759D01*
Y76365D01*
X544376D01*
Y75981D01*
X543993D01*
Y75598D01*
X543610D01*
Y71382D01*
X543226D01*
Y70999D01*
X542843D01*
Y76365D01*
X543226D01*
D02*
G37*
G36*
X548976Y74448D02*
Y74832D01*
X549359D01*
Y75215D01*
X549742D01*
Y75598D01*
X550126D01*
Y75981D01*
X550509D01*
Y76748D01*
X550892D01*
Y77131D01*
X551275D01*
Y77515D01*
X551659D01*
Y77898D01*
X552042D01*
Y78281D01*
X552425D01*
Y78665D01*
X552809D01*
Y79048D01*
X553192D01*
Y79431D01*
X553575D01*
Y82881D01*
X553959D01*
X554342D01*
Y81731D01*
X554725D01*
Y79431D01*
X554342D01*
Y79048D01*
X553959D01*
Y78665D01*
X553575D01*
X553192D01*
Y78281D01*
X552809D01*
Y77515D01*
X552425D01*
Y77131D01*
X552042D01*
Y76365D01*
X551659D01*
X551275D01*
Y75981D01*
X550892D01*
X550509D01*
Y71382D01*
X550126D01*
Y70232D01*
X549742D01*
X549359D01*
X548976D01*
X548592D01*
Y74448D01*
X548976D01*
D02*
G37*
G36*
X543610Y86714D02*
Y87097D01*
X543993D01*
Y87864D01*
X544376D01*
Y88247D01*
X544759D01*
Y89397D01*
X545143D01*
Y89780D01*
X545526D01*
X545909D01*
Y90930D01*
X546293D01*
Y91313D01*
X546676D01*
Y92080D01*
X547059D01*
Y92463D01*
X547442D01*
Y92847D01*
X547826D01*
Y93230D01*
X548209D01*
Y92847D01*
X548592D01*
Y93613D01*
X548976D01*
X549359D01*
X549742D01*
Y93997D01*
X550126D01*
X550509D01*
Y94380D01*
X550892D01*
X551275D01*
X551659D01*
Y95147D01*
X552042D01*
Y94763D01*
X552425D01*
Y95530D01*
X552809D01*
X553192D01*
X553575D01*
Y95913D01*
X553959D01*
X554342D01*
Y96296D01*
X554725D01*
X555108D01*
Y96680D01*
X555492D01*
Y97063D01*
X555875D01*
Y96680D01*
X556258D01*
Y97446D01*
X556642D01*
X557025D01*
Y97830D01*
X557408D01*
X557792D01*
X558175D01*
X558558D01*
X558942D01*
Y97446D01*
X559325D01*
X559708D01*
X560091D01*
X560475D01*
X560858D01*
X561241D01*
X561625D01*
X562008D01*
X562391D01*
X562775D01*
X563158D01*
Y97063D01*
X563541D01*
Y96680D01*
X563924D01*
X564308D01*
X564691D01*
X565074D01*
X565457D01*
X565841D01*
Y97063D01*
X566224D01*
Y96296D01*
X566607D01*
X566991D01*
X567374D01*
X567757D01*
X568141D01*
Y95913D01*
X567757D01*
Y95530D01*
X567374D01*
X566991D01*
Y94763D01*
X566607D01*
Y94380D01*
X566224D01*
Y93997D01*
X565841D01*
Y93613D01*
X565457D01*
X565074D01*
Y92847D01*
X564691D01*
Y92463D01*
X564308D01*
Y92080D01*
X563924D01*
Y91697D01*
X563541D01*
Y91313D01*
X563158D01*
Y90930D01*
X562775D01*
Y90547D01*
X562391D01*
Y90164D01*
X562008D01*
Y89780D01*
X561625D01*
Y89397D01*
X561241D01*
Y89014D01*
X560858D01*
Y88630D01*
X560475D01*
Y88247D01*
X560091D01*
Y87864D01*
X559708D01*
Y87480D01*
X559325D01*
Y87097D01*
X558942D01*
Y86714D01*
X558558D01*
Y86331D01*
X558175D01*
Y85947D01*
X557792D01*
Y85564D01*
X557408D01*
Y85181D01*
X557025D01*
Y84797D01*
X556642D01*
Y84414D01*
X556258D01*
Y84031D01*
X555875D01*
X555492D01*
X555108D01*
X554725D01*
X554342D01*
X553959D01*
X553575D01*
X553192D01*
X552809D01*
X552425D01*
X552042D01*
X551659D01*
X551275D01*
X550892D01*
X550509D01*
X550126D01*
X549742D01*
X549359D01*
X548976D01*
X548592D01*
X548209D01*
X547826D01*
X547442D01*
X547059D01*
X546676D01*
X546293D01*
X545909D01*
X545526D01*
X545143D01*
X544759D01*
X544376D01*
Y84414D01*
X544759D01*
Y84797D01*
X545143D01*
Y85564D01*
X545526D01*
X545909D01*
Y85181D01*
X546293D01*
Y85947D01*
X546676D01*
Y86331D01*
X547059D01*
X547442D01*
X547826D01*
Y87097D01*
X548209D01*
Y87480D01*
X548592D01*
Y87097D01*
X548976D01*
Y87864D01*
X549359D01*
X549742D01*
Y88247D01*
X550126D01*
Y88630D01*
X550509D01*
X550892D01*
Y89397D01*
X551275D01*
X551659D01*
Y90164D01*
X551275D01*
X550892D01*
X550509D01*
Y89780D01*
X550126D01*
X549742D01*
X549359D01*
X548976D01*
Y89014D01*
X548592D01*
Y88630D01*
X548209D01*
X547826D01*
X547442D01*
Y88247D01*
X547059D01*
X546676D01*
X546293D01*
Y87864D01*
X545909D01*
X545526D01*
X545143D01*
Y87480D01*
X544759D01*
X544376D01*
Y86714D01*
X543993D01*
X543610D01*
Y86331D01*
X543226D01*
Y86714D01*
X543610D01*
D02*
G37*
G36*
X545526Y74832D02*
Y75215D01*
X545909D01*
Y75598D01*
X546293D01*
Y75981D01*
X546676D01*
Y76365D01*
X547059D01*
Y76748D01*
X547442D01*
Y77131D01*
X547826D01*
Y77515D01*
X548209D01*
Y77898D01*
X548592D01*
Y78281D01*
X548976D01*
Y79048D01*
X549359D01*
Y79431D01*
X549742D01*
Y80198D01*
X550126D01*
Y80964D01*
X549742D01*
Y81348D01*
X550126D01*
Y82114D01*
X550509D01*
Y82881D01*
X550892D01*
X551275D01*
Y80198D01*
X550892D01*
Y79431D01*
X550509D01*
Y79048D01*
X550126D01*
Y78665D01*
X549742D01*
X549359D01*
Y78281D01*
X548976D01*
Y77515D01*
X548592D01*
Y77131D01*
X548209D01*
Y76365D01*
X547826D01*
X547442D01*
Y75598D01*
X547059D01*
Y75215D01*
X546676D01*
Y70232D01*
X546293D01*
X545909D01*
Y70999D01*
X545526D01*
X545143D01*
Y74832D01*
X545526D01*
D02*
G37*
G36*
X557025Y466982D02*
Y467365D01*
X557408D01*
X557792D01*
Y467748D01*
X558175D01*
Y468898D01*
X558558D01*
Y468515D01*
X558942D01*
Y469665D01*
X559325D01*
X559708D01*
Y470431D01*
X560091D01*
Y470815D01*
X560475D01*
Y476947D01*
X560858D01*
Y476564D01*
X561241D01*
Y476181D01*
X561625D01*
Y475797D01*
X562008D01*
Y469281D01*
X561625D01*
Y468898D01*
X561241D01*
Y468515D01*
X560858D01*
Y468131D01*
X560475D01*
Y467748D01*
X560091D01*
Y467365D01*
X559708D01*
Y466982D01*
X559325D01*
Y466598D01*
X558942D01*
Y466215D01*
X558558D01*
Y465832D01*
X558175D01*
Y465448D01*
X557792D01*
Y465065D01*
X557408D01*
Y460465D01*
X557792D01*
Y460082D01*
X557408D01*
X557025D01*
Y460465D01*
X556642D01*
Y466982D01*
X557025D01*
D02*
G37*
G36*
X556642Y470815D02*
Y472731D01*
X557025D01*
Y474264D01*
X557408D01*
Y474648D01*
X557792D01*
Y474264D01*
X557408D01*
Y473498D01*
X557792D01*
Y472731D01*
X558175D01*
Y471964D01*
X557792D01*
X557408D01*
Y471581D01*
X557025D01*
Y470431D01*
X556642D01*
Y470048D01*
X556258D01*
Y470815D01*
X556642D01*
D02*
G37*
G36*
X555492Y469665D02*
X555875D01*
Y469281D01*
X555492D01*
X555108D01*
Y469665D01*
X555492D01*
D02*
G37*
G36*
X561241Y464298D02*
Y464682D01*
X561625D01*
Y465065D01*
X562008D01*
Y465448D01*
X562391D01*
Y459316D01*
X562008D01*
X561625D01*
Y458932D01*
X561241D01*
Y458549D01*
X560858D01*
Y464298D01*
X561241D01*
D02*
G37*
G36*
X568524Y468131D02*
X568907D01*
X569290D01*
X569674D01*
Y467748D01*
X570057D01*
X570440D01*
X570824D01*
Y467365D01*
X570440D01*
X570057D01*
X569674D01*
Y466982D01*
X569290D01*
X568907D01*
X568524D01*
X568141D01*
Y468131D01*
X568524D01*
D02*
G37*
G36*
X543993Y457399D02*
X544376D01*
X544759D01*
Y457016D01*
X545143D01*
Y456249D01*
X545526D01*
X545909D01*
X546293D01*
Y455866D01*
X546676D01*
X547059D01*
Y455099D01*
X547442D01*
Y455483D01*
X547826D01*
X548209D01*
Y454716D01*
X548592D01*
X548976D01*
Y454333D01*
X549359D01*
X549742D01*
X550126D01*
X550509D01*
Y453949D01*
X550892D01*
X551275D01*
X551659D01*
Y454716D01*
X551275D01*
X550892D01*
Y455483D01*
X550509D01*
X550126D01*
Y455866D01*
X549742D01*
Y456249D01*
X549359D01*
X548976D01*
Y457016D01*
X548592D01*
Y456633D01*
X548209D01*
Y457016D01*
X547826D01*
Y457782D01*
X547442D01*
X547059D01*
X546676D01*
Y458166D01*
X546293D01*
Y458932D01*
X545909D01*
Y458549D01*
X545526D01*
X545143D01*
Y459316D01*
X544759D01*
Y459699D01*
X545143D01*
X545526D01*
X545909D01*
X546293D01*
X546676D01*
Y460082D01*
X547059D01*
X547442D01*
X547826D01*
X548209D01*
X548592D01*
X548976D01*
Y459699D01*
X549359D01*
X549742D01*
X550126D01*
Y460082D01*
X550509D01*
Y459699D01*
X550892D01*
X551275D01*
X551659D01*
Y460082D01*
X552042D01*
X552425D01*
X552809D01*
X553192D01*
Y459699D01*
X553575D01*
X553959D01*
X554342D01*
Y460082D01*
X554725D01*
X555108D01*
X555492D01*
Y459699D01*
X555875D01*
X556258D01*
X556642D01*
Y459316D01*
X557025D01*
Y458932D01*
X557408D01*
Y458549D01*
X557792D01*
Y458166D01*
X558175D01*
Y457782D01*
X558558D01*
Y457399D01*
X558942D01*
Y457016D01*
X559325D01*
Y456633D01*
X559708D01*
Y456249D01*
X560091D01*
Y455866D01*
X560475D01*
Y455483D01*
X560858D01*
Y455099D01*
X561241D01*
Y454716D01*
X561625D01*
Y454333D01*
X562008D01*
Y453949D01*
X562391D01*
Y453566D01*
X562775D01*
Y453183D01*
X563158D01*
Y452800D01*
X563541D01*
Y452416D01*
X563924D01*
Y452033D01*
X564308D01*
Y451650D01*
X564691D01*
Y451266D01*
X565074D01*
Y450500D01*
X565457D01*
X565841D01*
Y450116D01*
X566224D01*
Y449733D01*
X566607D01*
Y449350D01*
X566991D01*
Y448583D01*
X567374D01*
X567757D01*
Y448200D01*
X568141D01*
Y447817D01*
X567757D01*
X567374D01*
X566991D01*
Y447050D01*
X566607D01*
Y447433D01*
X566224D01*
X565841D01*
X565457D01*
X565074D01*
X564691D01*
X564308D01*
X563924D01*
Y446667D01*
X563541D01*
X563158D01*
X562775D01*
X562391D01*
X562008D01*
X561625D01*
X561241D01*
X560858D01*
X560475D01*
X560091D01*
Y446283D01*
X559708D01*
X559325D01*
X558942D01*
X558558D01*
X558175D01*
X557792D01*
X557408D01*
X557025D01*
Y446667D01*
X556642D01*
X556258D01*
Y447433D01*
X555875D01*
Y447050D01*
X555492D01*
Y447433D01*
X555108D01*
Y447817D01*
X554725D01*
X554342D01*
Y448200D01*
X553959D01*
X553575D01*
Y448583D01*
X553192D01*
X552809D01*
X552425D01*
Y449350D01*
X552042D01*
Y448967D01*
X551659D01*
Y449733D01*
X551275D01*
X550892D01*
X550509D01*
Y450116D01*
X550126D01*
X549742D01*
Y450500D01*
X549359D01*
X548976D01*
X548592D01*
Y451266D01*
X548209D01*
Y450883D01*
X547826D01*
Y451266D01*
X547442D01*
Y451650D01*
X547059D01*
Y452033D01*
X546676D01*
Y452800D01*
X546293D01*
Y453183D01*
X545909D01*
Y454333D01*
X545526D01*
X545143D01*
Y454716D01*
X544759D01*
Y455866D01*
X544376D01*
Y456249D01*
X543993D01*
Y457016D01*
X543610D01*
Y457399D01*
X543993D01*
D02*
G37*
G36*
X564308Y474648D02*
X564691D01*
Y460849D01*
X564308D01*
Y460465D01*
X563924D01*
Y474648D01*
X564308D01*
D02*
G37*
G36*
X552425Y465832D02*
Y466598D01*
X552809D01*
Y466982D01*
X553192D01*
X553575D01*
Y467365D01*
X553959D01*
Y467748D01*
X554342D01*
Y468515D01*
X554725D01*
Y468898D01*
X555108D01*
Y468515D01*
X554725D01*
Y461232D01*
X554342D01*
X553959D01*
X553575D01*
X553192D01*
X552809D01*
X552425D01*
Y462382D01*
X552042D01*
Y465832D01*
X552425D01*
D02*
G37*
G36*
X541693Y473881D02*
X542076D01*
X542460D01*
X542843D01*
Y470815D01*
X542460D01*
Y470048D01*
X542076D01*
X541693D01*
Y469665D01*
X541310D01*
Y473881D01*
X541693D01*
D02*
G37*
G36*
X538627Y472348D02*
Y472731D01*
X539010D01*
Y472348D01*
X539393D01*
Y473114D01*
X539777D01*
Y461999D01*
X539393D01*
Y462382D01*
X539010D01*
X538627D01*
Y463149D01*
X539010D01*
X539393D01*
Y471581D01*
X539010D01*
X538627D01*
X538243D01*
Y472348D01*
X538627D01*
D02*
G37*
G36*
X537860Y463532D02*
X538243D01*
X538627D01*
Y463149D01*
X538243D01*
X537860D01*
X537477D01*
Y463532D01*
X537860D01*
D02*
G37*
G36*
X543226Y467365D02*
Y467748D01*
X543610D01*
X543993D01*
Y468515D01*
X544376D01*
Y468898D01*
X544759D01*
Y469281D01*
X545143D01*
Y469665D01*
X545526D01*
Y470048D01*
X545909D01*
Y473881D01*
X546293D01*
X546676D01*
X547059D01*
X547442D01*
Y472731D01*
X547826D01*
X548209D01*
Y470815D01*
X547826D01*
Y470431D01*
X547442D01*
Y470048D01*
X547059D01*
Y469665D01*
X546676D01*
Y469281D01*
X546293D01*
Y468898D01*
X545909D01*
Y468515D01*
X545526D01*
Y468131D01*
X545143D01*
Y467748D01*
X544759D01*
Y467365D01*
X544376D01*
Y466982D01*
X543993D01*
Y466598D01*
X543610D01*
Y462382D01*
X543226D01*
Y461999D01*
X542843D01*
Y467365D01*
X543226D01*
D02*
G37*
G36*
X548976Y465448D02*
Y465832D01*
X549359D01*
Y466215D01*
X549742D01*
Y466598D01*
X550126D01*
Y466982D01*
X550509D01*
Y467748D01*
X550892D01*
Y468131D01*
X551275D01*
Y468515D01*
X551659D01*
Y468898D01*
X552042D01*
Y469281D01*
X552425D01*
Y469665D01*
X552809D01*
Y470048D01*
X553192D01*
Y470431D01*
X553575D01*
Y473881D01*
X553959D01*
X554342D01*
Y472731D01*
X554725D01*
Y470431D01*
X554342D01*
Y470048D01*
X553959D01*
Y469665D01*
X553575D01*
X553192D01*
Y469281D01*
X552809D01*
Y468515D01*
X552425D01*
Y468131D01*
X552042D01*
Y467365D01*
X551659D01*
X551275D01*
Y466982D01*
X550892D01*
X550509D01*
Y462382D01*
X550126D01*
Y461232D01*
X549742D01*
X549359D01*
X548976D01*
X548592D01*
Y465448D01*
X548976D01*
D02*
G37*
G36*
X543610Y477714D02*
Y478097D01*
X543993D01*
Y478864D01*
X544376D01*
Y479247D01*
X544759D01*
Y480397D01*
X545143D01*
Y480780D01*
X545526D01*
X545909D01*
Y481930D01*
X546293D01*
Y482313D01*
X546676D01*
Y483080D01*
X547059D01*
Y483463D01*
X547442D01*
Y483847D01*
X547826D01*
Y484230D01*
X548209D01*
Y483847D01*
X548592D01*
Y484613D01*
X548976D01*
X549359D01*
X549742D01*
Y484997D01*
X550126D01*
X550509D01*
Y485380D01*
X550892D01*
X551275D01*
X551659D01*
Y486146D01*
X552042D01*
Y485763D01*
X552425D01*
Y486530D01*
X552809D01*
X553192D01*
X553575D01*
Y486913D01*
X553959D01*
X554342D01*
Y487296D01*
X554725D01*
X555108D01*
Y487680D01*
X555492D01*
Y488063D01*
X555875D01*
Y487680D01*
X556258D01*
Y488446D01*
X556642D01*
X557025D01*
Y488830D01*
X557408D01*
X557792D01*
X558175D01*
X558558D01*
X558942D01*
Y488446D01*
X559325D01*
X559708D01*
X560091D01*
X560475D01*
X560858D01*
X561241D01*
X561625D01*
X562008D01*
X562391D01*
X562775D01*
X563158D01*
Y488063D01*
X563541D01*
Y487680D01*
X563924D01*
X564308D01*
X564691D01*
X565074D01*
X565457D01*
X565841D01*
Y488063D01*
X566224D01*
Y487296D01*
X566607D01*
X566991D01*
X567374D01*
X567757D01*
X568141D01*
Y486913D01*
X567757D01*
Y486530D01*
X567374D01*
X566991D01*
Y485763D01*
X566607D01*
Y485380D01*
X566224D01*
Y484997D01*
X565841D01*
Y484613D01*
X565457D01*
X565074D01*
Y483847D01*
X564691D01*
Y483463D01*
X564308D01*
Y483080D01*
X563924D01*
Y482697D01*
X563541D01*
Y482313D01*
X563158D01*
Y481930D01*
X562775D01*
Y481547D01*
X562391D01*
Y481164D01*
X562008D01*
Y480780D01*
X561625D01*
Y480397D01*
X561241D01*
Y480014D01*
X560858D01*
Y479630D01*
X560475D01*
Y479247D01*
X560091D01*
Y478864D01*
X559708D01*
Y478480D01*
X559325D01*
Y478097D01*
X558942D01*
Y477714D01*
X558558D01*
Y477331D01*
X558175D01*
Y476947D01*
X557792D01*
Y476564D01*
X557408D01*
Y476181D01*
X557025D01*
Y475797D01*
X556642D01*
Y475414D01*
X556258D01*
Y475031D01*
X555875D01*
X555492D01*
X555108D01*
X554725D01*
X554342D01*
X553959D01*
X553575D01*
X553192D01*
X552809D01*
X552425D01*
X552042D01*
X551659D01*
X551275D01*
X550892D01*
X550509D01*
X550126D01*
X549742D01*
X549359D01*
X548976D01*
X548592D01*
X548209D01*
X547826D01*
X547442D01*
X547059D01*
X546676D01*
X546293D01*
X545909D01*
X545526D01*
X545143D01*
X544759D01*
X544376D01*
Y475414D01*
X544759D01*
Y475797D01*
X545143D01*
Y476564D01*
X545526D01*
X545909D01*
Y476181D01*
X546293D01*
Y476947D01*
X546676D01*
Y477331D01*
X547059D01*
X547442D01*
X547826D01*
Y478097D01*
X548209D01*
Y478480D01*
X548592D01*
Y478097D01*
X548976D01*
Y478864D01*
X549359D01*
X549742D01*
Y479247D01*
X550126D01*
Y479630D01*
X550509D01*
X550892D01*
Y480397D01*
X551275D01*
X551659D01*
Y481164D01*
X551275D01*
X550892D01*
X550509D01*
Y480780D01*
X550126D01*
X549742D01*
X549359D01*
X548976D01*
Y480014D01*
X548592D01*
Y479630D01*
X548209D01*
X547826D01*
X547442D01*
Y479247D01*
X547059D01*
X546676D01*
X546293D01*
Y478864D01*
X545909D01*
X545526D01*
X545143D01*
Y478480D01*
X544759D01*
X544376D01*
Y477714D01*
X543993D01*
X543610D01*
Y477331D01*
X543226D01*
Y477714D01*
X543610D01*
D02*
G37*
G36*
X545526Y465832D02*
Y466215D01*
X545909D01*
Y466598D01*
X546293D01*
Y466982D01*
X546676D01*
Y467365D01*
X547059D01*
Y467748D01*
X547442D01*
Y468131D01*
X547826D01*
Y468515D01*
X548209D01*
Y468898D01*
X548592D01*
Y469281D01*
X548976D01*
Y470048D01*
X549359D01*
Y470431D01*
X549742D01*
Y471198D01*
X550126D01*
Y471964D01*
X549742D01*
Y472348D01*
X550126D01*
Y473114D01*
X550509D01*
Y473881D01*
X550892D01*
X551275D01*
Y471198D01*
X550892D01*
Y470431D01*
X550509D01*
Y470048D01*
X550126D01*
Y469665D01*
X549742D01*
X549359D01*
Y469281D01*
X548976D01*
Y468515D01*
X548592D01*
Y468131D01*
X548209D01*
Y467365D01*
X547826D01*
X547442D01*
Y466598D01*
X547059D01*
Y466215D01*
X546676D01*
Y461232D01*
X546293D01*
X545909D01*
Y461999D01*
X545526D01*
X545143D01*
Y465832D01*
X545526D01*
D02*
G37*
G36*
X30017Y326766D02*
Y326526D01*
X29777D01*
Y326287D01*
X29538D01*
Y326047D01*
X29298D01*
Y325567D01*
X29058D01*
X28818D01*
Y325087D01*
X28578D01*
Y324848D01*
X28339D01*
Y324608D01*
X28099D01*
Y324368D01*
X27859D01*
Y320531D01*
X27619D01*
Y320771D01*
X27379D01*
Y321011D01*
X27139D01*
X26900D01*
Y325327D01*
X27139D01*
X27379D01*
Y325567D01*
X27619D01*
Y326047D01*
X27859D01*
Y326287D01*
X28099D01*
Y326526D01*
X28339D01*
X28578D01*
Y326766D01*
X28818D01*
Y327246D01*
X29058D01*
Y327486D01*
X29298D01*
Y327726D01*
X29538D01*
X29777D01*
Y331083D01*
X30017D01*
Y330603D01*
X30257D01*
Y326766D01*
X30017D01*
D02*
G37*
G36*
X30257Y324368D02*
Y323169D01*
X30017D01*
Y321970D01*
X29777D01*
X29538D01*
Y322210D01*
X29777D01*
Y323169D01*
X29538D01*
X29298D01*
Y323409D01*
X29538D01*
Y323649D01*
X29777D01*
Y323888D01*
X30017D01*
Y324368D01*
X30257D01*
Y324848D01*
X30497D01*
Y324368D01*
X30257D01*
D02*
G37*
G36*
X33135Y327486D02*
Y327246D01*
X32895D01*
Y327006D01*
X32655D01*
Y326766D01*
X32415D01*
Y326526D01*
X32175D01*
Y326287D01*
X31936D01*
Y326047D01*
X31696D01*
Y325807D01*
X31456D01*
Y330363D01*
X31696D01*
X31936D01*
X32175D01*
X32415D01*
X32655D01*
X32895D01*
Y329644D01*
X33135D01*
Y329404D01*
X33375D01*
Y327486D01*
X33135D01*
D02*
G37*
G36*
X27379Y328205D02*
X27139D01*
Y327965D01*
X26900D01*
Y327486D01*
X26660D01*
Y331562D01*
X26900D01*
X27139D01*
X27379D01*
Y331802D01*
X27619D01*
Y328205D01*
X27379D01*
D02*
G37*
G36*
X22823Y325807D02*
Y326047D01*
X22583D01*
Y325807D01*
X22343D01*
X22103D01*
Y326287D01*
X21863D01*
X21624D01*
X21384D01*
Y326526D01*
X21624D01*
X21863D01*
X22103D01*
Y326766D01*
X22343D01*
X22583D01*
X22823D01*
X23063D01*
Y325807D01*
X22823D01*
D02*
G37*
G36*
X38171Y332762D02*
X37931D01*
Y333001D01*
X37691D01*
X37451D01*
Y333481D01*
X37212D01*
X36972D01*
Y333721D01*
X36732D01*
X36492D01*
X36252D01*
Y333961D01*
X36013D01*
X35773D01*
Y334440D01*
X35533D01*
Y334201D01*
X35293D01*
X35053D01*
Y334680D01*
X34813D01*
X34574D01*
X34334D01*
Y334920D01*
X34094D01*
X33854D01*
X33614D01*
Y334201D01*
X33854D01*
Y333961D01*
X34094D01*
X34334D01*
X34574D01*
Y333721D01*
X34813D01*
Y333481D01*
X35053D01*
Y333001D01*
X35293D01*
X35533D01*
X35773D01*
Y332762D01*
X36013D01*
Y332522D01*
X36252D01*
X36492D01*
Y332282D01*
X36732D01*
X36972D01*
Y331802D01*
X37212D01*
X37451D01*
Y331562D01*
X37691D01*
Y331323D01*
X37451D01*
X37212D01*
X36972D01*
X36732D01*
X36492D01*
Y331083D01*
X36252D01*
X36013D01*
X35773D01*
X35533D01*
X35293D01*
X35053D01*
Y331323D01*
X34813D01*
X34574D01*
Y331083D01*
X34334D01*
Y331323D01*
X34094D01*
X33854D01*
X33614D01*
Y331083D01*
X33375D01*
X33135D01*
X32895D01*
X32655D01*
X32415D01*
Y331323D01*
X32175D01*
X31936D01*
X31696D01*
Y331083D01*
X31456D01*
X31216D01*
X30976D01*
Y331323D01*
X30737D01*
X30497D01*
X30257D01*
Y331562D01*
X30017D01*
Y331802D01*
X29777D01*
Y332042D01*
X29538D01*
Y332282D01*
X29298D01*
Y332522D01*
X29058D01*
Y332762D01*
X28818D01*
Y333001D01*
X28578D01*
Y333241D01*
X28339D01*
Y333481D01*
X28099D01*
Y333721D01*
X27859D01*
Y333961D01*
X27619D01*
Y334201D01*
X27379D01*
Y334440D01*
X27139D01*
Y334680D01*
X26900D01*
Y334920D01*
X26660D01*
Y335160D01*
X26420D01*
Y335400D01*
X26180D01*
Y335639D01*
X25940D01*
Y335879D01*
X25701D01*
Y336119D01*
X25461D01*
Y336359D01*
X25221D01*
Y336599D01*
X24981D01*
Y336838D01*
X24741D01*
Y337078D01*
X24501D01*
Y337318D01*
X24262D01*
Y337558D01*
X24022D01*
Y337798D01*
X23782D01*
Y338037D01*
X23542D01*
Y338277D01*
X23302D01*
Y338517D01*
X23063D01*
Y338757D01*
X23302D01*
X23542D01*
X23782D01*
Y338997D01*
X24022D01*
X24262D01*
X24501D01*
X24741D01*
X24981D01*
X25221D01*
X25461D01*
X25701D01*
Y339476D01*
X25940D01*
X26180D01*
Y339237D01*
X26420D01*
X26660D01*
X26900D01*
X27139D01*
X27379D01*
X27619D01*
X27859D01*
X28099D01*
Y339716D01*
X28339D01*
X28578D01*
X28818D01*
X29058D01*
X29298D01*
X29538D01*
X29777D01*
X30017D01*
Y339237D01*
X30257D01*
Y339476D01*
X30497D01*
Y338997D01*
X30737D01*
X30976D01*
X31216D01*
Y338757D01*
X31456D01*
X31696D01*
Y338517D01*
X31936D01*
X32175D01*
X32415D01*
Y338037D01*
X32655D01*
Y338277D01*
X32895D01*
Y337798D01*
X33135D01*
X33375D01*
X33614D01*
Y337558D01*
X33854D01*
X34094D01*
Y337318D01*
X34334D01*
X34574D01*
X34813D01*
Y336838D01*
X35053D01*
Y337078D01*
X35293D01*
Y336599D01*
X35533D01*
X35773D01*
X36013D01*
Y336359D01*
X36252D01*
Y336119D01*
X36492D01*
Y335639D01*
X36732D01*
Y335400D01*
X36972D01*
Y335160D01*
X37212D01*
Y334680D01*
X37451D01*
Y334440D01*
X37691D01*
Y333721D01*
X37931D01*
X38171D01*
Y333481D01*
X38411D01*
Y332762D01*
X38171D01*
D02*
G37*
G36*
X25461Y321970D02*
X25221D01*
Y330363D01*
X25461D01*
Y330843D01*
X25701D01*
Y321970D01*
X25461D01*
D02*
G37*
G36*
X35053Y327726D02*
Y327246D01*
X34813D01*
Y327006D01*
X34574D01*
Y326766D01*
X34334D01*
X34094D01*
Y326047D01*
X33854D01*
Y325807D01*
X33614D01*
Y325567D01*
X33375D01*
Y325327D01*
X33135D01*
X32895D01*
Y324848D01*
X32655D01*
Y324608D01*
X32415D01*
Y322210D01*
X32175D01*
X31936D01*
Y322929D01*
X31696D01*
Y323169D01*
X31456D01*
Y324368D01*
X31696D01*
Y324608D01*
X31936D01*
Y324848D01*
X32175D01*
Y325087D01*
X32415D01*
Y325327D01*
X32655D01*
Y325567D01*
X32895D01*
Y325807D01*
X33135D01*
Y326047D01*
X33375D01*
Y326526D01*
X33614D01*
Y326766D01*
X33854D01*
X34094D01*
Y327006D01*
X34334D01*
Y329644D01*
X34574D01*
Y330363D01*
X34813D01*
X35053D01*
X35293D01*
Y327726D01*
X35053D01*
D02*
G37*
G36*
X41768Y323409D02*
Y323169D01*
X41528D01*
X41289D01*
X41049D01*
Y322929D01*
X40809D01*
Y329884D01*
X41049D01*
Y329404D01*
X41289D01*
X41528D01*
X41768D01*
Y329164D01*
X41528D01*
X41289D01*
X41049D01*
Y323888D01*
X41289D01*
Y323649D01*
X41528D01*
X41768D01*
Y323888D01*
X42008D01*
Y323409D01*
X41768D01*
D02*
G37*
G36*
X42008Y328924D02*
X41768D01*
Y329164D01*
X42008D01*
X42248D01*
Y328924D01*
X42008D01*
D02*
G37*
G36*
X42488Y323888D02*
X42248D01*
Y324128D01*
X42488D01*
X42727D01*
Y323888D01*
X42488D01*
D02*
G37*
G36*
X39610Y322210D02*
Y322449D01*
X39370D01*
Y322210D01*
X39130D01*
Y324368D01*
X39370D01*
Y324848D01*
X39610D01*
Y325087D01*
X39850D01*
Y322210D01*
X39610D01*
D02*
G37*
G36*
X37212Y327246D02*
Y327006D01*
X36972D01*
Y326766D01*
X36732D01*
X36492D01*
Y326526D01*
X36252D01*
Y326047D01*
X36013D01*
Y325807D01*
X35773D01*
Y325567D01*
X35533D01*
X35293D01*
Y325327D01*
X35053D01*
Y324608D01*
X34813D01*
Y324128D01*
X34574D01*
Y322929D01*
X34334D01*
X34094D01*
Y322449D01*
X33854D01*
Y322210D01*
X33614D01*
Y324128D01*
X33854D01*
Y324368D01*
X34094D01*
Y324608D01*
X34334D01*
Y324848D01*
X34574D01*
Y325087D01*
X34813D01*
Y325327D01*
X35053D01*
Y325567D01*
X35293D01*
Y325807D01*
X35533D01*
Y326047D01*
X35773D01*
Y326526D01*
X36013D01*
Y326766D01*
X36252D01*
Y327006D01*
X36492D01*
Y327246D01*
X36732D01*
Y330363D01*
X36972D01*
X37212D01*
Y329884D01*
X37451D01*
Y327246D01*
X37212D01*
D02*
G37*
G36*
X38651Y320051D02*
Y319812D01*
X38411D01*
Y319332D01*
X38171D01*
Y319092D01*
X37931D01*
Y318852D01*
X37691D01*
Y318373D01*
X37451D01*
Y318133D01*
X37212D01*
Y317413D01*
X36972D01*
Y317174D01*
X36732D01*
X36492D01*
Y316454D01*
X36252D01*
Y316214D01*
X36013D01*
Y315974D01*
X35773D01*
X35533D01*
X35293D01*
Y315735D01*
X35053D01*
X34813D01*
Y315495D01*
X34574D01*
X34334D01*
X34094D01*
Y315015D01*
X33854D01*
Y315255D01*
X33614D01*
Y314775D01*
X33375D01*
X33135D01*
X32895D01*
Y314536D01*
X32655D01*
X32415D01*
Y314296D01*
X32175D01*
X31936D01*
X31696D01*
Y313816D01*
X31456D01*
Y314056D01*
X31216D01*
Y313576D01*
X30976D01*
X30737D01*
X30497D01*
Y313336D01*
X30257D01*
X30017D01*
Y313097D01*
X29777D01*
X29538D01*
X29298D01*
X29058D01*
X28818D01*
Y313336D01*
X28578D01*
X28339D01*
X28099D01*
X27859D01*
X27619D01*
X27379D01*
X27139D01*
X26900D01*
X26660D01*
X26420D01*
X26180D01*
Y313576D01*
X25940D01*
X25701D01*
X25461D01*
X25221D01*
X24981D01*
X24741D01*
X24501D01*
X24262D01*
Y314056D01*
X24022D01*
X23782D01*
X23542D01*
X23302D01*
Y313816D01*
X23063D01*
X22823D01*
Y314056D01*
X23063D01*
Y314296D01*
X23302D01*
Y314536D01*
X23542D01*
X23782D01*
Y314775D01*
X24022D01*
Y315255D01*
X24262D01*
Y315495D01*
X24501D01*
Y315735D01*
X24741D01*
X24981D01*
Y315974D01*
X25221D01*
Y316454D01*
X25461D01*
Y316694D01*
X25701D01*
Y316934D01*
X25940D01*
X26180D01*
Y317174D01*
X26420D01*
Y317653D01*
X26660D01*
Y317893D01*
X26900D01*
Y318133D01*
X27139D01*
X27379D01*
Y318373D01*
X27619D01*
Y318852D01*
X27859D01*
Y319092D01*
X28099D01*
Y319332D01*
X28339D01*
X28578D01*
Y319572D01*
X28818D01*
Y320051D01*
X29058D01*
Y320291D01*
X29298D01*
Y320531D01*
X29538D01*
X29777D01*
Y320771D01*
X30017D01*
Y321251D01*
X30257D01*
Y321490D01*
X30497D01*
Y321730D01*
X30737D01*
X30976D01*
X31216D01*
X31456D01*
X31696D01*
X31936D01*
X32175D01*
X32415D01*
X32655D01*
X32895D01*
X33135D01*
X33375D01*
X33614D01*
X33854D01*
X34094D01*
X34334D01*
X34574D01*
X34813D01*
X35053D01*
X35293D01*
X35533D01*
X35773D01*
X36013D01*
X36252D01*
X36492D01*
X36732D01*
X36972D01*
X37212D01*
X37451D01*
X37691D01*
X37931D01*
X38171D01*
Y321490D01*
X37931D01*
Y321251D01*
X37691D01*
Y321011D01*
X37451D01*
Y320771D01*
X37212D01*
X36972D01*
Y320531D01*
X36732D01*
X36492D01*
Y320291D01*
X36252D01*
X36013D01*
Y319812D01*
X35773D01*
Y319572D01*
X35533D01*
X35293D01*
X35053D01*
Y319332D01*
X34813D01*
Y319092D01*
X34574D01*
Y318852D01*
X34334D01*
Y318613D01*
X34094D01*
Y318852D01*
X33854D01*
Y318373D01*
X33614D01*
Y317653D01*
X33854D01*
X34094D01*
Y317893D01*
X34334D01*
Y318133D01*
X34574D01*
X34813D01*
X35053D01*
Y318373D01*
X35293D01*
Y318613D01*
X35533D01*
X35773D01*
X36013D01*
Y319092D01*
X36252D01*
Y318852D01*
X36492D01*
X36732D01*
X36972D01*
Y319332D01*
X37212D01*
X37451D01*
Y319572D01*
X37691D01*
X37931D01*
X38171D01*
Y320051D01*
X38411D01*
Y320291D01*
X38651D01*
X38890D01*
Y320051D01*
X38651D01*
D02*
G37*
G36*
Y326526D02*
Y326047D01*
X38411D01*
Y325807D01*
X38171D01*
Y325567D01*
X37931D01*
X37691D01*
Y325327D01*
X37451D01*
Y324848D01*
X37212D01*
Y322210D01*
X36972D01*
Y322449D01*
X36732D01*
X36492D01*
X36252D01*
Y322210D01*
X36013D01*
Y323169D01*
X35773D01*
Y324368D01*
X36013D01*
Y324608D01*
X36252D01*
Y325087D01*
X36492D01*
X36732D01*
Y325327D01*
X36972D01*
Y325567D01*
X37212D01*
Y325807D01*
X37451D01*
Y326287D01*
X37691D01*
X37931D01*
Y326526D01*
X38171D01*
Y326766D01*
X38411D01*
Y329404D01*
X38651D01*
Y329884D01*
X38890D01*
Y326526D01*
X38651D01*
D02*
G37*
G36*
X760017Y326766D02*
Y326526D01*
X759777D01*
Y326287D01*
X759538D01*
Y326047D01*
X759298D01*
Y325567D01*
X759058D01*
X758818D01*
Y325087D01*
X758578D01*
Y324848D01*
X758338D01*
Y324608D01*
X758099D01*
Y324368D01*
X757859D01*
Y320531D01*
X757619D01*
Y320771D01*
X757379D01*
Y321011D01*
X757139D01*
X756900D01*
Y325327D01*
X757139D01*
X757379D01*
Y325567D01*
X757619D01*
Y326047D01*
X757859D01*
Y326287D01*
X758099D01*
Y326526D01*
X758338D01*
X758578D01*
Y326766D01*
X758818D01*
Y327246D01*
X759058D01*
Y327486D01*
X759298D01*
Y327726D01*
X759538D01*
X759777D01*
Y331083D01*
X760017D01*
Y330603D01*
X760257D01*
Y326766D01*
X760017D01*
D02*
G37*
G36*
X760257Y324368D02*
Y323169D01*
X760017D01*
Y321970D01*
X759777D01*
X759538D01*
Y322210D01*
X759777D01*
Y323169D01*
X759538D01*
X759298D01*
Y323409D01*
X759538D01*
Y323649D01*
X759777D01*
Y323888D01*
X760017D01*
Y324368D01*
X760257D01*
Y324848D01*
X760497D01*
Y324368D01*
X760257D01*
D02*
G37*
G36*
X763135Y327486D02*
Y327246D01*
X762895D01*
Y327006D01*
X762655D01*
Y326766D01*
X762415D01*
Y326526D01*
X762176D01*
Y326287D01*
X761936D01*
Y326047D01*
X761696D01*
Y325807D01*
X761456D01*
Y330363D01*
X761696D01*
X761936D01*
X762176D01*
X762415D01*
X762655D01*
X762895D01*
Y329644D01*
X763135D01*
Y329404D01*
X763375D01*
Y327486D01*
X763135D01*
D02*
G37*
G36*
X757379Y328205D02*
X757139D01*
Y327965D01*
X756900D01*
Y327486D01*
X756660D01*
Y331562D01*
X756900D01*
X757139D01*
X757379D01*
Y331802D01*
X757619D01*
Y328205D01*
X757379D01*
D02*
G37*
G36*
X752823Y325807D02*
Y326047D01*
X752583D01*
Y325807D01*
X752343D01*
X752103D01*
Y326287D01*
X751863D01*
X751624D01*
X751384D01*
Y326526D01*
X751624D01*
X751863D01*
X752103D01*
Y326766D01*
X752343D01*
X752583D01*
X752823D01*
X753063D01*
Y325807D01*
X752823D01*
D02*
G37*
G36*
X768171Y332762D02*
X767931D01*
Y333001D01*
X767691D01*
X767451D01*
Y333481D01*
X767212D01*
X766972D01*
Y333721D01*
X766732D01*
X766492D01*
X766252D01*
Y333961D01*
X766013D01*
X765773D01*
Y334440D01*
X765533D01*
Y334201D01*
X765293D01*
X765053D01*
Y334680D01*
X764814D01*
X764574D01*
X764334D01*
Y334920D01*
X764094D01*
X763854D01*
X763614D01*
Y334201D01*
X763854D01*
Y333961D01*
X764094D01*
X764334D01*
X764574D01*
Y333721D01*
X764814D01*
Y333481D01*
X765053D01*
Y333001D01*
X765293D01*
X765533D01*
X765773D01*
Y332762D01*
X766013D01*
Y332522D01*
X766252D01*
X766492D01*
Y332282D01*
X766732D01*
X766972D01*
Y331802D01*
X767212D01*
X767451D01*
Y331562D01*
X767691D01*
Y331323D01*
X767451D01*
X767212D01*
X766972D01*
X766732D01*
X766492D01*
Y331083D01*
X766252D01*
X766013D01*
X765773D01*
X765533D01*
X765293D01*
X765053D01*
Y331323D01*
X764814D01*
X764574D01*
Y331083D01*
X764334D01*
Y331323D01*
X764094D01*
X763854D01*
X763614D01*
Y331083D01*
X763375D01*
X763135D01*
X762895D01*
X762655D01*
X762415D01*
Y331323D01*
X762176D01*
X761936D01*
X761696D01*
Y331083D01*
X761456D01*
X761216D01*
X760977D01*
Y331323D01*
X760737D01*
X760497D01*
X760257D01*
Y331562D01*
X760017D01*
Y331802D01*
X759777D01*
Y332042D01*
X759538D01*
Y332282D01*
X759298D01*
Y332522D01*
X759058D01*
Y332762D01*
X758818D01*
Y333001D01*
X758578D01*
Y333241D01*
X758338D01*
Y333481D01*
X758099D01*
Y333721D01*
X757859D01*
Y333961D01*
X757619D01*
Y334201D01*
X757379D01*
Y334440D01*
X757139D01*
Y334680D01*
X756900D01*
Y334920D01*
X756660D01*
Y335160D01*
X756420D01*
Y335400D01*
X756180D01*
Y335639D01*
X755940D01*
Y335879D01*
X755700D01*
Y336119D01*
X755461D01*
Y336359D01*
X755221D01*
Y336599D01*
X754981D01*
Y336838D01*
X754741D01*
Y337078D01*
X754501D01*
Y337318D01*
X754262D01*
Y337558D01*
X754022D01*
Y337798D01*
X753782D01*
Y338037D01*
X753542D01*
Y338277D01*
X753302D01*
Y338517D01*
X753063D01*
Y338757D01*
X753302D01*
X753542D01*
X753782D01*
Y338997D01*
X754022D01*
X754262D01*
X754501D01*
X754741D01*
X754981D01*
X755221D01*
X755461D01*
X755700D01*
Y339476D01*
X755940D01*
X756180D01*
Y339237D01*
X756420D01*
X756660D01*
X756900D01*
X757139D01*
X757379D01*
X757619D01*
X757859D01*
X758099D01*
Y339716D01*
X758338D01*
X758578D01*
X758818D01*
X759058D01*
X759298D01*
X759538D01*
X759777D01*
X760017D01*
Y339237D01*
X760257D01*
Y339476D01*
X760497D01*
Y338997D01*
X760737D01*
X760977D01*
X761216D01*
Y338757D01*
X761456D01*
X761696D01*
Y338517D01*
X761936D01*
X762176D01*
X762415D01*
Y338037D01*
X762655D01*
Y338277D01*
X762895D01*
Y337798D01*
X763135D01*
X763375D01*
X763614D01*
Y337558D01*
X763854D01*
X764094D01*
Y337318D01*
X764334D01*
X764574D01*
X764814D01*
Y336838D01*
X765053D01*
Y337078D01*
X765293D01*
Y336599D01*
X765533D01*
X765773D01*
X766013D01*
Y336359D01*
X766252D01*
Y336119D01*
X766492D01*
Y335639D01*
X766732D01*
Y335400D01*
X766972D01*
Y335160D01*
X767212D01*
Y334680D01*
X767451D01*
Y334440D01*
X767691D01*
Y333721D01*
X767931D01*
X768171D01*
Y333481D01*
X768411D01*
Y332762D01*
X768171D01*
D02*
G37*
G36*
X755461Y321970D02*
X755221D01*
Y330363D01*
X755461D01*
Y330843D01*
X755700D01*
Y321970D01*
X755461D01*
D02*
G37*
G36*
X765053Y327726D02*
Y327246D01*
X764814D01*
Y327006D01*
X764574D01*
Y326766D01*
X764334D01*
X764094D01*
Y326047D01*
X763854D01*
Y325807D01*
X763614D01*
Y325567D01*
X763375D01*
Y325327D01*
X763135D01*
X762895D01*
Y324848D01*
X762655D01*
Y324608D01*
X762415D01*
Y322210D01*
X762176D01*
X761936D01*
Y322929D01*
X761696D01*
Y323169D01*
X761456D01*
Y324368D01*
X761696D01*
Y324608D01*
X761936D01*
Y324848D01*
X762176D01*
Y325087D01*
X762415D01*
Y325327D01*
X762655D01*
Y325567D01*
X762895D01*
Y325807D01*
X763135D01*
Y326047D01*
X763375D01*
Y326526D01*
X763614D01*
Y326766D01*
X763854D01*
X764094D01*
Y327006D01*
X764334D01*
Y329644D01*
X764574D01*
Y330363D01*
X764814D01*
X765053D01*
X765293D01*
Y327726D01*
X765053D01*
D02*
G37*
G36*
X771768Y323409D02*
Y323169D01*
X771528D01*
X771288D01*
X771049D01*
Y322929D01*
X770809D01*
Y329884D01*
X771049D01*
Y329404D01*
X771288D01*
X771528D01*
X771768D01*
Y329164D01*
X771528D01*
X771288D01*
X771049D01*
Y323888D01*
X771288D01*
Y323649D01*
X771528D01*
X771768D01*
Y323888D01*
X772008D01*
Y323409D01*
X771768D01*
D02*
G37*
G36*
X772008Y328924D02*
X771768D01*
Y329164D01*
X772008D01*
X772248D01*
Y328924D01*
X772008D01*
D02*
G37*
G36*
X772488Y323888D02*
X772248D01*
Y324128D01*
X772488D01*
X772727D01*
Y323888D01*
X772488D01*
D02*
G37*
G36*
X769610Y322210D02*
Y322449D01*
X769370D01*
Y322210D01*
X769130D01*
Y324368D01*
X769370D01*
Y324848D01*
X769610D01*
Y325087D01*
X769850D01*
Y322210D01*
X769610D01*
D02*
G37*
G36*
X767212Y327246D02*
Y327006D01*
X766972D01*
Y326766D01*
X766732D01*
X766492D01*
Y326526D01*
X766252D01*
Y326047D01*
X766013D01*
Y325807D01*
X765773D01*
Y325567D01*
X765533D01*
X765293D01*
Y325327D01*
X765053D01*
Y324608D01*
X764814D01*
Y324128D01*
X764574D01*
Y322929D01*
X764334D01*
X764094D01*
Y322449D01*
X763854D01*
Y322210D01*
X763614D01*
Y324128D01*
X763854D01*
Y324368D01*
X764094D01*
Y324608D01*
X764334D01*
Y324848D01*
X764574D01*
Y325087D01*
X764814D01*
Y325327D01*
X765053D01*
Y325567D01*
X765293D01*
Y325807D01*
X765533D01*
Y326047D01*
X765773D01*
Y326526D01*
X766013D01*
Y326766D01*
X766252D01*
Y327006D01*
X766492D01*
Y327246D01*
X766732D01*
Y330363D01*
X766972D01*
X767212D01*
Y329884D01*
X767451D01*
Y327246D01*
X767212D01*
D02*
G37*
G36*
X768650Y320051D02*
Y319812D01*
X768411D01*
Y319332D01*
X768171D01*
Y319092D01*
X767931D01*
Y318852D01*
X767691D01*
Y318373D01*
X767451D01*
Y318133D01*
X767212D01*
Y317413D01*
X766972D01*
Y317174D01*
X766732D01*
X766492D01*
Y316454D01*
X766252D01*
Y316214D01*
X766013D01*
Y315974D01*
X765773D01*
X765533D01*
X765293D01*
Y315735D01*
X765053D01*
X764814D01*
Y315495D01*
X764574D01*
X764334D01*
X764094D01*
Y315015D01*
X763854D01*
Y315255D01*
X763614D01*
Y314775D01*
X763375D01*
X763135D01*
X762895D01*
Y314536D01*
X762655D01*
X762415D01*
Y314296D01*
X762176D01*
X761936D01*
X761696D01*
Y313816D01*
X761456D01*
Y314056D01*
X761216D01*
Y313576D01*
X760977D01*
X760737D01*
X760497D01*
Y313336D01*
X760257D01*
X760017D01*
Y313097D01*
X759777D01*
X759538D01*
X759298D01*
X759058D01*
X758818D01*
Y313336D01*
X758578D01*
X758338D01*
X758099D01*
X757859D01*
X757619D01*
X757379D01*
X757139D01*
X756900D01*
X756660D01*
X756420D01*
X756180D01*
Y313576D01*
X755940D01*
X755700D01*
X755461D01*
X755221D01*
X754981D01*
X754741D01*
X754501D01*
X754262D01*
Y314056D01*
X754022D01*
X753782D01*
X753542D01*
X753302D01*
Y313816D01*
X753063D01*
X752823D01*
Y314056D01*
X753063D01*
Y314296D01*
X753302D01*
Y314536D01*
X753542D01*
X753782D01*
Y314775D01*
X754022D01*
Y315255D01*
X754262D01*
Y315495D01*
X754501D01*
Y315735D01*
X754741D01*
X754981D01*
Y315974D01*
X755221D01*
Y316454D01*
X755461D01*
Y316694D01*
X755700D01*
Y316934D01*
X755940D01*
X756180D01*
Y317174D01*
X756420D01*
Y317653D01*
X756660D01*
Y317893D01*
X756900D01*
Y318133D01*
X757139D01*
X757379D01*
Y318373D01*
X757619D01*
Y318852D01*
X757859D01*
Y319092D01*
X758099D01*
Y319332D01*
X758338D01*
X758578D01*
Y319572D01*
X758818D01*
Y320051D01*
X759058D01*
Y320291D01*
X759298D01*
Y320531D01*
X759538D01*
X759777D01*
Y320771D01*
X760017D01*
Y321251D01*
X760257D01*
Y321490D01*
X760497D01*
Y321730D01*
X760737D01*
X760977D01*
X761216D01*
X761456D01*
X761696D01*
X761936D01*
X762176D01*
X762415D01*
X762655D01*
X762895D01*
X763135D01*
X763375D01*
X763614D01*
X763854D01*
X764094D01*
X764334D01*
X764574D01*
X764814D01*
X765053D01*
X765293D01*
X765533D01*
X765773D01*
X766013D01*
X766252D01*
X766492D01*
X766732D01*
X766972D01*
X767212D01*
X767451D01*
X767691D01*
X767931D01*
X768171D01*
Y321490D01*
X767931D01*
Y321251D01*
X767691D01*
Y321011D01*
X767451D01*
Y320771D01*
X767212D01*
X766972D01*
Y320531D01*
X766732D01*
X766492D01*
Y320291D01*
X766252D01*
X766013D01*
Y319812D01*
X765773D01*
Y319572D01*
X765533D01*
X765293D01*
X765053D01*
Y319332D01*
X764814D01*
Y319092D01*
X764574D01*
Y318852D01*
X764334D01*
Y318613D01*
X764094D01*
Y318852D01*
X763854D01*
Y318373D01*
X763614D01*
Y317653D01*
X763854D01*
X764094D01*
Y317893D01*
X764334D01*
Y318133D01*
X764574D01*
X764814D01*
X765053D01*
Y318373D01*
X765293D01*
Y318613D01*
X765533D01*
X765773D01*
X766013D01*
Y319092D01*
X766252D01*
Y318852D01*
X766492D01*
X766732D01*
X766972D01*
Y319332D01*
X767212D01*
X767451D01*
Y319572D01*
X767691D01*
X767931D01*
X768171D01*
Y320051D01*
X768411D01*
Y320291D01*
X768650D01*
X768890D01*
Y320051D01*
X768650D01*
D02*
G37*
G36*
Y326526D02*
Y326047D01*
X768411D01*
Y325807D01*
X768171D01*
Y325567D01*
X767931D01*
X767691D01*
Y325327D01*
X767451D01*
Y324848D01*
X767212D01*
Y322210D01*
X766972D01*
Y322449D01*
X766732D01*
X766492D01*
X766252D01*
Y322210D01*
X766013D01*
Y323169D01*
X765773D01*
Y324368D01*
X766013D01*
Y324608D01*
X766252D01*
Y325087D01*
X766492D01*
X766732D01*
Y325327D01*
X766972D01*
Y325567D01*
X767212D01*
Y325807D01*
X767451D01*
Y326287D01*
X767691D01*
X767931D01*
Y326526D01*
X768171D01*
Y326766D01*
X768411D01*
Y329404D01*
X768650D01*
Y329884D01*
X768890D01*
Y326526D01*
X768650D01*
D02*
G37*
G36*
X696291Y209722D02*
X696578D01*
Y209435D01*
X696865D01*
Y209148D01*
X697152D01*
Y208860D01*
X697727D01*
Y208573D01*
Y208286D01*
X698301D01*
Y207999D01*
X698588D01*
Y207712D01*
X698875D01*
Y207424D01*
X699162D01*
Y207137D01*
X703757D01*
Y206850D01*
X703470D01*
Y206563D01*
X703183D01*
Y206276D01*
Y205989D01*
X698014D01*
Y206276D01*
Y206563D01*
X697727D01*
Y206850D01*
X697152D01*
Y207137D01*
X696865D01*
Y207424D01*
X696578D01*
Y207712D01*
Y207999D01*
X696291D01*
Y208286D01*
X695716D01*
Y208573D01*
X695429D01*
Y208860D01*
X695142D01*
Y209148D01*
Y209435D01*
X691122D01*
Y209722D01*
X691696D01*
Y210009D01*
X696291D01*
Y209722D01*
D02*
G37*
G36*
X699162Y210009D02*
X700598D01*
Y209722D01*
X702034D01*
Y209435D01*
Y209148D01*
X701747D01*
Y209435D01*
X700598D01*
Y209148D01*
Y208860D01*
X700311D01*
Y209148D01*
X700024D01*
Y209435D01*
X699737D01*
Y209722D01*
X699162D01*
Y210009D01*
X698588D01*
Y210296D01*
X699162D01*
Y210009D01*
D02*
G37*
G36*
X695429Y213455D02*
X695716D01*
Y213168D01*
X696004D01*
Y212881D01*
X696291D01*
Y212594D01*
X696578D01*
Y212306D01*
X696865D01*
Y212019D01*
X697152D01*
Y211732D01*
X697439D01*
Y211445D01*
X691983D01*
Y211732D01*
Y212019D01*
Y212306D01*
Y212594D01*
Y212881D01*
Y213168D01*
X692845D01*
Y213455D01*
X693132D01*
Y213742D01*
X695429D01*
Y213455D01*
D02*
G37*
G36*
X694568Y206563D02*
Y206276D01*
X694855D01*
Y205989D01*
X695429D01*
Y205701D01*
X690548D01*
Y205989D01*
Y206276D01*
Y206563D01*
X690260D01*
Y206850D01*
X694568D01*
Y206563D01*
D02*
G37*
G36*
X697439Y201107D02*
X697152D01*
Y200820D01*
X697439D01*
Y200533D01*
Y200245D01*
X696865D01*
Y199958D01*
Y199671D01*
Y199384D01*
X696578D01*
Y199671D01*
Y199958D01*
Y200245D01*
X696291D01*
Y200533D01*
Y200820D01*
Y201107D01*
Y201394D01*
X697439D01*
Y201107D01*
D02*
G37*
G36*
X689112Y219486D02*
Y219198D01*
X688825D01*
Y218911D01*
Y218624D01*
X688250D01*
Y218337D01*
Y218050D01*
X687963D01*
Y217763D01*
Y217475D01*
Y217188D01*
X687676D01*
Y216901D01*
Y216614D01*
X687102D01*
Y216327D01*
X687389D01*
Y216039D01*
Y215752D01*
X686814D01*
Y215465D01*
Y215178D01*
Y214891D01*
X686527D01*
Y214604D01*
Y214317D01*
Y214029D01*
X687389D01*
Y214317D01*
X687676D01*
Y214604D01*
Y214891D01*
Y215178D01*
X687963D01*
Y215465D01*
X688250D01*
Y215752D01*
X688825D01*
Y216039D01*
Y216327D01*
Y216614D01*
X689112D01*
Y216901D01*
X689399D01*
Y217188D01*
Y217475D01*
X689686D01*
Y217763D01*
Y218050D01*
X690260D01*
Y218337D01*
Y218624D01*
X690548D01*
Y218911D01*
X690835D01*
Y218624D01*
Y218337D01*
Y218050D01*
Y217763D01*
Y217475D01*
X691122D01*
Y217188D01*
Y216901D01*
Y216614D01*
Y216327D01*
Y216039D01*
Y215752D01*
X690835D01*
Y215465D01*
Y215178D01*
X691122D01*
Y214891D01*
X690835D01*
Y214604D01*
Y214317D01*
Y214029D01*
X691122D01*
Y213742D01*
Y213455D01*
Y213168D01*
Y212881D01*
Y212594D01*
X690835D01*
Y212306D01*
Y212019D01*
Y211732D01*
X691122D01*
Y211445D01*
Y211158D01*
Y210871D01*
X690835D01*
Y210583D01*
Y210296D01*
Y210009D01*
X690548D01*
Y209722D01*
X690260D01*
Y209435D01*
X689973D01*
Y209148D01*
X689686D01*
Y208860D01*
X689399D01*
Y208573D01*
X689112D01*
Y208286D01*
X688825D01*
Y207999D01*
X688537D01*
Y207712D01*
X688250D01*
Y207424D01*
X687963D01*
Y207137D01*
X687676D01*
Y206850D01*
X687389D01*
Y206563D01*
X687102D01*
Y206276D01*
X686814D01*
Y205989D01*
X686527D01*
Y205701D01*
X686240D01*
Y205414D01*
X685953D01*
Y205127D01*
X685666D01*
Y204840D01*
X685379D01*
Y204553D01*
X685091D01*
Y204266D01*
X684804D01*
Y203978D01*
X684517D01*
Y203691D01*
X684230D01*
Y203404D01*
X683943D01*
Y203117D01*
X683656D01*
Y202830D01*
X683368D01*
Y202543D01*
X683081D01*
Y202256D01*
X682794D01*
Y201968D01*
X682507D01*
Y201681D01*
X682220D01*
Y201394D01*
X681932D01*
Y201681D01*
Y201968D01*
Y202256D01*
X681645D01*
Y202543D01*
Y202830D01*
Y203117D01*
Y203404D01*
Y203691D01*
Y203978D01*
Y204266D01*
Y204553D01*
X681071D01*
Y204840D01*
Y205127D01*
X681358D01*
Y205414D01*
Y205701D01*
Y205989D01*
Y206276D01*
Y206563D01*
Y206850D01*
Y207137D01*
Y207424D01*
X680784D01*
Y207712D01*
Y207999D01*
Y208286D01*
Y208573D01*
Y208860D01*
Y209148D01*
Y209435D01*
Y209722D01*
X681358D01*
Y210009D01*
X681071D01*
Y210296D01*
X681645D01*
Y210583D01*
Y210871D01*
Y211158D01*
X681932D01*
Y211445D01*
Y211732D01*
X682220D01*
Y212019D01*
Y212306D01*
Y212594D01*
X682794D01*
Y212881D01*
X682507D01*
Y213168D01*
X683081D01*
Y213455D01*
Y213742D01*
Y214029D01*
X683368D01*
Y214317D01*
Y214604D01*
X683656D01*
Y214891D01*
Y215178D01*
Y215465D01*
X684230D01*
Y215752D01*
X683943D01*
Y216039D01*
X684517D01*
Y216327D01*
Y216614D01*
Y216901D01*
X684804D01*
Y217188D01*
X685091D01*
Y217475D01*
X685666D01*
Y217763D01*
X685953D01*
Y218050D01*
X686240D01*
Y218337D01*
X686814D01*
Y218624D01*
X687102D01*
Y218911D01*
X687963D01*
Y219198D01*
Y219486D01*
X688250D01*
Y219773D01*
X689112D01*
Y219486D01*
D02*
G37*
G36*
X702034Y204266D02*
Y203978D01*
X691983D01*
Y204266D01*
X691409D01*
Y204553D01*
X702034D01*
Y204266D01*
D02*
G37*
G36*
X695142Y215752D02*
X695716D01*
Y215465D01*
X696004D01*
Y215178D01*
X696291D01*
Y214891D01*
Y214604D01*
X697152D01*
Y214317D01*
X697439D01*
Y214029D01*
X697727D01*
Y213742D01*
X698014D01*
Y213455D01*
Y213168D01*
X698588D01*
Y212881D01*
X698875D01*
Y212594D01*
X701747D01*
Y212306D01*
Y212019D01*
X700885D01*
Y211732D01*
X700598D01*
Y211445D01*
X699162D01*
Y211732D01*
X698875D01*
Y212019D01*
X698588D01*
Y212306D01*
X698301D01*
Y212594D01*
X698014D01*
Y212881D01*
X697727D01*
Y213168D01*
X697439D01*
Y213455D01*
X697152D01*
Y213742D01*
X696578D01*
Y214029D01*
X696291D01*
Y214317D01*
Y214604D01*
X696004D01*
Y214891D01*
X692845D01*
Y215178D01*
X691983D01*
Y215465D01*
Y215752D01*
Y216039D01*
X695142D01*
Y215752D01*
D02*
G37*
G36*
X700311Y223793D02*
X700598D01*
Y223506D01*
Y223219D01*
Y222932D01*
X700885D01*
Y222644D01*
X692558D01*
Y222932D01*
X693132D01*
Y223219D01*
Y223506D01*
Y223793D01*
X693419D01*
Y223506D01*
Y223219D01*
Y222932D01*
X699737D01*
Y223219D01*
X700024D01*
Y223506D01*
Y223793D01*
X699737D01*
Y224080D01*
X700311D01*
Y223793D01*
D02*
G37*
G36*
X693706Y224080D02*
Y223793D01*
X693419D01*
Y224080D01*
Y224367D01*
X693706D01*
Y224080D01*
D02*
G37*
G36*
X699737Y224655D02*
Y224367D01*
X699450D01*
Y224655D01*
Y224942D01*
X699737D01*
Y224655D01*
D02*
G37*
G36*
X701747Y221209D02*
X701460D01*
Y220921D01*
X701747D01*
Y220634D01*
X699162D01*
Y220921D01*
X698588D01*
Y221209D01*
X698301D01*
Y221496D01*
X701747D01*
Y221209D01*
D02*
G37*
G36*
X695716Y218337D02*
X696004D01*
Y218050D01*
X696291D01*
Y217763D01*
Y217475D01*
X696578D01*
Y217188D01*
X697152D01*
Y216901D01*
X697439D01*
Y216614D01*
X697727D01*
Y216327D01*
Y216039D01*
X698014D01*
Y215752D01*
X698875D01*
Y215465D01*
X699450D01*
Y215178D01*
X700885D01*
Y214891D01*
Y214604D01*
X701460D01*
Y214317D01*
X701747D01*
Y214029D01*
X699450D01*
Y214317D01*
X699162D01*
Y214604D01*
X698875D01*
Y214891D01*
X698588D01*
Y215178D01*
X698301D01*
Y215465D01*
X698014D01*
Y215752D01*
X697727D01*
Y216039D01*
X697439D01*
Y216327D01*
X697152D01*
Y216614D01*
X696578D01*
Y216901D01*
X696291D01*
Y217188D01*
X696004D01*
Y217475D01*
X695716D01*
Y217763D01*
X691983D01*
Y218050D01*
Y218337D01*
X692558D01*
Y218624D01*
X695716D01*
Y218337D01*
D02*
G37*
G36*
X704331Y220060D02*
X704619D01*
Y219773D01*
X705193D01*
Y219486D01*
X705480D01*
Y219198D01*
X705767D01*
Y218911D01*
X706342D01*
Y218624D01*
X706629D01*
Y218337D01*
X707490D01*
Y218050D01*
X707778D01*
Y217763D01*
Y217475D01*
X708639D01*
Y217188D01*
X708926D01*
Y216901D01*
X709213D01*
Y216614D01*
Y216327D01*
Y216039D01*
X709501D01*
Y215752D01*
Y215465D01*
X709788D01*
Y215178D01*
Y214891D01*
Y214604D01*
X710362D01*
Y214317D01*
X710075D01*
Y214029D01*
X710649D01*
Y213742D01*
Y213455D01*
Y213168D01*
X710936D01*
Y212881D01*
Y212594D01*
X711224D01*
Y212306D01*
Y212019D01*
Y211732D01*
X711798D01*
Y211445D01*
X711511D01*
Y211158D01*
X712085D01*
Y210871D01*
Y210583D01*
Y210296D01*
X712372D01*
Y210009D01*
Y209722D01*
X712659D01*
Y209435D01*
Y209148D01*
Y208860D01*
Y208573D01*
Y208286D01*
X712372D01*
Y207999D01*
Y207712D01*
Y207424D01*
Y207137D01*
Y206850D01*
Y206563D01*
Y206276D01*
Y205989D01*
Y205701D01*
Y205414D01*
Y205127D01*
X712085D01*
Y204840D01*
Y204553D01*
Y204266D01*
Y203978D01*
Y203691D01*
Y203404D01*
Y203117D01*
Y202830D01*
X711511D01*
Y202543D01*
Y202256D01*
Y201968D01*
Y201681D01*
X711798D01*
Y201394D01*
Y201107D01*
X711511D01*
Y201394D01*
X711224D01*
Y201681D01*
X710936D01*
Y201968D01*
Y202256D01*
X710649D01*
Y202543D01*
X710075D01*
Y202830D01*
X709788D01*
Y203117D01*
X709501D01*
Y203404D01*
Y203691D01*
X709213D01*
Y203978D01*
X708639D01*
Y204266D01*
X708352D01*
Y204553D01*
X708065D01*
Y204840D01*
Y205127D01*
X707778D01*
Y205414D01*
X707203D01*
Y205701D01*
X706916D01*
Y205989D01*
X706629D01*
Y206276D01*
Y206563D01*
X706342D01*
Y206850D01*
X705767D01*
Y207137D01*
X705480D01*
Y207424D01*
X705193D01*
Y207712D01*
Y207999D01*
X704906D01*
Y208286D01*
X704331D01*
Y208573D01*
X704044D01*
Y208860D01*
X703757D01*
Y209148D01*
Y209435D01*
X703470D01*
Y209722D01*
X702896D01*
Y210009D01*
X702608D01*
Y210296D01*
X702321D01*
Y210583D01*
Y210871D01*
Y211158D01*
Y211445D01*
Y211732D01*
Y212019D01*
Y212306D01*
Y212594D01*
Y212881D01*
Y213168D01*
Y213455D01*
Y213742D01*
Y214029D01*
Y214317D01*
Y214604D01*
Y214891D01*
Y215178D01*
Y215465D01*
Y215752D01*
Y216039D01*
Y216327D01*
Y216614D01*
Y216901D01*
Y217188D01*
Y217475D01*
Y217763D01*
Y218050D01*
Y218337D01*
Y218624D01*
Y218911D01*
Y219198D01*
Y219486D01*
X702608D01*
Y219198D01*
X702896D01*
Y218911D01*
X703183D01*
Y218624D01*
X703470D01*
Y218337D01*
Y218050D01*
X703757D01*
Y217763D01*
Y217475D01*
X704044D01*
Y217188D01*
Y216901D01*
X704619D01*
Y216614D01*
X704906D01*
Y216327D01*
Y216039D01*
Y215752D01*
X705193D01*
Y215465D01*
X705480D01*
Y215178D01*
X705767D01*
Y214891D01*
X706054D01*
Y214604D01*
X705767D01*
Y214317D01*
X706342D01*
Y214029D01*
X707203D01*
Y214317D01*
Y214604D01*
X706916D01*
Y214891D01*
X706629D01*
Y215178D01*
Y215465D01*
Y215752D01*
X706342D01*
Y216039D01*
X706054D01*
Y216327D01*
Y216614D01*
Y216901D01*
X705480D01*
Y217188D01*
X705767D01*
Y217475D01*
Y217763D01*
Y218050D01*
X705193D01*
Y218337D01*
Y218624D01*
X704906D01*
Y218911D01*
Y219198D01*
Y219486D01*
X704331D01*
Y219773D01*
X704044D01*
Y220060D01*
Y220347D01*
X704331D01*
Y220060D01*
D02*
G37*
G36*
X696578D02*
X697152D01*
Y219773D01*
X697439D01*
Y219486D01*
X697727D01*
Y219198D01*
Y218911D01*
X698014D01*
Y218624D01*
X698588D01*
Y218337D01*
X701747D01*
Y218050D01*
X701460D01*
Y217763D01*
Y217475D01*
Y217188D01*
X701747D01*
Y216901D01*
X700598D01*
Y216614D01*
X699162D01*
Y216901D01*
X698875D01*
Y217188D01*
X698301D01*
Y217475D01*
Y217763D01*
X698014D01*
Y218050D01*
X697727D01*
Y218337D01*
X697439D01*
Y218624D01*
X696865D01*
Y218911D01*
Y219198D01*
X696578D01*
Y219486D01*
X696291D01*
Y219773D01*
X693132D01*
Y220060D01*
X692558D01*
Y220347D01*
X696578D01*
Y220060D01*
D02*
G37*
G36*
X696291Y322222D02*
X696578D01*
Y321935D01*
X696865D01*
Y321648D01*
X697152D01*
Y321360D01*
X697727D01*
Y321073D01*
Y320786D01*
X698301D01*
Y320499D01*
X698588D01*
Y320212D01*
X698875D01*
Y319924D01*
X699162D01*
Y319637D01*
X703757D01*
Y319350D01*
X703470D01*
Y319063D01*
X703183D01*
Y318776D01*
Y318489D01*
X698014D01*
Y318776D01*
Y319063D01*
X697727D01*
Y319350D01*
X697152D01*
Y319637D01*
X696865D01*
Y319924D01*
X696578D01*
Y320212D01*
Y320499D01*
X696291D01*
Y320786D01*
X695716D01*
Y321073D01*
X695429D01*
Y321360D01*
X695142D01*
Y321648D01*
Y321935D01*
X691122D01*
Y322222D01*
X691696D01*
Y322509D01*
X696291D01*
Y322222D01*
D02*
G37*
G36*
X699162Y322509D02*
X700598D01*
Y322222D01*
X702034D01*
Y321935D01*
Y321648D01*
X701747D01*
Y321935D01*
X700598D01*
Y321648D01*
Y321360D01*
X700311D01*
Y321648D01*
X700024D01*
Y321935D01*
X699737D01*
Y322222D01*
X699162D01*
Y322509D01*
X698588D01*
Y322796D01*
X699162D01*
Y322509D01*
D02*
G37*
G36*
X695429Y325955D02*
X695716D01*
Y325668D01*
X696004D01*
Y325381D01*
X696291D01*
Y325094D01*
X696578D01*
Y324806D01*
X696865D01*
Y324519D01*
X697152D01*
Y324232D01*
X697439D01*
Y323945D01*
X691983D01*
Y324232D01*
Y324519D01*
Y324806D01*
Y325094D01*
Y325381D01*
Y325668D01*
X692845D01*
Y325955D01*
X693132D01*
Y326242D01*
X695429D01*
Y325955D01*
D02*
G37*
G36*
X694568Y319063D02*
Y318776D01*
X694855D01*
Y318489D01*
X695429D01*
Y318201D01*
X690548D01*
Y318489D01*
Y318776D01*
Y319063D01*
X690260D01*
Y319350D01*
X694568D01*
Y319063D01*
D02*
G37*
G36*
X697439Y313607D02*
X697152D01*
Y313320D01*
X697439D01*
Y313033D01*
Y312745D01*
X696865D01*
Y312458D01*
Y312171D01*
Y311884D01*
X696578D01*
Y312171D01*
Y312458D01*
Y312745D01*
X696291D01*
Y313033D01*
Y313320D01*
Y313607D01*
Y313894D01*
X697439D01*
Y313607D01*
D02*
G37*
G36*
X689112Y331986D02*
Y331698D01*
X688825D01*
Y331411D01*
Y331124D01*
X688250D01*
Y330837D01*
Y330550D01*
X687963D01*
Y330263D01*
Y329975D01*
Y329688D01*
X687676D01*
Y329401D01*
Y329114D01*
X687102D01*
Y328827D01*
X687389D01*
Y328539D01*
Y328252D01*
X686814D01*
Y327965D01*
Y327678D01*
Y327391D01*
X686527D01*
Y327104D01*
Y326817D01*
Y326529D01*
X687389D01*
Y326817D01*
X687676D01*
Y327104D01*
Y327391D01*
Y327678D01*
X687963D01*
Y327965D01*
X688250D01*
Y328252D01*
X688825D01*
Y328539D01*
Y328827D01*
Y329114D01*
X689112D01*
Y329401D01*
X689399D01*
Y329688D01*
Y329975D01*
X689686D01*
Y330263D01*
Y330550D01*
X690260D01*
Y330837D01*
Y331124D01*
X690548D01*
Y331411D01*
X690835D01*
Y331124D01*
Y330837D01*
Y330550D01*
Y330263D01*
Y329975D01*
X691122D01*
Y329688D01*
Y329401D01*
Y329114D01*
Y328827D01*
Y328539D01*
Y328252D01*
X690835D01*
Y327965D01*
Y327678D01*
X691122D01*
Y327391D01*
X690835D01*
Y327104D01*
Y326817D01*
Y326529D01*
X691122D01*
Y326242D01*
Y325955D01*
Y325668D01*
Y325381D01*
Y325094D01*
X690835D01*
Y324806D01*
Y324519D01*
Y324232D01*
X691122D01*
Y323945D01*
Y323658D01*
Y323371D01*
X690835D01*
Y323083D01*
Y322796D01*
Y322509D01*
X690548D01*
Y322222D01*
X690260D01*
Y321935D01*
X689973D01*
Y321648D01*
X689686D01*
Y321360D01*
X689399D01*
Y321073D01*
X689112D01*
Y320786D01*
X688825D01*
Y320499D01*
X688537D01*
Y320212D01*
X688250D01*
Y319924D01*
X687963D01*
Y319637D01*
X687676D01*
Y319350D01*
X687389D01*
Y319063D01*
X687102D01*
Y318776D01*
X686814D01*
Y318489D01*
X686527D01*
Y318201D01*
X686240D01*
Y317914D01*
X685953D01*
Y317627D01*
X685666D01*
Y317340D01*
X685379D01*
Y317053D01*
X685091D01*
Y316766D01*
X684804D01*
Y316478D01*
X684517D01*
Y316191D01*
X684230D01*
Y315904D01*
X683943D01*
Y315617D01*
X683656D01*
Y315330D01*
X683368D01*
Y315043D01*
X683081D01*
Y314756D01*
X682794D01*
Y314468D01*
X682507D01*
Y314181D01*
X682220D01*
Y313894D01*
X681932D01*
Y314181D01*
Y314468D01*
Y314756D01*
X681645D01*
Y315043D01*
Y315330D01*
Y315617D01*
Y315904D01*
Y316191D01*
Y316478D01*
Y316766D01*
Y317053D01*
X681071D01*
Y317340D01*
Y317627D01*
X681358D01*
Y317914D01*
Y318201D01*
Y318489D01*
Y318776D01*
Y319063D01*
Y319350D01*
Y319637D01*
Y319924D01*
X680784D01*
Y320212D01*
Y320499D01*
Y320786D01*
Y321073D01*
Y321360D01*
Y321648D01*
Y321935D01*
Y322222D01*
X681358D01*
Y322509D01*
X681071D01*
Y322796D01*
X681645D01*
Y323083D01*
Y323371D01*
Y323658D01*
X681932D01*
Y323945D01*
Y324232D01*
X682220D01*
Y324519D01*
Y324806D01*
Y325094D01*
X682794D01*
Y325381D01*
X682507D01*
Y325668D01*
X683081D01*
Y325955D01*
Y326242D01*
Y326529D01*
X683368D01*
Y326817D01*
Y327104D01*
X683656D01*
Y327391D01*
Y327678D01*
Y327965D01*
X684230D01*
Y328252D01*
X683943D01*
Y328539D01*
X684517D01*
Y328827D01*
Y329114D01*
Y329401D01*
X684804D01*
Y329688D01*
X685091D01*
Y329975D01*
X685666D01*
Y330263D01*
X685953D01*
Y330550D01*
X686240D01*
Y330837D01*
X686814D01*
Y331124D01*
X687102D01*
Y331411D01*
X687963D01*
Y331698D01*
Y331986D01*
X688250D01*
Y332273D01*
X689112D01*
Y331986D01*
D02*
G37*
G36*
X702034Y316766D02*
Y316478D01*
X691983D01*
Y316766D01*
X691409D01*
Y317053D01*
X702034D01*
Y316766D01*
D02*
G37*
G36*
X695142Y328252D02*
X695716D01*
Y327965D01*
X696004D01*
Y327678D01*
X696291D01*
Y327391D01*
Y327104D01*
X697152D01*
Y326817D01*
X697439D01*
Y326529D01*
X697727D01*
Y326242D01*
X698014D01*
Y325955D01*
Y325668D01*
X698588D01*
Y325381D01*
X698875D01*
Y325094D01*
X701747D01*
Y324806D01*
Y324519D01*
X700885D01*
Y324232D01*
X700598D01*
Y323945D01*
X699162D01*
Y324232D01*
X698875D01*
Y324519D01*
X698588D01*
Y324806D01*
X698301D01*
Y325094D01*
X698014D01*
Y325381D01*
X697727D01*
Y325668D01*
X697439D01*
Y325955D01*
X697152D01*
Y326242D01*
X696578D01*
Y326529D01*
X696291D01*
Y326817D01*
Y327104D01*
X696004D01*
Y327391D01*
X692845D01*
Y327678D01*
X691983D01*
Y327965D01*
Y328252D01*
Y328539D01*
X695142D01*
Y328252D01*
D02*
G37*
G36*
X700311Y336293D02*
X700598D01*
Y336006D01*
Y335719D01*
Y335432D01*
X700885D01*
Y335144D01*
X692558D01*
Y335432D01*
X693132D01*
Y335719D01*
Y336006D01*
Y336293D01*
X693419D01*
Y336006D01*
Y335719D01*
Y335432D01*
X699737D01*
Y335719D01*
X700024D01*
Y336006D01*
Y336293D01*
X699737D01*
Y336580D01*
X700311D01*
Y336293D01*
D02*
G37*
G36*
X693706Y336580D02*
Y336293D01*
X693419D01*
Y336580D01*
Y336867D01*
X693706D01*
Y336580D01*
D02*
G37*
G36*
X699737Y337155D02*
Y336867D01*
X699450D01*
Y337155D01*
Y337442D01*
X699737D01*
Y337155D01*
D02*
G37*
G36*
X701747Y333709D02*
X701460D01*
Y333421D01*
X701747D01*
Y333134D01*
X699162D01*
Y333421D01*
X698588D01*
Y333709D01*
X698301D01*
Y333996D01*
X701747D01*
Y333709D01*
D02*
G37*
G36*
X695716Y330837D02*
X696004D01*
Y330550D01*
X696291D01*
Y330263D01*
Y329975D01*
X696578D01*
Y329688D01*
X697152D01*
Y329401D01*
X697439D01*
Y329114D01*
X697727D01*
Y328827D01*
Y328539D01*
X698014D01*
Y328252D01*
X698875D01*
Y327965D01*
X699450D01*
Y327678D01*
X700885D01*
Y327391D01*
Y327104D01*
X701460D01*
Y326817D01*
X701747D01*
Y326529D01*
X699450D01*
Y326817D01*
X699162D01*
Y327104D01*
X698875D01*
Y327391D01*
X698588D01*
Y327678D01*
X698301D01*
Y327965D01*
X698014D01*
Y328252D01*
X697727D01*
Y328539D01*
X697439D01*
Y328827D01*
X697152D01*
Y329114D01*
X696578D01*
Y329401D01*
X696291D01*
Y329688D01*
X696004D01*
Y329975D01*
X695716D01*
Y330263D01*
X691983D01*
Y330550D01*
Y330837D01*
X692558D01*
Y331124D01*
X695716D01*
Y330837D01*
D02*
G37*
G36*
X704331Y332560D02*
X704619D01*
Y332273D01*
X705193D01*
Y331986D01*
X705480D01*
Y331698D01*
X705767D01*
Y331411D01*
X706342D01*
Y331124D01*
X706629D01*
Y330837D01*
X707490D01*
Y330550D01*
X707778D01*
Y330263D01*
Y329975D01*
X708639D01*
Y329688D01*
X708926D01*
Y329401D01*
X709213D01*
Y329114D01*
Y328827D01*
Y328539D01*
X709501D01*
Y328252D01*
Y327965D01*
X709788D01*
Y327678D01*
Y327391D01*
Y327104D01*
X710362D01*
Y326817D01*
X710075D01*
Y326529D01*
X710649D01*
Y326242D01*
Y325955D01*
Y325668D01*
X710936D01*
Y325381D01*
Y325094D01*
X711224D01*
Y324806D01*
Y324519D01*
Y324232D01*
X711798D01*
Y323945D01*
X711511D01*
Y323658D01*
X712085D01*
Y323371D01*
Y323083D01*
Y322796D01*
X712372D01*
Y322509D01*
Y322222D01*
X712659D01*
Y321935D01*
Y321648D01*
Y321360D01*
Y321073D01*
Y320786D01*
X712372D01*
Y320499D01*
Y320212D01*
Y319924D01*
Y319637D01*
Y319350D01*
Y319063D01*
Y318776D01*
Y318489D01*
Y318201D01*
Y317914D01*
Y317627D01*
X712085D01*
Y317340D01*
Y317053D01*
Y316766D01*
Y316478D01*
Y316191D01*
Y315904D01*
Y315617D01*
Y315330D01*
X711511D01*
Y315043D01*
Y314756D01*
Y314468D01*
Y314181D01*
X711798D01*
Y313894D01*
Y313607D01*
X711511D01*
Y313894D01*
X711224D01*
Y314181D01*
X710936D01*
Y314468D01*
Y314756D01*
X710649D01*
Y315043D01*
X710075D01*
Y315330D01*
X709788D01*
Y315617D01*
X709501D01*
Y315904D01*
Y316191D01*
X709213D01*
Y316478D01*
X708639D01*
Y316766D01*
X708352D01*
Y317053D01*
X708065D01*
Y317340D01*
Y317627D01*
X707778D01*
Y317914D01*
X707203D01*
Y318201D01*
X706916D01*
Y318489D01*
X706629D01*
Y318776D01*
Y319063D01*
X706342D01*
Y319350D01*
X705767D01*
Y319637D01*
X705480D01*
Y319924D01*
X705193D01*
Y320212D01*
Y320499D01*
X704906D01*
Y320786D01*
X704331D01*
Y321073D01*
X704044D01*
Y321360D01*
X703757D01*
Y321648D01*
Y321935D01*
X703470D01*
Y322222D01*
X702896D01*
Y322509D01*
X702608D01*
Y322796D01*
X702321D01*
Y323083D01*
Y323371D01*
Y323658D01*
Y323945D01*
Y324232D01*
Y324519D01*
Y324806D01*
Y325094D01*
Y325381D01*
Y325668D01*
Y325955D01*
Y326242D01*
Y326529D01*
Y326817D01*
Y327104D01*
Y327391D01*
Y327678D01*
Y327965D01*
Y328252D01*
Y328539D01*
Y328827D01*
Y329114D01*
Y329401D01*
Y329688D01*
Y329975D01*
Y330263D01*
Y330550D01*
Y330837D01*
Y331124D01*
Y331411D01*
Y331698D01*
Y331986D01*
X702608D01*
Y331698D01*
X702896D01*
Y331411D01*
X703183D01*
Y331124D01*
X703470D01*
Y330837D01*
Y330550D01*
X703757D01*
Y330263D01*
Y329975D01*
X704044D01*
Y329688D01*
Y329401D01*
X704619D01*
Y329114D01*
X704906D01*
Y328827D01*
Y328539D01*
Y328252D01*
X705193D01*
Y327965D01*
X705480D01*
Y327678D01*
X705767D01*
Y327391D01*
X706054D01*
Y327104D01*
X705767D01*
Y326817D01*
X706342D01*
Y326529D01*
X707203D01*
Y326817D01*
Y327104D01*
X706916D01*
Y327391D01*
X706629D01*
Y327678D01*
Y327965D01*
Y328252D01*
X706342D01*
Y328539D01*
X706054D01*
Y328827D01*
Y329114D01*
Y329401D01*
X705480D01*
Y329688D01*
X705767D01*
Y329975D01*
Y330263D01*
Y330550D01*
X705193D01*
Y330837D01*
Y331124D01*
X704906D01*
Y331411D01*
Y331698D01*
Y331986D01*
X704331D01*
Y332273D01*
X704044D01*
Y332560D01*
Y332847D01*
X704331D01*
Y332560D01*
D02*
G37*
G36*
X696578D02*
X697152D01*
Y332273D01*
X697439D01*
Y331986D01*
X697727D01*
Y331698D01*
Y331411D01*
X698014D01*
Y331124D01*
X698588D01*
Y330837D01*
X701747D01*
Y330550D01*
X701460D01*
Y330263D01*
Y329975D01*
Y329688D01*
X701747D01*
Y329401D01*
X700598D01*
Y329114D01*
X699162D01*
Y329401D01*
X698875D01*
Y329688D01*
X698301D01*
Y329975D01*
Y330263D01*
X698014D01*
Y330550D01*
X697727D01*
Y330837D01*
X697439D01*
Y331124D01*
X696865D01*
Y331411D01*
Y331698D01*
X696578D01*
Y331986D01*
X696291D01*
Y332273D01*
X693132D01*
Y332560D01*
X692558D01*
Y332847D01*
X696578D01*
Y332560D01*
D02*
G37*
D15*
X378375Y352800D02*
G03*
X378375Y303200I-188374J-24800D01*
G01*
X731626D02*
G03*
X731626Y352800I188374J24800D01*
G01*
X378375D02*
X392300D01*
X378375Y303200D02*
X392300D01*
X717700Y352800D02*
X731626D01*
X717700Y303200D02*
X731626D01*
X392300Y165700D02*
Y303200D01*
Y165700D02*
X392500Y165500D01*
X465000D01*
Y0D02*
Y165500D01*
Y0D02*
X645000D01*
Y165500D01*
X717500D01*
X717700Y165700D01*
Y303200D01*
Y352800D02*
Y378500D01*
X717500Y490500D02*
X717700Y490300D01*
X645000Y378500D02*
X717500D01*
X645000D02*
Y544500D01*
X465000D02*
X645000D01*
X465000Y378500D02*
Y544500D01*
X392500Y378500D02*
X465000D01*
X392300Y490300D02*
X392500Y490500D01*
X392300Y352800D02*
Y378500D01*
X645000Y0D02*
X465000D01*
X645000Y153000D02*
X465000D01*
Y0D02*
Y153000D01*
X645000Y0D02*
Y153000D01*
Y391000D02*
X465000D01*
X645000Y544000D02*
X465000D01*
Y391000D02*
Y544000D01*
X645000Y391000D02*
Y544000D01*
X190000Y138000D02*
G03*
X190000Y138000I0J190000D01*
G01*
X280000Y428000D02*
X283999D01*
X285998Y426001D01*
X283999Y424001D01*
X280000D01*
X282999D01*
Y428000D01*
X285998Y422002D02*
X280000D01*
Y419003D01*
X281000Y418003D01*
X284998D01*
X285998Y419003D01*
Y422002D01*
X284998Y412005D02*
X285998Y413005D01*
Y415004D01*
X284998Y416004D01*
X281000D01*
X280000Y415004D01*
Y413005D01*
X281000Y412005D01*
X280000Y410006D02*
Y408006D01*
Y409006D01*
X285998D01*
X284998Y410006D01*
X207500Y429500D02*
X211499D01*
X213498Y427501D01*
X211499Y425501D01*
X207500D01*
X210499D01*
Y429500D01*
X213498Y423502D02*
X207500D01*
Y420503D01*
X208500Y419503D01*
X212498D01*
X213498Y420503D01*
Y423502D01*
X212498Y413505D02*
X213498Y414505D01*
Y416504D01*
X212498Y417504D01*
X208500D01*
X207500Y416504D01*
Y414505D01*
X208500Y413505D01*
X207500Y407507D02*
Y411506D01*
X211499Y407507D01*
X212498D01*
X213498Y408507D01*
Y410506D01*
X212498Y411506D01*
X134000Y429500D02*
X137999D01*
X139998Y427501D01*
X137999Y425501D01*
X134000D01*
X136999D01*
Y429500D01*
X139998Y423502D02*
X134000D01*
Y420503D01*
X135000Y419503D01*
X138998D01*
X139998Y420503D01*
Y423502D01*
X138998Y413505D02*
X139998Y414505D01*
Y416504D01*
X138998Y417504D01*
X135000D01*
X134000Y416504D01*
Y414505D01*
X135000Y413505D01*
X138998Y411506D02*
X139998Y410506D01*
Y408507D01*
X138998Y407507D01*
X137999D01*
X136999Y408507D01*
Y409507D01*
Y408507D01*
X135999Y407507D01*
X135000D01*
X134000Y408507D01*
Y410506D01*
X135000Y411506D01*
X236098Y344001D02*
X237098Y345001D01*
Y347000D01*
X236098Y348000D01*
X232100D01*
X231100Y347000D01*
Y345001D01*
X232100Y344001D01*
X231100Y339003D02*
X237098D01*
X234099Y342002D01*
Y338003D01*
X236098Y336004D02*
X237098Y335004D01*
Y333005D01*
X236098Y332005D01*
X235099D01*
X234099Y333005D01*
Y334004D01*
Y333005D01*
X233099Y332005D01*
X232100D01*
X231100Y333005D01*
Y335004D01*
X232100Y336004D01*
X285951Y263652D02*
X287950D01*
X288950Y264652D01*
Y268650D01*
X287950Y269650D01*
X285951D01*
X284951Y268650D01*
Y264652D01*
X285951Y263652D01*
X282952Y269650D02*
Y263652D01*
X279953D01*
X278953Y264652D01*
Y266651D01*
X279953Y267651D01*
X282952D01*
X276954Y269650D02*
X274955D01*
X275954D01*
Y263652D01*
X276954Y264652D01*
X210951Y263152D02*
X212950D01*
X213950Y264152D01*
Y268150D01*
X212950Y269150D01*
X210951D01*
X209951Y268150D01*
Y264152D01*
X210951Y263152D01*
X207952Y269150D02*
Y263152D01*
X204953D01*
X203953Y264152D01*
Y266151D01*
X204953Y267151D01*
X207952D01*
X197955Y269150D02*
X201954D01*
X197955Y265151D01*
Y264152D01*
X198955Y263152D01*
X200954D01*
X201954Y264152D01*
X132951Y263652D02*
X134950D01*
X135950Y264652D01*
Y268650D01*
X134950Y269650D01*
X132951D01*
X131951Y268650D01*
Y264652D01*
X132951Y263652D01*
X129952Y269650D02*
Y263652D01*
X126953D01*
X125953Y264652D01*
Y266651D01*
X126953Y267651D01*
X129952D01*
X123954Y264652D02*
X122954Y263652D01*
X120955D01*
X119955Y264652D01*
Y265651D01*
X120955Y266651D01*
X121955D01*
X120955D01*
X119955Y267651D01*
Y268650D01*
X120955Y269650D01*
X122954D01*
X123954Y268650D01*
X263451Y340152D02*
X265450D01*
X266450Y341152D01*
Y345150D01*
X265450Y346150D01*
X263451D01*
X262451Y345150D01*
Y341152D01*
X263451Y340152D01*
X260452Y346150D02*
Y340152D01*
X257453D01*
X256453Y341152D01*
Y343151D01*
X257453Y344151D01*
X260452D01*
X251455Y346150D02*
Y340152D01*
X254454Y343151D01*
X250455D01*
X115951Y340152D02*
X117950D01*
X118950Y341152D01*
Y345150D01*
X117950Y346150D01*
X115951D01*
X114951Y345150D01*
Y341152D01*
X115951Y340152D01*
X112952Y346150D02*
Y340152D01*
X109953D01*
X108953Y341152D01*
Y343151D01*
X109953Y344151D01*
X112952D01*
X102955Y340152D02*
X106954D01*
Y343151D01*
X104955Y342151D01*
X103955D01*
X102955Y343151D01*
Y345150D01*
X103955Y346150D01*
X105954D01*
X106954Y345150D01*
X174999Y494998D02*
X173999Y495998D01*
X172000D01*
X171000Y494998D01*
Y491000D01*
X172000Y490000D01*
X173999D01*
X174999Y491000D01*
X176998Y495998D02*
Y490000D01*
Y492999D01*
X177998Y493999D01*
X179997D01*
X180997Y492999D01*
Y490000D01*
X185995D02*
X183996D01*
X182996Y491000D01*
Y492999D01*
X183996Y493999D01*
X185995D01*
X186995Y492999D01*
Y491999D01*
X182996D01*
X191993Y490000D02*
X189994D01*
X188994Y491000D01*
Y492999D01*
X189994Y493999D01*
X191993D01*
X192993Y492999D01*
Y491999D01*
X188994D01*
X195992Y494998D02*
Y493999D01*
X194992D01*
X196992D01*
X195992D01*
Y491000D01*
X196992Y490000D01*
X200990Y493999D02*
X202990D01*
X203989Y492999D01*
Y490000D01*
X200990D01*
X199991Y491000D01*
X200990Y491999D01*
X203989D01*
X205989Y495998D02*
Y490000D01*
Y492999D01*
X206988Y493999D01*
X208988D01*
X209987Y492999D01*
Y490000D01*
X920000Y138000D02*
G03*
X920000Y138000I0J190000D01*
G01*
X1010000Y428000D02*
X1013999D01*
X1015998Y426001D01*
X1013999Y424001D01*
X1010000D01*
X1012999D01*
Y428000D01*
X1015998Y422002D02*
X1010000D01*
Y419003D01*
X1011000Y418003D01*
X1014998D01*
X1015998Y419003D01*
Y422002D01*
X1014998Y412005D02*
X1015998Y413005D01*
Y415004D01*
X1014998Y416004D01*
X1011000D01*
X1010000Y415004D01*
Y413005D01*
X1011000Y412005D01*
X1010000Y410006D02*
Y408006D01*
Y409006D01*
X1015998D01*
X1014998Y410006D01*
X937500Y429500D02*
X941499D01*
X943498Y427501D01*
X941499Y425501D01*
X937500D01*
X940499D01*
Y429500D01*
X943498Y423502D02*
X937500D01*
Y420503D01*
X938500Y419503D01*
X942498D01*
X943498Y420503D01*
Y423502D01*
X942498Y413505D02*
X943498Y414505D01*
Y416504D01*
X942498Y417504D01*
X938500D01*
X937500Y416504D01*
Y414505D01*
X938500Y413505D01*
X937500Y407507D02*
Y411506D01*
X941499Y407507D01*
X942498D01*
X943498Y408507D01*
Y410506D01*
X942498Y411506D01*
X864000Y429500D02*
X867999D01*
X869998Y427501D01*
X867999Y425501D01*
X864000D01*
X866999D01*
Y429500D01*
X869998Y423502D02*
X864000D01*
Y420503D01*
X865000Y419503D01*
X868998D01*
X869998Y420503D01*
Y423502D01*
X868998Y413505D02*
X869998Y414505D01*
Y416504D01*
X868998Y417504D01*
X865000D01*
X864000Y416504D01*
Y414505D01*
X865000Y413505D01*
X868998Y411506D02*
X869998Y410506D01*
Y408507D01*
X868998Y407507D01*
X867999D01*
X866999Y408507D01*
Y409507D01*
Y408507D01*
X865999Y407507D01*
X865000D01*
X864000Y408507D01*
Y410506D01*
X865000Y411506D01*
X966098Y344001D02*
X967098Y345001D01*
Y347000D01*
X966098Y348000D01*
X962100D01*
X961100Y347000D01*
Y345001D01*
X962100Y344001D01*
X961100Y339003D02*
X967098D01*
X964099Y342002D01*
Y338003D01*
X966098Y336004D02*
X967098Y335004D01*
Y333005D01*
X966098Y332005D01*
X965099D01*
X964099Y333005D01*
Y334004D01*
Y333005D01*
X963099Y332005D01*
X962100D01*
X961100Y333005D01*
Y335004D01*
X962100Y336004D01*
X1015951Y263652D02*
X1017950D01*
X1018950Y264652D01*
Y268650D01*
X1017950Y269650D01*
X1015951D01*
X1014951Y268650D01*
Y264652D01*
X1015951Y263652D01*
X1012952Y269650D02*
Y263652D01*
X1009953D01*
X1008953Y264652D01*
Y266651D01*
X1009953Y267651D01*
X1012952D01*
X1006954Y269650D02*
X1004955D01*
X1005954D01*
Y263652D01*
X1006954Y264652D01*
X940951Y263152D02*
X942950D01*
X943950Y264152D01*
Y268150D01*
X942950Y269150D01*
X940951D01*
X939951Y268150D01*
Y264152D01*
X940951Y263152D01*
X937952Y269150D02*
Y263152D01*
X934953D01*
X933953Y264152D01*
Y266151D01*
X934953Y267151D01*
X937952D01*
X927955Y269150D02*
X931954D01*
X927955Y265151D01*
Y264152D01*
X928955Y263152D01*
X930954D01*
X931954Y264152D01*
X862951Y263652D02*
X864950D01*
X865950Y264652D01*
Y268650D01*
X864950Y269650D01*
X862951D01*
X861951Y268650D01*
Y264652D01*
X862951Y263652D01*
X859952Y269650D02*
Y263652D01*
X856953D01*
X855953Y264652D01*
Y266651D01*
X856953Y267651D01*
X859952D01*
X853954Y264652D02*
X852954Y263652D01*
X850955D01*
X849955Y264652D01*
Y265651D01*
X850955Y266651D01*
X851954D01*
X850955D01*
X849955Y267651D01*
Y268650D01*
X850955Y269650D01*
X852954D01*
X853954Y268650D01*
X993451Y340152D02*
X995450D01*
X996450Y341152D01*
Y345150D01*
X995450Y346150D01*
X993451D01*
X992451Y345150D01*
Y341152D01*
X993451Y340152D01*
X990452Y346150D02*
Y340152D01*
X987453D01*
X986453Y341152D01*
Y343151D01*
X987453Y344151D01*
X990452D01*
X981455Y346150D02*
Y340152D01*
X984454Y343151D01*
X980455D01*
X845951Y340152D02*
X847950D01*
X848950Y341152D01*
Y345150D01*
X847950Y346150D01*
X845951D01*
X844951Y345150D01*
Y341152D01*
X845951Y340152D01*
X842952Y346150D02*
Y340152D01*
X839953D01*
X838953Y341152D01*
Y343151D01*
X839953Y344151D01*
X842952D01*
X832955Y340152D02*
X836954D01*
Y343151D01*
X834954Y342151D01*
X833955D01*
X832955Y343151D01*
Y345150D01*
X833955Y346150D01*
X835954D01*
X836954Y345150D01*
X904999Y494998D02*
X903999Y495998D01*
X902000D01*
X901000Y494998D01*
Y491000D01*
X902000Y490000D01*
X903999D01*
X904999Y491000D01*
X906998Y495998D02*
Y490000D01*
Y492999D01*
X907998Y493999D01*
X909997D01*
X910997Y492999D01*
Y490000D01*
X915995D02*
X913996D01*
X912996Y491000D01*
Y492999D01*
X913996Y493999D01*
X915995D01*
X916995Y492999D01*
Y491999D01*
X912996D01*
X921993Y490000D02*
X919994D01*
X918994Y491000D01*
Y492999D01*
X919994Y493999D01*
X921993D01*
X922993Y492999D01*
Y491999D01*
X918994D01*
X925992Y494998D02*
Y493999D01*
X924992D01*
X926992D01*
X925992D01*
Y491000D01*
X926992Y490000D01*
X930990Y493999D02*
X932990D01*
X933989Y492999D01*
Y490000D01*
X930990D01*
X929991Y491000D01*
X930990Y491999D01*
X933989D01*
X935989Y495998D02*
Y490000D01*
Y492999D01*
X936988Y493999D01*
X938988D01*
X939987Y492999D01*
Y490000D01*
X459500Y237000D02*
Y240999D01*
X461499Y242998D01*
X463499Y240999D01*
Y237000D01*
Y239999D01*
X459500D01*
X465498Y242998D02*
Y237000D01*
X468497D01*
X469497Y238000D01*
Y241998D01*
X468497Y242998D01*
X465498D01*
X475495Y241998D02*
X474495Y242998D01*
X472496D01*
X471496Y241998D01*
Y238000D01*
X472496Y237000D01*
X474495D01*
X475495Y238000D01*
X405002Y199999D02*
X404002Y198999D01*
Y197000D01*
X405002Y196000D01*
X409000D01*
X410000Y197000D01*
Y198999D01*
X409000Y199999D01*
X404002Y201998D02*
X410000D01*
X407001D01*
X406001Y202998D01*
Y204997D01*
X407001Y205997D01*
X410000D01*
Y210995D02*
Y208996D01*
X409000Y207996D01*
X407001D01*
X406001Y208996D01*
Y210995D01*
X407001Y211995D01*
X408001D01*
Y207996D01*
X410000Y216993D02*
Y214994D01*
X409000Y213994D01*
X407001D01*
X406001Y214994D01*
Y216993D01*
X407001Y217993D01*
X408001D01*
Y213994D01*
X405002Y220992D02*
X406001D01*
Y219992D01*
Y221992D01*
Y220992D01*
X409000D01*
X410000Y221992D01*
X406001Y225990D02*
Y227990D01*
X407001Y228989D01*
X410000D01*
Y225990D01*
X409000Y224991D01*
X408001Y225990D01*
Y228989D01*
X404002Y230989D02*
X410000D01*
X407001D01*
X406001Y231988D01*
Y233988D01*
X407001Y234987D01*
X410000D01*
X459500Y349500D02*
Y353499D01*
X461499Y355498D01*
X463499Y353499D01*
Y349500D01*
Y352499D01*
X459500D01*
X465498Y355498D02*
Y349500D01*
X468497D01*
X469497Y350500D01*
Y354498D01*
X468497Y355498D01*
X465498D01*
X475495Y354498D02*
X474495Y355498D01*
X472496D01*
X471496Y354498D01*
Y350500D01*
X472496Y349500D01*
X474495D01*
X475495Y350500D01*
X405002Y312499D02*
X404002Y311499D01*
Y309500D01*
X405002Y308500D01*
X409000D01*
X410000Y309500D01*
Y311499D01*
X409000Y312499D01*
X404002Y314498D02*
X410000D01*
X407001D01*
X406001Y315498D01*
Y317497D01*
X407001Y318497D01*
X410000D01*
Y323495D02*
Y321496D01*
X409000Y320496D01*
X407001D01*
X406001Y321496D01*
Y323495D01*
X407001Y324495D01*
X408001D01*
Y320496D01*
X410000Y329493D02*
Y327494D01*
X409000Y326494D01*
X407001D01*
X406001Y327494D01*
Y329493D01*
X407001Y330493D01*
X408001D01*
Y326494D01*
X405002Y333492D02*
X406001D01*
Y332492D01*
Y334492D01*
Y333492D01*
X409000D01*
X410000Y334492D01*
X406001Y338490D02*
Y340490D01*
X407001Y341489D01*
X410000D01*
Y338490D01*
X409000Y337491D01*
X408001Y338490D01*
Y341489D01*
X404002Y343489D02*
X410000D01*
X407001D01*
X406001Y344488D01*
Y346488D01*
X407001Y347487D01*
X410000D01*
D39*
X480000Y41500D02*
Y51500D01*
X630000Y41500D02*
Y51500D01*
Y41500D02*
X622500D01*
X480000D01*
X630000Y51500D02*
X480000D01*
Y101500D02*
Y111500D01*
X630000Y101500D02*
Y111500D01*
Y101500D02*
X622500D01*
X480000D01*
X630000Y111500D02*
X480000D01*
X596500Y61500D02*
X586500D01*
Y91500D01*
X596500D02*
X586500D01*
X596500Y61500D02*
Y91500D01*
X520000D02*
X510000D01*
X520000Y61500D02*
Y91500D01*
Y61500D02*
X510000D01*
Y91500D01*
X480000Y432500D02*
Y442500D01*
X630000Y432500D02*
Y442500D01*
Y432500D02*
X622500D01*
X480000D01*
X630000Y442500D02*
X480000D01*
Y492500D02*
Y502500D01*
X630000Y492500D02*
Y502500D01*
Y492500D02*
X622500D01*
X480000D01*
X630000Y502500D02*
X480000D01*
X596500Y452500D02*
X586500D01*
Y482500D01*
X596500D02*
X586500D01*
X596500Y452500D02*
Y482500D01*
X520000D02*
X510000D01*
X520000Y452500D02*
Y482500D01*
Y452500D02*
X510000D01*
Y482500D01*
X266721Y417809D02*
G03*
X266721Y419089I0J640D01*
G01*
X194720Y417809D02*
G03*
X194720Y419089I0J640D01*
G01*
X120721Y417809D02*
G03*
X120721Y419089I0J640D01*
G01*
X266721Y417809D02*
Y414295D01*
Y422602D02*
Y419089D01*
Y422602D02*
X276957D01*
Y414295D01*
X266721D02*
X276957D01*
X194720Y417809D02*
Y414295D01*
Y422602D02*
Y419089D01*
Y422602D02*
X204957D01*
Y414295D01*
X194720D02*
X204957D01*
X120721Y417809D02*
Y414295D01*
Y422602D02*
Y419089D01*
Y422602D02*
X130957D01*
Y414295D01*
X120721D02*
X130957D01*
X278543Y294342D02*
Y274658D01*
X271457Y294342D02*
Y274658D01*
X278543D01*
X271457Y294342D02*
X278543D01*
X203543Y293843D02*
Y274158D01*
X196457Y293843D02*
Y274158D01*
X203543D01*
X196457Y293843D02*
X203543D01*
X125543Y294342D02*
Y274658D01*
X118457Y294342D02*
Y274658D01*
X125543D01*
X118457Y294342D02*
X125543D01*
X256043Y370843D02*
Y351157D01*
X248957Y370843D02*
Y351157D01*
X256043D01*
X248957Y370843D02*
X256043D01*
X108543D02*
Y351157D01*
X101457Y370843D02*
Y351157D01*
X108543D01*
X101457Y370843D02*
X108543D01*
X996721Y417809D02*
G03*
X996721Y419089I0J640D01*
G01*
X924720Y417809D02*
G03*
X924720Y419089I0J640D01*
G01*
X850721Y417809D02*
G03*
X850721Y419089I0J640D01*
G01*
X996721Y417809D02*
Y414295D01*
Y422602D02*
Y419089D01*
Y422602D02*
X1006957D01*
Y414295D01*
X996721D02*
X1006957D01*
X924720Y417809D02*
Y414295D01*
Y422602D02*
Y419089D01*
Y422602D02*
X934957D01*
Y414295D01*
X924720D02*
X934957D01*
X850721Y417809D02*
Y414295D01*
Y422602D02*
Y419089D01*
Y422602D02*
X860957D01*
Y414295D01*
X850721D02*
X860957D01*
X1008543Y294342D02*
Y274658D01*
X1001457Y294342D02*
Y274658D01*
X1008543D01*
X1001457Y294342D02*
X1008543D01*
X933543Y293843D02*
Y274158D01*
X926457Y293843D02*
Y274158D01*
X933543D01*
X926457Y293843D02*
X933543D01*
X855543Y294342D02*
Y274658D01*
X848457Y294342D02*
Y274658D01*
X855543D01*
X848457Y294342D02*
X855543D01*
X986043Y370843D02*
Y351157D01*
X978957Y370843D02*
Y351157D01*
X986043D01*
X978957Y370843D02*
X986043D01*
X838543D02*
Y351157D01*
X831457Y370843D02*
Y351157D01*
X838543D01*
X831457Y370843D02*
X838543D01*
X468191Y223721D02*
G03*
X466911Y223721I-640J0D01*
G01*
X468191D02*
X471705D01*
X463398D02*
X466911D01*
X463398D02*
Y233957D01*
X471705D01*
Y223721D02*
Y233957D01*
X582158Y216043D02*
X601842D01*
X582158Y208957D02*
X601842D01*
Y216043D01*
X582158Y208957D02*
Y216043D01*
X519658Y209543D02*
X539342D01*
X519658Y202457D02*
X539342D01*
Y209543D01*
X519658Y202457D02*
Y209543D01*
X468191Y336221D02*
G03*
X466911Y336221I-640J0D01*
G01*
X468191D02*
X471705D01*
X463398D02*
X466911D01*
X463398D02*
Y346457D01*
X471705D01*
Y336221D02*
Y346457D01*
X582158Y328543D02*
X601842D01*
X582158Y321457D02*
X601842D01*
Y328543D01*
X582158Y321457D02*
Y328543D01*
X519658Y322043D02*
X539342D01*
X519658Y314957D02*
X539342D01*
Y322043D01*
X519658Y314957D02*
Y322043D01*
D40*
X472152Y42150D02*
X476650D01*
X474401D01*
Y45149D01*
X472152D01*
X476650D01*
Y46649D02*
Y48148D01*
Y47398D01*
X472152D01*
X472901Y46649D01*
X472152Y102150D02*
X476650D01*
X474401D01*
Y105149D01*
X472152D01*
X476650D01*
Y109648D02*
Y106649D01*
X473651Y109648D01*
X472901D01*
X472152Y108898D01*
Y107398D01*
X472901Y106649D01*
X527500Y70500D02*
X523001D01*
X524501Y72000D01*
X523001Y73499D01*
X527500D01*
Y74999D02*
X524501D01*
X523001Y76498D01*
X524501Y77998D01*
X527500D01*
X525251D01*
Y74999D01*
X523751Y82496D02*
X523001Y81746D01*
Y80247D01*
X523751Y79497D01*
X526750D01*
X527500Y80247D01*
Y81746D01*
X526750Y82496D01*
X525251D01*
Y80997D01*
X583000Y66000D02*
X578502D01*
Y68249D01*
X579251Y68999D01*
X580751D01*
X581500Y68249D01*
Y66000D01*
X578502Y72748D02*
Y71248D01*
X579251Y70499D01*
X582250D01*
X583000Y71248D01*
Y72748D01*
X582250Y73498D01*
X579251D01*
X578502Y72748D01*
Y74997D02*
X583000D01*
X581500Y76497D01*
X583000Y77996D01*
X578502D01*
Y82495D02*
Y79496D01*
X583000D01*
Y82495D01*
X580751Y79496D02*
Y80995D01*
X583000Y83994D02*
X578502D01*
Y86243D01*
X579251Y86993D01*
X580751D01*
X581500Y86243D01*
Y83994D01*
Y85494D02*
X583000Y86993D01*
X531000Y119500D02*
X526502D01*
Y121749D01*
X527251Y122499D01*
X528751D01*
X529500Y121749D01*
Y119500D01*
Y121000D02*
X531000Y122499D01*
Y123999D02*
Y125498D01*
Y124748D01*
X526502D01*
X527251Y123999D01*
X531000Y27500D02*
X526502D01*
Y29749D01*
X527251Y30499D01*
X528751D01*
X529500Y29749D01*
Y27500D01*
Y29000D02*
X531000Y30499D01*
Y34998D02*
Y31999D01*
X528001Y34998D01*
X527251D01*
X526502Y34248D01*
Y32748D01*
X527251Y31999D01*
X571153Y27575D02*
X566655D01*
Y29824D01*
X567405Y30574D01*
X568904D01*
X569654Y29824D01*
Y27575D01*
Y29074D02*
X571153Y30574D01*
X567405Y32073D02*
X566655Y32823D01*
Y34323D01*
X567405Y35072D01*
X568154D01*
X568904Y34323D01*
Y33573D01*
Y34323D01*
X569654Y35072D01*
X570404D01*
X571153Y34323D01*
Y32823D01*
X570404Y32073D01*
X571000Y118000D02*
X566502D01*
Y120249D01*
X567251Y120999D01*
X568751D01*
X569500Y120249D01*
Y118000D01*
Y119500D02*
X571000Y120999D01*
Y124748D02*
X566502D01*
X568751Y122499D01*
Y125498D01*
X611000Y118000D02*
X606501D01*
Y120249D01*
X607251Y120999D01*
X608751D01*
X609501Y120249D01*
Y118000D01*
Y119500D02*
X611000Y120999D01*
X606501Y125498D02*
Y122499D01*
X608751D01*
X608001Y123998D01*
Y124748D01*
X608751Y125498D01*
X610250D01*
X611000Y124748D01*
Y123248D01*
X610250Y122499D01*
X611400Y27500D02*
X606902D01*
Y29749D01*
X607651Y30499D01*
X609151D01*
X609901Y29749D01*
Y27500D01*
Y29000D02*
X611400Y30499D01*
X606902Y34998D02*
X607651Y33498D01*
X609151Y31999D01*
X610650D01*
X611400Y32748D01*
Y34248D01*
X610650Y34998D01*
X609901D01*
X609151Y34248D01*
Y31999D01*
X505610Y127110D02*
X501112D01*
Y129359D01*
X501861Y130109D01*
X503361D01*
X504111Y129359D01*
Y127110D01*
Y128610D02*
X505610Y130109D01*
X501112Y134608D02*
Y131609D01*
X505610D01*
Y134608D01*
X503361Y131609D02*
Y133108D01*
X501112Y136107D02*
X505610D01*
Y138357D01*
X504860Y139106D01*
X501861D01*
X501112Y138357D01*
Y136107D01*
X505610Y140606D02*
Y142105D01*
Y141356D01*
X501112D01*
X501861Y140606D01*
X545472Y10378D02*
X540974D01*
Y12627D01*
X541724Y13377D01*
X543223D01*
X543973Y12627D01*
Y10378D01*
Y11878D02*
X545472Y13377D01*
X540974Y17876D02*
Y14876D01*
X545472D01*
Y17876D01*
X543223Y14876D02*
Y16376D01*
X540974Y19375D02*
X545472D01*
Y21624D01*
X544723Y22374D01*
X541724D01*
X540974Y21624D01*
Y19375D01*
X545472Y26873D02*
Y23874D01*
X542473Y26873D01*
X541724D01*
X540974Y26123D01*
Y24623D01*
X541724Y23874D01*
X586000Y126500D02*
X581501D01*
Y128749D01*
X582251Y129499D01*
X583751D01*
X584501Y128749D01*
Y126500D01*
Y127999D02*
X586000Y129499D01*
X581501Y133998D02*
Y130999D01*
X586000D01*
Y133998D01*
X583751Y130999D02*
Y132498D01*
X581501Y135497D02*
X586000D01*
Y137746D01*
X585250Y138496D01*
X582251D01*
X581501Y137746D01*
Y135497D01*
X582251Y139996D02*
X581501Y140745D01*
Y142245D01*
X582251Y142995D01*
X583001D01*
X583751Y142245D01*
Y141495D01*
Y142245D01*
X584501Y142995D01*
X585250D01*
X586000Y142245D01*
Y140745D01*
X585250Y139996D01*
X528000Y94300D02*
Y98799D01*
X530249D01*
X530999Y98049D01*
Y96549D01*
X530249Y95799D01*
X528000D01*
X529499D02*
X530999Y94300D01*
X532499D02*
Y98799D01*
X534748D01*
X535498Y98049D01*
Y96549D01*
X534748Y95799D01*
X532499D01*
X501013Y11165D02*
X505512D01*
X504012Y12665D01*
X505512Y14164D01*
X501013D01*
Y15664D02*
X505512D01*
X503263D01*
Y18663D01*
X501013D01*
X505512D01*
X501013Y20163D02*
Y23162D01*
Y21662D01*
X505512D01*
Y24661D02*
Y26160D01*
Y25411D01*
X501013D01*
X501763Y24661D01*
X541171Y126421D02*
X545669D01*
X544170Y127921D01*
X545669Y129420D01*
X541171D01*
Y130920D02*
X545669D01*
X543420D01*
Y133919D01*
X541171D01*
X545669D01*
X541171Y135418D02*
Y138417D01*
Y136918D01*
X545669D01*
Y142916D02*
Y139917D01*
X542670Y142916D01*
X541921D01*
X541171Y142166D01*
Y140667D01*
X541921Y139917D01*
X581131Y10378D02*
X585630D01*
X584130Y11878D01*
X585630Y13377D01*
X581131D01*
Y14876D02*
X585630D01*
X583381D01*
Y17876D01*
X581131D01*
X585630D01*
X581131Y19375D02*
Y22374D01*
Y20875D01*
X585630D01*
X581881Y23874D02*
X581131Y24623D01*
Y26123D01*
X581881Y26873D01*
X582631D01*
X583381Y26123D01*
Y25373D01*
Y26123D01*
X584130Y26873D01*
X584880D01*
X585630Y26123D01*
Y24623D01*
X584880Y23874D01*
X474251Y85000D02*
Y87999D01*
Y75000D02*
Y77999D01*
X472751Y76499D02*
X475750D01*
X472152Y433150D02*
X476650D01*
X474401D01*
Y436149D01*
X472152D01*
X476650D01*
Y437648D02*
Y439148D01*
Y438398D01*
X472152D01*
X472901Y437648D01*
X472152Y493150D02*
X476650D01*
X474401D01*
Y496149D01*
X472152D01*
X476650D01*
Y500648D02*
Y497648D01*
X473651Y500648D01*
X472901D01*
X472152Y499898D01*
Y498398D01*
X472901Y497648D01*
X527500Y461500D02*
X523001D01*
X524501Y462999D01*
X523001Y464499D01*
X527500D01*
Y465999D02*
X524501D01*
X523001Y467498D01*
X524501Y468998D01*
X527500D01*
X525251D01*
Y465999D01*
X523751Y473496D02*
X523001Y472746D01*
Y471247D01*
X523751Y470497D01*
X526750D01*
X527500Y471247D01*
Y472746D01*
X526750Y473496D01*
X525251D01*
Y471997D01*
X583000Y457000D02*
X578502D01*
Y459249D01*
X579251Y459999D01*
X580751D01*
X581500Y459249D01*
Y457000D01*
X578502Y463748D02*
Y462248D01*
X579251Y461498D01*
X582250D01*
X583000Y462248D01*
Y463748D01*
X582250Y464498D01*
X579251D01*
X578502Y463748D01*
Y465997D02*
X583000D01*
X581500Y467497D01*
X583000Y468996D01*
X578502D01*
Y473495D02*
Y470496D01*
X583000D01*
Y473495D01*
X580751Y470496D02*
Y471995D01*
X583000Y474994D02*
X578502D01*
Y477244D01*
X579251Y477993D01*
X580751D01*
X581500Y477244D01*
Y474994D01*
Y476494D02*
X583000Y477993D01*
X531000Y510500D02*
X526502D01*
Y512749D01*
X527251Y513499D01*
X528751D01*
X529500Y512749D01*
Y510500D01*
Y512000D02*
X531000Y513499D01*
Y514998D02*
Y516498D01*
Y515748D01*
X526502D01*
X527251Y514998D01*
X531000Y418500D02*
X526502D01*
Y420749D01*
X527251Y421499D01*
X528751D01*
X529500Y420749D01*
Y418500D01*
Y420000D02*
X531000Y421499D01*
Y425998D02*
Y422999D01*
X528001Y425998D01*
X527251D01*
X526502Y425248D01*
Y423748D01*
X527251Y422999D01*
X571153Y418575D02*
X566655D01*
Y420824D01*
X567405Y421574D01*
X568904D01*
X569654Y420824D01*
Y418575D01*
Y420074D02*
X571153Y421574D01*
X567405Y423073D02*
X566655Y423823D01*
Y425323D01*
X567405Y426072D01*
X568154D01*
X568904Y425323D01*
Y424573D01*
Y425323D01*
X569654Y426072D01*
X570404D01*
X571153Y425323D01*
Y423823D01*
X570404Y423073D01*
X571000Y509000D02*
X566502D01*
Y511249D01*
X567251Y511999D01*
X568751D01*
X569500Y511249D01*
Y509000D01*
Y510499D02*
X571000Y511999D01*
Y515748D02*
X566502D01*
X568751Y513498D01*
Y516498D01*
X611000Y509000D02*
X606501D01*
Y511249D01*
X607251Y511999D01*
X608751D01*
X609501Y511249D01*
Y509000D01*
Y510499D02*
X611000Y511999D01*
X606501Y516498D02*
Y513498D01*
X608751D01*
X608001Y514998D01*
Y515748D01*
X608751Y516498D01*
X610250D01*
X611000Y515748D01*
Y514248D01*
X610250Y513498D01*
X611400Y418500D02*
X606902D01*
Y420749D01*
X607651Y421499D01*
X609151D01*
X609901Y420749D01*
Y418500D01*
Y420000D02*
X611400Y421499D01*
X606902Y425998D02*
X607651Y424498D01*
X609151Y422999D01*
X610650D01*
X611400Y423748D01*
Y425248D01*
X610650Y425998D01*
X609901D01*
X609151Y425248D01*
Y422999D01*
X505610Y518110D02*
X501112D01*
Y520360D01*
X501861Y521109D01*
X503361D01*
X504111Y520360D01*
Y518110D01*
Y519610D02*
X505610Y521109D01*
X501112Y525608D02*
Y522609D01*
X505610D01*
Y525608D01*
X503361Y522609D02*
Y524108D01*
X501112Y527107D02*
X505610D01*
Y529357D01*
X504860Y530106D01*
X501861D01*
X501112Y529357D01*
Y527107D01*
X505610Y531606D02*
Y533105D01*
Y532356D01*
X501112D01*
X501861Y531606D01*
X545472Y401378D02*
X540974D01*
Y403627D01*
X541724Y404377D01*
X543223D01*
X543973Y403627D01*
Y401378D01*
Y402878D02*
X545472Y404377D01*
X540974Y408876D02*
Y405876D01*
X545472D01*
Y408876D01*
X543223Y405876D02*
Y407376D01*
X540974Y410375D02*
X545472D01*
Y412624D01*
X544723Y413374D01*
X541724D01*
X540974Y412624D01*
Y410375D01*
X545472Y417873D02*
Y414874D01*
X542473Y417873D01*
X541724D01*
X540974Y417123D01*
Y415623D01*
X541724Y414874D01*
X586000Y517500D02*
X581501D01*
Y519749D01*
X582251Y520499D01*
X583751D01*
X584501Y519749D01*
Y517500D01*
Y518999D02*
X586000Y520499D01*
X581501Y524998D02*
Y521999D01*
X586000D01*
Y524998D01*
X583751Y521999D02*
Y523498D01*
X581501Y526497D02*
X586000D01*
Y528746D01*
X585250Y529496D01*
X582251D01*
X581501Y528746D01*
Y526497D01*
X582251Y530996D02*
X581501Y531745D01*
Y533245D01*
X582251Y533995D01*
X583001D01*
X583751Y533245D01*
Y532495D01*
Y533245D01*
X584501Y533995D01*
X585250D01*
X586000Y533245D01*
Y531745D01*
X585250Y530996D01*
X528000Y485300D02*
Y489798D01*
X530249D01*
X530999Y489049D01*
Y487549D01*
X530249Y486799D01*
X528000D01*
X529499D02*
X530999Y485300D01*
X532499D02*
Y489798D01*
X534748D01*
X535498Y489049D01*
Y487549D01*
X534748Y486799D01*
X532499D01*
X501013Y402165D02*
X505512D01*
X504012Y403665D01*
X505512Y405164D01*
X501013D01*
Y406664D02*
X505512D01*
X503263D01*
Y409663D01*
X501013D01*
X505512D01*
X501013Y411162D02*
Y414161D01*
Y412662D01*
X505512D01*
Y415661D02*
Y417161D01*
Y416411D01*
X501013D01*
X501763Y415661D01*
X541171Y517421D02*
X545669D01*
X544170Y518921D01*
X545669Y520420D01*
X541171D01*
Y521920D02*
X545669D01*
X543420D01*
Y524919D01*
X541171D01*
X545669D01*
X541171Y526418D02*
Y529417D01*
Y527918D01*
X545669D01*
Y533916D02*
Y530917D01*
X542670Y533916D01*
X541921D01*
X541171Y533166D01*
Y531667D01*
X541921Y530917D01*
X581131Y401378D02*
X585630D01*
X584130Y402878D01*
X585630Y404377D01*
X581131D01*
Y405876D02*
X585630D01*
X583381D01*
Y408876D01*
X581131D01*
X585630D01*
X581131Y410375D02*
Y413374D01*
Y411875D01*
X585630D01*
X581881Y414874D02*
X581131Y415623D01*
Y417123D01*
X581881Y417873D01*
X582631D01*
X583381Y417123D01*
Y416373D01*
Y417123D01*
X584130Y417873D01*
X584880D01*
X585630Y417123D01*
Y415623D01*
X584880Y414874D01*
X474251Y476000D02*
Y478999D01*
Y466000D02*
Y468999D01*
X472751Y467499D02*
X475750D01*
X215500Y478500D02*
Y458500D01*
X165500D02*
X215500D01*
X165500Y478500D02*
Y458500D01*
Y478500D02*
X215500D01*
X302832Y372665D02*
X301999Y373498D01*
X300333D01*
X299500Y372665D01*
Y369333D01*
X300333Y368500D01*
X301999D01*
X302832Y369333D01*
X304498Y368500D02*
X306165D01*
X305331D01*
Y373498D01*
X304498Y372665D01*
X308664Y368500D02*
X310330D01*
X309497D01*
Y373498D01*
X308664Y372665D01*
X239168Y399335D02*
X240001Y398502D01*
X241667D01*
X242500Y399335D01*
Y402667D01*
X241667Y403500D01*
X240001D01*
X239168Y402667D01*
X237502Y403500D02*
X235836D01*
X236669D01*
Y398502D01*
X237502Y399335D01*
X239168Y409335D02*
X240001Y408502D01*
X241667D01*
X242500Y409335D01*
Y412667D01*
X241667Y413500D01*
X240001D01*
X239168Y412667D01*
X234169Y413500D02*
X237502D01*
X234169Y410168D01*
Y409335D01*
X235002Y408502D01*
X236669D01*
X237502Y409335D01*
X295665Y309168D02*
X296498Y310001D01*
Y311667D01*
X295665Y312500D01*
X292333D01*
X291500Y311667D01*
Y310001D01*
X292333Y309168D01*
X291500Y307502D02*
Y305836D01*
Y306669D01*
X296498D01*
X295665Y307502D01*
X291500Y300004D02*
Y303336D01*
X294832Y300004D01*
X295665D01*
X296498Y300837D01*
Y302503D01*
X295665Y303336D01*
X239168Y425335D02*
X240001Y424502D01*
X241667D01*
X242500Y425335D01*
Y428667D01*
X241667Y429500D01*
X240001D01*
X239168Y428667D01*
X237502Y425335D02*
X236669Y424502D01*
X235002D01*
X234169Y425335D01*
Y426168D01*
X235002Y427001D01*
X235836D01*
X235002D01*
X234169Y427834D01*
Y428667D01*
X235002Y429500D01*
X236669D01*
X237502Y428667D01*
X239168Y435335D02*
X240001Y434502D01*
X241667D01*
X242500Y435335D01*
Y438667D01*
X241667Y439500D01*
X240001D01*
X239168Y438667D01*
X235002Y439500D02*
Y434502D01*
X237502Y437001D01*
X234169D01*
X273165Y254168D02*
X273998Y255001D01*
Y256667D01*
X273165Y257500D01*
X269833D01*
X269000Y256667D01*
Y255001D01*
X269833Y254168D01*
X269000Y252502D02*
Y250835D01*
Y251669D01*
X273998D01*
X273165Y252502D01*
Y248336D02*
X273998Y247503D01*
Y245837D01*
X273165Y245004D01*
X272332D01*
X271499Y245837D01*
Y246670D01*
Y245837D01*
X270666Y245004D01*
X269833D01*
X269000Y245837D01*
Y247503D01*
X269833Y248336D01*
X166668Y398835D02*
X167501Y398002D01*
X169167D01*
X170000Y398835D01*
Y402167D01*
X169167Y403000D01*
X167501D01*
X166668Y402167D01*
X161669Y398002D02*
X165002D01*
Y400501D01*
X163336Y399668D01*
X162502D01*
X161669Y400501D01*
Y402167D01*
X162502Y403000D01*
X164169D01*
X165002Y402167D01*
X166668Y408835D02*
X167501Y408002D01*
X169167D01*
X170000Y408835D01*
Y412167D01*
X169167Y413000D01*
X167501D01*
X166668Y412167D01*
X161669Y408002D02*
X163336Y408835D01*
X165002Y410501D01*
Y412167D01*
X164169Y413000D01*
X162502D01*
X161669Y412167D01*
Y411334D01*
X162502Y410501D01*
X165002D01*
X166668Y424835D02*
X167501Y424002D01*
X169167D01*
X170000Y424835D01*
Y428167D01*
X169167Y429000D01*
X167501D01*
X166668Y428167D01*
X165002Y424002D02*
X161669D01*
Y424835D01*
X165002Y428167D01*
Y429000D01*
X166668Y434835D02*
X167501Y434002D01*
X169167D01*
X170000Y434835D01*
Y438167D01*
X169167Y439000D01*
X167501D01*
X166668Y438167D01*
X165002Y434835D02*
X164169Y434002D01*
X162502D01*
X161669Y434835D01*
Y435668D01*
X162502Y436501D01*
X161669Y437334D01*
Y438167D01*
X162502Y439000D01*
X164169D01*
X165002Y438167D01*
Y437334D01*
X164169Y436501D01*
X165002Y435668D01*
Y434835D01*
X164169Y436501D02*
X162502D01*
X93168Y399335D02*
X94001Y398502D01*
X95667D01*
X96500Y399335D01*
Y402667D01*
X95667Y403500D01*
X94001D01*
X93168Y402667D01*
X91502D02*
X90669Y403500D01*
X89002D01*
X88169Y402667D01*
Y399335D01*
X89002Y398502D01*
X90669D01*
X91502Y399335D01*
Y400168D01*
X90669Y401001D01*
X88169D01*
X93168Y409335D02*
X94001Y408502D01*
X95667D01*
X96500Y409335D01*
Y412667D01*
X95667Y413500D01*
X94001D01*
X93168Y412667D01*
X91502Y413500D02*
X89836D01*
X90669D01*
Y408502D01*
X91502Y409335D01*
X87336D02*
X86503Y408502D01*
X84837D01*
X84004Y409335D01*
Y412667D01*
X84837Y413500D01*
X86503D01*
X87336Y412667D01*
Y409335D01*
X93168Y425335D02*
X94001Y424502D01*
X95667D01*
X96500Y425335D01*
Y428667D01*
X95667Y429500D01*
X94001D01*
X93168Y428667D01*
X91502Y429500D02*
X89836D01*
X90669D01*
Y424502D01*
X91502Y425335D01*
X87336Y429500D02*
X85670D01*
X86503D01*
Y424502D01*
X87336Y425335D01*
X83171Y429500D02*
Y428667D01*
X82338D01*
Y429500D01*
X83171D01*
X93168Y435335D02*
X94001Y434502D01*
X95667D01*
X96500Y435335D01*
Y438667D01*
X95667Y439500D01*
X94001D01*
X93168Y438667D01*
X91502Y439500D02*
X89836D01*
X90669D01*
Y434502D01*
X91502Y435335D01*
X84004Y439500D02*
X87336D01*
X84004Y436168D01*
Y435335D01*
X84837Y434502D01*
X86503D01*
X87336Y435335D01*
X82338Y439500D02*
Y438667D01*
X81505D01*
Y439500D01*
X82338D01*
X187832Y371165D02*
X186999Y371998D01*
X185333D01*
X184500Y371165D01*
Y367833D01*
X185333Y367000D01*
X186999D01*
X187832Y367833D01*
X192831Y367000D02*
X189498D01*
X192831Y370332D01*
Y371165D01*
X191998Y371998D01*
X190331D01*
X189498Y371165D01*
X194497Y367000D02*
X196163D01*
X195330D01*
Y371998D01*
X194497Y371165D01*
X220165Y306668D02*
X220998Y307501D01*
Y309167D01*
X220165Y310000D01*
X216833D01*
X216000Y309167D01*
Y307501D01*
X216833Y306668D01*
X216000Y301669D02*
Y305002D01*
X219332Y301669D01*
X220165D01*
X220998Y302502D01*
Y304169D01*
X220165Y305002D01*
X216000Y296671D02*
Y300003D01*
X219332Y296671D01*
X220165D01*
X220998Y297504D01*
Y299170D01*
X220165Y300003D01*
X198165Y254168D02*
X198998Y255001D01*
Y256667D01*
X198165Y257500D01*
X194833D01*
X194000Y256667D01*
Y255001D01*
X194833Y254168D01*
X194000Y249169D02*
Y252502D01*
X197332Y249169D01*
X198165D01*
X198998Y250002D01*
Y251669D01*
X198165Y252502D01*
Y247503D02*
X198998Y246670D01*
Y245004D01*
X198165Y244171D01*
X197332D01*
X196499Y245004D01*
Y245837D01*
Y245004D01*
X195666Y244171D01*
X194833D01*
X194000Y245004D01*
Y246670D01*
X194833Y247503D01*
X162332Y370665D02*
X161499Y371498D01*
X159833D01*
X159000Y370665D01*
Y367333D01*
X159833Y366500D01*
X161499D01*
X162332Y367333D01*
X163998Y370665D02*
X164831Y371498D01*
X166498D01*
X167331Y370665D01*
Y369832D01*
X166498Y368999D01*
X165665D01*
X166498D01*
X167331Y368166D01*
Y367333D01*
X166498Y366500D01*
X164831D01*
X163998Y367333D01*
X168997Y366500D02*
X170663D01*
X169830D01*
Y371498D01*
X168997Y370665D01*
X141665Y307168D02*
X142498Y308001D01*
Y309667D01*
X141665Y310500D01*
X138333D01*
X137500Y309667D01*
Y308001D01*
X138333Y307168D01*
X141665Y305502D02*
X142498Y304669D01*
Y303002D01*
X141665Y302169D01*
X140832D01*
X139999Y303002D01*
Y303836D01*
Y303002D01*
X139166Y302169D01*
X138333D01*
X137500Y303002D01*
Y304669D01*
X138333Y305502D01*
X137500Y297171D02*
Y300503D01*
X140832Y297171D01*
X141665D01*
X142498Y298004D01*
Y299670D01*
X141665Y300503D01*
X121165Y254668D02*
X121998Y255501D01*
Y257167D01*
X121165Y258000D01*
X117833D01*
X117000Y257167D01*
Y255501D01*
X117833Y254668D01*
X121165Y253002D02*
X121998Y252169D01*
Y250502D01*
X121165Y249669D01*
X120332D01*
X119499Y250502D01*
Y251336D01*
Y250502D01*
X118666Y249669D01*
X117833D01*
X117000Y250502D01*
Y252169D01*
X117833Y253002D01*
X121165Y248003D02*
X121998Y247170D01*
Y245504D01*
X121165Y244671D01*
X120332D01*
X119499Y245504D01*
Y246337D01*
Y245504D01*
X118666Y244671D01*
X117833D01*
X117000Y245504D01*
Y247170D01*
X117833Y248003D01*
X272165Y383668D02*
X272998Y384501D01*
Y386167D01*
X272165Y387000D01*
X268833D01*
X268000Y386167D01*
Y384501D01*
X268833Y383668D01*
X268000Y379502D02*
X272998D01*
X270499Y382002D01*
Y378669D01*
X268000Y373671D02*
Y377003D01*
X271332Y373671D01*
X272165D01*
X272998Y374504D01*
Y376170D01*
X272165Y377003D01*
X124665Y383668D02*
X125498Y384501D01*
Y386167D01*
X124665Y387000D01*
X121333D01*
X120500Y386167D01*
Y384501D01*
X121333Y383668D01*
X125498Y378669D02*
Y382002D01*
X122999D01*
X123832Y380335D01*
Y379502D01*
X122999Y378669D01*
X121333D01*
X120500Y379502D01*
Y381169D01*
X121333Y382002D01*
X120500Y373671D02*
Y377003D01*
X123832Y373671D01*
X124665D01*
X125498Y374504D01*
Y376170D01*
X124665Y377003D01*
X88165Y345168D02*
X88998Y346001D01*
Y347667D01*
X88165Y348500D01*
X84833D01*
X84000Y347667D01*
Y346001D01*
X84833Y345168D01*
X88998Y340169D02*
Y343502D01*
X86499D01*
X87332Y341835D01*
Y341002D01*
X86499Y340169D01*
X84833D01*
X84000Y341002D01*
Y342669D01*
X84833Y343502D01*
X88165Y338503D02*
X88998Y337670D01*
Y336004D01*
X88165Y335171D01*
X87332D01*
X86499Y336004D01*
Y336837D01*
Y336004D01*
X85666Y335171D01*
X84833D01*
X84000Y336004D01*
Y337670D01*
X84833Y338503D01*
X302832Y382665D02*
X301999Y383498D01*
X300333D01*
X299500Y382665D01*
Y379333D01*
X300333Y378500D01*
X301999D01*
X302832Y379333D01*
X304498Y383498D02*
Y378500D01*
X307831D01*
X309497D02*
X311163D01*
X310330D01*
Y383498D01*
X309497Y382665D01*
X185832Y381665D02*
X184999Y382498D01*
X183333D01*
X182500Y381665D01*
Y378333D01*
X183333Y377500D01*
X184999D01*
X185832Y378333D01*
X187498Y382498D02*
Y377500D01*
X190831D01*
X195829D02*
X192497D01*
X195829Y380832D01*
Y381665D01*
X194996Y382498D01*
X193330D01*
X192497Y381665D01*
X162332D02*
X161499Y382498D01*
X159833D01*
X159000Y381665D01*
Y378333D01*
X159833Y377500D01*
X161499D01*
X162332Y378333D01*
X163998Y382498D02*
Y377500D01*
X167331D01*
X168997Y381665D02*
X169830Y382498D01*
X171496D01*
X172329Y381665D01*
Y380832D01*
X171496Y379999D01*
X170663D01*
X171496D01*
X172329Y379166D01*
Y378333D01*
X171496Y377500D01*
X169830D01*
X168997Y378333D01*
X299500Y342500D02*
Y347498D01*
X301999D01*
X302832Y346665D01*
Y344999D01*
X301999Y344166D01*
X299500D01*
X301166D02*
X302832Y342500D01*
X304498D02*
X306165D01*
X305331D01*
Y347498D01*
X304498Y346665D01*
X308664Y342500D02*
X310330D01*
X309497D01*
Y347498D01*
X308664Y346665D01*
X275000Y324000D02*
Y319002D01*
X272501D01*
X271668Y319835D01*
Y321501D01*
X272501Y322334D01*
X275000D01*
X273334D02*
X271668Y324000D01*
X270002D02*
X268336D01*
X269169D01*
Y319002D01*
X270002Y319835D01*
X262504Y324000D02*
X265836D01*
X262504Y320668D01*
Y319835D01*
X263337Y319002D01*
X265003D01*
X265836Y319835D01*
X252000Y276500D02*
X256998D01*
Y274001D01*
X256165Y273168D01*
X254499D01*
X253666Y274001D01*
Y276500D01*
Y274834D02*
X252000Y273168D01*
Y271502D02*
Y269835D01*
Y270669D01*
X256998D01*
X256165Y271502D01*
Y267336D02*
X256998Y266503D01*
Y264837D01*
X256165Y264004D01*
X255332D01*
X254499Y264837D01*
Y265670D01*
Y264837D01*
X253666Y264004D01*
X252833D01*
X252000Y264837D01*
Y266503D01*
X252833Y267336D01*
X299500Y350500D02*
Y355498D01*
X301999D01*
X302832Y354665D01*
Y352999D01*
X301999Y352166D01*
X299500D01*
X301166D02*
X302832Y350500D01*
X304498D02*
X306165D01*
X305331D01*
Y355498D01*
X304498Y354665D01*
X311163Y350500D02*
Y355498D01*
X308664Y352999D01*
X311996D01*
X244000Y276500D02*
X248998D01*
Y274001D01*
X248165Y273168D01*
X246499D01*
X245666Y274001D01*
Y276500D01*
Y274834D02*
X244000Y273168D01*
Y271502D02*
Y269835D01*
Y270669D01*
X248998D01*
X248165Y271502D01*
X248998Y264004D02*
Y267336D01*
X246499D01*
X247332Y265670D01*
Y264837D01*
X246499Y264004D01*
X244833D01*
X244000Y264837D01*
Y266503D01*
X244833Y267336D01*
X299500Y358500D02*
Y363498D01*
X301999D01*
X302832Y362665D01*
Y360999D01*
X301999Y360166D01*
X299500D01*
X301166D02*
X302832Y358500D01*
X304498D02*
X306165D01*
X305331D01*
Y363498D01*
X304498Y362665D01*
X311996Y363498D02*
X310330Y362665D01*
X308664Y360999D01*
Y359333D01*
X309497Y358500D01*
X311163D01*
X311996Y359333D01*
Y360166D01*
X311163Y360999D01*
X308664D01*
X241000Y299500D02*
Y294502D01*
X238501D01*
X237668Y295335D01*
Y297001D01*
X238501Y297834D01*
X241000D01*
X239334D02*
X237668Y299500D01*
X236002D02*
X234335D01*
X235169D01*
Y294502D01*
X236002Y295335D01*
X231836Y294502D02*
X228504D01*
Y295335D01*
X231836Y298667D01*
Y299500D01*
X184500Y341000D02*
Y345998D01*
X186999D01*
X187832Y345165D01*
Y343499D01*
X186999Y342666D01*
X184500D01*
X186166D02*
X187832Y341000D01*
X192831D02*
X189498D01*
X192831Y344332D01*
Y345165D01*
X191998Y345998D01*
X190331D01*
X189498Y345165D01*
X194497Y341000D02*
X196163D01*
X195330D01*
Y345998D01*
X194497Y345165D01*
X200500Y324000D02*
Y319002D01*
X198001D01*
X197168Y319835D01*
Y321501D01*
X198001Y322334D01*
X200500D01*
X198834D02*
X197168Y324000D01*
X192169D02*
X195502D01*
X192169Y320668D01*
Y319835D01*
X193002Y319002D01*
X194669D01*
X195502Y319835D01*
X187171Y324000D02*
X190503D01*
X187171Y320668D01*
Y319835D01*
X188004Y319002D01*
X189670D01*
X190503Y319835D01*
X177000Y275500D02*
X181998D01*
Y273001D01*
X181165Y272168D01*
X179499D01*
X178666Y273001D01*
Y275500D01*
Y273834D02*
X177000Y272168D01*
Y267169D02*
Y270502D01*
X180332Y267169D01*
X181165D01*
X181998Y268002D01*
Y269669D01*
X181165Y270502D01*
Y265503D02*
X181998Y264670D01*
Y263004D01*
X181165Y262171D01*
X180332D01*
X179499Y263004D01*
Y263837D01*
Y263004D01*
X178666Y262171D01*
X177833D01*
X177000Y263004D01*
Y264670D01*
X177833Y265503D01*
X183000Y349000D02*
Y353998D01*
X185499D01*
X186332Y353165D01*
Y351499D01*
X185499Y350666D01*
X183000D01*
X184666D02*
X186332Y349000D01*
X191331D02*
X187998D01*
X191331Y352332D01*
Y353165D01*
X190498Y353998D01*
X188831D01*
X187998Y353165D01*
X195496Y349000D02*
Y353998D01*
X192997Y351499D01*
X196329D01*
X169000Y275500D02*
X173998D01*
Y273001D01*
X173165Y272168D01*
X171499D01*
X170666Y273001D01*
Y275500D01*
Y273834D02*
X169000Y272168D01*
Y267169D02*
Y270502D01*
X172332Y267169D01*
X173165D01*
X173998Y268002D01*
Y269669D01*
X173165Y270502D01*
X173998Y262171D02*
Y265503D01*
X171499D01*
X172332Y263837D01*
Y263004D01*
X171499Y262171D01*
X169833D01*
X169000Y263004D01*
Y264670D01*
X169833Y265503D01*
X183000Y357500D02*
Y362498D01*
X185499D01*
X186332Y361665D01*
Y359999D01*
X185499Y359166D01*
X183000D01*
X184666D02*
X186332Y357500D01*
X191331D02*
X187998D01*
X191331Y360832D01*
Y361665D01*
X190498Y362498D01*
X188831D01*
X187998Y361665D01*
X196329Y362498D02*
X194663Y361665D01*
X192997Y359999D01*
Y358333D01*
X193830Y357500D01*
X195496D01*
X196329Y358333D01*
Y359166D01*
X195496Y359999D01*
X192997D01*
X166500Y299500D02*
Y294502D01*
X164001D01*
X163168Y295335D01*
Y297001D01*
X164001Y297834D01*
X166500D01*
X164834D02*
X163168Y299500D01*
X158169D02*
X161502D01*
X158169Y296168D01*
Y295335D01*
X159002Y294502D01*
X160669D01*
X161502Y295335D01*
X156503Y294502D02*
X153171D01*
Y295335D01*
X156503Y298667D01*
Y299500D01*
X159000Y341000D02*
Y345998D01*
X161499D01*
X162332Y345165D01*
Y343499D01*
X161499Y342666D01*
X159000D01*
X160666D02*
X162332Y341000D01*
X163998Y345165D02*
X164831Y345998D01*
X166498D01*
X167331Y345165D01*
Y344332D01*
X166498Y343499D01*
X165665D01*
X166498D01*
X167331Y342666D01*
Y341833D01*
X166498Y341000D01*
X164831D01*
X163998Y341833D01*
X168997Y341000D02*
X170663D01*
X169830D01*
Y345998D01*
X168997Y345165D01*
X122500Y323500D02*
Y318502D01*
X120001D01*
X119168Y319335D01*
Y321001D01*
X120001Y321834D01*
X122500D01*
X120834D02*
X119168Y323500D01*
X117502Y319335D02*
X116669Y318502D01*
X115002D01*
X114169Y319335D01*
Y320168D01*
X115002Y321001D01*
X115835D01*
X115002D01*
X114169Y321834D01*
Y322667D01*
X115002Y323500D01*
X116669D01*
X117502Y322667D01*
X109171Y323500D02*
X112503D01*
X109171Y320168D01*
Y319335D01*
X110004Y318502D01*
X111670D01*
X112503Y319335D01*
X98500Y276500D02*
X103498D01*
Y274001D01*
X102665Y273168D01*
X100999D01*
X100166Y274001D01*
Y276500D01*
Y274834D02*
X98500Y273168D01*
X102665Y271502D02*
X103498Y270669D01*
Y269002D01*
X102665Y268169D01*
X101832D01*
X100999Y269002D01*
Y269835D01*
Y269002D01*
X100166Y268169D01*
X99333D01*
X98500Y269002D01*
Y270669D01*
X99333Y271502D01*
X102665Y266503D02*
X103498Y265670D01*
Y264004D01*
X102665Y263171D01*
X101832D01*
X100999Y264004D01*
Y264837D01*
Y264004D01*
X100166Y263171D01*
X99333D01*
X98500Y264004D01*
Y265670D01*
X99333Y266503D01*
X159000Y349000D02*
Y353998D01*
X161499D01*
X162332Y353165D01*
Y351499D01*
X161499Y350666D01*
X159000D01*
X160666D02*
X162332Y349000D01*
X163998Y353165D02*
X164831Y353998D01*
X166498D01*
X167331Y353165D01*
Y352332D01*
X166498Y351499D01*
X165665D01*
X166498D01*
X167331Y350666D01*
Y349833D01*
X166498Y349000D01*
X164831D01*
X163998Y349833D01*
X171496Y349000D02*
Y353998D01*
X168997Y351499D01*
X172329D01*
X90500Y276500D02*
X95498D01*
Y274001D01*
X94665Y273168D01*
X92999D01*
X92166Y274001D01*
Y276500D01*
Y274834D02*
X90500Y273168D01*
X94665Y271502D02*
X95498Y270669D01*
Y269002D01*
X94665Y268169D01*
X93832D01*
X92999Y269002D01*
Y269835D01*
Y269002D01*
X92166Y268169D01*
X91333D01*
X90500Y269002D01*
Y270669D01*
X91333Y271502D01*
X95498Y263171D02*
Y266503D01*
X92999D01*
X93832Y264837D01*
Y264004D01*
X92999Y263171D01*
X91333D01*
X90500Y264004D01*
Y265670D01*
X91333Y266503D01*
X159000Y357500D02*
Y362498D01*
X161499D01*
X162332Y361665D01*
Y359999D01*
X161499Y359166D01*
X159000D01*
X160666D02*
X162332Y357500D01*
X163998Y361665D02*
X164831Y362498D01*
X166498D01*
X167331Y361665D01*
Y360832D01*
X166498Y359999D01*
X165665D01*
X166498D01*
X167331Y359166D01*
Y358333D01*
X166498Y357500D01*
X164831D01*
X163998Y358333D01*
X172329Y362498D02*
X170663Y361665D01*
X168997Y359999D01*
Y358333D01*
X169830Y357500D01*
X171496D01*
X172329Y358333D01*
Y359166D01*
X171496Y359999D01*
X168997D01*
X88500Y300000D02*
Y295002D01*
X86001D01*
X85168Y295835D01*
Y297501D01*
X86001Y298334D01*
X88500D01*
X86834D02*
X85168Y300000D01*
X83502Y295835D02*
X82669Y295002D01*
X81002D01*
X80169Y295835D01*
Y296668D01*
X81002Y297501D01*
X81836D01*
X81002D01*
X80169Y298334D01*
Y299167D01*
X81002Y300000D01*
X82669D01*
X83502Y299167D01*
X78503Y295002D02*
X75171D01*
Y295835D01*
X78503Y299167D01*
Y300000D01*
X216000Y481000D02*
Y485998D01*
X218499D01*
X219332Y485165D01*
Y483499D01*
X218499Y482666D01*
X216000D01*
X217666D02*
X219332Y481000D01*
X224331Y485165D02*
X223498Y485998D01*
X221831D01*
X220998Y485165D01*
Y484332D01*
X221831Y483499D01*
X223498D01*
X224331Y482666D01*
Y481833D01*
X223498Y481000D01*
X221831D01*
X220998Y481833D01*
X225997Y481000D02*
X227663D01*
X226830D01*
Y485998D01*
X225997Y485165D01*
X151000Y481000D02*
Y485998D01*
X153499D01*
X154332Y485165D01*
Y483499D01*
X153499Y482666D01*
X151000D01*
X152666D02*
X154332Y481000D01*
X159331Y485165D02*
X158498Y485998D01*
X156831D01*
X155998Y485165D01*
Y484332D01*
X156831Y483499D01*
X158498D01*
X159331Y482666D01*
Y481833D01*
X158498Y481000D01*
X156831D01*
X155998Y481833D01*
X164329Y481000D02*
X160997D01*
X164329Y484332D01*
Y485165D01*
X163496Y485998D01*
X161830D01*
X160997Y485165D01*
X161500Y472000D02*
X163166D01*
X162333D01*
Y476998D01*
X161500Y476165D01*
X163332Y461000D02*
X160000D01*
X163332Y464332D01*
Y465165D01*
X162499Y465998D01*
X160833D01*
X160000Y465165D01*
X218000Y471833D02*
X218833Y471000D01*
X220499D01*
X221332Y471833D01*
Y475165D01*
X220499Y475998D01*
X218833D01*
X218000Y475165D01*
Y474332D01*
X218833Y473499D01*
X221332D01*
X218000Y461000D02*
X219666D01*
X218833D01*
Y465998D01*
X218000Y465165D01*
X222165D02*
X222998Y465998D01*
X224664D01*
X225498Y465165D01*
Y461833D01*
X224664Y461000D01*
X222998D01*
X222165Y461833D01*
Y465165D01*
X945500Y478500D02*
Y458500D01*
X895500D02*
X945500D01*
X895500Y478500D02*
Y458500D01*
Y478500D02*
X945500D01*
X1032832Y372665D02*
X1031999Y373498D01*
X1030333D01*
X1029500Y372665D01*
Y369333D01*
X1030333Y368500D01*
X1031999D01*
X1032832Y369333D01*
X1034498Y368500D02*
X1036164D01*
X1035331D01*
Y373498D01*
X1034498Y372665D01*
X1038664Y368500D02*
X1040330D01*
X1039497D01*
Y373498D01*
X1038664Y372665D01*
X969168Y399335D02*
X970001Y398502D01*
X971667D01*
X972500Y399335D01*
Y402667D01*
X971667Y403500D01*
X970001D01*
X969168Y402667D01*
X967502Y403500D02*
X965835D01*
X966669D01*
Y398502D01*
X967502Y399335D01*
X969168Y409335D02*
X970001Y408502D01*
X971667D01*
X972500Y409335D01*
Y412667D01*
X971667Y413500D01*
X970001D01*
X969168Y412667D01*
X964169Y413500D02*
X967502D01*
X964169Y410168D01*
Y409335D01*
X965002Y408502D01*
X966669D01*
X967502Y409335D01*
X1025665Y309168D02*
X1026498Y310001D01*
Y311667D01*
X1025665Y312500D01*
X1022333D01*
X1021500Y311667D01*
Y310001D01*
X1022333Y309168D01*
X1021500Y307502D02*
Y305836D01*
Y306669D01*
X1026498D01*
X1025665Y307502D01*
X1021500Y300004D02*
Y303336D01*
X1024832Y300004D01*
X1025665D01*
X1026498Y300837D01*
Y302503D01*
X1025665Y303336D01*
X969168Y425335D02*
X970001Y424502D01*
X971667D01*
X972500Y425335D01*
Y428667D01*
X971667Y429500D01*
X970001D01*
X969168Y428667D01*
X967502Y425335D02*
X966669Y424502D01*
X965002D01*
X964169Y425335D01*
Y426168D01*
X965002Y427001D01*
X965835D01*
X965002D01*
X964169Y427834D01*
Y428667D01*
X965002Y429500D01*
X966669D01*
X967502Y428667D01*
X969168Y435335D02*
X970001Y434502D01*
X971667D01*
X972500Y435335D01*
Y438667D01*
X971667Y439500D01*
X970001D01*
X969168Y438667D01*
X965002Y439500D02*
Y434502D01*
X967502Y437001D01*
X964169D01*
X1003165Y254168D02*
X1003998Y255001D01*
Y256667D01*
X1003165Y257500D01*
X999833D01*
X999000Y256667D01*
Y255001D01*
X999833Y254168D01*
X999000Y252502D02*
Y250835D01*
Y251669D01*
X1003998D01*
X1003165Y252502D01*
Y248336D02*
X1003998Y247503D01*
Y245837D01*
X1003165Y245004D01*
X1002332D01*
X1001499Y245837D01*
Y246670D01*
Y245837D01*
X1000666Y245004D01*
X999833D01*
X999000Y245837D01*
Y247503D01*
X999833Y248336D01*
X896668Y398835D02*
X897501Y398002D01*
X899167D01*
X900000Y398835D01*
Y402167D01*
X899167Y403000D01*
X897501D01*
X896668Y402167D01*
X891669Y398002D02*
X895002D01*
Y400501D01*
X893336Y399668D01*
X892502D01*
X891669Y400501D01*
Y402167D01*
X892502Y403000D01*
X894169D01*
X895002Y402167D01*
X896668Y408835D02*
X897501Y408002D01*
X899167D01*
X900000Y408835D01*
Y412167D01*
X899167Y413000D01*
X897501D01*
X896668Y412167D01*
X891669Y408002D02*
X893336Y408835D01*
X895002Y410501D01*
Y412167D01*
X894169Y413000D01*
X892502D01*
X891669Y412167D01*
Y411334D01*
X892502Y410501D01*
X895002D01*
X896668Y424835D02*
X897501Y424002D01*
X899167D01*
X900000Y424835D01*
Y428167D01*
X899167Y429000D01*
X897501D01*
X896668Y428167D01*
X895002Y424002D02*
X891669D01*
Y424835D01*
X895002Y428167D01*
Y429000D01*
X896668Y434835D02*
X897501Y434002D01*
X899167D01*
X900000Y434835D01*
Y438167D01*
X899167Y439000D01*
X897501D01*
X896668Y438167D01*
X895002Y434835D02*
X894169Y434002D01*
X892502D01*
X891669Y434835D01*
Y435668D01*
X892502Y436501D01*
X891669Y437334D01*
Y438167D01*
X892502Y439000D01*
X894169D01*
X895002Y438167D01*
Y437334D01*
X894169Y436501D01*
X895002Y435668D01*
Y434835D01*
X894169Y436501D02*
X892502D01*
X823168Y399335D02*
X824001Y398502D01*
X825667D01*
X826500Y399335D01*
Y402667D01*
X825667Y403500D01*
X824001D01*
X823168Y402667D01*
X821502D02*
X820669Y403500D01*
X819002D01*
X818169Y402667D01*
Y399335D01*
X819002Y398502D01*
X820669D01*
X821502Y399335D01*
Y400168D01*
X820669Y401001D01*
X818169D01*
X823168Y409335D02*
X824001Y408502D01*
X825667D01*
X826500Y409335D01*
Y412667D01*
X825667Y413500D01*
X824001D01*
X823168Y412667D01*
X821502Y413500D02*
X819835D01*
X820669D01*
Y408502D01*
X821502Y409335D01*
X817336D02*
X816503Y408502D01*
X814837D01*
X814004Y409335D01*
Y412667D01*
X814837Y413500D01*
X816503D01*
X817336Y412667D01*
Y409335D01*
X823168Y425335D02*
X824001Y424502D01*
X825667D01*
X826500Y425335D01*
Y428667D01*
X825667Y429500D01*
X824001D01*
X823168Y428667D01*
X821502Y429500D02*
X819835D01*
X820669D01*
Y424502D01*
X821502Y425335D01*
X817336Y429500D02*
X815670D01*
X816503D01*
Y424502D01*
X817336Y425335D01*
X813171Y429500D02*
Y428667D01*
X812338D01*
Y429500D01*
X813171D01*
X823168Y435335D02*
X824001Y434502D01*
X825667D01*
X826500Y435335D01*
Y438667D01*
X825667Y439500D01*
X824001D01*
X823168Y438667D01*
X821502Y439500D02*
X819835D01*
X820669D01*
Y434502D01*
X821502Y435335D01*
X814004Y439500D02*
X817336D01*
X814004Y436168D01*
Y435335D01*
X814837Y434502D01*
X816503D01*
X817336Y435335D01*
X812338Y439500D02*
Y438667D01*
X811505D01*
Y439500D01*
X812338D01*
X917832Y371165D02*
X916999Y371998D01*
X915333D01*
X914500Y371165D01*
Y367833D01*
X915333Y367000D01*
X916999D01*
X917832Y367833D01*
X922831Y367000D02*
X919498D01*
X922831Y370332D01*
Y371165D01*
X921998Y371998D01*
X920331D01*
X919498Y371165D01*
X924497Y367000D02*
X926163D01*
X925330D01*
Y371998D01*
X924497Y371165D01*
X950165Y306668D02*
X950998Y307501D01*
Y309167D01*
X950165Y310000D01*
X946833D01*
X946000Y309167D01*
Y307501D01*
X946833Y306668D01*
X946000Y301669D02*
Y305002D01*
X949332Y301669D01*
X950165D01*
X950998Y302502D01*
Y304169D01*
X950165Y305002D01*
X946000Y296671D02*
Y300003D01*
X949332Y296671D01*
X950165D01*
X950998Y297504D01*
Y299170D01*
X950165Y300003D01*
X928165Y254168D02*
X928998Y255001D01*
Y256667D01*
X928165Y257500D01*
X924833D01*
X924000Y256667D01*
Y255001D01*
X924833Y254168D01*
X924000Y249169D02*
Y252502D01*
X927332Y249169D01*
X928165D01*
X928998Y250002D01*
Y251669D01*
X928165Y252502D01*
Y247503D02*
X928998Y246670D01*
Y245004D01*
X928165Y244171D01*
X927332D01*
X926499Y245004D01*
Y245837D01*
Y245004D01*
X925666Y244171D01*
X924833D01*
X924000Y245004D01*
Y246670D01*
X924833Y247503D01*
X892332Y370665D02*
X891499Y371498D01*
X889833D01*
X889000Y370665D01*
Y367333D01*
X889833Y366500D01*
X891499D01*
X892332Y367333D01*
X893998Y370665D02*
X894831Y371498D01*
X896498D01*
X897331Y370665D01*
Y369832D01*
X896498Y368999D01*
X895665D01*
X896498D01*
X897331Y368166D01*
Y367333D01*
X896498Y366500D01*
X894831D01*
X893998Y367333D01*
X898997Y366500D02*
X900663D01*
X899830D01*
Y371498D01*
X898997Y370665D01*
X871665Y307168D02*
X872498Y308001D01*
Y309667D01*
X871665Y310500D01*
X868333D01*
X867500Y309667D01*
Y308001D01*
X868333Y307168D01*
X871665Y305502D02*
X872498Y304669D01*
Y303002D01*
X871665Y302169D01*
X870832D01*
X869999Y303002D01*
Y303836D01*
Y303002D01*
X869166Y302169D01*
X868333D01*
X867500Y303002D01*
Y304669D01*
X868333Y305502D01*
X867500Y297171D02*
Y300503D01*
X870832Y297171D01*
X871665D01*
X872498Y298004D01*
Y299670D01*
X871665Y300503D01*
X851165Y254668D02*
X851998Y255501D01*
Y257167D01*
X851165Y258000D01*
X847833D01*
X847000Y257167D01*
Y255501D01*
X847833Y254668D01*
X851165Y253002D02*
X851998Y252169D01*
Y250502D01*
X851165Y249669D01*
X850332D01*
X849499Y250502D01*
Y251336D01*
Y250502D01*
X848666Y249669D01*
X847833D01*
X847000Y250502D01*
Y252169D01*
X847833Y253002D01*
X851165Y248003D02*
X851998Y247170D01*
Y245504D01*
X851165Y244671D01*
X850332D01*
X849499Y245504D01*
Y246337D01*
Y245504D01*
X848666Y244671D01*
X847833D01*
X847000Y245504D01*
Y247170D01*
X847833Y248003D01*
X1002165Y383668D02*
X1002998Y384501D01*
Y386167D01*
X1002165Y387000D01*
X998833D01*
X998000Y386167D01*
Y384501D01*
X998833Y383668D01*
X998000Y379502D02*
X1002998D01*
X1000499Y382002D01*
Y378669D01*
X998000Y373671D02*
Y377003D01*
X1001332Y373671D01*
X1002165D01*
X1002998Y374504D01*
Y376170D01*
X1002165Y377003D01*
X854665Y383668D02*
X855498Y384501D01*
Y386167D01*
X854665Y387000D01*
X851333D01*
X850500Y386167D01*
Y384501D01*
X851333Y383668D01*
X855498Y378669D02*
Y382002D01*
X852999D01*
X853832Y380335D01*
Y379502D01*
X852999Y378669D01*
X851333D01*
X850500Y379502D01*
Y381169D01*
X851333Y382002D01*
X850500Y373671D02*
Y377003D01*
X853832Y373671D01*
X854665D01*
X855498Y374504D01*
Y376170D01*
X854665Y377003D01*
X818165Y345168D02*
X818998Y346001D01*
Y347667D01*
X818165Y348500D01*
X814833D01*
X814000Y347667D01*
Y346001D01*
X814833Y345168D01*
X818998Y340169D02*
Y343502D01*
X816499D01*
X817332Y341835D01*
Y341002D01*
X816499Y340169D01*
X814833D01*
X814000Y341002D01*
Y342669D01*
X814833Y343502D01*
X818165Y338503D02*
X818998Y337670D01*
Y336004D01*
X818165Y335171D01*
X817332D01*
X816499Y336004D01*
Y336837D01*
Y336004D01*
X815666Y335171D01*
X814833D01*
X814000Y336004D01*
Y337670D01*
X814833Y338503D01*
X1032832Y382665D02*
X1031999Y383498D01*
X1030333D01*
X1029500Y382665D01*
Y379333D01*
X1030333Y378500D01*
X1031999D01*
X1032832Y379333D01*
X1034498Y383498D02*
Y378500D01*
X1037831D01*
X1039497D02*
X1041163D01*
X1040330D01*
Y383498D01*
X1039497Y382665D01*
X915832Y381665D02*
X914999Y382498D01*
X913333D01*
X912500Y381665D01*
Y378333D01*
X913333Y377500D01*
X914999D01*
X915832Y378333D01*
X917498Y382498D02*
Y377500D01*
X920831D01*
X925829D02*
X922497D01*
X925829Y380832D01*
Y381665D01*
X924996Y382498D01*
X923330D01*
X922497Y381665D01*
X892332D02*
X891499Y382498D01*
X889833D01*
X889000Y381665D01*
Y378333D01*
X889833Y377500D01*
X891499D01*
X892332Y378333D01*
X893998Y382498D02*
Y377500D01*
X897331D01*
X898997Y381665D02*
X899830Y382498D01*
X901496D01*
X902329Y381665D01*
Y380832D01*
X901496Y379999D01*
X900663D01*
X901496D01*
X902329Y379166D01*
Y378333D01*
X901496Y377500D01*
X899830D01*
X898997Y378333D01*
X1029500Y342500D02*
Y347498D01*
X1031999D01*
X1032832Y346665D01*
Y344999D01*
X1031999Y344166D01*
X1029500D01*
X1031166D02*
X1032832Y342500D01*
X1034498D02*
X1036164D01*
X1035331D01*
Y347498D01*
X1034498Y346665D01*
X1038664Y342500D02*
X1040330D01*
X1039497D01*
Y347498D01*
X1038664Y346665D01*
X1005000Y324000D02*
Y319002D01*
X1002501D01*
X1001668Y319835D01*
Y321501D01*
X1002501Y322334D01*
X1005000D01*
X1003334D02*
X1001668Y324000D01*
X1000002D02*
X998335D01*
X999169D01*
Y319002D01*
X1000002Y319835D01*
X992504Y324000D02*
X995836D01*
X992504Y320668D01*
Y319835D01*
X993337Y319002D01*
X995003D01*
X995836Y319835D01*
X982000Y276500D02*
X986998D01*
Y274001D01*
X986165Y273168D01*
X984499D01*
X983666Y274001D01*
Y276500D01*
Y274834D02*
X982000Y273168D01*
Y271502D02*
Y269835D01*
Y270669D01*
X986998D01*
X986165Y271502D01*
Y267336D02*
X986998Y266503D01*
Y264837D01*
X986165Y264004D01*
X985332D01*
X984499Y264837D01*
Y265670D01*
Y264837D01*
X983666Y264004D01*
X982833D01*
X982000Y264837D01*
Y266503D01*
X982833Y267336D01*
X1029500Y350500D02*
Y355498D01*
X1031999D01*
X1032832Y354665D01*
Y352999D01*
X1031999Y352166D01*
X1029500D01*
X1031166D02*
X1032832Y350500D01*
X1034498D02*
X1036164D01*
X1035331D01*
Y355498D01*
X1034498Y354665D01*
X1041163Y350500D02*
Y355498D01*
X1038664Y352999D01*
X1041996D01*
X974000Y276500D02*
X978998D01*
Y274001D01*
X978165Y273168D01*
X976499D01*
X975666Y274001D01*
Y276500D01*
Y274834D02*
X974000Y273168D01*
Y271502D02*
Y269835D01*
Y270669D01*
X978998D01*
X978165Y271502D01*
X978998Y264004D02*
Y267336D01*
X976499D01*
X977332Y265670D01*
Y264837D01*
X976499Y264004D01*
X974833D01*
X974000Y264837D01*
Y266503D01*
X974833Y267336D01*
X1029500Y358500D02*
Y363498D01*
X1031999D01*
X1032832Y362665D01*
Y360999D01*
X1031999Y360166D01*
X1029500D01*
X1031166D02*
X1032832Y358500D01*
X1034498D02*
X1036164D01*
X1035331D01*
Y363498D01*
X1034498Y362665D01*
X1041996Y363498D02*
X1040330Y362665D01*
X1038664Y360999D01*
Y359333D01*
X1039497Y358500D01*
X1041163D01*
X1041996Y359333D01*
Y360166D01*
X1041163Y360999D01*
X1038664D01*
X971000Y299500D02*
Y294502D01*
X968501D01*
X967668Y295335D01*
Y297001D01*
X968501Y297834D01*
X971000D01*
X969334D02*
X967668Y299500D01*
X966002D02*
X964336D01*
X965169D01*
Y294502D01*
X966002Y295335D01*
X961836Y294502D02*
X958504D01*
Y295335D01*
X961836Y298667D01*
Y299500D01*
X914500Y341000D02*
Y345998D01*
X916999D01*
X917832Y345165D01*
Y343499D01*
X916999Y342666D01*
X914500D01*
X916166D02*
X917832Y341000D01*
X922831D02*
X919498D01*
X922831Y344332D01*
Y345165D01*
X921998Y345998D01*
X920331D01*
X919498Y345165D01*
X924497Y341000D02*
X926163D01*
X925330D01*
Y345998D01*
X924497Y345165D01*
X930500Y324000D02*
Y319002D01*
X928001D01*
X927168Y319835D01*
Y321501D01*
X928001Y322334D01*
X930500D01*
X928834D02*
X927168Y324000D01*
X922169D02*
X925502D01*
X922169Y320668D01*
Y319835D01*
X923002Y319002D01*
X924669D01*
X925502Y319835D01*
X917171Y324000D02*
X920503D01*
X917171Y320668D01*
Y319835D01*
X918004Y319002D01*
X919670D01*
X920503Y319835D01*
X907000Y275500D02*
X911998D01*
Y273001D01*
X911165Y272168D01*
X909499D01*
X908666Y273001D01*
Y275500D01*
Y273834D02*
X907000Y272168D01*
Y267169D02*
Y270502D01*
X910332Y267169D01*
X911165D01*
X911998Y268002D01*
Y269669D01*
X911165Y270502D01*
Y265503D02*
X911998Y264670D01*
Y263004D01*
X911165Y262171D01*
X910332D01*
X909499Y263004D01*
Y263837D01*
Y263004D01*
X908666Y262171D01*
X907833D01*
X907000Y263004D01*
Y264670D01*
X907833Y265503D01*
X913000Y349000D02*
Y353998D01*
X915499D01*
X916332Y353165D01*
Y351499D01*
X915499Y350666D01*
X913000D01*
X914666D02*
X916332Y349000D01*
X921331D02*
X917998D01*
X921331Y352332D01*
Y353165D01*
X920498Y353998D01*
X918831D01*
X917998Y353165D01*
X925496Y349000D02*
Y353998D01*
X922997Y351499D01*
X926329D01*
X899000Y275500D02*
X903998D01*
Y273001D01*
X903165Y272168D01*
X901499D01*
X900666Y273001D01*
Y275500D01*
Y273834D02*
X899000Y272168D01*
Y267169D02*
Y270502D01*
X902332Y267169D01*
X903165D01*
X903998Y268002D01*
Y269669D01*
X903165Y270502D01*
X903998Y262171D02*
Y265503D01*
X901499D01*
X902332Y263837D01*
Y263004D01*
X901499Y262171D01*
X899833D01*
X899000Y263004D01*
Y264670D01*
X899833Y265503D01*
X913000Y357500D02*
Y362498D01*
X915499D01*
X916332Y361665D01*
Y359999D01*
X915499Y359166D01*
X913000D01*
X914666D02*
X916332Y357500D01*
X921331D02*
X917998D01*
X921331Y360832D01*
Y361665D01*
X920498Y362498D01*
X918831D01*
X917998Y361665D01*
X926329Y362498D02*
X924663Y361665D01*
X922997Y359999D01*
Y358333D01*
X923830Y357500D01*
X925496D01*
X926329Y358333D01*
Y359166D01*
X925496Y359999D01*
X922997D01*
X896500Y299500D02*
Y294502D01*
X894001D01*
X893168Y295335D01*
Y297001D01*
X894001Y297834D01*
X896500D01*
X894834D02*
X893168Y299500D01*
X888169D02*
X891502D01*
X888169Y296168D01*
Y295335D01*
X889002Y294502D01*
X890669D01*
X891502Y295335D01*
X886503Y294502D02*
X883171D01*
Y295335D01*
X886503Y298667D01*
Y299500D01*
X889000Y341000D02*
Y345998D01*
X891499D01*
X892332Y345165D01*
Y343499D01*
X891499Y342666D01*
X889000D01*
X890666D02*
X892332Y341000D01*
X893998Y345165D02*
X894831Y345998D01*
X896498D01*
X897331Y345165D01*
Y344332D01*
X896498Y343499D01*
X895665D01*
X896498D01*
X897331Y342666D01*
Y341833D01*
X896498Y341000D01*
X894831D01*
X893998Y341833D01*
X898997Y341000D02*
X900663D01*
X899830D01*
Y345998D01*
X898997Y345165D01*
X852500Y323500D02*
Y318502D01*
X850001D01*
X849168Y319335D01*
Y321001D01*
X850001Y321834D01*
X852500D01*
X850834D02*
X849168Y323500D01*
X847502Y319335D02*
X846669Y318502D01*
X845002D01*
X844169Y319335D01*
Y320168D01*
X845002Y321001D01*
X845835D01*
X845002D01*
X844169Y321834D01*
Y322667D01*
X845002Y323500D01*
X846669D01*
X847502Y322667D01*
X839171Y323500D02*
X842503D01*
X839171Y320168D01*
Y319335D01*
X840004Y318502D01*
X841670D01*
X842503Y319335D01*
X828500Y276500D02*
X833498D01*
Y274001D01*
X832665Y273168D01*
X830999D01*
X830166Y274001D01*
Y276500D01*
Y274834D02*
X828500Y273168D01*
X832665Y271502D02*
X833498Y270669D01*
Y269002D01*
X832665Y268169D01*
X831832D01*
X830999Y269002D01*
Y269835D01*
Y269002D01*
X830166Y268169D01*
X829333D01*
X828500Y269002D01*
Y270669D01*
X829333Y271502D01*
X832665Y266503D02*
X833498Y265670D01*
Y264004D01*
X832665Y263171D01*
X831832D01*
X830999Y264004D01*
Y264837D01*
Y264004D01*
X830166Y263171D01*
X829333D01*
X828500Y264004D01*
Y265670D01*
X829333Y266503D01*
X889000Y349000D02*
Y353998D01*
X891499D01*
X892332Y353165D01*
Y351499D01*
X891499Y350666D01*
X889000D01*
X890666D02*
X892332Y349000D01*
X893998Y353165D02*
X894831Y353998D01*
X896498D01*
X897331Y353165D01*
Y352332D01*
X896498Y351499D01*
X895665D01*
X896498D01*
X897331Y350666D01*
Y349833D01*
X896498Y349000D01*
X894831D01*
X893998Y349833D01*
X901496Y349000D02*
Y353998D01*
X898997Y351499D01*
X902329D01*
X820500Y276500D02*
X825498D01*
Y274001D01*
X824665Y273168D01*
X822999D01*
X822166Y274001D01*
Y276500D01*
Y274834D02*
X820500Y273168D01*
X824665Y271502D02*
X825498Y270669D01*
Y269002D01*
X824665Y268169D01*
X823832D01*
X822999Y269002D01*
Y269835D01*
Y269002D01*
X822166Y268169D01*
X821333D01*
X820500Y269002D01*
Y270669D01*
X821333Y271502D01*
X825498Y263171D02*
Y266503D01*
X822999D01*
X823832Y264837D01*
Y264004D01*
X822999Y263171D01*
X821333D01*
X820500Y264004D01*
Y265670D01*
X821333Y266503D01*
X889000Y357500D02*
Y362498D01*
X891499D01*
X892332Y361665D01*
Y359999D01*
X891499Y359166D01*
X889000D01*
X890666D02*
X892332Y357500D01*
X893998Y361665D02*
X894831Y362498D01*
X896498D01*
X897331Y361665D01*
Y360832D01*
X896498Y359999D01*
X895665D01*
X896498D01*
X897331Y359166D01*
Y358333D01*
X896498Y357500D01*
X894831D01*
X893998Y358333D01*
X902329Y362498D02*
X900663Y361665D01*
X898997Y359999D01*
Y358333D01*
X899830Y357500D01*
X901496D01*
X902329Y358333D01*
Y359166D01*
X901496Y359999D01*
X898997D01*
X818500Y300000D02*
Y295002D01*
X816001D01*
X815168Y295835D01*
Y297501D01*
X816001Y298334D01*
X818500D01*
X816834D02*
X815168Y300000D01*
X813502Y295835D02*
X812669Y295002D01*
X811002D01*
X810169Y295835D01*
Y296668D01*
X811002Y297501D01*
X811835D01*
X811002D01*
X810169Y298334D01*
Y299167D01*
X811002Y300000D01*
X812669D01*
X813502Y299167D01*
X808503Y295002D02*
X805171D01*
Y295835D01*
X808503Y299167D01*
Y300000D01*
X946000Y481000D02*
Y485998D01*
X948499D01*
X949332Y485165D01*
Y483499D01*
X948499Y482666D01*
X946000D01*
X947666D02*
X949332Y481000D01*
X954331Y485165D02*
X953498Y485998D01*
X951831D01*
X950998Y485165D01*
Y484332D01*
X951831Y483499D01*
X953498D01*
X954331Y482666D01*
Y481833D01*
X953498Y481000D01*
X951831D01*
X950998Y481833D01*
X955997Y481000D02*
X957663D01*
X956830D01*
Y485998D01*
X955997Y485165D01*
X881000Y481000D02*
Y485998D01*
X883499D01*
X884332Y485165D01*
Y483499D01*
X883499Y482666D01*
X881000D01*
X882666D02*
X884332Y481000D01*
X889331Y485165D02*
X888498Y485998D01*
X886831D01*
X885998Y485165D01*
Y484332D01*
X886831Y483499D01*
X888498D01*
X889331Y482666D01*
Y481833D01*
X888498Y481000D01*
X886831D01*
X885998Y481833D01*
X894329Y481000D02*
X890997D01*
X894329Y484332D01*
Y485165D01*
X893496Y485998D01*
X891830D01*
X890997Y485165D01*
X891500Y472000D02*
X893166D01*
X892333D01*
Y476998D01*
X891500Y476165D01*
X893332Y461000D02*
X890000D01*
X893332Y464332D01*
Y465165D01*
X892499Y465998D01*
X890833D01*
X890000Y465165D01*
X948000Y471833D02*
X948833Y471000D01*
X950499D01*
X951332Y471833D01*
Y475165D01*
X950499Y475998D01*
X948833D01*
X948000Y475165D01*
Y474332D01*
X948833Y473499D01*
X951332D01*
X948000Y461000D02*
X949666D01*
X948833D01*
Y465998D01*
X948000Y465165D01*
X952165D02*
X952998Y465998D01*
X954665D01*
X955498Y465165D01*
Y461833D01*
X954665Y461000D01*
X952998D01*
X952165Y461833D01*
Y465165D01*
X392500Y165500D02*
Y265500D01*
X717500D01*
Y165500D02*
Y265500D01*
X394000Y165500D02*
X717500D01*
X394000D02*
X394500D01*
X433500Y190500D02*
Y240500D01*
X413500Y190500D02*
X433500D01*
X413500D02*
Y240500D01*
X433500D01*
X553500Y181000D02*
Y185998D01*
X555999D01*
X556832Y185165D01*
Y183499D01*
X555999Y182666D01*
X553500D01*
X555166D02*
X556832Y181000D01*
X558498Y185998D02*
X561831D01*
Y185165D01*
X558498Y181833D01*
Y181000D01*
X511500Y242951D02*
Y247450D01*
X513749D01*
X514499Y246700D01*
Y245200D01*
X513749Y244451D01*
X511500D01*
X512999D02*
X514499Y242951D01*
X518998Y247450D02*
X517498Y246700D01*
X515999Y245200D01*
Y243701D01*
X516748Y242951D01*
X518248D01*
X518998Y243701D01*
Y244451D01*
X518248Y245200D01*
X515999D01*
X586126Y180606D02*
Y185605D01*
X588625D01*
X589458Y184772D01*
Y183106D01*
X588625Y182272D01*
X586126D01*
X587792D02*
X589458Y180606D01*
X594457Y185605D02*
X591124D01*
Y183106D01*
X592791Y183939D01*
X593623D01*
X594457Y183106D01*
Y181439D01*
X593623Y180606D01*
X591957D01*
X591124Y181439D01*
X531500Y242951D02*
Y247450D01*
X533749D01*
X534499Y246700D01*
Y245200D01*
X533749Y244451D01*
X531500D01*
X533000D02*
X534499Y242951D01*
X538248D02*
Y247450D01*
X535998Y245200D01*
X538998D01*
X586126Y189106D02*
Y194105D01*
X588625D01*
X589458Y193272D01*
Y191605D01*
X588625Y190772D01*
X586126D01*
X587792D02*
X589458Y189106D01*
X591124Y193272D02*
X591957Y194105D01*
X593623D01*
X594457Y193272D01*
Y192439D01*
X593623Y191605D01*
X592791D01*
X593623D01*
X594457Y190772D01*
Y189939D01*
X593623Y189106D01*
X591957D01*
X591124Y189939D01*
X568500Y196500D02*
Y201498D01*
X570999D01*
X571832Y200665D01*
Y198999D01*
X570999Y198166D01*
X568500D01*
X570166D02*
X571832Y196500D01*
X576831D02*
X573498D01*
X576831Y199832D01*
Y200665D01*
X575998Y201498D01*
X574331D01*
X573498Y200665D01*
X541500Y243000D02*
Y247498D01*
X543749D01*
X544499Y246749D01*
Y245249D01*
X543749Y244499D01*
X541500D01*
X543000D02*
X544499Y243000D01*
X545998D02*
X547498D01*
X546748D01*
Y247498D01*
X545998Y246749D01*
X548998Y210001D02*
Y211667D01*
X548165Y212500D01*
X544833D01*
X544000Y211667D01*
Y210001D01*
X544833Y209168D01*
X548165D01*
X548998Y210001D01*
X544000Y207502D02*
X548998D01*
Y205002D01*
X548165Y204169D01*
X546499D01*
X545666Y205002D01*
Y207502D01*
X544000Y199171D02*
Y202503D01*
X547332Y199171D01*
X548165D01*
X548998Y200004D01*
Y201670D01*
X548165Y202503D01*
X610998Y215501D02*
Y217167D01*
X610165Y218000D01*
X606833D01*
X606000Y217167D01*
Y215501D01*
X606833Y214668D01*
X610165D01*
X610998Y215501D01*
X606000Y213002D02*
X610998D01*
Y210502D01*
X610165Y209669D01*
X608499D01*
X607666Y210502D01*
Y213002D01*
X606000Y208003D02*
Y206337D01*
Y207170D01*
X610998D01*
X610165Y208003D01*
X661832Y177165D02*
X660999Y177998D01*
X659333D01*
X658500Y177165D01*
Y173833D01*
X659333Y173000D01*
X660999D01*
X661832Y173833D01*
X663498Y173000D02*
Y177998D01*
X665998D01*
X666831Y177165D01*
Y175499D01*
X665998Y174666D01*
X663498D01*
X668497Y177165D02*
X669330Y177998D01*
X670996D01*
X671829Y177165D01*
Y176332D01*
X670996Y175499D01*
X670163D01*
X670996D01*
X671829Y174666D01*
Y173833D01*
X670996Y173000D01*
X669330D01*
X668497Y173833D01*
X645832Y185165D02*
X644999Y185998D01*
X643333D01*
X642500Y185165D01*
Y181833D01*
X643333Y181000D01*
X644999D01*
X645832Y181833D01*
X647498Y181000D02*
Y185998D01*
X649998D01*
X650831Y185165D01*
Y183499D01*
X649998Y182666D01*
X647498D01*
X655829Y181000D02*
X652497D01*
X655829Y184332D01*
Y185165D01*
X654996Y185998D01*
X653330D01*
X652497Y185165D01*
X631332Y193165D02*
X630499Y193998D01*
X628833D01*
X628000Y193165D01*
Y189833D01*
X628833Y189000D01*
X630499D01*
X631332Y189833D01*
X632998Y189000D02*
Y193998D01*
X635498D01*
X636331Y193165D01*
Y191499D01*
X635498Y190666D01*
X632998D01*
X637997Y189000D02*
X639663D01*
X638830D01*
Y193998D01*
X637997Y193165D01*
X504499Y246700D02*
X503749Y247450D01*
X502250D01*
X501500Y246700D01*
Y243701D01*
X502250Y242951D01*
X503749D01*
X504499Y243701D01*
X505999Y247450D02*
Y242951D01*
X508998D01*
X450665Y196168D02*
X451498Y197001D01*
Y198667D01*
X450665Y199500D01*
X447333D01*
X446500Y198667D01*
Y197001D01*
X447333Y196168D01*
Y194502D02*
X446500Y193669D01*
Y192002D01*
X447333Y191169D01*
X450665D01*
X451498Y192002D01*
Y193669D01*
X450665Y194502D01*
X449832D01*
X448999Y193669D01*
Y191169D01*
X460665Y196168D02*
X461498Y197001D01*
Y198667D01*
X460665Y199500D01*
X457333D01*
X456500Y198667D01*
Y197001D01*
X457333Y196168D01*
X460665Y194502D02*
X461498Y193669D01*
Y192002D01*
X460665Y191169D01*
X459832D01*
X458999Y192002D01*
X458166Y191169D01*
X457333D01*
X456500Y192002D01*
Y193669D01*
X457333Y194502D01*
X458166D01*
X458999Y193669D01*
X459832Y194502D01*
X460665D01*
X458999Y193669D02*
Y192002D01*
X478665Y196168D02*
X479498Y197001D01*
Y198667D01*
X478665Y199500D01*
X475333D01*
X474500Y198667D01*
Y197001D01*
X475333Y196168D01*
X479498Y194502D02*
Y191169D01*
X478665D01*
X475333Y194502D01*
X474500D01*
X488665Y196168D02*
X489498Y197001D01*
Y198667D01*
X488665Y199500D01*
X485333D01*
X484500Y198667D01*
Y197001D01*
X485333Y196168D01*
X489498Y191169D02*
X488665Y192835D01*
X486999Y194502D01*
X485333D01*
X484500Y193669D01*
Y192002D01*
X485333Y191169D01*
X486166D01*
X486999Y192002D01*
Y194502D01*
X545332Y185665D02*
X544499Y186498D01*
X542833D01*
X542000Y185665D01*
Y182333D01*
X542833Y181500D01*
X544499D01*
X545332Y182333D01*
X550331Y186498D02*
X546998D01*
Y183999D01*
X548665Y184832D01*
X549498D01*
X550331Y183999D01*
Y182333D01*
X549498Y181500D01*
X547831D01*
X546998Y182333D01*
X508832Y209165D02*
X507999Y209998D01*
X506333D01*
X505500Y209165D01*
Y205833D01*
X506333Y205000D01*
X507999D01*
X508832Y205833D01*
X512998Y205000D02*
Y209998D01*
X510498Y207499D01*
X513831D01*
X610165Y195168D02*
X610998Y196001D01*
Y197667D01*
X610165Y198500D01*
X606833D01*
X606000Y197667D01*
Y196001D01*
X606833Y195168D01*
X610165Y193502D02*
X610998Y192669D01*
Y191002D01*
X610165Y190169D01*
X609332D01*
X608499Y191002D01*
Y191835D01*
Y191002D01*
X607666Y190169D01*
X606833D01*
X606000Y191002D01*
Y192669D01*
X606833Y193502D01*
X571332Y232665D02*
X570499Y233498D01*
X568833D01*
X568000Y232665D01*
Y229333D01*
X568833Y228500D01*
X570499D01*
X571332Y229333D01*
X576331Y228500D02*
X572998D01*
X576331Y231832D01*
Y232665D01*
X575498Y233498D01*
X573831D01*
X572998Y232665D01*
X524999Y246700D02*
X524249Y247450D01*
X522750D01*
X522000Y246700D01*
Y243701D01*
X522750Y242951D01*
X524249D01*
X524999Y243701D01*
X526499Y242951D02*
X527998D01*
X527248D01*
Y247450D01*
X526499Y246700D01*
X416000Y172000D02*
Y176998D01*
X418499D01*
X419332Y176165D01*
Y174499D01*
X418499Y173666D01*
X416000D01*
X417666D02*
X419332Y172000D01*
X424331Y176165D02*
X423498Y176998D01*
X421831D01*
X420998Y176165D01*
Y175332D01*
X421831Y174499D01*
X423498D01*
X424331Y173666D01*
Y172833D01*
X423498Y172000D01*
X421831D01*
X420998Y172833D01*
X429329Y172000D02*
X425997D01*
X429329Y175332D01*
Y176165D01*
X428496Y176998D01*
X426830D01*
X425997Y176165D01*
X434000Y172000D02*
Y176998D01*
X436499D01*
X437332Y176165D01*
Y174499D01*
X436499Y173666D01*
X434000D01*
X435666D02*
X437332Y172000D01*
X442331Y176165D02*
X441498Y176998D01*
X439831D01*
X438998Y176165D01*
Y175332D01*
X439831Y174499D01*
X441498D01*
X442331Y173666D01*
Y172833D01*
X441498Y172000D01*
X439831D01*
X438998Y172833D01*
X443997Y176165D02*
X444830Y176998D01*
X446496D01*
X447329Y176165D01*
Y175332D01*
X446496Y174499D01*
X445663D01*
X446496D01*
X447329Y173666D01*
Y172833D01*
X446496Y172000D01*
X444830D01*
X443997Y172833D01*
X421500Y187500D02*
Y189166D01*
Y188333D01*
X416502D01*
X417335Y187500D01*
X431500Y188832D02*
Y185500D01*
X428168Y188832D01*
X427335D01*
X426502Y187999D01*
Y186333D01*
X427335Y185500D01*
X420667Y242000D02*
X421500Y242833D01*
Y244499D01*
X420667Y245332D01*
X417335D01*
X416502Y244499D01*
Y242833D01*
X417335Y242000D01*
X418168D01*
X419001Y242833D01*
Y245332D01*
X431500Y242000D02*
Y243666D01*
Y242833D01*
X426502D01*
X427335Y242000D01*
Y246165D02*
X426502Y246998D01*
Y248664D01*
X427335Y249498D01*
X430667D01*
X431500Y248664D01*
Y246998D01*
X430667Y246165D01*
X427335D01*
X392500Y278000D02*
Y378000D01*
X717500D01*
Y278000D02*
Y378000D01*
X394000Y278000D02*
X717500D01*
X394000D02*
X394500D01*
X433500Y303000D02*
Y353000D01*
X413500Y303000D02*
X433500D01*
X413500D02*
Y353000D01*
X433500D01*
X553500Y293500D02*
Y298498D01*
X555999D01*
X556832Y297665D01*
Y295999D01*
X555999Y295166D01*
X553500D01*
X555166D02*
X556832Y293500D01*
X558498Y298498D02*
X561831D01*
Y297665D01*
X558498Y294333D01*
Y293500D01*
X511500Y355451D02*
Y359950D01*
X513749D01*
X514499Y359200D01*
Y357700D01*
X513749Y356951D01*
X511500D01*
X512999D02*
X514499Y355451D01*
X518998Y359950D02*
X517498Y359200D01*
X515999Y357700D01*
Y356201D01*
X516748Y355451D01*
X518248D01*
X518998Y356201D01*
Y356951D01*
X518248Y357700D01*
X515999D01*
X586126Y293106D02*
Y298105D01*
X588625D01*
X589458Y297272D01*
Y295605D01*
X588625Y294772D01*
X586126D01*
X587792D02*
X589458Y293106D01*
X594457Y298105D02*
X591124D01*
Y295605D01*
X592791Y296439D01*
X593623D01*
X594457Y295605D01*
Y293939D01*
X593623Y293106D01*
X591957D01*
X591124Y293939D01*
X531500Y355451D02*
Y359950D01*
X533749D01*
X534499Y359200D01*
Y357700D01*
X533749Y356951D01*
X531500D01*
X533000D02*
X534499Y355451D01*
X538248D02*
Y359950D01*
X535998Y357700D01*
X538998D01*
X586126Y301606D02*
Y306605D01*
X588625D01*
X589458Y305772D01*
Y304105D01*
X588625Y303272D01*
X586126D01*
X587792D02*
X589458Y301606D01*
X591124Y305772D02*
X591957Y306605D01*
X593623D01*
X594457Y305772D01*
Y304939D01*
X593623Y304105D01*
X592791D01*
X593623D01*
X594457Y303272D01*
Y302439D01*
X593623Y301606D01*
X591957D01*
X591124Y302439D01*
X568500Y309000D02*
Y313998D01*
X570999D01*
X571832Y313165D01*
Y311499D01*
X570999Y310666D01*
X568500D01*
X570166D02*
X571832Y309000D01*
X576831D02*
X573498D01*
X576831Y312332D01*
Y313165D01*
X575998Y313998D01*
X574331D01*
X573498Y313165D01*
X541500Y355500D02*
Y359998D01*
X543749D01*
X544499Y359249D01*
Y357749D01*
X543749Y356999D01*
X541500D01*
X543000D02*
X544499Y355500D01*
X545998D02*
X547498D01*
X546748D01*
Y359998D01*
X545998Y359249D01*
X548998Y322501D02*
Y324167D01*
X548165Y325000D01*
X544833D01*
X544000Y324167D01*
Y322501D01*
X544833Y321668D01*
X548165D01*
X548998Y322501D01*
X544000Y320002D02*
X548998D01*
Y317502D01*
X548165Y316669D01*
X546499D01*
X545666Y317502D01*
Y320002D01*
X544000Y311671D02*
Y315003D01*
X547332Y311671D01*
X548165D01*
X548998Y312504D01*
Y314170D01*
X548165Y315003D01*
X610998Y328001D02*
Y329667D01*
X610165Y330500D01*
X606833D01*
X606000Y329667D01*
Y328001D01*
X606833Y327168D01*
X610165D01*
X610998Y328001D01*
X606000Y325502D02*
X610998D01*
Y323002D01*
X610165Y322169D01*
X608499D01*
X607666Y323002D01*
Y325502D01*
X606000Y320503D02*
Y318837D01*
Y319670D01*
X610998D01*
X610165Y320503D01*
X661832Y289665D02*
X660999Y290498D01*
X659333D01*
X658500Y289665D01*
Y286333D01*
X659333Y285500D01*
X660999D01*
X661832Y286333D01*
X663498Y285500D02*
Y290498D01*
X665998D01*
X666831Y289665D01*
Y287999D01*
X665998Y287166D01*
X663498D01*
X668497Y289665D02*
X669330Y290498D01*
X670996D01*
X671829Y289665D01*
Y288832D01*
X670996Y287999D01*
X670163D01*
X670996D01*
X671829Y287166D01*
Y286333D01*
X670996Y285500D01*
X669330D01*
X668497Y286333D01*
X645832Y297665D02*
X644999Y298498D01*
X643333D01*
X642500Y297665D01*
Y294333D01*
X643333Y293500D01*
X644999D01*
X645832Y294333D01*
X647498Y293500D02*
Y298498D01*
X649998D01*
X650831Y297665D01*
Y295999D01*
X649998Y295166D01*
X647498D01*
X655829Y293500D02*
X652497D01*
X655829Y296832D01*
Y297665D01*
X654996Y298498D01*
X653330D01*
X652497Y297665D01*
X631332Y305665D02*
X630499Y306498D01*
X628833D01*
X628000Y305665D01*
Y302333D01*
X628833Y301500D01*
X630499D01*
X631332Y302333D01*
X632998Y301500D02*
Y306498D01*
X635498D01*
X636331Y305665D01*
Y303999D01*
X635498Y303166D01*
X632998D01*
X637997Y301500D02*
X639663D01*
X638830D01*
Y306498D01*
X637997Y305665D01*
X504499Y359200D02*
X503749Y359950D01*
X502250D01*
X501500Y359200D01*
Y356201D01*
X502250Y355451D01*
X503749D01*
X504499Y356201D01*
X505999Y359950D02*
Y355451D01*
X508998D01*
X450665Y308668D02*
X451498Y309501D01*
Y311167D01*
X450665Y312000D01*
X447333D01*
X446500Y311167D01*
Y309501D01*
X447333Y308668D01*
Y307002D02*
X446500Y306169D01*
Y304502D01*
X447333Y303669D01*
X450665D01*
X451498Y304502D01*
Y306169D01*
X450665Y307002D01*
X449832D01*
X448999Y306169D01*
Y303669D01*
X460665Y308668D02*
X461498Y309501D01*
Y311167D01*
X460665Y312000D01*
X457333D01*
X456500Y311167D01*
Y309501D01*
X457333Y308668D01*
X460665Y307002D02*
X461498Y306169D01*
Y304502D01*
X460665Y303669D01*
X459832D01*
X458999Y304502D01*
X458166Y303669D01*
X457333D01*
X456500Y304502D01*
Y306169D01*
X457333Y307002D01*
X458166D01*
X458999Y306169D01*
X459832Y307002D01*
X460665D01*
X458999Y306169D02*
Y304502D01*
X478665Y308668D02*
X479498Y309501D01*
Y311167D01*
X478665Y312000D01*
X475333D01*
X474500Y311167D01*
Y309501D01*
X475333Y308668D01*
X479498Y307002D02*
Y303669D01*
X478665D01*
X475333Y307002D01*
X474500D01*
X488665Y308668D02*
X489498Y309501D01*
Y311167D01*
X488665Y312000D01*
X485333D01*
X484500Y311167D01*
Y309501D01*
X485333Y308668D01*
X489498Y303669D02*
X488665Y305335D01*
X486999Y307002D01*
X485333D01*
X484500Y306169D01*
Y304502D01*
X485333Y303669D01*
X486166D01*
X486999Y304502D01*
Y307002D01*
X545332Y298165D02*
X544499Y298998D01*
X542833D01*
X542000Y298165D01*
Y294833D01*
X542833Y294000D01*
X544499D01*
X545332Y294833D01*
X550331Y298998D02*
X546998D01*
Y296499D01*
X548665Y297332D01*
X549498D01*
X550331Y296499D01*
Y294833D01*
X549498Y294000D01*
X547831D01*
X546998Y294833D01*
X508832Y321665D02*
X507999Y322498D01*
X506333D01*
X505500Y321665D01*
Y318333D01*
X506333Y317500D01*
X507999D01*
X508832Y318333D01*
X512998Y317500D02*
Y322498D01*
X510498Y319999D01*
X513831D01*
X610165Y307668D02*
X610998Y308501D01*
Y310167D01*
X610165Y311000D01*
X606833D01*
X606000Y310167D01*
Y308501D01*
X606833Y307668D01*
X610165Y306002D02*
X610998Y305169D01*
Y303502D01*
X610165Y302669D01*
X609332D01*
X608499Y303502D01*
Y304335D01*
Y303502D01*
X607666Y302669D01*
X606833D01*
X606000Y303502D01*
Y305169D01*
X606833Y306002D01*
X571332Y345165D02*
X570499Y345998D01*
X568833D01*
X568000Y345165D01*
Y341833D01*
X568833Y341000D01*
X570499D01*
X571332Y341833D01*
X576331Y341000D02*
X572998D01*
X576331Y344332D01*
Y345165D01*
X575498Y345998D01*
X573831D01*
X572998Y345165D01*
X524999Y359200D02*
X524249Y359950D01*
X522750D01*
X522000Y359200D01*
Y356201D01*
X522750Y355451D01*
X524249D01*
X524999Y356201D01*
X526499Y355451D02*
X527998D01*
X527248D01*
Y359950D01*
X526499Y359200D01*
X416000Y284500D02*
Y289498D01*
X418499D01*
X419332Y288665D01*
Y286999D01*
X418499Y286166D01*
X416000D01*
X417666D02*
X419332Y284500D01*
X424331Y288665D02*
X423498Y289498D01*
X421831D01*
X420998Y288665D01*
Y287832D01*
X421831Y286999D01*
X423498D01*
X424331Y286166D01*
Y285333D01*
X423498Y284500D01*
X421831D01*
X420998Y285333D01*
X429329Y284500D02*
X425997D01*
X429329Y287832D01*
Y288665D01*
X428496Y289498D01*
X426830D01*
X425997Y288665D01*
X434000Y284500D02*
Y289498D01*
X436499D01*
X437332Y288665D01*
Y286999D01*
X436499Y286166D01*
X434000D01*
X435666D02*
X437332Y284500D01*
X442331Y288665D02*
X441498Y289498D01*
X439831D01*
X438998Y288665D01*
Y287832D01*
X439831Y286999D01*
X441498D01*
X442331Y286166D01*
Y285333D01*
X441498Y284500D01*
X439831D01*
X438998Y285333D01*
X443997Y288665D02*
X444830Y289498D01*
X446496D01*
X447329Y288665D01*
Y287832D01*
X446496Y286999D01*
X445663D01*
X446496D01*
X447329Y286166D01*
Y285333D01*
X446496Y284500D01*
X444830D01*
X443997Y285333D01*
X421500Y300000D02*
Y301666D01*
Y300833D01*
X416502D01*
X417335Y300000D01*
X431500Y301332D02*
Y298000D01*
X428168Y301332D01*
X427335D01*
X426502Y300499D01*
Y298833D01*
X427335Y298000D01*
X420667Y354500D02*
X421500Y355333D01*
Y356999D01*
X420667Y357832D01*
X417335D01*
X416502Y356999D01*
Y355333D01*
X417335Y354500D01*
X418168D01*
X419001Y355333D01*
Y357832D01*
X431500Y354500D02*
Y356166D01*
Y355333D01*
X426502D01*
X427335Y354500D01*
Y358665D02*
X426502Y359498D01*
Y361164D01*
X427335Y361998D01*
X430667D01*
X431500Y361164D01*
Y359498D01*
X430667Y358665D01*
X427335D01*
D41*
X483501Y114000D02*
X485834D01*
X487000Y115166D01*
X485834Y116333D01*
X483501D01*
Y117499D02*
Y118665D01*
Y118082D01*
X487000D01*
Y117499D01*
Y118665D01*
Y120415D02*
X483501D01*
X487000Y122747D01*
X483501D01*
X494084Y116333D02*
X493501Y115749D01*
Y114583D01*
X494084Y114000D01*
X496417D01*
X497000Y114583D01*
Y115749D01*
X496417Y116333D01*
X495251D01*
Y115166D01*
X497000Y117499D02*
X493501D01*
X497000Y119831D01*
X493501D01*
Y120998D02*
X497000D01*
Y122747D01*
X496417Y123330D01*
X494084D01*
X493501Y122747D01*
Y120998D01*
X507000Y114000D02*
X503501D01*
Y115749D01*
X504084Y116333D01*
X505251D01*
X505834Y115749D01*
Y114000D01*
Y115166D02*
X507000Y116333D01*
X504084Y119831D02*
X503501Y119248D01*
Y118082D01*
X504084Y117499D01*
X504667D01*
X505251Y118082D01*
Y119248D01*
X505834Y119831D01*
X506417D01*
X507000Y119248D01*
Y118082D01*
X506417Y117499D01*
X503501Y120998D02*
Y123330D01*
Y122164D01*
X507000D01*
X513501Y116333D02*
Y114000D01*
X515251D01*
X514667Y115166D01*
Y115749D01*
X515251Y116333D01*
X516417D01*
X517000Y115749D01*
Y114583D01*
X516417Y114000D01*
X513501Y117499D02*
X515834D01*
X517000Y118665D01*
X515834Y119831D01*
X513501D01*
X627333Y77999D02*
X625000D01*
Y76249D01*
X626166Y76833D01*
X626749D01*
X627333Y76249D01*
Y75083D01*
X626749Y74500D01*
X625583D01*
X625000Y75083D01*
X628499Y77999D02*
Y75666D01*
X629665Y74500D01*
X630831Y75666D01*
Y77999D01*
X627333Y67416D02*
X626749Y67999D01*
X625583D01*
X625000Y67416D01*
Y65083D01*
X625583Y64500D01*
X626749D01*
X627333Y65083D01*
Y66249D01*
X626166D01*
X628499Y64500D02*
Y67999D01*
X630831Y64500D01*
Y67999D01*
X631998D02*
Y64500D01*
X633747D01*
X634330Y65083D01*
Y67416D01*
X633747Y67999D01*
X631998D01*
X625000Y88999D02*
Y85500D01*
Y86666D01*
X627333Y88999D01*
X625583Y87249D01*
X627333Y85500D01*
X628499Y88999D02*
X629665D01*
X629082D01*
Y85500D01*
X628499D01*
X629665D01*
X631415Y88999D02*
Y85500D01*
X633747D01*
X634913Y88999D02*
Y85500D01*
X637246D01*
X473001Y63249D02*
Y62083D01*
X473584Y61500D01*
X475917D01*
X476500Y62083D01*
Y63249D01*
X475917Y63833D01*
X473584D01*
X473001Y63249D01*
Y64999D02*
X475917D01*
X476500Y65582D01*
Y66748D01*
X475917Y67331D01*
X473001D01*
Y68498D02*
Y70830D01*
Y69664D01*
X476500D01*
X483501Y505000D02*
X485834D01*
X487000Y506166D01*
X485834Y507333D01*
X483501D01*
Y508499D02*
Y509665D01*
Y509082D01*
X487000D01*
Y508499D01*
Y509665D01*
Y511415D02*
X483501D01*
X487000Y513747D01*
X483501D01*
X494084Y507333D02*
X493501Y506749D01*
Y505583D01*
X494084Y505000D01*
X496417D01*
X497000Y505583D01*
Y506749D01*
X496417Y507333D01*
X495251D01*
Y506166D01*
X497000Y508499D02*
X493501D01*
X497000Y510831D01*
X493501D01*
Y511998D02*
X497000D01*
Y513747D01*
X496417Y514330D01*
X494084D01*
X493501Y513747D01*
Y511998D01*
X507000Y505000D02*
X503501D01*
Y506749D01*
X504084Y507333D01*
X505251D01*
X505834Y506749D01*
Y505000D01*
Y506166D02*
X507000Y507333D01*
X504084Y510831D02*
X503501Y510248D01*
Y509082D01*
X504084Y508499D01*
X504667D01*
X505251Y509082D01*
Y510248D01*
X505834Y510831D01*
X506417D01*
X507000Y510248D01*
Y509082D01*
X506417Y508499D01*
X503501Y511998D02*
Y514330D01*
Y513164D01*
X507000D01*
X513501Y507333D02*
Y505000D01*
X515251D01*
X514667Y506166D01*
Y506749D01*
X515251Y507333D01*
X516417D01*
X517000Y506749D01*
Y505583D01*
X516417Y505000D01*
X513501Y508499D02*
X515834D01*
X517000Y509665D01*
X515834Y510831D01*
X513501D01*
X627333Y468999D02*
X625000D01*
Y467249D01*
X626166Y467833D01*
X626749D01*
X627333Y467249D01*
Y466083D01*
X626749Y465500D01*
X625583D01*
X625000Y466083D01*
X628499Y468999D02*
Y466666D01*
X629665Y465500D01*
X630831Y466666D01*
Y468999D01*
X627333Y458416D02*
X626749Y458999D01*
X625583D01*
X625000Y458416D01*
Y456083D01*
X625583Y455500D01*
X626749D01*
X627333Y456083D01*
Y457249D01*
X626166D01*
X628499Y455500D02*
Y458999D01*
X630831Y455500D01*
Y458999D01*
X631998D02*
Y455500D01*
X633747D01*
X634330Y456083D01*
Y458416D01*
X633747Y458999D01*
X631998D01*
X625000Y479999D02*
Y476500D01*
Y477666D01*
X627333Y479999D01*
X625583Y478249D01*
X627333Y476500D01*
X628499Y479999D02*
X629665D01*
X629082D01*
Y476500D01*
X628499D01*
X629665D01*
X631415Y479999D02*
Y476500D01*
X633747D01*
X634913Y479999D02*
Y476500D01*
X637246D01*
X473001Y454249D02*
Y453083D01*
X473584Y452500D01*
X475917D01*
X476500Y453083D01*
Y454249D01*
X475917Y454833D01*
X473584D01*
X473001Y454249D01*
Y455999D02*
X475917D01*
X476500Y456582D01*
Y457748D01*
X475917Y458331D01*
X473001D01*
Y459498D02*
Y461830D01*
Y460664D01*
X476500D01*
D42*
X284449Y273161D02*
G03*
X284449Y273161I0J492D01*
G01*
X209449Y272661D02*
G03*
X209449Y272661I0J492D01*
G01*
X131449Y273161D02*
G03*
X131449Y273161I0J492D01*
G01*
X261949Y349661D02*
G03*
X261949Y349661I0J492D01*
G01*
X114449D02*
G03*
X114449Y349661I0J492D01*
G01*
X1014449Y273161D02*
G03*
X1014449Y273161I0J492D01*
G01*
X939449Y272661D02*
G03*
X939449Y272661I0J492D01*
G01*
X861449Y273161D02*
G03*
X861449Y273161I0J492D01*
G01*
X991949Y349661D02*
G03*
X991949Y349661I0J492D01*
G01*
X844449D02*
G03*
X844449Y349661I0J492D01*
G01*
X603339Y221949D02*
G03*
X603339Y221949I-492J0D01*
G01*
X540839Y215449D02*
G03*
X540839Y215449I-492J0D01*
G01*
X603339Y334449D02*
G03*
X603339Y334449I-492J0D01*
G01*
X540839Y327949D02*
G03*
X540839Y327949I-492J0D01*
G01*
D43*
X274606Y277413D02*
G03*
X274606Y277413I0J1181D01*
G01*
X199606Y276913D02*
G03*
X199606Y276913I0J1181D01*
G01*
X121606Y277413D02*
G03*
X121606Y277413I0J1181D01*
G01*
X252106Y353913D02*
G03*
X252106Y353913I0J1181D01*
G01*
X104606D02*
G03*
X104606Y353913I0J1181D01*
G01*
X1004606Y277413D02*
G03*
X1004606Y277413I0J1181D01*
G01*
X929606Y276913D02*
G03*
X929606Y276913I0J1181D01*
G01*
X851606Y277413D02*
G03*
X851606Y277413I0J1181D01*
G01*
X982106Y353913D02*
G03*
X982106Y353913I0J1181D01*
G01*
X834606D02*
G03*
X834606Y353913I0J1181D01*
G01*
X599087Y212106D02*
G03*
X599087Y212106I-1181J0D01*
G01*
X536587Y205606D02*
G03*
X536587Y205606I-1181J0D01*
G01*
X599087Y324606D02*
G03*
X599087Y324606I-1181J0D01*
G01*
X536587Y318106D02*
G03*
X536587Y318106I-1181J0D01*
G01*
D44*
X339497Y382000D02*
X331166D01*
X329500Y380334D01*
Y377002D01*
X331166Y375336D01*
X339497D01*
X337831Y365339D02*
X339497Y367005D01*
Y370337D01*
X337831Y372003D01*
X336164D01*
X334498Y370337D01*
Y367005D01*
X332832Y365339D01*
X331166D01*
X329500Y367005D01*
Y370337D01*
X331166Y372003D01*
X337831Y355342D02*
X339497Y357008D01*
Y360340D01*
X337831Y362006D01*
X331166D01*
X329500Y360340D01*
Y357008D01*
X331166Y355342D01*
X329500Y342013D02*
X339497D01*
Y337015D01*
X337831Y335348D01*
X334498D01*
X332832Y337015D01*
Y342013D01*
Y338681D02*
X329500Y335348D01*
Y330350D02*
Y327018D01*
X331166Y325352D01*
X334498D01*
X336164Y327018D01*
Y330350D01*
X334498Y332016D01*
X331166D01*
X329500Y330350D01*
X339497Y322019D02*
X329500D01*
Y317021D01*
X331166Y315355D01*
X332832D01*
X334498D01*
X336164Y317021D01*
Y322019D01*
X329500Y310356D02*
Y307024D01*
X331166Y305358D01*
X334498D01*
X336164Y307024D01*
Y310356D01*
X334498Y312023D01*
X331166D01*
X329500Y310356D01*
X337831Y300360D02*
X336164D01*
Y302026D01*
Y298694D01*
Y300360D01*
X331166D01*
X329500Y298694D01*
Y293695D02*
Y290363D01*
Y292029D01*
X336164D01*
Y293695D01*
Y278700D02*
Y283698D01*
X334498Y285365D01*
X331166D01*
X329500Y283698D01*
Y278700D01*
Y275368D02*
Y270369D01*
X331166Y268703D01*
X332832Y270369D01*
Y273702D01*
X334498Y275368D01*
X336164Y273702D01*
Y268703D01*
X55331Y343336D02*
X56997Y345002D01*
Y348334D01*
X55331Y350000D01*
X53664D01*
X51998Y348334D01*
Y345002D01*
X50332Y343336D01*
X48666D01*
X47000Y345002D01*
Y348334D01*
X48666Y350000D01*
X56997Y335005D02*
Y338337D01*
X55331Y340003D01*
X48666D01*
X47000Y338337D01*
Y335005D01*
X48666Y333339D01*
X55331D01*
X56997Y335005D01*
X47000Y330007D02*
X56997D01*
X47000Y323342D01*
X56997D01*
X47000Y320010D02*
X53664D01*
X56997Y316677D01*
X53664Y313345D01*
X47000D01*
X51998D01*
Y320010D01*
X47000Y310013D02*
X56997D01*
Y305014D01*
X55331Y303348D01*
X51998D01*
X50332Y305014D01*
Y310013D01*
Y306681D02*
X47000Y303348D01*
X1069497Y382000D02*
X1061166D01*
X1059500Y380334D01*
Y377002D01*
X1061166Y375336D01*
X1069497D01*
X1067831Y365339D02*
X1069497Y367005D01*
Y370337D01*
X1067831Y372003D01*
X1066164D01*
X1064498Y370337D01*
Y367005D01*
X1062832Y365339D01*
X1061166D01*
X1059500Y367005D01*
Y370337D01*
X1061166Y372003D01*
X1067831Y355342D02*
X1069497Y357008D01*
Y360340D01*
X1067831Y362006D01*
X1061166D01*
X1059500Y360340D01*
Y357008D01*
X1061166Y355342D01*
X1059500Y342013D02*
X1069497D01*
Y337015D01*
X1067831Y335348D01*
X1064498D01*
X1062832Y337015D01*
Y342013D01*
Y338681D02*
X1059500Y335348D01*
Y330350D02*
Y327018D01*
X1061166Y325352D01*
X1064498D01*
X1066164Y327018D01*
Y330350D01*
X1064498Y332016D01*
X1061166D01*
X1059500Y330350D01*
X1069497Y322019D02*
X1059500D01*
Y317021D01*
X1061166Y315355D01*
X1062832D01*
X1064498D01*
X1066164Y317021D01*
Y322019D01*
X1059500Y310356D02*
Y307024D01*
X1061166Y305358D01*
X1064498D01*
X1066164Y307024D01*
Y310356D01*
X1064498Y312023D01*
X1061166D01*
X1059500Y310356D01*
X1067831Y300360D02*
X1066164D01*
Y302026D01*
Y298694D01*
Y300360D01*
X1061166D01*
X1059500Y298694D01*
Y293695D02*
Y290363D01*
Y292029D01*
X1066164D01*
Y293695D01*
Y278700D02*
Y283698D01*
X1064498Y285365D01*
X1061166D01*
X1059500Y283698D01*
Y278700D01*
Y275368D02*
Y270369D01*
X1061166Y268703D01*
X1062832Y270369D01*
Y273702D01*
X1064498Y275368D01*
X1066164Y273702D01*
Y268703D01*
X785331Y343336D02*
X786997Y345002D01*
Y348334D01*
X785331Y350000D01*
X783665D01*
X781998Y348334D01*
Y345002D01*
X780332Y343336D01*
X778666D01*
X777000Y345002D01*
Y348334D01*
X778666Y350000D01*
X786997Y335005D02*
Y338337D01*
X785331Y340003D01*
X778666D01*
X777000Y338337D01*
Y335005D01*
X778666Y333339D01*
X785331D01*
X786997Y335005D01*
X777000Y330007D02*
X786997D01*
X777000Y323342D01*
X786997D01*
X777000Y320010D02*
X783665D01*
X786997Y316677D01*
X783665Y313345D01*
X777000D01*
X781998D01*
Y320010D01*
X777000Y310013D02*
X786997D01*
Y305014D01*
X785331Y303348D01*
X781998D01*
X780332Y305014D01*
Y310013D01*
Y306681D02*
X777000Y303348D01*
D45*
X559000Y254998D02*
Y249166D01*
X560166Y248000D01*
X562499D01*
X563665Y249166D01*
Y254998D01*
X570663Y253831D02*
X569497Y254998D01*
X567164D01*
X565998Y253831D01*
Y252665D01*
X567164Y251499D01*
X569497D01*
X570663Y250333D01*
Y249166D01*
X569497Y248000D01*
X567164D01*
X565998Y249166D01*
X577661Y253831D02*
X576494Y254998D01*
X574162D01*
X572996Y253831D01*
Y249166D01*
X574162Y248000D01*
X576494D01*
X577661Y249166D01*
X586991Y248000D02*
Y254998D01*
X590490D01*
X591656Y253831D01*
Y251499D01*
X590490Y250333D01*
X586991D01*
X589324D02*
X591656Y248000D01*
X595155D02*
X597488D01*
X598654Y249166D01*
Y251499D01*
X597488Y252665D01*
X595155D01*
X593989Y251499D01*
Y249166D01*
X595155Y248000D01*
X600986Y254998D02*
Y248000D01*
X604485D01*
X605652Y249166D01*
Y250333D01*
Y251499D01*
X604485Y252665D01*
X600986D01*
X609151Y248000D02*
X611483D01*
X612649Y249166D01*
Y251499D01*
X611483Y252665D01*
X609151D01*
X607984Y251499D01*
Y249166D01*
X609151Y248000D01*
X616148Y253831D02*
Y252665D01*
X614982D01*
X617314D01*
X616148D01*
Y249166D01*
X617314Y248000D01*
X620813D02*
X623146D01*
X621980D01*
Y252665D01*
X620813D01*
X631310D02*
X627811D01*
X626645Y251499D01*
Y249166D01*
X627811Y248000D01*
X631310D01*
X633643D02*
X637141D01*
X638308Y249166D01*
X637141Y250333D01*
X634809D01*
X633643Y251499D01*
X634809Y252665D01*
X638308D01*
X469165Y182331D02*
X467999Y183498D01*
X465666D01*
X464500Y182331D01*
Y181165D01*
X465666Y179999D01*
X467999D01*
X469165Y178833D01*
Y177666D01*
X467999Y176500D01*
X465666D01*
X464500Y177666D01*
X474997Y183498D02*
X472664D01*
X471498Y182331D01*
Y177666D01*
X472664Y176500D01*
X474997D01*
X476163Y177666D01*
Y182331D01*
X474997Y183498D01*
X478496Y176500D02*
Y183498D01*
X483161Y176500D01*
Y183498D01*
X485493Y176500D02*
Y181165D01*
X487826Y183498D01*
X490158Y181165D01*
Y176500D01*
Y179999D01*
X485493D01*
X492491Y176500D02*
Y183498D01*
X495990D01*
X497156Y182331D01*
Y179999D01*
X495990Y178833D01*
X492491D01*
X494824D02*
X497156Y176500D01*
X559000Y367498D02*
Y361666D01*
X560166Y360500D01*
X562499D01*
X563665Y361666D01*
Y367498D01*
X570663Y366331D02*
X569497Y367498D01*
X567164D01*
X565998Y366331D01*
Y365165D01*
X567164Y363999D01*
X569497D01*
X570663Y362833D01*
Y361666D01*
X569497Y360500D01*
X567164D01*
X565998Y361666D01*
X577661Y366331D02*
X576494Y367498D01*
X574162D01*
X572996Y366331D01*
Y361666D01*
X574162Y360500D01*
X576494D01*
X577661Y361666D01*
X586991Y360500D02*
Y367498D01*
X590490D01*
X591656Y366331D01*
Y363999D01*
X590490Y362833D01*
X586991D01*
X589324D02*
X591656Y360500D01*
X595155D02*
X597488D01*
X598654Y361666D01*
Y363999D01*
X597488Y365165D01*
X595155D01*
X593989Y363999D01*
Y361666D01*
X595155Y360500D01*
X600986Y367498D02*
Y360500D01*
X604485D01*
X605652Y361666D01*
Y362833D01*
Y363999D01*
X604485Y365165D01*
X600986D01*
X609151Y360500D02*
X611483D01*
X612649Y361666D01*
Y363999D01*
X611483Y365165D01*
X609151D01*
X607984Y363999D01*
Y361666D01*
X609151Y360500D01*
X616148Y366331D02*
Y365165D01*
X614982D01*
X617314D01*
X616148D01*
Y361666D01*
X617314Y360500D01*
X620813D02*
X623146D01*
X621980D01*
Y365165D01*
X620813D01*
X631310D02*
X627811D01*
X626645Y363999D01*
Y361666D01*
X627811Y360500D01*
X631310D01*
X633643D02*
X637141D01*
X638308Y361666D01*
X637141Y362833D01*
X634809D01*
X633643Y363999D01*
X634809Y365165D01*
X638308D01*
X469165Y294831D02*
X467999Y295998D01*
X465666D01*
X464500Y294831D01*
Y293665D01*
X465666Y292499D01*
X467999D01*
X469165Y291333D01*
Y290166D01*
X467999Y289000D01*
X465666D01*
X464500Y290166D01*
X474997Y295998D02*
X472664D01*
X471498Y294831D01*
Y290166D01*
X472664Y289000D01*
X474997D01*
X476163Y290166D01*
Y294831D01*
X474997Y295998D01*
X478496Y289000D02*
Y295998D01*
X483161Y289000D01*
Y295998D01*
X485493Y289000D02*
Y293665D01*
X487826Y295998D01*
X490158Y293665D01*
Y289000D01*
Y292499D01*
X485493D01*
X492491Y289000D02*
Y295998D01*
X495990D01*
X497156Y294831D01*
Y292499D01*
X495990Y291333D01*
X492491D01*
X494824D02*
X497156Y289000D01*
M02*
