%FSLAX25Y25*%
%MOIN*%
G70*
G01*
G75*
G04 Layer_Color=32896*
%ADD10R,0.12992X0.05118*%
%ADD11R,0.12992X0.01969*%
%ADD12R,0.01969X0.01575*%
%ADD13R,0.03543X0.04331*%
%ADD14R,0.04331X0.03543*%
%ADD15C,0.01000*%
%ADD16R,0.03937X0.03543*%
%ADD17R,0.01614X0.04016*%
%ADD18R,0.04921X0.05512*%
%ADD19R,0.04724X0.05512*%
%ADD20R,0.05512X0.04724*%
%ADD21O,0.08661X0.02362*%
%ADD22R,0.03543X0.03937*%
%ADD23R,0.04016X0.01614*%
%ADD24R,0.05512X0.04724*%
%ADD25R,0.05512X0.04921*%
%ADD26O,0.02362X0.08661*%
%ADD27R,0.05906X0.05906*%
%ADD28C,0.05906*%
%ADD29R,0.05906X0.05906*%
%ADD30C,0.05000*%
%ADD31C,0.14950*%
%ADD32C,0.10000*%
%ADD33C,0.06000*%
%ADD34C,0.10787*%
%ADD35R,0.04724X0.04724*%
%ADD36R,0.10000X0.05984*%
%ADD37R,0.05984X0.10000*%
%ADD38R,0.04724X0.04724*%
%ADD39C,0.00787*%
%ADD40C,0.00800*%
%ADD41C,0.00700*%
%ADD42C,0.00984*%
%ADD43C,0.02362*%
%ADD44C,0.02000*%
%ADD45C,0.01500*%
%ADD46C,0.01200*%
G36*
X556673Y76182D02*
Y76595D01*
X557086D01*
X557499D01*
Y77009D01*
X557913D01*
Y78249D01*
X558326D01*
Y77835D01*
X558739D01*
Y79075D01*
X559153D01*
X559566D01*
Y79902D01*
X559979D01*
Y80315D01*
X560393D01*
Y86928D01*
X560806D01*
Y86515D01*
X561219D01*
Y86102D01*
X561632D01*
Y85688D01*
X562046D01*
Y78662D01*
X561632D01*
Y78249D01*
X561219D01*
Y77835D01*
X560806D01*
Y77422D01*
X560393D01*
Y77009D01*
X559979D01*
Y76595D01*
X559566D01*
Y76182D01*
X559153D01*
Y75769D01*
X558739D01*
Y75355D01*
X558326D01*
Y74942D01*
X557913D01*
Y74529D01*
X557499D01*
Y74115D01*
X557086D01*
Y69156D01*
X557499D01*
Y68742D01*
X557086D01*
X556673D01*
Y69156D01*
X556259D01*
Y76182D01*
X556673D01*
D02*
G37*
G36*
X556259Y80315D02*
Y82382D01*
X556673D01*
Y84035D01*
X557086D01*
Y84448D01*
X557499D01*
Y84035D01*
X557086D01*
Y83208D01*
X557499D01*
Y82382D01*
X557913D01*
Y81555D01*
X557499D01*
X557086D01*
Y81142D01*
X556673D01*
Y79902D01*
X556259D01*
Y79488D01*
X555846D01*
Y80315D01*
X556259D01*
D02*
G37*
G36*
X555019Y79075D02*
X555433D01*
Y78662D01*
X555019D01*
X554606D01*
Y79075D01*
X555019D01*
D02*
G37*
G36*
X561219Y73289D02*
Y73702D01*
X561632D01*
Y74115D01*
X562046D01*
Y74529D01*
X562459D01*
Y67915D01*
X562046D01*
X561632D01*
Y67502D01*
X561219D01*
Y67089D01*
X560806D01*
Y73289D01*
X561219D01*
D02*
G37*
G36*
X569072Y77422D02*
X569486D01*
X569899D01*
X570312D01*
Y77009D01*
X570726D01*
X571139D01*
X571552D01*
Y76595D01*
X571139D01*
X570726D01*
X570312D01*
Y76182D01*
X569899D01*
X569486D01*
X569072D01*
X568659D01*
Y77422D01*
X569072D01*
D02*
G37*
G36*
X542620Y65849D02*
X543033D01*
X543446D01*
Y65436D01*
X543860D01*
Y64609D01*
X544273D01*
X544686D01*
X545100D01*
Y64196D01*
X545513D01*
X545926D01*
Y63369D01*
X546340D01*
Y63782D01*
X546753D01*
X547166D01*
Y62956D01*
X547580D01*
X547993D01*
Y62542D01*
X548406D01*
X548819D01*
X549233D01*
X549646D01*
Y62129D01*
X550060D01*
X550473D01*
X550886D01*
Y62956D01*
X550473D01*
X550060D01*
Y63782D01*
X549646D01*
X549233D01*
Y64196D01*
X548819D01*
Y64609D01*
X548406D01*
X547993D01*
Y65436D01*
X547580D01*
Y65022D01*
X547166D01*
Y65436D01*
X546753D01*
Y66262D01*
X546340D01*
X545926D01*
X545513D01*
Y66676D01*
X545100D01*
Y67502D01*
X544686D01*
Y67089D01*
X544273D01*
X543860D01*
Y67915D01*
X543446D01*
Y68329D01*
X543860D01*
X544273D01*
X544686D01*
X545100D01*
X545513D01*
Y68742D01*
X545926D01*
X546340D01*
X546753D01*
X547166D01*
X547580D01*
X547993D01*
Y68329D01*
X548406D01*
X548819D01*
X549233D01*
Y68742D01*
X549646D01*
Y68329D01*
X550060D01*
X550473D01*
X550886D01*
Y68742D01*
X551299D01*
X551713D01*
X552126D01*
X552539D01*
Y68329D01*
X552953D01*
X553366D01*
X553779D01*
Y68742D01*
X554193D01*
X554606D01*
X555019D01*
Y68329D01*
X555433D01*
X555846D01*
X556259D01*
Y67915D01*
X556673D01*
Y67502D01*
X557086D01*
Y67089D01*
X557499D01*
Y66676D01*
X557913D01*
Y66262D01*
X558326D01*
Y65849D01*
X558739D01*
Y65436D01*
X559153D01*
Y65022D01*
X559566D01*
Y64609D01*
X559979D01*
Y64196D01*
X560393D01*
Y63782D01*
X560806D01*
Y63369D01*
X561219D01*
Y62956D01*
X561632D01*
Y62542D01*
X562046D01*
Y62129D01*
X562459D01*
Y61716D01*
X562873D01*
Y61302D01*
X563286D01*
Y60889D01*
X563699D01*
Y60476D01*
X564112D01*
Y60062D01*
X564526D01*
Y59649D01*
X564939D01*
Y59236D01*
X565352D01*
Y58409D01*
X565766D01*
X566179D01*
Y57996D01*
X566592D01*
Y57582D01*
X567006D01*
Y57169D01*
X567419D01*
Y56343D01*
X567832D01*
X568246D01*
Y55929D01*
X568659D01*
Y55516D01*
X568246D01*
X567832D01*
X567419D01*
Y54689D01*
X567006D01*
Y55103D01*
X566592D01*
X566179D01*
X565766D01*
X565352D01*
X564939D01*
X564526D01*
X564112D01*
Y54276D01*
X563699D01*
X563286D01*
X562873D01*
X562459D01*
X562046D01*
X561632D01*
X561219D01*
X560806D01*
X560393D01*
X559979D01*
Y53863D01*
X559566D01*
X559153D01*
X558739D01*
X558326D01*
X557913D01*
X557499D01*
X557086D01*
X556673D01*
Y54276D01*
X556259D01*
X555846D01*
Y55103D01*
X555433D01*
Y54689D01*
X555019D01*
Y55103D01*
X554606D01*
Y55516D01*
X554193D01*
X553779D01*
Y55929D01*
X553366D01*
X552953D01*
Y56343D01*
X552539D01*
X552126D01*
X551713D01*
Y57169D01*
X551299D01*
Y56756D01*
X550886D01*
Y57582D01*
X550473D01*
X550060D01*
X549646D01*
Y57996D01*
X549233D01*
X548819D01*
Y58409D01*
X548406D01*
X547993D01*
X547580D01*
Y59236D01*
X547166D01*
Y58823D01*
X546753D01*
Y59236D01*
X546340D01*
Y59649D01*
X545926D01*
Y60062D01*
X545513D01*
Y60889D01*
X545100D01*
Y61302D01*
X544686D01*
Y62542D01*
X544273D01*
X543860D01*
Y62956D01*
X543446D01*
Y64196D01*
X543033D01*
Y64609D01*
X542620D01*
Y65436D01*
X542206D01*
Y65849D01*
X542620D01*
D02*
G37*
G36*
X564526Y84448D02*
X564939D01*
Y69569D01*
X564526D01*
Y69156D01*
X564112D01*
Y84448D01*
X564526D01*
D02*
G37*
G36*
X551713Y74942D02*
Y75769D01*
X552126D01*
Y76182D01*
X552539D01*
X552953D01*
Y76595D01*
X553366D01*
Y77009D01*
X553779D01*
Y77835D01*
X554193D01*
Y78249D01*
X554606D01*
Y77835D01*
X554193D01*
Y69982D01*
X553779D01*
X553366D01*
X552953D01*
X552539D01*
X552126D01*
X551713D01*
Y71222D01*
X551299D01*
Y74942D01*
X551713D01*
D02*
G37*
G36*
X540140Y83622D02*
X540553D01*
X540966D01*
X541380D01*
Y80315D01*
X540966D01*
Y79488D01*
X540553D01*
X540140D01*
Y79075D01*
X539726D01*
Y83622D01*
X540140D01*
D02*
G37*
G36*
X536833Y81968D02*
Y82382D01*
X537247D01*
Y81968D01*
X537660D01*
Y82795D01*
X538073D01*
Y70809D01*
X537660D01*
Y71222D01*
X537247D01*
X536833D01*
Y72049D01*
X537247D01*
X537660D01*
Y81142D01*
X537247D01*
X536833D01*
X536420D01*
Y81968D01*
X536833D01*
D02*
G37*
G36*
X536007Y72462D02*
X536420D01*
X536833D01*
Y72049D01*
X536420D01*
X536007D01*
X535593D01*
Y72462D01*
X536007D01*
D02*
G37*
G36*
X541793Y76595D02*
Y77009D01*
X542206D01*
X542620D01*
Y77835D01*
X543033D01*
Y78249D01*
X543446D01*
Y78662D01*
X543860D01*
Y79075D01*
X544273D01*
Y79488D01*
X544686D01*
Y83622D01*
X545100D01*
X545513D01*
X545926D01*
X546340D01*
Y82382D01*
X546753D01*
X547166D01*
Y80315D01*
X546753D01*
Y79902D01*
X546340D01*
Y79488D01*
X545926D01*
Y79075D01*
X545513D01*
Y78662D01*
X545100D01*
Y78249D01*
X544686D01*
Y77835D01*
X544273D01*
Y77422D01*
X543860D01*
Y77009D01*
X543446D01*
Y76595D01*
X543033D01*
Y76182D01*
X542620D01*
Y75769D01*
X542206D01*
Y71222D01*
X541793D01*
Y70809D01*
X541380D01*
Y76595D01*
X541793D01*
D02*
G37*
G36*
X547993Y74529D02*
Y74942D01*
X548406D01*
Y75355D01*
X548819D01*
Y75769D01*
X549233D01*
Y76182D01*
X549646D01*
Y77009D01*
X550060D01*
Y77422D01*
X550473D01*
Y77835D01*
X550886D01*
Y78249D01*
X551299D01*
Y78662D01*
X551713D01*
Y79075D01*
X552126D01*
Y79488D01*
X552539D01*
Y79902D01*
X552953D01*
Y83622D01*
X553366D01*
X553779D01*
Y82382D01*
X554193D01*
Y79902D01*
X553779D01*
Y79488D01*
X553366D01*
Y79075D01*
X552953D01*
X552539D01*
Y78662D01*
X552126D01*
Y77835D01*
X551713D01*
Y77422D01*
X551299D01*
Y76595D01*
X550886D01*
X550473D01*
Y76182D01*
X550060D01*
X549646D01*
Y71222D01*
X549233D01*
Y69982D01*
X548819D01*
X548406D01*
X547993D01*
X547580D01*
Y74529D01*
X547993D01*
D02*
G37*
G36*
X542206Y87755D02*
Y88168D01*
X542620D01*
Y88995D01*
X543033D01*
Y89408D01*
X543446D01*
Y90648D01*
X543860D01*
Y91062D01*
X544273D01*
X544686D01*
Y92301D01*
X545100D01*
Y92715D01*
X545513D01*
Y93542D01*
X545926D01*
Y93955D01*
X546340D01*
Y94368D01*
X546753D01*
Y94781D01*
X547166D01*
Y94368D01*
X547580D01*
Y95195D01*
X547993D01*
X548406D01*
X548819D01*
Y95608D01*
X549233D01*
X549646D01*
Y96021D01*
X550060D01*
X550473D01*
X550886D01*
Y96848D01*
X551299D01*
Y96435D01*
X551713D01*
Y97261D01*
X552126D01*
X552539D01*
X552953D01*
Y97675D01*
X553366D01*
X553779D01*
Y98088D01*
X554193D01*
X554606D01*
Y98501D01*
X555019D01*
Y98915D01*
X555433D01*
Y98501D01*
X555846D01*
Y99328D01*
X556259D01*
X556673D01*
Y99741D01*
X557086D01*
X557499D01*
X557913D01*
X558326D01*
X558739D01*
Y99328D01*
X559153D01*
X559566D01*
X559979D01*
X560393D01*
X560806D01*
X561219D01*
X561632D01*
X562046D01*
X562459D01*
X562873D01*
X563286D01*
Y98915D01*
X563699D01*
Y98501D01*
X564112D01*
X564526D01*
X564939D01*
X565352D01*
X565766D01*
X566179D01*
Y98915D01*
X566592D01*
Y98088D01*
X567006D01*
X567419D01*
X567832D01*
X568246D01*
X568659D01*
Y97675D01*
X568246D01*
Y97261D01*
X567832D01*
X567419D01*
Y96435D01*
X567006D01*
Y96021D01*
X566592D01*
Y95608D01*
X566179D01*
Y95195D01*
X565766D01*
X565352D01*
Y94368D01*
X564939D01*
Y93955D01*
X564526D01*
Y93542D01*
X564112D01*
Y93128D01*
X563699D01*
Y92715D01*
X563286D01*
Y92301D01*
X562873D01*
Y91888D01*
X562459D01*
Y91475D01*
X562046D01*
Y91062D01*
X561632D01*
Y90648D01*
X561219D01*
Y90235D01*
X560806D01*
Y89822D01*
X560393D01*
Y89408D01*
X559979D01*
Y88995D01*
X559566D01*
Y88582D01*
X559153D01*
Y88168D01*
X558739D01*
Y87755D01*
X558326D01*
Y87342D01*
X557913D01*
Y86928D01*
X557499D01*
Y86515D01*
X557086D01*
Y86102D01*
X556673D01*
Y85688D01*
X556259D01*
Y85275D01*
X555846D01*
Y84862D01*
X555433D01*
X555019D01*
X554606D01*
X554193D01*
X553779D01*
X553366D01*
X552953D01*
X552539D01*
X552126D01*
X551713D01*
X551299D01*
X550886D01*
X550473D01*
X550060D01*
X549646D01*
X549233D01*
X548819D01*
X548406D01*
X547993D01*
X547580D01*
X547166D01*
X546753D01*
X546340D01*
X545926D01*
X545513D01*
X545100D01*
X544686D01*
X544273D01*
X543860D01*
X543446D01*
X543033D01*
Y85275D01*
X543446D01*
Y85688D01*
X543860D01*
Y86515D01*
X544273D01*
X544686D01*
Y86102D01*
X545100D01*
Y86928D01*
X545513D01*
Y87342D01*
X545926D01*
X546340D01*
X546753D01*
Y88168D01*
X547166D01*
Y88582D01*
X547580D01*
Y88168D01*
X547993D01*
Y88995D01*
X548406D01*
X548819D01*
Y89408D01*
X549233D01*
Y89822D01*
X549646D01*
X550060D01*
Y90648D01*
X550473D01*
X550886D01*
Y91475D01*
X550473D01*
X550060D01*
X549646D01*
Y91062D01*
X549233D01*
X548819D01*
X548406D01*
X547993D01*
Y90235D01*
X547580D01*
Y89822D01*
X547166D01*
X546753D01*
X546340D01*
Y89408D01*
X545926D01*
X545513D01*
X545100D01*
Y88995D01*
X544686D01*
X544273D01*
X543860D01*
Y88582D01*
X543446D01*
X543033D01*
Y87755D01*
X542620D01*
X542206D01*
Y87342D01*
X541793D01*
Y87755D01*
X542206D01*
D02*
G37*
G36*
X544273Y74942D02*
Y75355D01*
X544686D01*
Y75769D01*
X545100D01*
Y76182D01*
X545513D01*
Y76595D01*
X545926D01*
Y77009D01*
X546340D01*
Y77422D01*
X546753D01*
Y77835D01*
X547166D01*
Y78249D01*
X547580D01*
Y78662D01*
X547993D01*
Y79488D01*
X548406D01*
Y79902D01*
X548819D01*
Y80729D01*
X549233D01*
Y81555D01*
X548819D01*
Y81968D01*
X549233D01*
Y82795D01*
X549646D01*
Y83622D01*
X550060D01*
X550473D01*
Y80729D01*
X550060D01*
Y79902D01*
X549646D01*
Y79488D01*
X549233D01*
Y79075D01*
X548819D01*
X548406D01*
Y78662D01*
X547993D01*
Y77835D01*
X547580D01*
Y77422D01*
X547166D01*
Y76595D01*
X546753D01*
X546340D01*
Y75769D01*
X545926D01*
Y75355D01*
X545513D01*
Y69982D01*
X545100D01*
X544686D01*
Y70809D01*
X544273D01*
X543860D01*
Y74942D01*
X544273D01*
D02*
G37*
G36*
X556673Y467182D02*
Y467595D01*
X557086D01*
X557499D01*
Y468009D01*
X557913D01*
Y469249D01*
X558326D01*
Y468835D01*
X558739D01*
Y470075D01*
X559153D01*
X559566D01*
Y470902D01*
X559979D01*
Y471315D01*
X560393D01*
Y477928D01*
X560806D01*
Y477515D01*
X561219D01*
Y477102D01*
X561632D01*
Y476688D01*
X562046D01*
Y469662D01*
X561632D01*
Y469249D01*
X561219D01*
Y468835D01*
X560806D01*
Y468422D01*
X560393D01*
Y468009D01*
X559979D01*
Y467595D01*
X559566D01*
Y467182D01*
X559153D01*
Y466769D01*
X558739D01*
Y466355D01*
X558326D01*
Y465942D01*
X557913D01*
Y465529D01*
X557499D01*
Y465115D01*
X557086D01*
Y460155D01*
X557499D01*
Y459742D01*
X557086D01*
X556673D01*
Y460155D01*
X556259D01*
Y467182D01*
X556673D01*
D02*
G37*
G36*
X556259Y471315D02*
Y473382D01*
X556673D01*
Y475035D01*
X557086D01*
Y475448D01*
X557499D01*
Y475035D01*
X557086D01*
Y474208D01*
X557499D01*
Y473382D01*
X557913D01*
Y472555D01*
X557499D01*
X557086D01*
Y472142D01*
X556673D01*
Y470902D01*
X556259D01*
Y470489D01*
X555846D01*
Y471315D01*
X556259D01*
D02*
G37*
G36*
X555019Y470075D02*
X555433D01*
Y469662D01*
X555019D01*
X554606D01*
Y470075D01*
X555019D01*
D02*
G37*
G36*
X561219Y464289D02*
Y464702D01*
X561632D01*
Y465115D01*
X562046D01*
Y465529D01*
X562459D01*
Y458916D01*
X562046D01*
X561632D01*
Y458502D01*
X561219D01*
Y458089D01*
X560806D01*
Y464289D01*
X561219D01*
D02*
G37*
G36*
X569072Y468422D02*
X569486D01*
X569899D01*
X570312D01*
Y468009D01*
X570726D01*
X571139D01*
X571552D01*
Y467595D01*
X571139D01*
X570726D01*
X570312D01*
Y467182D01*
X569899D01*
X569486D01*
X569072D01*
X568659D01*
Y468422D01*
X569072D01*
D02*
G37*
G36*
X542620Y456849D02*
X543033D01*
X543446D01*
Y456436D01*
X543860D01*
Y455609D01*
X544273D01*
X544686D01*
X545100D01*
Y455196D01*
X545513D01*
X545926D01*
Y454369D01*
X546340D01*
Y454782D01*
X546753D01*
X547166D01*
Y453956D01*
X547580D01*
X547993D01*
Y453542D01*
X548406D01*
X548819D01*
X549233D01*
X549646D01*
Y453129D01*
X550060D01*
X550473D01*
X550886D01*
Y453956D01*
X550473D01*
X550060D01*
Y454782D01*
X549646D01*
X549233D01*
Y455196D01*
X548819D01*
Y455609D01*
X548406D01*
X547993D01*
Y456436D01*
X547580D01*
Y456022D01*
X547166D01*
Y456436D01*
X546753D01*
Y457262D01*
X546340D01*
X545926D01*
X545513D01*
Y457676D01*
X545100D01*
Y458502D01*
X544686D01*
Y458089D01*
X544273D01*
X543860D01*
Y458916D01*
X543446D01*
Y459329D01*
X543860D01*
X544273D01*
X544686D01*
X545100D01*
X545513D01*
Y459742D01*
X545926D01*
X546340D01*
X546753D01*
X547166D01*
X547580D01*
X547993D01*
Y459329D01*
X548406D01*
X548819D01*
X549233D01*
Y459742D01*
X549646D01*
Y459329D01*
X550060D01*
X550473D01*
X550886D01*
Y459742D01*
X551299D01*
X551713D01*
X552126D01*
X552539D01*
Y459329D01*
X552953D01*
X553366D01*
X553779D01*
Y459742D01*
X554193D01*
X554606D01*
X555019D01*
Y459329D01*
X555433D01*
X555846D01*
X556259D01*
Y458916D01*
X556673D01*
Y458502D01*
X557086D01*
Y458089D01*
X557499D01*
Y457676D01*
X557913D01*
Y457262D01*
X558326D01*
Y456849D01*
X558739D01*
Y456436D01*
X559153D01*
Y456022D01*
X559566D01*
Y455609D01*
X559979D01*
Y455196D01*
X560393D01*
Y454782D01*
X560806D01*
Y454369D01*
X561219D01*
Y453956D01*
X561632D01*
Y453542D01*
X562046D01*
Y453129D01*
X562459D01*
Y452716D01*
X562873D01*
Y452302D01*
X563286D01*
Y451889D01*
X563699D01*
Y451476D01*
X564112D01*
Y451062D01*
X564526D01*
Y450649D01*
X564939D01*
Y450236D01*
X565352D01*
Y449409D01*
X565766D01*
X566179D01*
Y448996D01*
X566592D01*
Y448583D01*
X567006D01*
Y448169D01*
X567419D01*
Y447342D01*
X567832D01*
X568246D01*
Y446929D01*
X568659D01*
Y446516D01*
X568246D01*
X567832D01*
X567419D01*
Y445689D01*
X567006D01*
Y446103D01*
X566592D01*
X566179D01*
X565766D01*
X565352D01*
X564939D01*
X564526D01*
X564112D01*
Y445276D01*
X563699D01*
X563286D01*
X562873D01*
X562459D01*
X562046D01*
X561632D01*
X561219D01*
X560806D01*
X560393D01*
X559979D01*
Y444863D01*
X559566D01*
X559153D01*
X558739D01*
X558326D01*
X557913D01*
X557499D01*
X557086D01*
X556673D01*
Y445276D01*
X556259D01*
X555846D01*
Y446103D01*
X555433D01*
Y445689D01*
X555019D01*
Y446103D01*
X554606D01*
Y446516D01*
X554193D01*
X553779D01*
Y446929D01*
X553366D01*
X552953D01*
Y447342D01*
X552539D01*
X552126D01*
X551713D01*
Y448169D01*
X551299D01*
Y447756D01*
X550886D01*
Y448583D01*
X550473D01*
X550060D01*
X549646D01*
Y448996D01*
X549233D01*
X548819D01*
Y449409D01*
X548406D01*
X547993D01*
X547580D01*
Y450236D01*
X547166D01*
Y449823D01*
X546753D01*
Y450236D01*
X546340D01*
Y450649D01*
X545926D01*
Y451062D01*
X545513D01*
Y451889D01*
X545100D01*
Y452302D01*
X544686D01*
Y453542D01*
X544273D01*
X543860D01*
Y453956D01*
X543446D01*
Y455196D01*
X543033D01*
Y455609D01*
X542620D01*
Y456436D01*
X542206D01*
Y456849D01*
X542620D01*
D02*
G37*
G36*
X564526Y475448D02*
X564939D01*
Y460569D01*
X564526D01*
Y460155D01*
X564112D01*
Y475448D01*
X564526D01*
D02*
G37*
G36*
X551713Y465942D02*
Y466769D01*
X552126D01*
Y467182D01*
X552539D01*
X552953D01*
Y467595D01*
X553366D01*
Y468009D01*
X553779D01*
Y468835D01*
X554193D01*
Y469249D01*
X554606D01*
Y468835D01*
X554193D01*
Y460982D01*
X553779D01*
X553366D01*
X552953D01*
X552539D01*
X552126D01*
X551713D01*
Y462222D01*
X551299D01*
Y465942D01*
X551713D01*
D02*
G37*
G36*
X540140Y474622D02*
X540553D01*
X540966D01*
X541380D01*
Y471315D01*
X540966D01*
Y470489D01*
X540553D01*
X540140D01*
Y470075D01*
X539726D01*
Y474622D01*
X540140D01*
D02*
G37*
G36*
X536833Y472968D02*
Y473382D01*
X537247D01*
Y472968D01*
X537660D01*
Y473795D01*
X538073D01*
Y461809D01*
X537660D01*
Y462222D01*
X537247D01*
X536833D01*
Y463049D01*
X537247D01*
X537660D01*
Y472142D01*
X537247D01*
X536833D01*
X536420D01*
Y472968D01*
X536833D01*
D02*
G37*
G36*
X536007Y463462D02*
X536420D01*
X536833D01*
Y463049D01*
X536420D01*
X536007D01*
X535593D01*
Y463462D01*
X536007D01*
D02*
G37*
G36*
X541793Y467595D02*
Y468009D01*
X542206D01*
X542620D01*
Y468835D01*
X543033D01*
Y469249D01*
X543446D01*
Y469662D01*
X543860D01*
Y470075D01*
X544273D01*
Y470489D01*
X544686D01*
Y474622D01*
X545100D01*
X545513D01*
X545926D01*
X546340D01*
Y473382D01*
X546753D01*
X547166D01*
Y471315D01*
X546753D01*
Y470902D01*
X546340D01*
Y470489D01*
X545926D01*
Y470075D01*
X545513D01*
Y469662D01*
X545100D01*
Y469249D01*
X544686D01*
Y468835D01*
X544273D01*
Y468422D01*
X543860D01*
Y468009D01*
X543446D01*
Y467595D01*
X543033D01*
Y467182D01*
X542620D01*
Y466769D01*
X542206D01*
Y462222D01*
X541793D01*
Y461809D01*
X541380D01*
Y467595D01*
X541793D01*
D02*
G37*
G36*
X547993Y465529D02*
Y465942D01*
X548406D01*
Y466355D01*
X548819D01*
Y466769D01*
X549233D01*
Y467182D01*
X549646D01*
Y468009D01*
X550060D01*
Y468422D01*
X550473D01*
Y468835D01*
X550886D01*
Y469249D01*
X551299D01*
Y469662D01*
X551713D01*
Y470075D01*
X552126D01*
Y470489D01*
X552539D01*
Y470902D01*
X552953D01*
Y474622D01*
X553366D01*
X553779D01*
Y473382D01*
X554193D01*
Y470902D01*
X553779D01*
Y470489D01*
X553366D01*
Y470075D01*
X552953D01*
X552539D01*
Y469662D01*
X552126D01*
Y468835D01*
X551713D01*
Y468422D01*
X551299D01*
Y467595D01*
X550886D01*
X550473D01*
Y467182D01*
X550060D01*
X549646D01*
Y462222D01*
X549233D01*
Y460982D01*
X548819D01*
X548406D01*
X547993D01*
X547580D01*
Y465529D01*
X547993D01*
D02*
G37*
G36*
X542206Y478755D02*
Y479168D01*
X542620D01*
Y479995D01*
X543033D01*
Y480408D01*
X543446D01*
Y481648D01*
X543860D01*
Y482061D01*
X544273D01*
X544686D01*
Y483301D01*
X545100D01*
Y483715D01*
X545513D01*
Y484542D01*
X545926D01*
Y484955D01*
X546340D01*
Y485368D01*
X546753D01*
Y485781D01*
X547166D01*
Y485368D01*
X547580D01*
Y486195D01*
X547993D01*
X548406D01*
X548819D01*
Y486608D01*
X549233D01*
X549646D01*
Y487021D01*
X550060D01*
X550473D01*
X550886D01*
Y487848D01*
X551299D01*
Y487435D01*
X551713D01*
Y488261D01*
X552126D01*
X552539D01*
X552953D01*
Y488675D01*
X553366D01*
X553779D01*
Y489088D01*
X554193D01*
X554606D01*
Y489501D01*
X555019D01*
Y489915D01*
X555433D01*
Y489501D01*
X555846D01*
Y490328D01*
X556259D01*
X556673D01*
Y490741D01*
X557086D01*
X557499D01*
X557913D01*
X558326D01*
X558739D01*
Y490328D01*
X559153D01*
X559566D01*
X559979D01*
X560393D01*
X560806D01*
X561219D01*
X561632D01*
X562046D01*
X562459D01*
X562873D01*
X563286D01*
Y489915D01*
X563699D01*
Y489501D01*
X564112D01*
X564526D01*
X564939D01*
X565352D01*
X565766D01*
X566179D01*
Y489915D01*
X566592D01*
Y489088D01*
X567006D01*
X567419D01*
X567832D01*
X568246D01*
X568659D01*
Y488675D01*
X568246D01*
Y488261D01*
X567832D01*
X567419D01*
Y487435D01*
X567006D01*
Y487021D01*
X566592D01*
Y486608D01*
X566179D01*
Y486195D01*
X565766D01*
X565352D01*
Y485368D01*
X564939D01*
Y484955D01*
X564526D01*
Y484542D01*
X564112D01*
Y484128D01*
X563699D01*
Y483715D01*
X563286D01*
Y483301D01*
X562873D01*
Y482888D01*
X562459D01*
Y482475D01*
X562046D01*
Y482061D01*
X561632D01*
Y481648D01*
X561219D01*
Y481235D01*
X560806D01*
Y480822D01*
X560393D01*
Y480408D01*
X559979D01*
Y479995D01*
X559566D01*
Y479582D01*
X559153D01*
Y479168D01*
X558739D01*
Y478755D01*
X558326D01*
Y478342D01*
X557913D01*
Y477928D01*
X557499D01*
Y477515D01*
X557086D01*
Y477102D01*
X556673D01*
Y476688D01*
X556259D01*
Y476275D01*
X555846D01*
Y475862D01*
X555433D01*
X555019D01*
X554606D01*
X554193D01*
X553779D01*
X553366D01*
X552953D01*
X552539D01*
X552126D01*
X551713D01*
X551299D01*
X550886D01*
X550473D01*
X550060D01*
X549646D01*
X549233D01*
X548819D01*
X548406D01*
X547993D01*
X547580D01*
X547166D01*
X546753D01*
X546340D01*
X545926D01*
X545513D01*
X545100D01*
X544686D01*
X544273D01*
X543860D01*
X543446D01*
X543033D01*
Y476275D01*
X543446D01*
Y476688D01*
X543860D01*
Y477515D01*
X544273D01*
X544686D01*
Y477102D01*
X545100D01*
Y477928D01*
X545513D01*
Y478342D01*
X545926D01*
X546340D01*
X546753D01*
Y479168D01*
X547166D01*
Y479582D01*
X547580D01*
Y479168D01*
X547993D01*
Y479995D01*
X548406D01*
X548819D01*
Y480408D01*
X549233D01*
Y480822D01*
X549646D01*
X550060D01*
Y481648D01*
X550473D01*
X550886D01*
Y482475D01*
X550473D01*
X550060D01*
X549646D01*
Y482061D01*
X549233D01*
X548819D01*
X548406D01*
X547993D01*
Y481235D01*
X547580D01*
Y480822D01*
X547166D01*
X546753D01*
X546340D01*
Y480408D01*
X545926D01*
X545513D01*
X545100D01*
Y479995D01*
X544686D01*
X544273D01*
X543860D01*
Y479582D01*
X543446D01*
X543033D01*
Y478755D01*
X542620D01*
X542206D01*
Y478342D01*
X541793D01*
Y478755D01*
X542206D01*
D02*
G37*
G36*
X544273Y465942D02*
Y466355D01*
X544686D01*
Y466769D01*
X545100D01*
Y467182D01*
X545513D01*
Y467595D01*
X545926D01*
Y468009D01*
X546340D01*
Y468422D01*
X546753D01*
Y468835D01*
X547166D01*
Y469249D01*
X547580D01*
Y469662D01*
X547993D01*
Y470489D01*
X548406D01*
Y470902D01*
X548819D01*
Y471729D01*
X549233D01*
Y472555D01*
X548819D01*
Y472968D01*
X549233D01*
Y473795D01*
X549646D01*
Y474622D01*
X550060D01*
X550473D01*
Y471729D01*
X550060D01*
Y470902D01*
X549646D01*
Y470489D01*
X549233D01*
Y470075D01*
X548819D01*
X548406D01*
Y469662D01*
X547993D01*
Y468835D01*
X547580D01*
Y468422D01*
X547166D01*
Y467595D01*
X546753D01*
X546340D01*
Y466769D01*
X545926D01*
Y466355D01*
X545513D01*
Y460982D01*
X545100D01*
X544686D01*
Y461809D01*
X544273D01*
X543860D01*
Y465942D01*
X544273D01*
D02*
G37*
G36*
X38404Y326654D02*
Y326182D01*
X38168D01*
Y325945D01*
X37932D01*
Y325709D01*
X37695D01*
X37459D01*
Y325472D01*
X37222D01*
Y325000D01*
X36986D01*
Y322399D01*
X36750D01*
Y322636D01*
X36513D01*
X36277D01*
X36040D01*
Y322399D01*
X35804D01*
Y323345D01*
X35568D01*
Y324527D01*
X35804D01*
Y324763D01*
X36040D01*
Y325236D01*
X36277D01*
X36513D01*
Y325472D01*
X36750D01*
Y325709D01*
X36986D01*
Y325945D01*
X37222D01*
Y326418D01*
X37459D01*
X37695D01*
Y326654D01*
X37932D01*
Y326891D01*
X38168D01*
Y329491D01*
X38404D01*
Y329964D01*
X38641D01*
Y326654D01*
X38404D01*
D02*
G37*
G36*
Y320272D02*
Y320035D01*
X38168D01*
Y319563D01*
X37932D01*
Y319326D01*
X37695D01*
Y319090D01*
X37459D01*
Y318617D01*
X37222D01*
Y318380D01*
X36986D01*
Y317671D01*
X36750D01*
Y317435D01*
X36513D01*
X36277D01*
Y316726D01*
X36040D01*
Y316489D01*
X35804D01*
Y316253D01*
X35568D01*
X35331D01*
X35095D01*
Y316017D01*
X34858D01*
X34622D01*
Y315780D01*
X34386D01*
X34149D01*
X33913D01*
Y315307D01*
X33676D01*
Y315544D01*
X33440D01*
Y315071D01*
X33204D01*
X32967D01*
X32731D01*
Y314835D01*
X32495D01*
X32258D01*
Y314598D01*
X32022D01*
X31785D01*
X31549D01*
Y314125D01*
X31313D01*
Y314362D01*
X31076D01*
Y313889D01*
X30840D01*
X30603D01*
X30367D01*
Y313653D01*
X30130D01*
X29894D01*
Y313416D01*
X29658D01*
X29421D01*
X29185D01*
X28949D01*
X28712D01*
Y313653D01*
X28476D01*
X28239D01*
X28003D01*
X27767D01*
X27530D01*
X27294D01*
X27057D01*
X26821D01*
X26585D01*
X26348D01*
X26112D01*
Y313889D01*
X25875D01*
X25639D01*
X25403D01*
X25166D01*
X24930D01*
X24693D01*
X24457D01*
X24221D01*
Y314362D01*
X23984D01*
X23748D01*
X23511D01*
X23275D01*
Y314125D01*
X23039D01*
X22802D01*
Y314362D01*
X23039D01*
Y314598D01*
X23275D01*
Y314835D01*
X23511D01*
X23748D01*
Y315071D01*
X23984D01*
Y315544D01*
X24221D01*
Y315780D01*
X24457D01*
Y316017D01*
X24693D01*
X24930D01*
Y316253D01*
X25166D01*
Y316726D01*
X25403D01*
Y316962D01*
X25639D01*
Y317198D01*
X25875D01*
X26112D01*
Y317435D01*
X26348D01*
Y317908D01*
X26585D01*
Y318144D01*
X26821D01*
Y318380D01*
X27057D01*
X27294D01*
Y318617D01*
X27530D01*
Y319090D01*
X27767D01*
Y319326D01*
X28003D01*
Y319563D01*
X28239D01*
X28476D01*
Y319799D01*
X28712D01*
Y320272D01*
X28949D01*
Y320508D01*
X29185D01*
Y320744D01*
X29421D01*
X29658D01*
Y320981D01*
X29894D01*
Y321454D01*
X30130D01*
Y321690D01*
X30367D01*
Y321926D01*
X30603D01*
X30840D01*
X31076D01*
X31313D01*
X31549D01*
X31785D01*
X32022D01*
X32258D01*
X32495D01*
X32731D01*
X32967D01*
X33204D01*
X33440D01*
X33676D01*
X33913D01*
X34149D01*
X34386D01*
X34622D01*
X34858D01*
X35095D01*
X35331D01*
X35568D01*
X35804D01*
X36040D01*
X36277D01*
X36513D01*
X36750D01*
X36986D01*
X37222D01*
X37459D01*
X37695D01*
X37932D01*
Y321690D01*
X37695D01*
Y321454D01*
X37459D01*
Y321217D01*
X37222D01*
Y320981D01*
X36986D01*
X36750D01*
Y320744D01*
X36513D01*
X36277D01*
Y320508D01*
X36040D01*
X35804D01*
Y320035D01*
X35568D01*
Y319799D01*
X35331D01*
X35095D01*
X34858D01*
Y319563D01*
X34622D01*
Y319326D01*
X34386D01*
Y319090D01*
X34149D01*
Y318853D01*
X33913D01*
Y319090D01*
X33676D01*
Y318617D01*
X33440D01*
Y317908D01*
X33676D01*
X33913D01*
Y318144D01*
X34149D01*
Y318380D01*
X34386D01*
X34622D01*
X34858D01*
Y318617D01*
X35095D01*
Y318853D01*
X35331D01*
X35568D01*
X35804D01*
Y319326D01*
X36040D01*
Y319090D01*
X36277D01*
X36513D01*
X36750D01*
Y319563D01*
X36986D01*
X37222D01*
Y319799D01*
X37459D01*
X37695D01*
X37932D01*
Y320272D01*
X38168D01*
Y320508D01*
X38404D01*
X38641D01*
Y320272D01*
X38404D01*
D02*
G37*
G36*
X36986Y327364D02*
Y327127D01*
X36750D01*
Y326891D01*
X36513D01*
X36277D01*
Y326654D01*
X36040D01*
Y326182D01*
X35804D01*
Y325945D01*
X35568D01*
Y325709D01*
X35331D01*
X35095D01*
Y325472D01*
X34858D01*
Y324763D01*
X34622D01*
Y324290D01*
X34386D01*
Y323109D01*
X34149D01*
X33913D01*
Y322636D01*
X33676D01*
Y322399D01*
X33440D01*
Y324290D01*
X33676D01*
Y324527D01*
X33913D01*
Y324763D01*
X34149D01*
Y325000D01*
X34386D01*
Y325236D01*
X34622D01*
Y325472D01*
X34858D01*
Y325709D01*
X35095D01*
Y325945D01*
X35331D01*
Y326182D01*
X35568D01*
Y326654D01*
X35804D01*
Y326891D01*
X36040D01*
Y327127D01*
X36277D01*
Y327364D01*
X36513D01*
Y330437D01*
X36750D01*
X36986D01*
Y329964D01*
X37222D01*
Y327364D01*
X36986D01*
D02*
G37*
G36*
X39350Y322399D02*
Y322636D01*
X39114D01*
Y322399D01*
X38877D01*
Y324527D01*
X39114D01*
Y325000D01*
X39350D01*
Y325236D01*
X39586D01*
Y322399D01*
X39350D01*
D02*
G37*
G36*
X42187Y324054D02*
X41950D01*
Y324290D01*
X42187D01*
X42423D01*
Y324054D01*
X42187D01*
D02*
G37*
G36*
X41714Y329018D02*
X41478D01*
Y329255D01*
X41714D01*
X41950D01*
Y329018D01*
X41714D01*
D02*
G37*
G36*
X41478Y323581D02*
Y323345D01*
X41241D01*
X41005D01*
X40768D01*
Y323109D01*
X40532D01*
Y329964D01*
X40768D01*
Y329491D01*
X41005D01*
X41241D01*
X41478D01*
Y329255D01*
X41241D01*
X41005D01*
X40768D01*
Y324054D01*
X41005D01*
Y323818D01*
X41241D01*
X41478D01*
Y324054D01*
X41714D01*
Y323581D01*
X41478D01*
D02*
G37*
G36*
X34858Y327836D02*
Y327364D01*
X34622D01*
Y327127D01*
X34386D01*
Y326891D01*
X34149D01*
X33913D01*
Y326182D01*
X33676D01*
Y325945D01*
X33440D01*
Y325709D01*
X33204D01*
Y325472D01*
X32967D01*
X32731D01*
Y325000D01*
X32495D01*
Y324763D01*
X32258D01*
Y322399D01*
X32022D01*
X31785D01*
Y323109D01*
X31549D01*
Y323345D01*
X31313D01*
Y324527D01*
X31549D01*
Y324763D01*
X31785D01*
Y325000D01*
X32022D01*
Y325236D01*
X32258D01*
Y325472D01*
X32495D01*
Y325709D01*
X32731D01*
Y325945D01*
X32967D01*
Y326182D01*
X33204D01*
Y326654D01*
X33440D01*
Y326891D01*
X33676D01*
X33913D01*
Y327127D01*
X34149D01*
Y329728D01*
X34386D01*
Y330437D01*
X34622D01*
X34858D01*
X35095D01*
Y327836D01*
X34858D01*
D02*
G37*
G36*
X25403Y322163D02*
X25166D01*
Y330437D01*
X25403D01*
Y330909D01*
X25639D01*
Y322163D01*
X25403D01*
D02*
G37*
G36*
X37932Y332801D02*
X37695D01*
Y333037D01*
X37459D01*
X37222D01*
Y333510D01*
X36986D01*
X36750D01*
Y333746D01*
X36513D01*
X36277D01*
X36040D01*
Y333983D01*
X35804D01*
X35568D01*
Y334455D01*
X35331D01*
Y334219D01*
X35095D01*
X34858D01*
Y334692D01*
X34622D01*
X34386D01*
X34149D01*
Y334928D01*
X33913D01*
X33676D01*
X33440D01*
Y334219D01*
X33676D01*
Y333983D01*
X33913D01*
X34149D01*
X34386D01*
Y333746D01*
X34622D01*
Y333510D01*
X34858D01*
Y333037D01*
X35095D01*
X35331D01*
X35568D01*
Y332801D01*
X35804D01*
Y332564D01*
X36040D01*
X36277D01*
Y332328D01*
X36513D01*
X36750D01*
Y331855D01*
X36986D01*
X37222D01*
Y331619D01*
X37459D01*
Y331382D01*
X37222D01*
X36986D01*
X36750D01*
X36513D01*
X36277D01*
Y331146D01*
X36040D01*
X35804D01*
X35568D01*
X35331D01*
X35095D01*
X34858D01*
Y331382D01*
X34622D01*
X34386D01*
Y331146D01*
X34149D01*
Y331382D01*
X33913D01*
X33676D01*
X33440D01*
Y331146D01*
X33204D01*
X32967D01*
X32731D01*
X32495D01*
X32258D01*
Y331382D01*
X32022D01*
X31785D01*
X31549D01*
Y331146D01*
X31313D01*
X31076D01*
X30840D01*
Y331382D01*
X30603D01*
X30367D01*
X30130D01*
Y331619D01*
X29894D01*
Y331855D01*
X29658D01*
Y332091D01*
X29421D01*
Y332328D01*
X29185D01*
Y332564D01*
X28949D01*
Y332801D01*
X28712D01*
Y333037D01*
X28476D01*
Y333274D01*
X28239D01*
Y333510D01*
X28003D01*
Y333746D01*
X27767D01*
Y333983D01*
X27530D01*
Y334219D01*
X27294D01*
Y334455D01*
X27057D01*
Y334692D01*
X26821D01*
Y334928D01*
X26585D01*
Y335165D01*
X26348D01*
Y335401D01*
X26112D01*
Y335637D01*
X25875D01*
Y335874D01*
X25639D01*
Y336110D01*
X25403D01*
Y336347D01*
X25166D01*
Y336583D01*
X24930D01*
Y336820D01*
X24693D01*
Y337056D01*
X24457D01*
Y337292D01*
X24221D01*
Y337529D01*
X23984D01*
Y337765D01*
X23748D01*
Y338001D01*
X23511D01*
Y338238D01*
X23275D01*
Y338474D01*
X23039D01*
Y338711D01*
X23275D01*
X23511D01*
X23748D01*
Y338947D01*
X23984D01*
X24221D01*
X24457D01*
X24693D01*
X24930D01*
X25166D01*
X25403D01*
X25639D01*
Y339420D01*
X25875D01*
X26112D01*
Y339183D01*
X26348D01*
X26585D01*
X26821D01*
X27057D01*
X27294D01*
X27530D01*
X27767D01*
X28003D01*
Y339656D01*
X28239D01*
X28476D01*
X28712D01*
X28949D01*
X29185D01*
X29421D01*
X29658D01*
X29894D01*
Y339183D01*
X30130D01*
Y339420D01*
X30367D01*
Y338947D01*
X30603D01*
X30840D01*
X31076D01*
Y338711D01*
X31313D01*
X31549D01*
Y338474D01*
X31785D01*
X32022D01*
X32258D01*
Y338001D01*
X32495D01*
Y338238D01*
X32731D01*
Y337765D01*
X32967D01*
X33204D01*
X33440D01*
Y337529D01*
X33676D01*
X33913D01*
Y337292D01*
X34149D01*
X34386D01*
X34622D01*
Y336820D01*
X34858D01*
Y337056D01*
X35095D01*
Y336583D01*
X35331D01*
X35568D01*
X35804D01*
Y336347D01*
X36040D01*
Y336110D01*
X36277D01*
Y335637D01*
X36513D01*
Y335401D01*
X36750D01*
Y335165D01*
X36986D01*
Y334692D01*
X37222D01*
Y334455D01*
X37459D01*
Y333746D01*
X37695D01*
X37932D01*
Y333510D01*
X38168D01*
Y332801D01*
X37932D01*
D02*
G37*
G36*
X22802Y325945D02*
Y326182D01*
X22566D01*
Y325945D01*
X22329D01*
X22093D01*
Y326418D01*
X21857D01*
X21620D01*
X21384D01*
Y326654D01*
X21620D01*
X21857D01*
X22093D01*
Y326891D01*
X22329D01*
X22566D01*
X22802D01*
X23039D01*
Y325945D01*
X22802D01*
D02*
G37*
G36*
X27294Y328309D02*
X27057D01*
Y328073D01*
X26821D01*
Y327600D01*
X26585D01*
Y331619D01*
X26821D01*
X27057D01*
X27294D01*
Y331855D01*
X27530D01*
Y328309D01*
X27294D01*
D02*
G37*
G36*
X32967Y327600D02*
Y327364D01*
X32731D01*
Y327127D01*
X32495D01*
Y326891D01*
X32258D01*
Y326654D01*
X32022D01*
Y326418D01*
X31785D01*
Y326182D01*
X31549D01*
Y325945D01*
X31313D01*
Y330437D01*
X31549D01*
X31785D01*
X32022D01*
X32258D01*
X32495D01*
X32731D01*
Y329728D01*
X32967D01*
Y329491D01*
X33204D01*
Y327600D01*
X32967D01*
D02*
G37*
G36*
X30130Y324527D02*
Y323345D01*
X29894D01*
Y322163D01*
X29658D01*
X29421D01*
Y322399D01*
X29658D01*
Y323345D01*
X29421D01*
X29185D01*
Y323581D01*
X29421D01*
Y323818D01*
X29658D01*
Y324054D01*
X29894D01*
Y324527D01*
X30130D01*
Y325000D01*
X30367D01*
Y324527D01*
X30130D01*
D02*
G37*
G36*
X29894Y326891D02*
Y326654D01*
X29658D01*
Y326418D01*
X29421D01*
Y326182D01*
X29185D01*
Y325709D01*
X28949D01*
X28712D01*
Y325236D01*
X28476D01*
Y325000D01*
X28239D01*
Y324763D01*
X28003D01*
Y324527D01*
X27767D01*
Y320744D01*
X27530D01*
Y320981D01*
X27294D01*
Y321217D01*
X27057D01*
X26821D01*
Y325472D01*
X27057D01*
X27294D01*
Y325709D01*
X27530D01*
Y326182D01*
X27767D01*
Y326418D01*
X28003D01*
Y326654D01*
X28239D01*
X28476D01*
Y326891D01*
X28712D01*
Y327364D01*
X28949D01*
Y327600D01*
X29185D01*
Y327836D01*
X29421D01*
X29658D01*
Y331146D01*
X29894D01*
Y330673D01*
X30130D01*
Y326891D01*
X29894D01*
D02*
G37*
G36*
X156061Y192720D02*
Y191924D01*
X155662D01*
Y191525D01*
X155264D01*
Y191127D01*
X154866D01*
X154467D01*
Y190729D01*
X154069D01*
Y189932D01*
X153671D01*
Y185551D01*
X153273D01*
Y185949D01*
X152874D01*
X152476D01*
X152078D01*
Y185551D01*
X151679D01*
Y187144D01*
X151281D01*
Y189136D01*
X151679D01*
Y189534D01*
X152078D01*
Y190331D01*
X152476D01*
X152874D01*
Y190729D01*
X153273D01*
Y191127D01*
X153671D01*
Y191525D01*
X154069D01*
Y192322D01*
X154467D01*
X154866D01*
Y192720D01*
X155264D01*
Y193119D01*
X155662D01*
Y197500D01*
X156061D01*
Y198296D01*
X156459D01*
Y192720D01*
X156061D01*
D02*
G37*
G36*
Y181967D02*
Y181568D01*
X155662D01*
Y180772D01*
X155264D01*
Y180373D01*
X154866D01*
Y179975D01*
X154467D01*
Y179179D01*
X154069D01*
Y178780D01*
X153671D01*
Y177585D01*
X153273D01*
Y177187D01*
X152874D01*
X152476D01*
Y175992D01*
X152078D01*
Y175594D01*
X151679D01*
Y175196D01*
X151281D01*
X150883D01*
X150485D01*
Y174797D01*
X150086D01*
X149688D01*
Y174399D01*
X149290D01*
X148891D01*
X148493D01*
Y173602D01*
X148095D01*
Y174001D01*
X147696D01*
Y173204D01*
X147298D01*
X146900D01*
X146502D01*
Y172806D01*
X146103D01*
X145705D01*
Y172408D01*
X145307D01*
X144908D01*
X144510D01*
Y171611D01*
X144112D01*
Y172009D01*
X143714D01*
Y171213D01*
X143315D01*
X142917D01*
X142519D01*
Y170815D01*
X142121D01*
X141722D01*
Y170416D01*
X141324D01*
X140926D01*
X140527D01*
X140129D01*
X139731D01*
Y170815D01*
X139332D01*
X138934D01*
X138536D01*
X138138D01*
X137739D01*
X137341D01*
X136943D01*
X136545D01*
X136146D01*
X135748D01*
X135350D01*
Y171213D01*
X134951D01*
X134553D01*
X134155D01*
X133756D01*
X133358D01*
X132960D01*
X132562D01*
X132163D01*
Y172009D01*
X131765D01*
X131367D01*
X130968D01*
X130570D01*
Y171611D01*
X130172D01*
X129774D01*
Y172009D01*
X130172D01*
Y172408D01*
X130570D01*
Y172806D01*
X130968D01*
X131367D01*
Y173204D01*
X131765D01*
Y174001D01*
X132163D01*
Y174399D01*
X132562D01*
Y174797D01*
X132960D01*
X133358D01*
Y175196D01*
X133756D01*
Y175992D01*
X134155D01*
Y176391D01*
X134553D01*
Y176789D01*
X134951D01*
X135350D01*
Y177187D01*
X135748D01*
Y177984D01*
X136146D01*
Y178382D01*
X136545D01*
Y178780D01*
X136943D01*
X137341D01*
Y179179D01*
X137739D01*
Y179975D01*
X138138D01*
Y180373D01*
X138536D01*
Y180772D01*
X138934D01*
X139332D01*
Y181170D01*
X139731D01*
Y181967D01*
X140129D01*
Y182365D01*
X140527D01*
Y182763D01*
X140926D01*
X141324D01*
Y183161D01*
X141722D01*
Y183958D01*
X142121D01*
Y184356D01*
X142519D01*
Y184755D01*
X142917D01*
X143315D01*
X143714D01*
X144112D01*
X144510D01*
X144908D01*
X145307D01*
X145705D01*
X146103D01*
X146502D01*
X146900D01*
X147298D01*
X147696D01*
X148095D01*
X148493D01*
X148891D01*
X149290D01*
X149688D01*
X150086D01*
X150485D01*
X150883D01*
X151281D01*
X151679D01*
X152078D01*
X152476D01*
X152874D01*
X153273D01*
X153671D01*
X154069D01*
X154467D01*
X154866D01*
X155264D01*
Y184356D01*
X154866D01*
Y183958D01*
X154467D01*
Y183560D01*
X154069D01*
Y183161D01*
X153671D01*
X153273D01*
Y182763D01*
X152874D01*
X152476D01*
Y182365D01*
X152078D01*
X151679D01*
Y181568D01*
X151281D01*
Y181170D01*
X150883D01*
X150485D01*
X150086D01*
Y180772D01*
X149688D01*
Y180373D01*
X149290D01*
Y179975D01*
X148891D01*
Y179577D01*
X148493D01*
Y179975D01*
X148095D01*
Y179179D01*
X147696D01*
Y177984D01*
X148095D01*
X148493D01*
Y178382D01*
X148891D01*
Y178780D01*
X149290D01*
X149688D01*
X150086D01*
Y179179D01*
X150485D01*
Y179577D01*
X150883D01*
X151281D01*
X151679D01*
Y180373D01*
X152078D01*
Y179975D01*
X152476D01*
X152874D01*
X153273D01*
Y180772D01*
X153671D01*
X154069D01*
Y181170D01*
X154467D01*
X154866D01*
X155264D01*
Y181967D01*
X155662D01*
Y182365D01*
X156061D01*
X156459D01*
Y181967D01*
X156061D01*
D02*
G37*
G36*
X153671Y193915D02*
Y193517D01*
X153273D01*
Y193119D01*
X152874D01*
X152476D01*
Y192720D01*
X152078D01*
Y191924D01*
X151679D01*
Y191525D01*
X151281D01*
Y191127D01*
X150883D01*
X150485D01*
Y190729D01*
X150086D01*
Y189534D01*
X149688D01*
Y188737D01*
X149290D01*
Y186746D01*
X148891D01*
X148493D01*
Y185949D01*
X148095D01*
Y185551D01*
X147696D01*
Y188737D01*
X148095D01*
Y189136D01*
X148493D01*
Y189534D01*
X148891D01*
Y189932D01*
X149290D01*
Y190331D01*
X149688D01*
Y190729D01*
X150086D01*
Y191127D01*
X150485D01*
Y191525D01*
X150883D01*
Y191924D01*
X151281D01*
Y192720D01*
X151679D01*
Y193119D01*
X152078D01*
Y193517D01*
X152476D01*
Y193915D01*
X152874D01*
Y199093D01*
X153273D01*
X153671D01*
Y198296D01*
X154069D01*
Y193915D01*
X153671D01*
D02*
G37*
G36*
X157654Y185551D02*
Y185949D01*
X157255D01*
Y185551D01*
X156857D01*
Y189136D01*
X157255D01*
Y189932D01*
X157654D01*
Y190331D01*
X158052D01*
Y185551D01*
X157654D01*
D02*
G37*
G36*
X162433Y188339D02*
X162035D01*
Y188737D01*
X162433D01*
X162831D01*
Y188339D01*
X162433D01*
D02*
G37*
G36*
X161637Y196703D02*
X161238D01*
Y197101D01*
X161637D01*
X162035D01*
Y196703D01*
X161637D01*
D02*
G37*
G36*
X161238Y187543D02*
Y187144D01*
X160840D01*
X160442D01*
X160043D01*
Y186746D01*
X159645D01*
Y198296D01*
X160043D01*
Y197500D01*
X160442D01*
X160840D01*
X161238D01*
Y197101D01*
X160840D01*
X160442D01*
X160043D01*
Y188339D01*
X160442D01*
Y187941D01*
X160840D01*
X161238D01*
Y188339D01*
X161637D01*
Y187543D01*
X161238D01*
D02*
G37*
G36*
X150086Y194712D02*
Y193915D01*
X149688D01*
Y193517D01*
X149290D01*
Y193119D01*
X148891D01*
X148493D01*
Y191924D01*
X148095D01*
Y191525D01*
X147696D01*
Y191127D01*
X147298D01*
Y190729D01*
X146900D01*
X146502D01*
Y189932D01*
X146103D01*
Y189534D01*
X145705D01*
Y185551D01*
X145307D01*
X144908D01*
Y186746D01*
X144510D01*
Y187144D01*
X144112D01*
Y189136D01*
X144510D01*
Y189534D01*
X144908D01*
Y189932D01*
X145307D01*
Y190331D01*
X145705D01*
Y190729D01*
X146103D01*
Y191127D01*
X146502D01*
Y191525D01*
X146900D01*
Y191924D01*
X147298D01*
Y192720D01*
X147696D01*
Y193119D01*
X148095D01*
X148493D01*
Y193517D01*
X148891D01*
Y197898D01*
X149290D01*
Y199093D01*
X149688D01*
X150086D01*
X150485D01*
Y194712D01*
X150086D01*
D02*
G37*
G36*
X134155Y185153D02*
X133756D01*
Y199093D01*
X134155D01*
Y199890D01*
X134553D01*
Y185153D01*
X134155D01*
D02*
G37*
G36*
X155264Y203076D02*
X154866D01*
Y203474D01*
X154467D01*
X154069D01*
Y204271D01*
X153671D01*
X153273D01*
Y204669D01*
X152874D01*
X152476D01*
X152078D01*
Y205067D01*
X151679D01*
X151281D01*
Y205864D01*
X150883D01*
Y205466D01*
X150485D01*
X150086D01*
Y206262D01*
X149688D01*
X149290D01*
X148891D01*
Y206660D01*
X148493D01*
X148095D01*
X147696D01*
Y205466D01*
X148095D01*
Y205067D01*
X148493D01*
X148891D01*
X149290D01*
Y204669D01*
X149688D01*
Y204271D01*
X150086D01*
Y203474D01*
X150485D01*
X150883D01*
X151281D01*
Y203076D01*
X151679D01*
Y202677D01*
X152078D01*
X152476D01*
Y202279D01*
X152874D01*
X153273D01*
Y201483D01*
X153671D01*
X154069D01*
Y201084D01*
X154467D01*
Y200686D01*
X154069D01*
X153671D01*
X153273D01*
X152874D01*
X152476D01*
Y200288D01*
X152078D01*
X151679D01*
X151281D01*
X150883D01*
X150485D01*
X150086D01*
Y200686D01*
X149688D01*
X149290D01*
Y200288D01*
X148891D01*
Y200686D01*
X148493D01*
X148095D01*
X147696D01*
Y200288D01*
X147298D01*
X146900D01*
X146502D01*
X146103D01*
X145705D01*
Y200686D01*
X145307D01*
X144908D01*
X144510D01*
Y200288D01*
X144112D01*
X143714D01*
X143315D01*
Y200686D01*
X142917D01*
X142519D01*
X142121D01*
Y201084D01*
X141722D01*
Y201483D01*
X141324D01*
Y201881D01*
X140926D01*
Y202279D01*
X140527D01*
Y202677D01*
X140129D01*
Y203076D01*
X139731D01*
Y203474D01*
X139332D01*
Y203872D01*
X138934D01*
Y204271D01*
X138536D01*
Y204669D01*
X138138D01*
Y205067D01*
X137739D01*
Y205466D01*
X137341D01*
Y205864D01*
X136943D01*
Y206262D01*
X136545D01*
Y206660D01*
X136146D01*
Y207059D01*
X135748D01*
Y207457D01*
X135350D01*
Y207855D01*
X134951D01*
Y208254D01*
X134553D01*
Y208652D01*
X134155D01*
Y209050D01*
X133756D01*
Y209448D01*
X133358D01*
Y209847D01*
X132960D01*
Y210245D01*
X132562D01*
Y210643D01*
X132163D01*
Y211042D01*
X131765D01*
Y211440D01*
X131367D01*
Y211838D01*
X130968D01*
Y212236D01*
X130570D01*
Y212635D01*
X130172D01*
Y213033D01*
X130570D01*
X130968D01*
X131367D01*
Y213431D01*
X131765D01*
X132163D01*
X132562D01*
X132960D01*
X133358D01*
X133756D01*
X134155D01*
X134553D01*
Y214228D01*
X134951D01*
X135350D01*
Y213830D01*
X135748D01*
X136146D01*
X136545D01*
X136943D01*
X137341D01*
X137739D01*
X138138D01*
X138536D01*
Y214626D01*
X138934D01*
X139332D01*
X139731D01*
X140129D01*
X140527D01*
X140926D01*
X141324D01*
X141722D01*
Y213830D01*
X142121D01*
Y214228D01*
X142519D01*
Y213431D01*
X142917D01*
X143315D01*
X143714D01*
Y213033D01*
X144112D01*
X144510D01*
Y212635D01*
X144908D01*
X145307D01*
X145705D01*
Y211838D01*
X146103D01*
Y212236D01*
X146502D01*
Y211440D01*
X146900D01*
X147298D01*
X147696D01*
Y211042D01*
X148095D01*
X148493D01*
Y210643D01*
X148891D01*
X149290D01*
X149688D01*
Y209847D01*
X150086D01*
Y210245D01*
X150485D01*
Y209448D01*
X150883D01*
X151281D01*
X151679D01*
Y209050D01*
X152078D01*
Y208652D01*
X152476D01*
Y207855D01*
X152874D01*
Y207457D01*
X153273D01*
Y207059D01*
X153671D01*
Y206262D01*
X154069D01*
Y205864D01*
X154467D01*
Y204669D01*
X154866D01*
X155264D01*
Y204271D01*
X155662D01*
Y203076D01*
X155264D01*
D02*
G37*
G36*
X129774Y191525D02*
Y191924D01*
X129375D01*
Y191525D01*
X128977D01*
X128579D01*
Y192322D01*
X128180D01*
X127782D01*
X127384D01*
Y192720D01*
X127782D01*
X128180D01*
X128579D01*
Y193119D01*
X128977D01*
X129375D01*
X129774D01*
X130172D01*
Y191525D01*
X129774D01*
D02*
G37*
G36*
X137341Y195508D02*
X136943D01*
Y195110D01*
X136545D01*
Y194314D01*
X136146D01*
Y201084D01*
X136545D01*
X136943D01*
X137341D01*
Y201483D01*
X137739D01*
Y195508D01*
X137341D01*
D02*
G37*
G36*
X146900Y194314D02*
Y193915D01*
X146502D01*
Y193517D01*
X146103D01*
Y193119D01*
X145705D01*
Y192720D01*
X145307D01*
Y192322D01*
X144908D01*
Y191924D01*
X144510D01*
Y191525D01*
X144112D01*
Y199093D01*
X144510D01*
X144908D01*
X145307D01*
X145705D01*
X146103D01*
X146502D01*
Y197898D01*
X146900D01*
Y197500D01*
X147298D01*
Y194314D01*
X146900D01*
D02*
G37*
G36*
X142121Y189136D02*
Y187144D01*
X141722D01*
Y185153D01*
X141324D01*
X140926D01*
Y185551D01*
X141324D01*
Y187144D01*
X140926D01*
X140527D01*
Y187543D01*
X140926D01*
Y187941D01*
X141324D01*
Y188339D01*
X141722D01*
Y189136D01*
X142121D01*
Y189932D01*
X142519D01*
Y189136D01*
X142121D01*
D02*
G37*
G36*
X141722Y193119D02*
Y192720D01*
X141324D01*
Y192322D01*
X140926D01*
Y191924D01*
X140527D01*
Y191127D01*
X140129D01*
X139731D01*
Y190331D01*
X139332D01*
Y189932D01*
X138934D01*
Y189534D01*
X138536D01*
Y189136D01*
X138138D01*
Y182763D01*
X137739D01*
Y183161D01*
X137341D01*
Y183560D01*
X136943D01*
X136545D01*
Y190729D01*
X136943D01*
X137341D01*
Y191127D01*
X137739D01*
Y191924D01*
X138138D01*
Y192322D01*
X138536D01*
Y192720D01*
X138934D01*
X139332D01*
Y193119D01*
X139731D01*
Y193915D01*
X140129D01*
Y194314D01*
X140527D01*
Y194712D01*
X140926D01*
X141324D01*
Y200288D01*
X141722D01*
Y199491D01*
X142121D01*
Y193119D01*
X141722D01*
D02*
G37*
G36*
X768404Y326654D02*
Y326182D01*
X768168D01*
Y325945D01*
X767932D01*
Y325709D01*
X767695D01*
X767459D01*
Y325472D01*
X767222D01*
Y325000D01*
X766986D01*
Y322399D01*
X766750D01*
Y322636D01*
X766513D01*
X766277D01*
X766040D01*
Y322399D01*
X765804D01*
Y323345D01*
X765568D01*
Y324527D01*
X765804D01*
Y324763D01*
X766040D01*
Y325236D01*
X766277D01*
X766513D01*
Y325472D01*
X766750D01*
Y325709D01*
X766986D01*
Y325945D01*
X767222D01*
Y326418D01*
X767459D01*
X767695D01*
Y326654D01*
X767932D01*
Y326891D01*
X768168D01*
Y329491D01*
X768404D01*
Y329964D01*
X768641D01*
Y326654D01*
X768404D01*
D02*
G37*
G36*
Y320272D02*
Y320035D01*
X768168D01*
Y319563D01*
X767932D01*
Y319326D01*
X767695D01*
Y319090D01*
X767459D01*
Y318617D01*
X767222D01*
Y318380D01*
X766986D01*
Y317671D01*
X766750D01*
Y317435D01*
X766513D01*
X766277D01*
Y316726D01*
X766040D01*
Y316489D01*
X765804D01*
Y316253D01*
X765568D01*
X765331D01*
X765095D01*
Y316017D01*
X764858D01*
X764622D01*
Y315780D01*
X764386D01*
X764149D01*
X763913D01*
Y315307D01*
X763677D01*
Y315544D01*
X763440D01*
Y315071D01*
X763204D01*
X762967D01*
X762731D01*
Y314835D01*
X762495D01*
X762258D01*
Y314598D01*
X762022D01*
X761785D01*
X761549D01*
Y314125D01*
X761312D01*
Y314362D01*
X761076D01*
Y313889D01*
X760840D01*
X760603D01*
X760367D01*
Y313653D01*
X760131D01*
X759894D01*
Y313416D01*
X759658D01*
X759421D01*
X759185D01*
X758949D01*
X758712D01*
Y313653D01*
X758476D01*
X758239D01*
X758003D01*
X757767D01*
X757530D01*
X757294D01*
X757057D01*
X756821D01*
X756585D01*
X756348D01*
X756112D01*
Y313889D01*
X755875D01*
X755639D01*
X755403D01*
X755166D01*
X754930D01*
X754693D01*
X754457D01*
X754221D01*
Y314362D01*
X753984D01*
X753748D01*
X753511D01*
X753275D01*
Y314125D01*
X753039D01*
X752802D01*
Y314362D01*
X753039D01*
Y314598D01*
X753275D01*
Y314835D01*
X753511D01*
X753748D01*
Y315071D01*
X753984D01*
Y315544D01*
X754221D01*
Y315780D01*
X754457D01*
Y316017D01*
X754693D01*
X754930D01*
Y316253D01*
X755166D01*
Y316726D01*
X755403D01*
Y316962D01*
X755639D01*
Y317198D01*
X755875D01*
X756112D01*
Y317435D01*
X756348D01*
Y317908D01*
X756585D01*
Y318144D01*
X756821D01*
Y318380D01*
X757057D01*
X757294D01*
Y318617D01*
X757530D01*
Y319090D01*
X757767D01*
Y319326D01*
X758003D01*
Y319563D01*
X758239D01*
X758476D01*
Y319799D01*
X758712D01*
Y320272D01*
X758949D01*
Y320508D01*
X759185D01*
Y320744D01*
X759421D01*
X759658D01*
Y320981D01*
X759894D01*
Y321454D01*
X760131D01*
Y321690D01*
X760367D01*
Y321926D01*
X760603D01*
X760840D01*
X761076D01*
X761312D01*
X761549D01*
X761785D01*
X762022D01*
X762258D01*
X762495D01*
X762731D01*
X762967D01*
X763204D01*
X763440D01*
X763677D01*
X763913D01*
X764149D01*
X764386D01*
X764622D01*
X764858D01*
X765095D01*
X765331D01*
X765568D01*
X765804D01*
X766040D01*
X766277D01*
X766513D01*
X766750D01*
X766986D01*
X767222D01*
X767459D01*
X767695D01*
X767932D01*
Y321690D01*
X767695D01*
Y321454D01*
X767459D01*
Y321217D01*
X767222D01*
Y320981D01*
X766986D01*
X766750D01*
Y320744D01*
X766513D01*
X766277D01*
Y320508D01*
X766040D01*
X765804D01*
Y320035D01*
X765568D01*
Y319799D01*
X765331D01*
X765095D01*
X764858D01*
Y319563D01*
X764622D01*
Y319326D01*
X764386D01*
Y319090D01*
X764149D01*
Y318853D01*
X763913D01*
Y319090D01*
X763677D01*
Y318617D01*
X763440D01*
Y317908D01*
X763677D01*
X763913D01*
Y318144D01*
X764149D01*
Y318380D01*
X764386D01*
X764622D01*
X764858D01*
Y318617D01*
X765095D01*
Y318853D01*
X765331D01*
X765568D01*
X765804D01*
Y319326D01*
X766040D01*
Y319090D01*
X766277D01*
X766513D01*
X766750D01*
Y319563D01*
X766986D01*
X767222D01*
Y319799D01*
X767459D01*
X767695D01*
X767932D01*
Y320272D01*
X768168D01*
Y320508D01*
X768404D01*
X768641D01*
Y320272D01*
X768404D01*
D02*
G37*
G36*
X766986Y327364D02*
Y327127D01*
X766750D01*
Y326891D01*
X766513D01*
X766277D01*
Y326654D01*
X766040D01*
Y326182D01*
X765804D01*
Y325945D01*
X765568D01*
Y325709D01*
X765331D01*
X765095D01*
Y325472D01*
X764858D01*
Y324763D01*
X764622D01*
Y324290D01*
X764386D01*
Y323109D01*
X764149D01*
X763913D01*
Y322636D01*
X763677D01*
Y322399D01*
X763440D01*
Y324290D01*
X763677D01*
Y324527D01*
X763913D01*
Y324763D01*
X764149D01*
Y325000D01*
X764386D01*
Y325236D01*
X764622D01*
Y325472D01*
X764858D01*
Y325709D01*
X765095D01*
Y325945D01*
X765331D01*
Y326182D01*
X765568D01*
Y326654D01*
X765804D01*
Y326891D01*
X766040D01*
Y327127D01*
X766277D01*
Y327364D01*
X766513D01*
Y330437D01*
X766750D01*
X766986D01*
Y329964D01*
X767222D01*
Y327364D01*
X766986D01*
D02*
G37*
G36*
X769350Y322399D02*
Y322636D01*
X769114D01*
Y322399D01*
X768877D01*
Y324527D01*
X769114D01*
Y325000D01*
X769350D01*
Y325236D01*
X769586D01*
Y322399D01*
X769350D01*
D02*
G37*
G36*
X772187Y324054D02*
X771950D01*
Y324290D01*
X772187D01*
X772423D01*
Y324054D01*
X772187D01*
D02*
G37*
G36*
X771714Y329018D02*
X771478D01*
Y329255D01*
X771714D01*
X771950D01*
Y329018D01*
X771714D01*
D02*
G37*
G36*
X771478Y323581D02*
Y323345D01*
X771241D01*
X771005D01*
X770768D01*
Y323109D01*
X770532D01*
Y329964D01*
X770768D01*
Y329491D01*
X771005D01*
X771241D01*
X771478D01*
Y329255D01*
X771241D01*
X771005D01*
X770768D01*
Y324054D01*
X771005D01*
Y323818D01*
X771241D01*
X771478D01*
Y324054D01*
X771714D01*
Y323581D01*
X771478D01*
D02*
G37*
G36*
X764858Y327836D02*
Y327364D01*
X764622D01*
Y327127D01*
X764386D01*
Y326891D01*
X764149D01*
X763913D01*
Y326182D01*
X763677D01*
Y325945D01*
X763440D01*
Y325709D01*
X763204D01*
Y325472D01*
X762967D01*
X762731D01*
Y325000D01*
X762495D01*
Y324763D01*
X762258D01*
Y322399D01*
X762022D01*
X761785D01*
Y323109D01*
X761549D01*
Y323345D01*
X761312D01*
Y324527D01*
X761549D01*
Y324763D01*
X761785D01*
Y325000D01*
X762022D01*
Y325236D01*
X762258D01*
Y325472D01*
X762495D01*
Y325709D01*
X762731D01*
Y325945D01*
X762967D01*
Y326182D01*
X763204D01*
Y326654D01*
X763440D01*
Y326891D01*
X763677D01*
X763913D01*
Y327127D01*
X764149D01*
Y329728D01*
X764386D01*
Y330437D01*
X764622D01*
X764858D01*
X765095D01*
Y327836D01*
X764858D01*
D02*
G37*
G36*
X755403Y322163D02*
X755166D01*
Y330437D01*
X755403D01*
Y330909D01*
X755639D01*
Y322163D01*
X755403D01*
D02*
G37*
G36*
X767932Y332801D02*
X767695D01*
Y333037D01*
X767459D01*
X767222D01*
Y333510D01*
X766986D01*
X766750D01*
Y333746D01*
X766513D01*
X766277D01*
X766040D01*
Y333983D01*
X765804D01*
X765568D01*
Y334455D01*
X765331D01*
Y334219D01*
X765095D01*
X764858D01*
Y334692D01*
X764622D01*
X764386D01*
X764149D01*
Y334928D01*
X763913D01*
X763677D01*
X763440D01*
Y334219D01*
X763677D01*
Y333983D01*
X763913D01*
X764149D01*
X764386D01*
Y333746D01*
X764622D01*
Y333510D01*
X764858D01*
Y333037D01*
X765095D01*
X765331D01*
X765568D01*
Y332801D01*
X765804D01*
Y332564D01*
X766040D01*
X766277D01*
Y332328D01*
X766513D01*
X766750D01*
Y331855D01*
X766986D01*
X767222D01*
Y331619D01*
X767459D01*
Y331382D01*
X767222D01*
X766986D01*
X766750D01*
X766513D01*
X766277D01*
Y331146D01*
X766040D01*
X765804D01*
X765568D01*
X765331D01*
X765095D01*
X764858D01*
Y331382D01*
X764622D01*
X764386D01*
Y331146D01*
X764149D01*
Y331382D01*
X763913D01*
X763677D01*
X763440D01*
Y331146D01*
X763204D01*
X762967D01*
X762731D01*
X762495D01*
X762258D01*
Y331382D01*
X762022D01*
X761785D01*
X761549D01*
Y331146D01*
X761312D01*
X761076D01*
X760840D01*
Y331382D01*
X760603D01*
X760367D01*
X760131D01*
Y331619D01*
X759894D01*
Y331855D01*
X759658D01*
Y332091D01*
X759421D01*
Y332328D01*
X759185D01*
Y332564D01*
X758949D01*
Y332801D01*
X758712D01*
Y333037D01*
X758476D01*
Y333274D01*
X758239D01*
Y333510D01*
X758003D01*
Y333746D01*
X757767D01*
Y333983D01*
X757530D01*
Y334219D01*
X757294D01*
Y334455D01*
X757057D01*
Y334692D01*
X756821D01*
Y334928D01*
X756585D01*
Y335165D01*
X756348D01*
Y335401D01*
X756112D01*
Y335637D01*
X755875D01*
Y335874D01*
X755639D01*
Y336110D01*
X755403D01*
Y336347D01*
X755166D01*
Y336583D01*
X754930D01*
Y336820D01*
X754693D01*
Y337056D01*
X754457D01*
Y337292D01*
X754221D01*
Y337529D01*
X753984D01*
Y337765D01*
X753748D01*
Y338001D01*
X753511D01*
Y338238D01*
X753275D01*
Y338474D01*
X753039D01*
Y338711D01*
X753275D01*
X753511D01*
X753748D01*
Y338947D01*
X753984D01*
X754221D01*
X754457D01*
X754693D01*
X754930D01*
X755166D01*
X755403D01*
X755639D01*
Y339420D01*
X755875D01*
X756112D01*
Y339183D01*
X756348D01*
X756585D01*
X756821D01*
X757057D01*
X757294D01*
X757530D01*
X757767D01*
X758003D01*
Y339656D01*
X758239D01*
X758476D01*
X758712D01*
X758949D01*
X759185D01*
X759421D01*
X759658D01*
X759894D01*
Y339183D01*
X760131D01*
Y339420D01*
X760367D01*
Y338947D01*
X760603D01*
X760840D01*
X761076D01*
Y338711D01*
X761312D01*
X761549D01*
Y338474D01*
X761785D01*
X762022D01*
X762258D01*
Y338001D01*
X762495D01*
Y338238D01*
X762731D01*
Y337765D01*
X762967D01*
X763204D01*
X763440D01*
Y337529D01*
X763677D01*
X763913D01*
Y337292D01*
X764149D01*
X764386D01*
X764622D01*
Y336820D01*
X764858D01*
Y337056D01*
X765095D01*
Y336583D01*
X765331D01*
X765568D01*
X765804D01*
Y336347D01*
X766040D01*
Y336110D01*
X766277D01*
Y335637D01*
X766513D01*
Y335401D01*
X766750D01*
Y335165D01*
X766986D01*
Y334692D01*
X767222D01*
Y334455D01*
X767459D01*
Y333746D01*
X767695D01*
X767932D01*
Y333510D01*
X768168D01*
Y332801D01*
X767932D01*
D02*
G37*
G36*
X752802Y325945D02*
Y326182D01*
X752566D01*
Y325945D01*
X752329D01*
X752093D01*
Y326418D01*
X751857D01*
X751620D01*
X751384D01*
Y326654D01*
X751620D01*
X751857D01*
X752093D01*
Y326891D01*
X752329D01*
X752566D01*
X752802D01*
X753039D01*
Y325945D01*
X752802D01*
D02*
G37*
G36*
X757294Y328309D02*
X757057D01*
Y328073D01*
X756821D01*
Y327600D01*
X756585D01*
Y331619D01*
X756821D01*
X757057D01*
X757294D01*
Y331855D01*
X757530D01*
Y328309D01*
X757294D01*
D02*
G37*
G36*
X762967Y327600D02*
Y327364D01*
X762731D01*
Y327127D01*
X762495D01*
Y326891D01*
X762258D01*
Y326654D01*
X762022D01*
Y326418D01*
X761785D01*
Y326182D01*
X761549D01*
Y325945D01*
X761312D01*
Y330437D01*
X761549D01*
X761785D01*
X762022D01*
X762258D01*
X762495D01*
X762731D01*
Y329728D01*
X762967D01*
Y329491D01*
X763204D01*
Y327600D01*
X762967D01*
D02*
G37*
G36*
X760131Y324527D02*
Y323345D01*
X759894D01*
Y322163D01*
X759658D01*
X759421D01*
Y322399D01*
X759658D01*
Y323345D01*
X759421D01*
X759185D01*
Y323581D01*
X759421D01*
Y323818D01*
X759658D01*
Y324054D01*
X759894D01*
Y324527D01*
X760131D01*
Y325000D01*
X760367D01*
Y324527D01*
X760131D01*
D02*
G37*
G36*
X759894Y326891D02*
Y326654D01*
X759658D01*
Y326418D01*
X759421D01*
Y326182D01*
X759185D01*
Y325709D01*
X758949D01*
X758712D01*
Y325236D01*
X758476D01*
Y325000D01*
X758239D01*
Y324763D01*
X758003D01*
Y324527D01*
X757767D01*
Y320744D01*
X757530D01*
Y320981D01*
X757294D01*
Y321217D01*
X757057D01*
X756821D01*
Y325472D01*
X757057D01*
X757294D01*
Y325709D01*
X757530D01*
Y326182D01*
X757767D01*
Y326418D01*
X758003D01*
Y326654D01*
X758239D01*
X758476D01*
Y326891D01*
X758712D01*
Y327364D01*
X758949D01*
Y327600D01*
X759185D01*
Y327836D01*
X759421D01*
X759658D01*
Y331146D01*
X759894D01*
Y330673D01*
X760131D01*
Y326891D01*
X759894D01*
D02*
G37*
G36*
X886061Y192720D02*
Y191924D01*
X885662D01*
Y191525D01*
X885264D01*
Y191127D01*
X884866D01*
X884467D01*
Y190729D01*
X884069D01*
Y189932D01*
X883671D01*
Y185551D01*
X883273D01*
Y185949D01*
X882874D01*
X882476D01*
X882078D01*
Y185551D01*
X881679D01*
Y187144D01*
X881281D01*
Y189136D01*
X881679D01*
Y189534D01*
X882078D01*
Y190331D01*
X882476D01*
X882874D01*
Y190729D01*
X883273D01*
Y191127D01*
X883671D01*
Y191525D01*
X884069D01*
Y192322D01*
X884467D01*
X884866D01*
Y192720D01*
X885264D01*
Y193119D01*
X885662D01*
Y197500D01*
X886061D01*
Y198296D01*
X886459D01*
Y192720D01*
X886061D01*
D02*
G37*
G36*
Y181967D02*
Y181568D01*
X885662D01*
Y180772D01*
X885264D01*
Y180373D01*
X884866D01*
Y179975D01*
X884467D01*
Y179179D01*
X884069D01*
Y178780D01*
X883671D01*
Y177585D01*
X883273D01*
Y177187D01*
X882874D01*
X882476D01*
Y175992D01*
X882078D01*
Y175594D01*
X881679D01*
Y175196D01*
X881281D01*
X880883D01*
X880484D01*
Y174797D01*
X880086D01*
X879688D01*
Y174399D01*
X879290D01*
X878891D01*
X878493D01*
Y173602D01*
X878095D01*
Y174001D01*
X877697D01*
Y173204D01*
X877298D01*
X876900D01*
X876502D01*
Y172806D01*
X876103D01*
X875705D01*
Y172408D01*
X875307D01*
X874909D01*
X874510D01*
Y171611D01*
X874112D01*
Y172009D01*
X873714D01*
Y171213D01*
X873315D01*
X872917D01*
X872519D01*
Y170815D01*
X872120D01*
X871722D01*
Y170416D01*
X871324D01*
X870926D01*
X870527D01*
X870129D01*
X869731D01*
Y170815D01*
X869333D01*
X868934D01*
X868536D01*
X868138D01*
X867739D01*
X867341D01*
X866943D01*
X866545D01*
X866146D01*
X865748D01*
X865350D01*
Y171213D01*
X864951D01*
X864553D01*
X864155D01*
X863756D01*
X863358D01*
X862960D01*
X862562D01*
X862163D01*
Y172009D01*
X861765D01*
X861367D01*
X860968D01*
X860570D01*
Y171611D01*
X860172D01*
X859774D01*
Y172009D01*
X860172D01*
Y172408D01*
X860570D01*
Y172806D01*
X860968D01*
X861367D01*
Y173204D01*
X861765D01*
Y174001D01*
X862163D01*
Y174399D01*
X862562D01*
Y174797D01*
X862960D01*
X863358D01*
Y175196D01*
X863756D01*
Y175992D01*
X864155D01*
Y176391D01*
X864553D01*
Y176789D01*
X864951D01*
X865350D01*
Y177187D01*
X865748D01*
Y177984D01*
X866146D01*
Y178382D01*
X866545D01*
Y178780D01*
X866943D01*
X867341D01*
Y179179D01*
X867739D01*
Y179975D01*
X868138D01*
Y180373D01*
X868536D01*
Y180772D01*
X868934D01*
X869333D01*
Y181170D01*
X869731D01*
Y181967D01*
X870129D01*
Y182365D01*
X870527D01*
Y182763D01*
X870926D01*
X871324D01*
Y183161D01*
X871722D01*
Y183958D01*
X872120D01*
Y184356D01*
X872519D01*
Y184755D01*
X872917D01*
X873315D01*
X873714D01*
X874112D01*
X874510D01*
X874909D01*
X875307D01*
X875705D01*
X876103D01*
X876502D01*
X876900D01*
X877298D01*
X877697D01*
X878095D01*
X878493D01*
X878891D01*
X879290D01*
X879688D01*
X880086D01*
X880484D01*
X880883D01*
X881281D01*
X881679D01*
X882078D01*
X882476D01*
X882874D01*
X883273D01*
X883671D01*
X884069D01*
X884467D01*
X884866D01*
X885264D01*
Y184356D01*
X884866D01*
Y183958D01*
X884467D01*
Y183560D01*
X884069D01*
Y183161D01*
X883671D01*
X883273D01*
Y182763D01*
X882874D01*
X882476D01*
Y182365D01*
X882078D01*
X881679D01*
Y181568D01*
X881281D01*
Y181170D01*
X880883D01*
X880484D01*
X880086D01*
Y180772D01*
X879688D01*
Y180373D01*
X879290D01*
Y179975D01*
X878891D01*
Y179577D01*
X878493D01*
Y179975D01*
X878095D01*
Y179179D01*
X877697D01*
Y177984D01*
X878095D01*
X878493D01*
Y178382D01*
X878891D01*
Y178780D01*
X879290D01*
X879688D01*
X880086D01*
Y179179D01*
X880484D01*
Y179577D01*
X880883D01*
X881281D01*
X881679D01*
Y180373D01*
X882078D01*
Y179975D01*
X882476D01*
X882874D01*
X883273D01*
Y180772D01*
X883671D01*
X884069D01*
Y181170D01*
X884467D01*
X884866D01*
X885264D01*
Y181967D01*
X885662D01*
Y182365D01*
X886061D01*
X886459D01*
Y181967D01*
X886061D01*
D02*
G37*
G36*
X883671Y193915D02*
Y193517D01*
X883273D01*
Y193119D01*
X882874D01*
X882476D01*
Y192720D01*
X882078D01*
Y191924D01*
X881679D01*
Y191525D01*
X881281D01*
Y191127D01*
X880883D01*
X880484D01*
Y190729D01*
X880086D01*
Y189534D01*
X879688D01*
Y188737D01*
X879290D01*
Y186746D01*
X878891D01*
X878493D01*
Y185949D01*
X878095D01*
Y185551D01*
X877697D01*
Y188737D01*
X878095D01*
Y189136D01*
X878493D01*
Y189534D01*
X878891D01*
Y189932D01*
X879290D01*
Y190331D01*
X879688D01*
Y190729D01*
X880086D01*
Y191127D01*
X880484D01*
Y191525D01*
X880883D01*
Y191924D01*
X881281D01*
Y192720D01*
X881679D01*
Y193119D01*
X882078D01*
Y193517D01*
X882476D01*
Y193915D01*
X882874D01*
Y199093D01*
X883273D01*
X883671D01*
Y198296D01*
X884069D01*
Y193915D01*
X883671D01*
D02*
G37*
G36*
X887654Y185551D02*
Y185949D01*
X887255D01*
Y185551D01*
X886857D01*
Y189136D01*
X887255D01*
Y189932D01*
X887654D01*
Y190331D01*
X888052D01*
Y185551D01*
X887654D01*
D02*
G37*
G36*
X892433Y188339D02*
X892035D01*
Y188737D01*
X892433D01*
X892832D01*
Y188339D01*
X892433D01*
D02*
G37*
G36*
X891637Y196703D02*
X891238D01*
Y197101D01*
X891637D01*
X892035D01*
Y196703D01*
X891637D01*
D02*
G37*
G36*
X891238Y187543D02*
Y187144D01*
X890840D01*
X890442D01*
X890043D01*
Y186746D01*
X889645D01*
Y198296D01*
X890043D01*
Y197500D01*
X890442D01*
X890840D01*
X891238D01*
Y197101D01*
X890840D01*
X890442D01*
X890043D01*
Y188339D01*
X890442D01*
Y187941D01*
X890840D01*
X891238D01*
Y188339D01*
X891637D01*
Y187543D01*
X891238D01*
D02*
G37*
G36*
X880086Y194712D02*
Y193915D01*
X879688D01*
Y193517D01*
X879290D01*
Y193119D01*
X878891D01*
X878493D01*
Y191924D01*
X878095D01*
Y191525D01*
X877697D01*
Y191127D01*
X877298D01*
Y190729D01*
X876900D01*
X876502D01*
Y189932D01*
X876103D01*
Y189534D01*
X875705D01*
Y185551D01*
X875307D01*
X874909D01*
Y186746D01*
X874510D01*
Y187144D01*
X874112D01*
Y189136D01*
X874510D01*
Y189534D01*
X874909D01*
Y189932D01*
X875307D01*
Y190331D01*
X875705D01*
Y190729D01*
X876103D01*
Y191127D01*
X876502D01*
Y191525D01*
X876900D01*
Y191924D01*
X877298D01*
Y192720D01*
X877697D01*
Y193119D01*
X878095D01*
X878493D01*
Y193517D01*
X878891D01*
Y197898D01*
X879290D01*
Y199093D01*
X879688D01*
X880086D01*
X880484D01*
Y194712D01*
X880086D01*
D02*
G37*
G36*
X864155Y185153D02*
X863756D01*
Y199093D01*
X864155D01*
Y199890D01*
X864553D01*
Y185153D01*
X864155D01*
D02*
G37*
G36*
X885264Y203076D02*
X884866D01*
Y203474D01*
X884467D01*
X884069D01*
Y204271D01*
X883671D01*
X883273D01*
Y204669D01*
X882874D01*
X882476D01*
X882078D01*
Y205067D01*
X881679D01*
X881281D01*
Y205864D01*
X880883D01*
Y205466D01*
X880484D01*
X880086D01*
Y206262D01*
X879688D01*
X879290D01*
X878891D01*
Y206660D01*
X878493D01*
X878095D01*
X877697D01*
Y205466D01*
X878095D01*
Y205067D01*
X878493D01*
X878891D01*
X879290D01*
Y204669D01*
X879688D01*
Y204271D01*
X880086D01*
Y203474D01*
X880484D01*
X880883D01*
X881281D01*
Y203076D01*
X881679D01*
Y202677D01*
X882078D01*
X882476D01*
Y202279D01*
X882874D01*
X883273D01*
Y201483D01*
X883671D01*
X884069D01*
Y201084D01*
X884467D01*
Y200686D01*
X884069D01*
X883671D01*
X883273D01*
X882874D01*
X882476D01*
Y200288D01*
X882078D01*
X881679D01*
X881281D01*
X880883D01*
X880484D01*
X880086D01*
Y200686D01*
X879688D01*
X879290D01*
Y200288D01*
X878891D01*
Y200686D01*
X878493D01*
X878095D01*
X877697D01*
Y200288D01*
X877298D01*
X876900D01*
X876502D01*
X876103D01*
X875705D01*
Y200686D01*
X875307D01*
X874909D01*
X874510D01*
Y200288D01*
X874112D01*
X873714D01*
X873315D01*
Y200686D01*
X872917D01*
X872519D01*
X872120D01*
Y201084D01*
X871722D01*
Y201483D01*
X871324D01*
Y201881D01*
X870926D01*
Y202279D01*
X870527D01*
Y202677D01*
X870129D01*
Y203076D01*
X869731D01*
Y203474D01*
X869333D01*
Y203872D01*
X868934D01*
Y204271D01*
X868536D01*
Y204669D01*
X868138D01*
Y205067D01*
X867739D01*
Y205466D01*
X867341D01*
Y205864D01*
X866943D01*
Y206262D01*
X866545D01*
Y206660D01*
X866146D01*
Y207059D01*
X865748D01*
Y207457D01*
X865350D01*
Y207855D01*
X864951D01*
Y208254D01*
X864553D01*
Y208652D01*
X864155D01*
Y209050D01*
X863756D01*
Y209448D01*
X863358D01*
Y209847D01*
X862960D01*
Y210245D01*
X862562D01*
Y210643D01*
X862163D01*
Y211042D01*
X861765D01*
Y211440D01*
X861367D01*
Y211838D01*
X860968D01*
Y212236D01*
X860570D01*
Y212635D01*
X860172D01*
Y213033D01*
X860570D01*
X860968D01*
X861367D01*
Y213431D01*
X861765D01*
X862163D01*
X862562D01*
X862960D01*
X863358D01*
X863756D01*
X864155D01*
X864553D01*
Y214228D01*
X864951D01*
X865350D01*
Y213830D01*
X865748D01*
X866146D01*
X866545D01*
X866943D01*
X867341D01*
X867739D01*
X868138D01*
X868536D01*
Y214626D01*
X868934D01*
X869333D01*
X869731D01*
X870129D01*
X870527D01*
X870926D01*
X871324D01*
X871722D01*
Y213830D01*
X872120D01*
Y214228D01*
X872519D01*
Y213431D01*
X872917D01*
X873315D01*
X873714D01*
Y213033D01*
X874112D01*
X874510D01*
Y212635D01*
X874909D01*
X875307D01*
X875705D01*
Y211838D01*
X876103D01*
Y212236D01*
X876502D01*
Y211440D01*
X876900D01*
X877298D01*
X877697D01*
Y211042D01*
X878095D01*
X878493D01*
Y210643D01*
X878891D01*
X879290D01*
X879688D01*
Y209847D01*
X880086D01*
Y210245D01*
X880484D01*
Y209448D01*
X880883D01*
X881281D01*
X881679D01*
Y209050D01*
X882078D01*
Y208652D01*
X882476D01*
Y207855D01*
X882874D01*
Y207457D01*
X883273D01*
Y207059D01*
X883671D01*
Y206262D01*
X884069D01*
Y205864D01*
X884467D01*
Y204669D01*
X884866D01*
X885264D01*
Y204271D01*
X885662D01*
Y203076D01*
X885264D01*
D02*
G37*
G36*
X859774Y191525D02*
Y191924D01*
X859375D01*
Y191525D01*
X858977D01*
X858579D01*
Y192322D01*
X858180D01*
X857782D01*
X857384D01*
Y192720D01*
X857782D01*
X858180D01*
X858579D01*
Y193119D01*
X858977D01*
X859375D01*
X859774D01*
X860172D01*
Y191525D01*
X859774D01*
D02*
G37*
G36*
X867341Y195508D02*
X866943D01*
Y195110D01*
X866545D01*
Y194314D01*
X866146D01*
Y201084D01*
X866545D01*
X866943D01*
X867341D01*
Y201483D01*
X867739D01*
Y195508D01*
X867341D01*
D02*
G37*
G36*
X876900Y194314D02*
Y193915D01*
X876502D01*
Y193517D01*
X876103D01*
Y193119D01*
X875705D01*
Y192720D01*
X875307D01*
Y192322D01*
X874909D01*
Y191924D01*
X874510D01*
Y191525D01*
X874112D01*
Y199093D01*
X874510D01*
X874909D01*
X875307D01*
X875705D01*
X876103D01*
X876502D01*
Y197898D01*
X876900D01*
Y197500D01*
X877298D01*
Y194314D01*
X876900D01*
D02*
G37*
G36*
X872120Y189136D02*
Y187144D01*
X871722D01*
Y185153D01*
X871324D01*
X870926D01*
Y185551D01*
X871324D01*
Y187144D01*
X870926D01*
X870527D01*
Y187543D01*
X870926D01*
Y187941D01*
X871324D01*
Y188339D01*
X871722D01*
Y189136D01*
X872120D01*
Y189932D01*
X872519D01*
Y189136D01*
X872120D01*
D02*
G37*
G36*
X871722Y193119D02*
Y192720D01*
X871324D01*
Y192322D01*
X870926D01*
Y191924D01*
X870527D01*
Y191127D01*
X870129D01*
X869731D01*
Y190331D01*
X869333D01*
Y189932D01*
X868934D01*
Y189534D01*
X868536D01*
Y189136D01*
X868138D01*
Y182763D01*
X867739D01*
Y183161D01*
X867341D01*
Y183560D01*
X866943D01*
X866545D01*
Y190729D01*
X866943D01*
X867341D01*
Y191127D01*
X867739D01*
Y191924D01*
X868138D01*
Y192322D01*
X868536D01*
Y192720D01*
X868934D01*
X869333D01*
Y193119D01*
X869731D01*
Y193915D01*
X870129D01*
Y194314D01*
X870527D01*
Y194712D01*
X870926D01*
X871324D01*
Y200288D01*
X871722D01*
Y199491D01*
X872120D01*
Y193119D01*
X871722D01*
D02*
G37*
G36*
X701519Y177438D02*
X701741D01*
Y177217D01*
X701963D01*
Y176995D01*
X702184D01*
Y176774D01*
X702628D01*
Y176552D01*
Y176330D01*
X703071D01*
Y176108D01*
X703293D01*
Y175887D01*
X703514D01*
Y175665D01*
X703736D01*
Y175443D01*
X707283D01*
Y175222D01*
X707061D01*
Y175000D01*
X706840D01*
Y174778D01*
Y174557D01*
X702849D01*
Y174778D01*
Y175000D01*
X702628D01*
Y175222D01*
X702184D01*
Y175443D01*
X701963D01*
Y175665D01*
X701741D01*
Y175887D01*
Y176108D01*
X701519D01*
Y176330D01*
X701076D01*
Y176552D01*
X700854D01*
Y176774D01*
X700633D01*
Y176995D01*
Y177217D01*
X697529D01*
Y177438D01*
X697972D01*
Y177660D01*
X701519D01*
Y177438D01*
D02*
G37*
G36*
X703736Y177660D02*
X704845D01*
Y177438D01*
X705953D01*
Y177217D01*
Y176995D01*
X705731D01*
Y177217D01*
X704845D01*
Y176995D01*
Y176774D01*
X704623D01*
Y176995D01*
X704401D01*
Y177217D01*
X704180D01*
Y177438D01*
X703736D01*
Y177660D01*
X703293D01*
Y177882D01*
X703736D01*
Y177660D01*
D02*
G37*
G36*
X700854Y180320D02*
X701076D01*
Y180099D01*
X701298D01*
Y179877D01*
X701519D01*
Y179655D01*
X701741D01*
Y179434D01*
X701963D01*
Y179212D01*
X702184D01*
Y178990D01*
X702406D01*
Y178769D01*
X698194D01*
Y178990D01*
Y179212D01*
Y179434D01*
Y179655D01*
Y179877D01*
Y180099D01*
X698859D01*
Y180320D01*
X699081D01*
Y180542D01*
X700854D01*
Y180320D01*
D02*
G37*
G36*
X700189Y175000D02*
Y174778D01*
X700411D01*
Y174557D01*
X700854D01*
Y174335D01*
X697086D01*
Y174557D01*
Y174778D01*
Y175000D01*
X696864D01*
Y175222D01*
X700189D01*
Y175000D01*
D02*
G37*
G36*
X702406Y170788D02*
X702184D01*
Y170566D01*
X702406D01*
Y170345D01*
Y170123D01*
X701963D01*
Y169901D01*
Y169680D01*
Y169458D01*
X701741D01*
Y169680D01*
Y169901D01*
Y170123D01*
X701519D01*
Y170345D01*
Y170566D01*
Y170788D01*
Y171010D01*
X702406D01*
Y170788D01*
D02*
G37*
G36*
X695977Y184976D02*
Y184754D01*
X695756D01*
Y184532D01*
Y184311D01*
X695312D01*
Y184089D01*
Y183867D01*
X695090D01*
Y183646D01*
Y183424D01*
Y183202D01*
X694869D01*
Y182981D01*
Y182759D01*
X694425D01*
Y182537D01*
X694647D01*
Y182316D01*
Y182094D01*
X694204D01*
Y181872D01*
Y181650D01*
Y181429D01*
X693982D01*
Y181207D01*
Y180985D01*
Y180764D01*
X694647D01*
Y180985D01*
X694869D01*
Y181207D01*
Y181429D01*
Y181650D01*
X695090D01*
Y181872D01*
X695312D01*
Y182094D01*
X695756D01*
Y182316D01*
Y182537D01*
Y182759D01*
X695977D01*
Y182981D01*
X696199D01*
Y183202D01*
Y183424D01*
X696421D01*
Y183646D01*
Y183867D01*
X696864D01*
Y184089D01*
Y184311D01*
X697086D01*
Y184532D01*
X697307D01*
Y184311D01*
Y184089D01*
Y183867D01*
Y183646D01*
Y183424D01*
X697529D01*
Y183202D01*
Y182981D01*
Y182759D01*
Y182537D01*
Y182316D01*
Y182094D01*
X697307D01*
Y181872D01*
Y181650D01*
X697529D01*
Y181429D01*
X697307D01*
Y181207D01*
Y180985D01*
Y180764D01*
X697529D01*
Y180542D01*
Y180320D01*
Y180099D01*
Y179877D01*
Y179655D01*
X697307D01*
Y179434D01*
Y179212D01*
Y178990D01*
X697529D01*
Y178769D01*
Y178547D01*
Y178325D01*
X697307D01*
Y178104D01*
Y177882D01*
Y177660D01*
X697086D01*
Y177438D01*
X696864D01*
Y177217D01*
X696642D01*
Y176995D01*
X696421D01*
Y176774D01*
X696199D01*
Y176552D01*
X695977D01*
Y176330D01*
X695756D01*
Y176108D01*
X695534D01*
Y175887D01*
X695312D01*
Y175665D01*
X695090D01*
Y175443D01*
X694869D01*
Y175222D01*
X694647D01*
Y175000D01*
X694425D01*
Y174778D01*
X694204D01*
Y174557D01*
X693982D01*
Y174335D01*
X693760D01*
Y174113D01*
X693539D01*
Y173892D01*
X693317D01*
Y173670D01*
X693095D01*
Y173448D01*
X692874D01*
Y173226D01*
X692652D01*
Y173005D01*
X692430D01*
Y172783D01*
X692209D01*
Y172562D01*
X691987D01*
Y172340D01*
X691765D01*
Y172118D01*
X691544D01*
Y171896D01*
X691322D01*
Y171675D01*
X691100D01*
Y171453D01*
X690878D01*
Y171231D01*
X690657D01*
Y171010D01*
X690435D01*
Y171231D01*
Y171453D01*
Y171675D01*
X690213D01*
Y171896D01*
Y172118D01*
Y172340D01*
Y172562D01*
Y172783D01*
Y173005D01*
Y173226D01*
Y173448D01*
X689770D01*
Y173670D01*
Y173892D01*
X689992D01*
Y174113D01*
Y174335D01*
Y174557D01*
Y174778D01*
Y175000D01*
Y175222D01*
Y175443D01*
Y175665D01*
X689548D01*
Y175887D01*
Y176108D01*
Y176330D01*
Y176552D01*
Y176774D01*
Y176995D01*
Y177217D01*
Y177438D01*
X689992D01*
Y177660D01*
X689770D01*
Y177882D01*
X690213D01*
Y178104D01*
Y178325D01*
Y178547D01*
X690435D01*
Y178769D01*
Y178990D01*
X690657D01*
Y179212D01*
Y179434D01*
Y179655D01*
X691100D01*
Y179877D01*
X690878D01*
Y180099D01*
X691322D01*
Y180320D01*
Y180542D01*
Y180764D01*
X691544D01*
Y180985D01*
Y181207D01*
X691765D01*
Y181429D01*
Y181650D01*
Y181872D01*
X692209D01*
Y182094D01*
X691987D01*
Y182316D01*
X692430D01*
Y182537D01*
Y182759D01*
Y182981D01*
X692652D01*
Y183202D01*
X692874D01*
Y183424D01*
X693317D01*
Y183646D01*
X693539D01*
Y183867D01*
X693760D01*
Y184089D01*
X694204D01*
Y184311D01*
X694425D01*
Y184532D01*
X695090D01*
Y184754D01*
Y184976D01*
X695312D01*
Y185197D01*
X695977D01*
Y184976D01*
D02*
G37*
G36*
X705953Y173226D02*
Y173005D01*
X698194D01*
Y173226D01*
X697751D01*
Y173448D01*
X705953D01*
Y173226D01*
D02*
G37*
G36*
X700633Y182094D02*
X701076D01*
Y181872D01*
X701298D01*
Y181650D01*
X701519D01*
Y181429D01*
Y181207D01*
X702184D01*
Y180985D01*
X702406D01*
Y180764D01*
X702628D01*
Y180542D01*
X702849D01*
Y180320D01*
Y180099D01*
X703293D01*
Y179877D01*
X703514D01*
Y179655D01*
X705731D01*
Y179434D01*
Y179212D01*
X705066D01*
Y178990D01*
X704845D01*
Y178769D01*
X703736D01*
Y178990D01*
X703514D01*
Y179212D01*
X703293D01*
Y179434D01*
X703071D01*
Y179655D01*
X702849D01*
Y179877D01*
X702628D01*
Y180099D01*
X702406D01*
Y180320D01*
X702184D01*
Y180542D01*
X701741D01*
Y180764D01*
X701519D01*
Y180985D01*
Y181207D01*
X701298D01*
Y181429D01*
X698859D01*
Y181650D01*
X698194D01*
Y181872D01*
Y182094D01*
Y182316D01*
X700633D01*
Y182094D01*
D02*
G37*
G36*
X704623Y188301D02*
X704845D01*
Y188079D01*
Y187858D01*
Y187636D01*
X705066D01*
Y187414D01*
X698637D01*
Y187636D01*
X699081D01*
Y187858D01*
Y188079D01*
Y188301D01*
X699302D01*
Y188079D01*
Y187858D01*
Y187636D01*
X704180D01*
Y187858D01*
X704401D01*
Y188079D01*
Y188301D01*
X704180D01*
Y188523D01*
X704623D01*
Y188301D01*
D02*
G37*
G36*
X699524Y188523D02*
Y188301D01*
X699302D01*
Y188523D01*
Y188744D01*
X699524D01*
Y188523D01*
D02*
G37*
G36*
X704180Y188966D02*
Y188744D01*
X703958D01*
Y188966D01*
Y189188D01*
X704180D01*
Y188966D01*
D02*
G37*
G36*
X705731Y186306D02*
X705510D01*
Y186084D01*
X705731D01*
Y185863D01*
X703736D01*
Y186084D01*
X703293D01*
Y186306D01*
X703071D01*
Y186528D01*
X705731D01*
Y186306D01*
D02*
G37*
G36*
X701076Y184089D02*
X701298D01*
Y183867D01*
X701519D01*
Y183646D01*
Y183424D01*
X701741D01*
Y183202D01*
X702184D01*
Y182981D01*
X702406D01*
Y182759D01*
X702628D01*
Y182537D01*
Y182316D01*
X702849D01*
Y182094D01*
X703514D01*
Y181872D01*
X703958D01*
Y181650D01*
X705066D01*
Y181429D01*
Y181207D01*
X705510D01*
Y180985D01*
X705731D01*
Y180764D01*
X703958D01*
Y180985D01*
X703736D01*
Y181207D01*
X703514D01*
Y181429D01*
X703293D01*
Y181650D01*
X703071D01*
Y181872D01*
X702849D01*
Y182094D01*
X702628D01*
Y182316D01*
X702406D01*
Y182537D01*
X702184D01*
Y182759D01*
X701741D01*
Y182981D01*
X701519D01*
Y183202D01*
X701298D01*
Y183424D01*
X701076D01*
Y183646D01*
X698194D01*
Y183867D01*
Y184089D01*
X698637D01*
Y184311D01*
X701076D01*
Y184089D01*
D02*
G37*
G36*
X707726Y185419D02*
X707948D01*
Y185197D01*
X708392D01*
Y184976D01*
X708613D01*
Y184754D01*
X708835D01*
Y184532D01*
X709278D01*
Y184311D01*
X709500D01*
Y184089D01*
X710165D01*
Y183867D01*
X710387D01*
Y183646D01*
Y183424D01*
X711052D01*
Y183202D01*
X711273D01*
Y182981D01*
X711495D01*
Y182759D01*
Y182537D01*
Y182316D01*
X711717D01*
Y182094D01*
Y181872D01*
X711938D01*
Y181650D01*
Y181429D01*
Y181207D01*
X712382D01*
Y180985D01*
X712160D01*
Y180764D01*
X712604D01*
Y180542D01*
Y180320D01*
Y180099D01*
X712825D01*
Y179877D01*
Y179655D01*
X713047D01*
Y179434D01*
Y179212D01*
Y178990D01*
X713490D01*
Y178769D01*
X713269D01*
Y178547D01*
X713712D01*
Y178325D01*
Y178104D01*
Y177882D01*
X713934D01*
Y177660D01*
Y177438D01*
X714155D01*
Y177217D01*
Y176995D01*
Y176774D01*
Y176552D01*
Y176330D01*
X713934D01*
Y176108D01*
Y175887D01*
Y175665D01*
Y175443D01*
Y175222D01*
Y175000D01*
Y174778D01*
Y174557D01*
Y174335D01*
Y174113D01*
Y173892D01*
X713712D01*
Y173670D01*
Y173448D01*
Y173226D01*
Y173005D01*
Y172783D01*
Y172562D01*
Y172340D01*
Y172118D01*
X713269D01*
Y171896D01*
Y171675D01*
Y171453D01*
Y171231D01*
X713490D01*
Y171010D01*
Y170788D01*
X713269D01*
Y171010D01*
X713047D01*
Y171231D01*
X712825D01*
Y171453D01*
Y171675D01*
X712604D01*
Y171896D01*
X712160D01*
Y172118D01*
X711938D01*
Y172340D01*
X711717D01*
Y172562D01*
Y172783D01*
X711495D01*
Y173005D01*
X711052D01*
Y173226D01*
X710830D01*
Y173448D01*
X710608D01*
Y173670D01*
Y173892D01*
X710387D01*
Y174113D01*
X709943D01*
Y174335D01*
X709722D01*
Y174557D01*
X709500D01*
Y174778D01*
Y175000D01*
X709278D01*
Y175222D01*
X708835D01*
Y175443D01*
X708613D01*
Y175665D01*
X708392D01*
Y175887D01*
Y176108D01*
X708170D01*
Y176330D01*
X707726D01*
Y176552D01*
X707505D01*
Y176774D01*
X707283D01*
Y176995D01*
Y177217D01*
X707061D01*
Y177438D01*
X706618D01*
Y177660D01*
X706396D01*
Y177882D01*
X706175D01*
Y178104D01*
Y178325D01*
Y178547D01*
Y178769D01*
Y178990D01*
Y179212D01*
Y179434D01*
Y179655D01*
Y179877D01*
Y180099D01*
Y180320D01*
Y180542D01*
Y180764D01*
Y180985D01*
Y181207D01*
Y181429D01*
Y181650D01*
Y181872D01*
Y182094D01*
Y182316D01*
Y182537D01*
Y182759D01*
Y182981D01*
Y183202D01*
Y183424D01*
Y183646D01*
Y183867D01*
Y184089D01*
Y184311D01*
Y184532D01*
Y184754D01*
Y184976D01*
X706396D01*
Y184754D01*
X706618D01*
Y184532D01*
X706840D01*
Y184311D01*
X707061D01*
Y184089D01*
Y183867D01*
X707283D01*
Y183646D01*
Y183424D01*
X707505D01*
Y183202D01*
Y182981D01*
X707948D01*
Y182759D01*
X708170D01*
Y182537D01*
Y182316D01*
Y182094D01*
X708392D01*
Y181872D01*
X708613D01*
Y181650D01*
X708835D01*
Y181429D01*
X709057D01*
Y181207D01*
X708835D01*
Y180985D01*
X709278D01*
Y180764D01*
X709943D01*
Y180985D01*
Y181207D01*
X709722D01*
Y181429D01*
X709500D01*
Y181650D01*
Y181872D01*
Y182094D01*
X709278D01*
Y182316D01*
X709057D01*
Y182537D01*
Y182759D01*
Y182981D01*
X708613D01*
Y183202D01*
X708835D01*
Y183424D01*
Y183646D01*
Y183867D01*
X708392D01*
Y184089D01*
Y184311D01*
X708170D01*
Y184532D01*
Y184754D01*
Y184976D01*
X707726D01*
Y185197D01*
X707505D01*
Y185419D01*
Y185641D01*
X707726D01*
Y185419D01*
D02*
G37*
G36*
X701741D02*
X702184D01*
Y185197D01*
X702406D01*
Y184976D01*
X702628D01*
Y184754D01*
Y184532D01*
X702849D01*
Y184311D01*
X703293D01*
Y184089D01*
X705731D01*
Y183867D01*
X705510D01*
Y183646D01*
Y183424D01*
Y183202D01*
X705731D01*
Y182981D01*
X704845D01*
Y182759D01*
X703736D01*
Y182981D01*
X703514D01*
Y183202D01*
X703071D01*
Y183424D01*
Y183646D01*
X702849D01*
Y183867D01*
X702628D01*
Y184089D01*
X702406D01*
Y184311D01*
X701963D01*
Y184532D01*
Y184754D01*
X701741D01*
Y184976D01*
X701519D01*
Y185197D01*
X699081D01*
Y185419D01*
X698637D01*
Y185641D01*
X701741D01*
Y185419D01*
D02*
G37*
G36*
X701519Y289938D02*
X701741D01*
Y289717D01*
X701963D01*
Y289495D01*
X702184D01*
Y289274D01*
X702628D01*
Y289052D01*
Y288830D01*
X703071D01*
Y288608D01*
X703293D01*
Y288387D01*
X703514D01*
Y288165D01*
X703736D01*
Y287943D01*
X707283D01*
Y287722D01*
X707061D01*
Y287500D01*
X706840D01*
Y287278D01*
Y287057D01*
X702849D01*
Y287278D01*
Y287500D01*
X702628D01*
Y287722D01*
X702184D01*
Y287943D01*
X701963D01*
Y288165D01*
X701741D01*
Y288387D01*
Y288608D01*
X701519D01*
Y288830D01*
X701076D01*
Y289052D01*
X700854D01*
Y289274D01*
X700633D01*
Y289495D01*
Y289717D01*
X697529D01*
Y289938D01*
X697972D01*
Y290160D01*
X701519D01*
Y289938D01*
D02*
G37*
G36*
X703736Y290160D02*
X704845D01*
Y289938D01*
X705953D01*
Y289717D01*
Y289495D01*
X705731D01*
Y289717D01*
X704845D01*
Y289495D01*
Y289274D01*
X704623D01*
Y289495D01*
X704401D01*
Y289717D01*
X704180D01*
Y289938D01*
X703736D01*
Y290160D01*
X703293D01*
Y290382D01*
X703736D01*
Y290160D01*
D02*
G37*
G36*
X700854Y292820D02*
X701076D01*
Y292599D01*
X701298D01*
Y292377D01*
X701519D01*
Y292155D01*
X701741D01*
Y291934D01*
X701963D01*
Y291712D01*
X702184D01*
Y291490D01*
X702406D01*
Y291269D01*
X698194D01*
Y291490D01*
Y291712D01*
Y291934D01*
Y292155D01*
Y292377D01*
Y292599D01*
X698859D01*
Y292820D01*
X699081D01*
Y293042D01*
X700854D01*
Y292820D01*
D02*
G37*
G36*
X700189Y287500D02*
Y287278D01*
X700411D01*
Y287057D01*
X700854D01*
Y286835D01*
X697086D01*
Y287057D01*
Y287278D01*
Y287500D01*
X696864D01*
Y287722D01*
X700189D01*
Y287500D01*
D02*
G37*
G36*
X702406Y283288D02*
X702184D01*
Y283066D01*
X702406D01*
Y282845D01*
Y282623D01*
X701963D01*
Y282401D01*
Y282180D01*
Y281958D01*
X701741D01*
Y282180D01*
Y282401D01*
Y282623D01*
X701519D01*
Y282845D01*
Y283066D01*
Y283288D01*
Y283510D01*
X702406D01*
Y283288D01*
D02*
G37*
G36*
X695977Y297476D02*
Y297254D01*
X695756D01*
Y297032D01*
Y296811D01*
X695312D01*
Y296589D01*
Y296367D01*
X695090D01*
Y296146D01*
Y295924D01*
Y295702D01*
X694869D01*
Y295481D01*
Y295259D01*
X694425D01*
Y295037D01*
X694647D01*
Y294816D01*
Y294594D01*
X694204D01*
Y294372D01*
Y294150D01*
Y293929D01*
X693982D01*
Y293707D01*
Y293485D01*
Y293264D01*
X694647D01*
Y293485D01*
X694869D01*
Y293707D01*
Y293929D01*
Y294150D01*
X695090D01*
Y294372D01*
X695312D01*
Y294594D01*
X695756D01*
Y294816D01*
Y295037D01*
Y295259D01*
X695977D01*
Y295481D01*
X696199D01*
Y295702D01*
Y295924D01*
X696421D01*
Y296146D01*
Y296367D01*
X696864D01*
Y296589D01*
Y296811D01*
X697086D01*
Y297032D01*
X697307D01*
Y296811D01*
Y296589D01*
Y296367D01*
Y296146D01*
Y295924D01*
X697529D01*
Y295702D01*
Y295481D01*
Y295259D01*
Y295037D01*
Y294816D01*
Y294594D01*
X697307D01*
Y294372D01*
Y294150D01*
X697529D01*
Y293929D01*
X697307D01*
Y293707D01*
Y293485D01*
Y293264D01*
X697529D01*
Y293042D01*
Y292820D01*
Y292599D01*
Y292377D01*
Y292155D01*
X697307D01*
Y291934D01*
Y291712D01*
Y291490D01*
X697529D01*
Y291269D01*
Y291047D01*
Y290825D01*
X697307D01*
Y290604D01*
Y290382D01*
Y290160D01*
X697086D01*
Y289938D01*
X696864D01*
Y289717D01*
X696642D01*
Y289495D01*
X696421D01*
Y289274D01*
X696199D01*
Y289052D01*
X695977D01*
Y288830D01*
X695756D01*
Y288608D01*
X695534D01*
Y288387D01*
X695312D01*
Y288165D01*
X695090D01*
Y287943D01*
X694869D01*
Y287722D01*
X694647D01*
Y287500D01*
X694425D01*
Y287278D01*
X694204D01*
Y287057D01*
X693982D01*
Y286835D01*
X693760D01*
Y286613D01*
X693539D01*
Y286392D01*
X693317D01*
Y286170D01*
X693095D01*
Y285948D01*
X692874D01*
Y285726D01*
X692652D01*
Y285505D01*
X692430D01*
Y285283D01*
X692209D01*
Y285062D01*
X691987D01*
Y284840D01*
X691765D01*
Y284618D01*
X691544D01*
Y284396D01*
X691322D01*
Y284175D01*
X691100D01*
Y283953D01*
X690878D01*
Y283731D01*
X690657D01*
Y283510D01*
X690435D01*
Y283731D01*
Y283953D01*
Y284175D01*
X690213D01*
Y284396D01*
Y284618D01*
Y284840D01*
Y285062D01*
Y285283D01*
Y285505D01*
Y285726D01*
Y285948D01*
X689770D01*
Y286170D01*
Y286392D01*
X689992D01*
Y286613D01*
Y286835D01*
Y287057D01*
Y287278D01*
Y287500D01*
Y287722D01*
Y287943D01*
Y288165D01*
X689548D01*
Y288387D01*
Y288608D01*
Y288830D01*
Y289052D01*
Y289274D01*
Y289495D01*
Y289717D01*
Y289938D01*
X689992D01*
Y290160D01*
X689770D01*
Y290382D01*
X690213D01*
Y290604D01*
Y290825D01*
Y291047D01*
X690435D01*
Y291269D01*
Y291490D01*
X690657D01*
Y291712D01*
Y291934D01*
Y292155D01*
X691100D01*
Y292377D01*
X690878D01*
Y292599D01*
X691322D01*
Y292820D01*
Y293042D01*
Y293264D01*
X691544D01*
Y293485D01*
Y293707D01*
X691765D01*
Y293929D01*
Y294150D01*
Y294372D01*
X692209D01*
Y294594D01*
X691987D01*
Y294816D01*
X692430D01*
Y295037D01*
Y295259D01*
Y295481D01*
X692652D01*
Y295702D01*
X692874D01*
Y295924D01*
X693317D01*
Y296146D01*
X693539D01*
Y296367D01*
X693760D01*
Y296589D01*
X694204D01*
Y296811D01*
X694425D01*
Y297032D01*
X695090D01*
Y297254D01*
Y297476D01*
X695312D01*
Y297697D01*
X695977D01*
Y297476D01*
D02*
G37*
G36*
X705953Y285726D02*
Y285505D01*
X698194D01*
Y285726D01*
X697751D01*
Y285948D01*
X705953D01*
Y285726D01*
D02*
G37*
G36*
X700633Y294594D02*
X701076D01*
Y294372D01*
X701298D01*
Y294150D01*
X701519D01*
Y293929D01*
Y293707D01*
X702184D01*
Y293485D01*
X702406D01*
Y293264D01*
X702628D01*
Y293042D01*
X702849D01*
Y292820D01*
Y292599D01*
X703293D01*
Y292377D01*
X703514D01*
Y292155D01*
X705731D01*
Y291934D01*
Y291712D01*
X705066D01*
Y291490D01*
X704845D01*
Y291269D01*
X703736D01*
Y291490D01*
X703514D01*
Y291712D01*
X703293D01*
Y291934D01*
X703071D01*
Y292155D01*
X702849D01*
Y292377D01*
X702628D01*
Y292599D01*
X702406D01*
Y292820D01*
X702184D01*
Y293042D01*
X701741D01*
Y293264D01*
X701519D01*
Y293485D01*
Y293707D01*
X701298D01*
Y293929D01*
X698859D01*
Y294150D01*
X698194D01*
Y294372D01*
Y294594D01*
Y294816D01*
X700633D01*
Y294594D01*
D02*
G37*
G36*
X704623Y300801D02*
X704845D01*
Y300579D01*
Y300358D01*
Y300136D01*
X705066D01*
Y299914D01*
X698637D01*
Y300136D01*
X699081D01*
Y300358D01*
Y300579D01*
Y300801D01*
X699302D01*
Y300579D01*
Y300358D01*
Y300136D01*
X704180D01*
Y300358D01*
X704401D01*
Y300579D01*
Y300801D01*
X704180D01*
Y301023D01*
X704623D01*
Y300801D01*
D02*
G37*
G36*
X699524Y301023D02*
Y300801D01*
X699302D01*
Y301023D01*
Y301244D01*
X699524D01*
Y301023D01*
D02*
G37*
G36*
X704180Y301466D02*
Y301244D01*
X703958D01*
Y301466D01*
Y301688D01*
X704180D01*
Y301466D01*
D02*
G37*
G36*
X705731Y298806D02*
X705510D01*
Y298584D01*
X705731D01*
Y298362D01*
X703736D01*
Y298584D01*
X703293D01*
Y298806D01*
X703071D01*
Y299028D01*
X705731D01*
Y298806D01*
D02*
G37*
G36*
X701076Y296589D02*
X701298D01*
Y296367D01*
X701519D01*
Y296146D01*
Y295924D01*
X701741D01*
Y295702D01*
X702184D01*
Y295481D01*
X702406D01*
Y295259D01*
X702628D01*
Y295037D01*
Y294816D01*
X702849D01*
Y294594D01*
X703514D01*
Y294372D01*
X703958D01*
Y294150D01*
X705066D01*
Y293929D01*
Y293707D01*
X705510D01*
Y293485D01*
X705731D01*
Y293264D01*
X703958D01*
Y293485D01*
X703736D01*
Y293707D01*
X703514D01*
Y293929D01*
X703293D01*
Y294150D01*
X703071D01*
Y294372D01*
X702849D01*
Y294594D01*
X702628D01*
Y294816D01*
X702406D01*
Y295037D01*
X702184D01*
Y295259D01*
X701741D01*
Y295481D01*
X701519D01*
Y295702D01*
X701298D01*
Y295924D01*
X701076D01*
Y296146D01*
X698194D01*
Y296367D01*
Y296589D01*
X698637D01*
Y296811D01*
X701076D01*
Y296589D01*
D02*
G37*
G36*
X707726Y297919D02*
X707948D01*
Y297697D01*
X708392D01*
Y297476D01*
X708613D01*
Y297254D01*
X708835D01*
Y297032D01*
X709278D01*
Y296811D01*
X709500D01*
Y296589D01*
X710165D01*
Y296367D01*
X710387D01*
Y296146D01*
Y295924D01*
X711052D01*
Y295702D01*
X711273D01*
Y295481D01*
X711495D01*
Y295259D01*
Y295037D01*
Y294816D01*
X711717D01*
Y294594D01*
Y294372D01*
X711938D01*
Y294150D01*
Y293929D01*
Y293707D01*
X712382D01*
Y293485D01*
X712160D01*
Y293264D01*
X712604D01*
Y293042D01*
Y292820D01*
Y292599D01*
X712825D01*
Y292377D01*
Y292155D01*
X713047D01*
Y291934D01*
Y291712D01*
Y291490D01*
X713490D01*
Y291269D01*
X713269D01*
Y291047D01*
X713712D01*
Y290825D01*
Y290604D01*
Y290382D01*
X713934D01*
Y290160D01*
Y289938D01*
X714155D01*
Y289717D01*
Y289495D01*
Y289274D01*
Y289052D01*
Y288830D01*
X713934D01*
Y288608D01*
Y288387D01*
Y288165D01*
Y287943D01*
Y287722D01*
Y287500D01*
Y287278D01*
Y287057D01*
Y286835D01*
Y286613D01*
Y286392D01*
X713712D01*
Y286170D01*
Y285948D01*
Y285726D01*
Y285505D01*
Y285283D01*
Y285062D01*
Y284840D01*
Y284618D01*
X713269D01*
Y284396D01*
Y284175D01*
Y283953D01*
Y283731D01*
X713490D01*
Y283510D01*
Y283288D01*
X713269D01*
Y283510D01*
X713047D01*
Y283731D01*
X712825D01*
Y283953D01*
Y284175D01*
X712604D01*
Y284396D01*
X712160D01*
Y284618D01*
X711938D01*
Y284840D01*
X711717D01*
Y285062D01*
Y285283D01*
X711495D01*
Y285505D01*
X711052D01*
Y285726D01*
X710830D01*
Y285948D01*
X710608D01*
Y286170D01*
Y286392D01*
X710387D01*
Y286613D01*
X709943D01*
Y286835D01*
X709722D01*
Y287057D01*
X709500D01*
Y287278D01*
Y287500D01*
X709278D01*
Y287722D01*
X708835D01*
Y287943D01*
X708613D01*
Y288165D01*
X708392D01*
Y288387D01*
Y288608D01*
X708170D01*
Y288830D01*
X707726D01*
Y289052D01*
X707505D01*
Y289274D01*
X707283D01*
Y289495D01*
Y289717D01*
X707061D01*
Y289938D01*
X706618D01*
Y290160D01*
X706396D01*
Y290382D01*
X706175D01*
Y290604D01*
Y290825D01*
Y291047D01*
Y291269D01*
Y291490D01*
Y291712D01*
Y291934D01*
Y292155D01*
Y292377D01*
Y292599D01*
Y292820D01*
Y293042D01*
Y293264D01*
Y293485D01*
Y293707D01*
Y293929D01*
Y294150D01*
Y294372D01*
Y294594D01*
Y294816D01*
Y295037D01*
Y295259D01*
Y295481D01*
Y295702D01*
Y295924D01*
Y296146D01*
Y296367D01*
Y296589D01*
Y296811D01*
Y297032D01*
Y297254D01*
Y297476D01*
X706396D01*
Y297254D01*
X706618D01*
Y297032D01*
X706840D01*
Y296811D01*
X707061D01*
Y296589D01*
Y296367D01*
X707283D01*
Y296146D01*
Y295924D01*
X707505D01*
Y295702D01*
Y295481D01*
X707948D01*
Y295259D01*
X708170D01*
Y295037D01*
Y294816D01*
Y294594D01*
X708392D01*
Y294372D01*
X708613D01*
Y294150D01*
X708835D01*
Y293929D01*
X709057D01*
Y293707D01*
X708835D01*
Y293485D01*
X709278D01*
Y293264D01*
X709943D01*
Y293485D01*
Y293707D01*
X709722D01*
Y293929D01*
X709500D01*
Y294150D01*
Y294372D01*
Y294594D01*
X709278D01*
Y294816D01*
X709057D01*
Y295037D01*
Y295259D01*
Y295481D01*
X708613D01*
Y295702D01*
X708835D01*
Y295924D01*
Y296146D01*
Y296367D01*
X708392D01*
Y296589D01*
Y296811D01*
X708170D01*
Y297032D01*
Y297254D01*
Y297476D01*
X707726D01*
Y297697D01*
X707505D01*
Y297919D01*
Y298141D01*
X707726D01*
Y297919D01*
D02*
G37*
G36*
X701741D02*
X702184D01*
Y297697D01*
X702406D01*
Y297476D01*
X702628D01*
Y297254D01*
Y297032D01*
X702849D01*
Y296811D01*
X703293D01*
Y296589D01*
X705731D01*
Y296367D01*
X705510D01*
Y296146D01*
Y295924D01*
Y295702D01*
X705731D01*
Y295481D01*
X704845D01*
Y295259D01*
X703736D01*
Y295481D01*
X703514D01*
Y295702D01*
X703071D01*
Y295924D01*
Y296146D01*
X702849D01*
Y296367D01*
X702628D01*
Y296589D01*
X702406D01*
Y296811D01*
X701963D01*
Y297032D01*
Y297254D01*
X701741D01*
Y297476D01*
X701519D01*
Y297697D01*
X699081D01*
Y297919D01*
X698637D01*
Y298141D01*
X701741D01*
Y297919D01*
D02*
G37*
D15*
X190000Y138000D02*
G03*
X190000Y138000I0J190000D01*
G01*
X205501Y487998D02*
X206501Y488998D01*
X208500D01*
X209500Y487998D01*
Y484000D01*
X208500Y483000D01*
X206501D01*
X205501Y484000D01*
X203502Y488998D02*
Y483000D01*
Y485999D01*
X202502Y486999D01*
X200503D01*
X199503Y485999D01*
Y483000D01*
X194505D02*
X196504D01*
X197504Y484000D01*
Y485999D01*
X196504Y486999D01*
X194505D01*
X193505Y485999D01*
Y484999D01*
X197504D01*
X188507Y483000D02*
X190506D01*
X191506Y484000D01*
Y485999D01*
X190506Y486999D01*
X188507D01*
X187507Y485999D01*
Y484999D01*
X191506D01*
X184508Y487998D02*
Y486999D01*
X185508D01*
X183508D01*
X184508D01*
Y484000D01*
X183508Y483000D01*
X179510Y486999D02*
X177510D01*
X176511Y485999D01*
Y483000D01*
X179510D01*
X180509Y484000D01*
X179510Y484999D01*
X176511D01*
X174511Y488998D02*
Y483000D01*
Y485999D01*
X173512Y486999D01*
X171512D01*
X170513Y485999D01*
Y483000D01*
X241050Y216252D02*
Y222250D01*
Y219251D01*
X245049D01*
Y216252D01*
Y222250D01*
X247048D02*
X249047D01*
X248048D01*
Y216252D01*
X247048Y217252D01*
X161750Y216252D02*
Y222250D01*
Y219251D01*
X165749D01*
Y216252D01*
Y222250D01*
X171747D02*
X167748D01*
X171747Y218251D01*
Y217252D01*
X170747Y216252D01*
X168748D01*
X167748Y217252D01*
X82450Y216252D02*
Y222250D01*
Y219251D01*
X86449D01*
Y216252D01*
Y222250D01*
X88448Y217252D02*
X89448Y216252D01*
X91447D01*
X92447Y217252D01*
Y218251D01*
X91447Y219251D01*
X90447D01*
X91447D01*
X92447Y220251D01*
Y221250D01*
X91447Y222250D01*
X89448D01*
X88448Y221250D01*
X248500Y178500D02*
X254498D01*
Y181499D01*
X253498Y182499D01*
X251499D01*
X250499Y181499D01*
Y178500D01*
X254498Y187497D02*
Y185498D01*
X253498Y184498D01*
X249500D01*
X248500Y185498D01*
Y187497D01*
X249500Y188497D01*
X253498D01*
X254498Y187497D01*
Y190496D02*
X248500D01*
X250499Y192496D01*
X248500Y194495D01*
X254498D01*
Y200493D02*
Y196494D01*
X248500D01*
Y200493D01*
X251499Y196494D02*
Y198494D01*
X248500Y202492D02*
X254498D01*
Y205491D01*
X253498Y206491D01*
X251499D01*
X250499Y205491D01*
Y202492D01*
Y204492D02*
X248500Y206491D01*
X920000Y138000D02*
G03*
X920000Y138000I0J190000D01*
G01*
X935501Y487998D02*
X936501Y488998D01*
X938500D01*
X939500Y487998D01*
Y484000D01*
X938500Y483000D01*
X936501D01*
X935501Y484000D01*
X933502Y488998D02*
Y483000D01*
Y485999D01*
X932502Y486999D01*
X930503D01*
X929503Y485999D01*
Y483000D01*
X924505D02*
X926504D01*
X927504Y484000D01*
Y485999D01*
X926504Y486999D01*
X924505D01*
X923505Y485999D01*
Y484999D01*
X927504D01*
X918507Y483000D02*
X920506D01*
X921506Y484000D01*
Y485999D01*
X920506Y486999D01*
X918507D01*
X917507Y485999D01*
Y484999D01*
X921506D01*
X914508Y487998D02*
Y486999D01*
X915508D01*
X913508D01*
X914508D01*
Y484000D01*
X913508Y483000D01*
X909510Y486999D02*
X907510D01*
X906511Y485999D01*
Y483000D01*
X909510D01*
X910509Y484000D01*
X909510Y484999D01*
X906511D01*
X904511Y488998D02*
Y483000D01*
Y485999D01*
X903512Y486999D01*
X901512D01*
X900513Y485999D01*
Y483000D01*
X971050Y216252D02*
Y222250D01*
Y219251D01*
X975049D01*
Y216252D01*
Y222250D01*
X977048D02*
X979047D01*
X978048D01*
Y216252D01*
X977048Y217252D01*
X891750Y216252D02*
Y222250D01*
Y219251D01*
X895749D01*
Y216252D01*
Y222250D01*
X901747D02*
X897748D01*
X901747Y218251D01*
Y217252D01*
X900747Y216252D01*
X898748D01*
X897748Y217252D01*
X812450Y216252D02*
Y222250D01*
Y219251D01*
X816449D01*
Y216252D01*
Y222250D01*
X818448Y217252D02*
X819448Y216252D01*
X821447D01*
X822447Y217252D01*
Y218251D01*
X821447Y219251D01*
X820447D01*
X821447D01*
X822447Y220251D01*
Y221250D01*
X821447Y222250D01*
X819448D01*
X818448Y221250D01*
X978500Y178500D02*
X984498D01*
Y181499D01*
X983498Y182499D01*
X981499D01*
X980499Y181499D01*
Y178500D01*
X984498Y187497D02*
Y185498D01*
X983498Y184498D01*
X979500D01*
X978500Y185498D01*
Y187497D01*
X979500Y188497D01*
X983498D01*
X984498Y187497D01*
Y190496D02*
X978500D01*
X980499Y192496D01*
X978500Y194495D01*
X984498D01*
Y200493D02*
Y196494D01*
X978500D01*
Y200493D01*
X981499Y196494D02*
Y198494D01*
X978500Y202492D02*
X984498D01*
Y205491D01*
X983498Y206491D01*
X981499D01*
X980499Y205491D01*
Y202492D01*
Y204492D02*
X978500Y206491D01*
X392500Y265500D02*
X717500D01*
Y165500D02*
Y265500D01*
X392500Y165500D02*
X717500D01*
X392500D02*
Y265500D01*
X442498Y199999D02*
X443498Y198999D01*
Y197000D01*
X442498Y196000D01*
X438500D01*
X437500Y197000D01*
Y198999D01*
X438500Y199999D01*
X443498Y201998D02*
X437500D01*
X440499D01*
X441499Y202998D01*
Y204997D01*
X440499Y205997D01*
X437500D01*
Y210995D02*
Y208996D01*
X438500Y207996D01*
X440499D01*
X441499Y208996D01*
Y210995D01*
X440499Y211995D01*
X439499D01*
Y207996D01*
X437500Y216993D02*
Y214994D01*
X438500Y213994D01*
X440499D01*
X441499Y214994D01*
Y216993D01*
X440499Y217993D01*
X439499D01*
Y213994D01*
X442498Y220992D02*
X441499D01*
Y219992D01*
Y221992D01*
Y220992D01*
X438500D01*
X437500Y221992D01*
X441499Y225990D02*
Y227990D01*
X440499Y228989D01*
X437500D01*
Y225990D01*
X438500Y224991D01*
X439499Y225990D01*
Y228989D01*
X443498Y230989D02*
X437500D01*
X440499D01*
X441499Y231988D01*
Y233988D01*
X440499Y234987D01*
X437500D01*
X649500Y245500D02*
Y249998D01*
X647251D01*
X646501Y249249D01*
Y247749D01*
X647251Y247000D01*
X649500D01*
X648000D02*
X646501Y245500D01*
X645002Y249998D02*
Y245500D01*
X642002D01*
X637504Y249998D02*
X640503D01*
Y247749D01*
X639003Y248499D01*
X638254D01*
X637504Y247749D01*
Y246250D01*
X638254Y245500D01*
X639753D01*
X640503Y246250D01*
X649500Y253000D02*
Y257499D01*
X647251D01*
X646501Y256749D01*
Y255249D01*
X647251Y254500D01*
X649500D01*
X648000D02*
X646501Y253000D01*
X645002Y257499D02*
Y253000D01*
X642002D01*
X638254D02*
Y257499D01*
X640503Y255249D01*
X637504D01*
X660000Y214000D02*
X664499D01*
Y216249D01*
X663749Y216999D01*
X662249D01*
X661500Y216249D01*
Y214000D01*
Y215499D02*
X660000Y216999D01*
X664499Y218498D02*
X660000D01*
Y221498D01*
X663749Y222997D02*
X664499Y223747D01*
Y225246D01*
X663749Y225996D01*
X662999D01*
X662249Y225246D01*
Y224497D01*
Y225246D01*
X661500Y225996D01*
X660750D01*
X660000Y225246D01*
Y223747D01*
X660750Y222997D01*
X652000Y214000D02*
X656498D01*
Y216249D01*
X655749Y216999D01*
X654249D01*
X653500Y216249D01*
Y214000D01*
Y215499D02*
X652000Y216999D01*
X656498Y218498D02*
X652000D01*
Y221498D01*
Y225996D02*
Y222997D01*
X654999Y225996D01*
X655749D01*
X656498Y225246D01*
Y223747D01*
X655749Y222997D01*
X700500Y257000D02*
Y261498D01*
X698251D01*
X697501Y260749D01*
Y259249D01*
X698251Y258500D01*
X700500D01*
X693752Y261498D02*
X695252D01*
X696001Y260749D01*
Y257750D01*
X695252Y257000D01*
X693752D01*
X693002Y257750D01*
Y260749D01*
X693752Y261498D01*
X691503D02*
Y257000D01*
X690003Y258500D01*
X688504Y257000D01*
Y261498D01*
X684005D02*
X687004D01*
Y257000D01*
X684005D01*
X687004Y259249D02*
X685505D01*
X682506Y257000D02*
Y261498D01*
X680257D01*
X679507Y260749D01*
Y259249D01*
X680257Y258500D01*
X682506D01*
X681006D02*
X679507Y257000D01*
X697498Y220499D02*
Y216500D01*
X694499D01*
X695499Y218499D01*
Y219499D01*
X694499Y220499D01*
X692500D01*
X691500Y219499D01*
Y217500D01*
X692500Y216500D01*
X697498Y222498D02*
X693499D01*
X691500Y224497D01*
X693499Y226497D01*
X697498D01*
X684499Y205500D02*
Y209499D01*
X681500Y211498D02*
Y213497D01*
Y212498D01*
X687498D01*
X686498Y211498D01*
X681500Y220495D02*
Y216496D01*
X685499Y220495D01*
X686498D01*
X687498Y219496D01*
Y217496D01*
X686498Y216496D01*
X687498Y222495D02*
X683499D01*
X681500Y224494D01*
X683499Y226493D01*
X687498D01*
X673999Y205480D02*
Y209479D01*
X675998Y207480D02*
X672000D01*
X671000Y211478D02*
Y213478D01*
Y212478D01*
X676998D01*
X675998Y211478D01*
X671000Y220476D02*
Y216477D01*
X674999Y220476D01*
X675998D01*
X676998Y219476D01*
Y217476D01*
X675998Y216477D01*
X676998Y222475D02*
X672999D01*
X671000Y224474D01*
X672999Y226473D01*
X676998D01*
X706498Y214499D02*
X707498Y213499D01*
Y211500D01*
X706498Y210500D01*
X702500D01*
X701500Y211500D01*
Y213499D01*
X702500Y214499D01*
X704499D01*
Y212499D01*
X701500Y216498D02*
X707498D01*
X701500Y220497D01*
X707498D01*
Y222496D02*
X701500D01*
Y225495D01*
X702500Y226495D01*
X706498D01*
X707498Y225495D01*
Y222496D01*
X392500Y378000D02*
X717500D01*
Y278000D02*
Y378000D01*
X392500Y278000D02*
X717500D01*
X392500D02*
Y378000D01*
X442498Y312499D02*
X443498Y311499D01*
Y309500D01*
X442498Y308500D01*
X438500D01*
X437500Y309500D01*
Y311499D01*
X438500Y312499D01*
X443498Y314498D02*
X437500D01*
X440499D01*
X441499Y315498D01*
Y317497D01*
X440499Y318497D01*
X437500D01*
Y323495D02*
Y321496D01*
X438500Y320496D01*
X440499D01*
X441499Y321496D01*
Y323495D01*
X440499Y324495D01*
X439499D01*
Y320496D01*
X437500Y329493D02*
Y327494D01*
X438500Y326494D01*
X440499D01*
X441499Y327494D01*
Y329493D01*
X440499Y330493D01*
X439499D01*
Y326494D01*
X442498Y333492D02*
X441499D01*
Y332492D01*
Y334492D01*
Y333492D01*
X438500D01*
X437500Y334492D01*
X441499Y338490D02*
Y340490D01*
X440499Y341489D01*
X437500D01*
Y338490D01*
X438500Y337491D01*
X439499Y338490D01*
Y341489D01*
X443498Y343489D02*
X437500D01*
X440499D01*
X441499Y344488D01*
Y346488D01*
X440499Y347487D01*
X437500D01*
X649500Y358000D02*
Y362498D01*
X647251D01*
X646501Y361749D01*
Y360249D01*
X647251Y359500D01*
X649500D01*
X648000D02*
X646501Y358000D01*
X645002Y362498D02*
Y358000D01*
X642002D01*
X637504Y362498D02*
X640503D01*
Y360249D01*
X639003Y360999D01*
X638254D01*
X637504Y360249D01*
Y358750D01*
X638254Y358000D01*
X639753D01*
X640503Y358750D01*
X649500Y365500D02*
Y369999D01*
X647251D01*
X646501Y369249D01*
Y367749D01*
X647251Y367000D01*
X649500D01*
X648000D02*
X646501Y365500D01*
X645002Y369999D02*
Y365500D01*
X642002D01*
X638254D02*
Y369999D01*
X640503Y367749D01*
X637504D01*
X660000Y326500D02*
X664499D01*
Y328749D01*
X663749Y329499D01*
X662249D01*
X661500Y328749D01*
Y326500D01*
Y327999D02*
X660000Y329499D01*
X664499Y330998D02*
X660000D01*
Y333998D01*
X663749Y335497D02*
X664499Y336247D01*
Y337746D01*
X663749Y338496D01*
X662999D01*
X662249Y337746D01*
Y336997D01*
Y337746D01*
X661500Y338496D01*
X660750D01*
X660000Y337746D01*
Y336247D01*
X660750Y335497D01*
X652000Y326500D02*
X656498D01*
Y328749D01*
X655749Y329499D01*
X654249D01*
X653500Y328749D01*
Y326500D01*
Y327999D02*
X652000Y329499D01*
X656498Y330998D02*
X652000D01*
Y333998D01*
Y338496D02*
Y335497D01*
X654999Y338496D01*
X655749D01*
X656498Y337746D01*
Y336247D01*
X655749Y335497D01*
X700500Y369500D02*
Y373998D01*
X698251D01*
X697501Y373249D01*
Y371749D01*
X698251Y371000D01*
X700500D01*
X693752Y373998D02*
X695252D01*
X696001Y373249D01*
Y370250D01*
X695252Y369500D01*
X693752D01*
X693002Y370250D01*
Y373249D01*
X693752Y373998D01*
X691503D02*
Y369500D01*
X690003Y371000D01*
X688504Y369500D01*
Y373998D01*
X684005D02*
X687004D01*
Y369500D01*
X684005D01*
X687004Y371749D02*
X685505D01*
X682506Y369500D02*
Y373998D01*
X680257D01*
X679507Y373249D01*
Y371749D01*
X680257Y371000D01*
X682506D01*
X681006D02*
X679507Y369500D01*
X697498Y332999D02*
Y329000D01*
X694499D01*
X695499Y330999D01*
Y331999D01*
X694499Y332999D01*
X692500D01*
X691500Y331999D01*
Y330000D01*
X692500Y329000D01*
X697498Y334998D02*
X693499D01*
X691500Y336997D01*
X693499Y338997D01*
X697498D01*
X684499Y318000D02*
Y321999D01*
X681500Y323998D02*
Y325997D01*
Y324998D01*
X687498D01*
X686498Y323998D01*
X681500Y332995D02*
Y328996D01*
X685499Y332995D01*
X686498D01*
X687498Y331996D01*
Y329996D01*
X686498Y328996D01*
X687498Y334995D02*
X683499D01*
X681500Y336994D01*
X683499Y338993D01*
X687498D01*
X673999Y317980D02*
Y321979D01*
X675998Y319980D02*
X672000D01*
X671000Y323978D02*
Y325978D01*
Y324978D01*
X676998D01*
X675998Y323978D01*
X671000Y332976D02*
Y328977D01*
X674999Y332976D01*
X675998D01*
X676998Y331976D01*
Y329976D01*
X675998Y328977D01*
X676998Y334975D02*
X672999D01*
X671000Y336974D01*
X672999Y338973D01*
X676998D01*
X706498Y326999D02*
X707498Y325999D01*
Y324000D01*
X706498Y323000D01*
X702500D01*
X701500Y324000D01*
Y325999D01*
X702500Y326999D01*
X704499D01*
Y324999D01*
X701500Y328998D02*
X707498D01*
X701500Y332997D01*
X707498D01*
Y334996D02*
X701500D01*
Y337995D01*
X702500Y338995D01*
X706498D01*
X707498Y337995D01*
Y334996D01*
D39*
X228500Y212000D02*
X238500D01*
X228500D02*
Y172000D01*
X238500Y212000D02*
Y172000D01*
X228500D02*
X238500D01*
X165500Y478500D02*
X215500D01*
X165500Y458500D02*
X215500D01*
X165500Y478500D02*
Y458500D01*
X215500Y478500D02*
Y458500D01*
X958500Y212000D02*
X968500D01*
X958500D02*
Y172000D01*
X968500Y212000D02*
Y172000D01*
X958500D02*
X968500D01*
X895500Y478500D02*
X945500D01*
X895500Y458500D02*
X945500D01*
X895500Y478500D02*
Y458500D01*
X945500Y478500D02*
Y458500D01*
X669500Y244500D02*
Y254500D01*
Y244500D02*
X709500D01*
X669500Y254500D02*
X709500D01*
Y244500D02*
Y254500D01*
X413500Y190500D02*
Y240500D01*
X433500Y190500D02*
Y240500D01*
X413500Y190500D02*
X433500D01*
X413500Y240500D02*
X433500D01*
X669500Y357000D02*
Y367000D01*
Y357000D02*
X709500D01*
X669500Y367000D02*
X709500D01*
Y357000D02*
Y367000D01*
X413500Y303000D02*
Y353000D01*
X433500Y303000D02*
Y353000D01*
X413500Y303000D02*
X433500D01*
X413500Y353000D02*
X433500D01*
D40*
X198832Y184502D02*
X195500D01*
Y187001D01*
X197166Y186168D01*
X197999D01*
X198832Y187001D01*
Y188667D01*
X197999Y189500D01*
X196333D01*
X195500Y188667D01*
X200498Y184502D02*
Y187834D01*
X202165Y189500D01*
X203831Y187834D01*
Y184502D01*
X211332Y218335D02*
X210499Y217502D01*
X208833D01*
X208000Y218335D01*
Y221667D01*
X208833Y222500D01*
X210499D01*
X211332Y221667D01*
X212998Y222500D02*
Y217502D01*
X215498D01*
X216331Y218335D01*
Y220001D01*
X215498Y220834D01*
X212998D01*
X217997Y222500D02*
X219663D01*
X218830D01*
Y217502D01*
X217997Y218335D01*
X284332Y205335D02*
X283499Y204502D01*
X281833D01*
X281000Y205335D01*
Y208667D01*
X281833Y209500D01*
X283499D01*
X284332Y208667D01*
X285998Y209500D02*
Y204502D01*
X288498D01*
X289331Y205335D01*
Y207001D01*
X288498Y207834D01*
X285998D01*
X294329Y209500D02*
X290997D01*
X294329Y206168D01*
Y205335D01*
X293496Y204502D01*
X291830D01*
X290997Y205335D01*
X284532Y188335D02*
X283699Y187502D01*
X282033D01*
X281200Y188335D01*
Y191667D01*
X282033Y192500D01*
X283699D01*
X284532Y191667D01*
X286198Y192500D02*
Y187502D01*
X288698D01*
X289531Y188335D01*
Y190001D01*
X288698Y190834D01*
X286198D01*
X291197Y188335D02*
X292030Y187502D01*
X293696D01*
X294529Y188335D01*
Y189168D01*
X293696Y190001D01*
X292863D01*
X293696D01*
X294529Y190834D01*
Y191667D01*
X293696Y192500D01*
X292030D01*
X291197Y191667D01*
X225500Y461000D02*
X223834D01*
X224667D01*
Y465998D01*
X225500Y465165D01*
X221335D02*
X220502Y465998D01*
X218835D01*
X218002Y465165D01*
Y461833D01*
X218835Y461000D01*
X220502D01*
X221335Y461833D01*
Y465165D01*
X221500Y471833D02*
X220667Y471000D01*
X219001D01*
X218168Y471833D01*
Y475165D01*
X219001Y475998D01*
X220667D01*
X221500Y475165D01*
Y474332D01*
X220667Y473499D01*
X218168D01*
X163000Y472000D02*
X161334D01*
X162167D01*
Y476998D01*
X163000Y476165D01*
X160168Y461000D02*
X163500D01*
X160168Y464332D01*
Y465165D01*
X161001Y465998D01*
X162667D01*
X163500Y465165D01*
X193998Y175335D02*
X193165Y174502D01*
X191498D01*
X190665Y175335D01*
Y178667D01*
X191498Y179500D01*
X193165D01*
X193998Y178667D01*
Y177001D01*
X192331D01*
X195664Y179500D02*
Y174502D01*
X198996Y179500D01*
Y174502D01*
X200662D02*
Y179500D01*
X203161D01*
X203994Y178667D01*
Y175335D01*
X203161Y174502D01*
X200662D01*
X186500Y207001D02*
X189832D01*
X188166Y205335D02*
Y208667D01*
X191498Y209500D02*
X193165D01*
X192331D01*
Y204502D01*
X191498Y205335D01*
X198996Y209500D02*
X195664D01*
X198996Y206168D01*
Y205335D01*
X198163Y204502D01*
X196497D01*
X195664Y205335D01*
X200662Y204502D02*
Y207834D01*
X202328Y209500D01*
X203994Y207834D01*
Y204502D01*
X186500Y197001D02*
X189832D01*
X191498Y199500D02*
X193165D01*
X192331D01*
Y194502D01*
X191498Y195335D01*
X198996Y199500D02*
X195664D01*
X198996Y196168D01*
Y195335D01*
X198163Y194502D01*
X196497D01*
X195664Y195335D01*
X200662Y194502D02*
Y197834D01*
X202328Y199500D01*
X203994Y197834D01*
Y194502D01*
X928832Y184502D02*
X925500D01*
Y187001D01*
X927166Y186168D01*
X927999D01*
X928832Y187001D01*
Y188667D01*
X927999Y189500D01*
X926333D01*
X925500Y188667D01*
X930498Y184502D02*
Y187834D01*
X932164Y189500D01*
X933831Y187834D01*
Y184502D01*
X941332Y218335D02*
X940499Y217502D01*
X938833D01*
X938000Y218335D01*
Y221667D01*
X938833Y222500D01*
X940499D01*
X941332Y221667D01*
X942998Y222500D02*
Y217502D01*
X945498D01*
X946331Y218335D01*
Y220001D01*
X945498Y220834D01*
X942998D01*
X947997Y222500D02*
X949663D01*
X948830D01*
Y217502D01*
X947997Y218335D01*
X1014332Y205335D02*
X1013499Y204502D01*
X1011833D01*
X1011000Y205335D01*
Y208667D01*
X1011833Y209500D01*
X1013499D01*
X1014332Y208667D01*
X1015998Y209500D02*
Y204502D01*
X1018498D01*
X1019331Y205335D01*
Y207001D01*
X1018498Y207834D01*
X1015998D01*
X1024329Y209500D02*
X1020997D01*
X1024329Y206168D01*
Y205335D01*
X1023496Y204502D01*
X1021830D01*
X1020997Y205335D01*
X1014532Y188335D02*
X1013699Y187502D01*
X1012033D01*
X1011200Y188335D01*
Y191667D01*
X1012033Y192500D01*
X1013699D01*
X1014532Y191667D01*
X1016198Y192500D02*
Y187502D01*
X1018698D01*
X1019531Y188335D01*
Y190001D01*
X1018698Y190834D01*
X1016198D01*
X1021197Y188335D02*
X1022030Y187502D01*
X1023696D01*
X1024529Y188335D01*
Y189168D01*
X1023696Y190001D01*
X1022863D01*
X1023696D01*
X1024529Y190834D01*
Y191667D01*
X1023696Y192500D01*
X1022030D01*
X1021197Y191667D01*
X955500Y461000D02*
X953834D01*
X954667D01*
Y465998D01*
X955500Y465165D01*
X951335D02*
X950502Y465998D01*
X948835D01*
X948002Y465165D01*
Y461833D01*
X948835Y461000D01*
X950502D01*
X951335Y461833D01*
Y465165D01*
X951500Y471833D02*
X950667Y471000D01*
X949001D01*
X948168Y471833D01*
Y475165D01*
X949001Y475998D01*
X950667D01*
X951500Y475165D01*
Y474332D01*
X950667Y473499D01*
X948168D01*
X893000Y472000D02*
X891334D01*
X892167D01*
Y476998D01*
X893000Y476165D01*
X890168Y461000D02*
X893500D01*
X890168Y464332D01*
Y465165D01*
X891001Y465998D01*
X892667D01*
X893500Y465165D01*
X923998Y175335D02*
X923164Y174502D01*
X921498D01*
X920665Y175335D01*
Y178667D01*
X921498Y179500D01*
X923164D01*
X923998Y178667D01*
Y177001D01*
X922332D01*
X925664Y179500D02*
Y174502D01*
X928996Y179500D01*
Y174502D01*
X930662D02*
Y179500D01*
X933161D01*
X933994Y178667D01*
Y175335D01*
X933161Y174502D01*
X930662D01*
X916500Y207001D02*
X919832D01*
X918166Y205335D02*
Y208667D01*
X921498Y209500D02*
X923164D01*
X922331D01*
Y204502D01*
X921498Y205335D01*
X928996Y209500D02*
X925664D01*
X928996Y206168D01*
Y205335D01*
X928163Y204502D01*
X926497D01*
X925664Y205335D01*
X930662Y204502D02*
Y207834D01*
X932328Y209500D01*
X933994Y207834D01*
Y204502D01*
X916500Y197001D02*
X919832D01*
X921498Y199500D02*
X923164D01*
X922331D01*
Y194502D01*
X921498Y195335D01*
X928996Y199500D02*
X925664D01*
X928996Y196168D01*
Y195335D01*
X928163Y194502D01*
X926497D01*
X925664Y195335D01*
X930662Y194502D02*
Y197834D01*
X932328Y199500D01*
X933994Y197834D01*
Y194502D01*
X426500Y188832D02*
Y185500D01*
X429832Y188832D01*
X430665D01*
X431498Y187999D01*
Y186333D01*
X430665Y185500D01*
X416500Y187500D02*
Y189166D01*
Y188333D01*
X421498D01*
X420665Y187500D01*
X417333Y242000D02*
X416500Y242833D01*
Y244499D01*
X417333Y245332D01*
X420665D01*
X421498Y244499D01*
Y242833D01*
X420665Y242000D01*
X419832D01*
X418999Y242833D01*
Y245332D01*
X426500Y242000D02*
Y243666D01*
Y242833D01*
X431498D01*
X430665Y242000D01*
Y246165D02*
X431498Y246998D01*
Y248664D01*
X430665Y249498D01*
X427333D01*
X426500Y248664D01*
Y246998D01*
X427333Y246165D01*
X430665D01*
X426500Y301332D02*
Y298000D01*
X429832Y301332D01*
X430665D01*
X431498Y300499D01*
Y298833D01*
X430665Y298000D01*
X416500Y300000D02*
Y301666D01*
Y300833D01*
X421498D01*
X420665Y300000D01*
X417333Y354500D02*
X416500Y355333D01*
Y356999D01*
X417333Y357832D01*
X420665D01*
X421498Y356999D01*
Y355333D01*
X420665Y354500D01*
X419832D01*
X418999Y355333D01*
Y357832D01*
X426500Y354500D02*
Y356166D01*
Y355333D01*
X431498D01*
X430665Y354500D01*
Y358665D02*
X431498Y359498D01*
Y361164D01*
X430665Y361998D01*
X427333D01*
X426500Y361164D01*
Y359498D01*
X427333Y358665D01*
X430665D01*
D44*
X483113Y89807D02*
X491444D01*
X493110Y88141D01*
Y84809D01*
X491444Y83143D01*
X483113D01*
X484780Y73146D02*
X483113Y74812D01*
Y78144D01*
X484780Y79810D01*
X486446D01*
X488112Y78144D01*
Y74812D01*
X489778Y73146D01*
X491444D01*
X493110Y74812D01*
Y78144D01*
X491444Y79810D01*
X484780Y63149D02*
X483113Y64815D01*
Y68147D01*
X484780Y69814D01*
X491444D01*
X493110Y68147D01*
Y64815D01*
X491444Y63149D01*
X483113Y480807D02*
X491444D01*
X493110Y479141D01*
Y475809D01*
X491444Y474143D01*
X483113D01*
X484780Y464146D02*
X483113Y465812D01*
Y469144D01*
X484780Y470810D01*
X486446D01*
X488112Y469144D01*
Y465812D01*
X489778Y464146D01*
X491444D01*
X493110Y465812D01*
Y469144D01*
X491444Y470810D01*
X484780Y454149D02*
X483113Y455815D01*
Y459147D01*
X484780Y460814D01*
X491444D01*
X493110Y459147D01*
Y455815D01*
X491444Y454149D01*
X273497Y422000D02*
X263500D01*
X268498D01*
Y428664D01*
X273497D01*
X263500D01*
Y431997D02*
Y435329D01*
Y433663D01*
X273497D01*
X271831Y431997D01*
X194497Y422000D02*
X184500D01*
X189498D01*
Y428664D01*
X194497D01*
X184500D01*
Y438661D02*
Y431997D01*
X191165Y438661D01*
X192831D01*
X194497Y436995D01*
Y433663D01*
X192831Y431997D01*
X117497Y421000D02*
X107500D01*
X112498D01*
Y427665D01*
X117497D01*
X107500D01*
X115831Y430997D02*
X117497Y432663D01*
Y435995D01*
X115831Y437661D01*
X114164D01*
X112498Y435995D01*
Y434329D01*
Y435995D01*
X110832Y437661D01*
X109166D01*
X107500Y435995D01*
Y432663D01*
X109166Y430997D01*
X339497Y269000D02*
X331166D01*
X329500Y270666D01*
Y273998D01*
X331166Y275664D01*
X339497D01*
X337831Y285661D02*
X339497Y283995D01*
Y280663D01*
X337831Y278997D01*
X336164D01*
X334498Y280663D01*
Y283995D01*
X332832Y285661D01*
X331166D01*
X329500Y283995D01*
Y280663D01*
X331166Y278997D01*
X337831Y295658D02*
X339497Y293992D01*
Y290660D01*
X337831Y288994D01*
X331166D01*
X329500Y290660D01*
Y293992D01*
X331166Y295658D01*
X329500Y308987D02*
X339497D01*
Y313985D01*
X337831Y315652D01*
X334498D01*
X332832Y313985D01*
Y308987D01*
Y312319D02*
X329500Y315652D01*
Y320650D02*
Y323982D01*
X331166Y325648D01*
X334498D01*
X336164Y323982D01*
Y320650D01*
X334498Y318984D01*
X331166D01*
X329500Y320650D01*
X339497Y328981D02*
X329500D01*
Y333979D01*
X331166Y335645D01*
X332832D01*
X334498D01*
X336164Y333979D01*
Y328981D01*
X329500Y340644D02*
Y343976D01*
X331166Y345642D01*
X334498D01*
X336164Y343976D01*
Y340644D01*
X334498Y338977D01*
X331166D01*
X329500Y340644D01*
X337831Y350640D02*
X336164D01*
Y348974D01*
Y352306D01*
Y350640D01*
X331166D01*
X329500Y352306D01*
Y357305D02*
Y360637D01*
Y358971D01*
X336164D01*
Y357305D01*
Y372300D02*
Y367302D01*
X334498Y365635D01*
X331166D01*
X329500Y367302D01*
Y372300D01*
Y375632D02*
Y380631D01*
X331166Y382297D01*
X332832Y380631D01*
Y377298D01*
X334498Y375632D01*
X336164Y377298D01*
Y382297D01*
X55831Y310164D02*
X57497Y308498D01*
Y305166D01*
X55831Y303500D01*
X54164D01*
X52498Y305166D01*
Y308498D01*
X50832Y310164D01*
X49166D01*
X47500Y308498D01*
Y305166D01*
X49166Y303500D01*
X57497Y318495D02*
Y315163D01*
X55831Y313497D01*
X49166D01*
X47500Y315163D01*
Y318495D01*
X49166Y320161D01*
X55831D01*
X57497Y318495D01*
X47500Y323494D02*
X57497D01*
X47500Y330158D01*
X57497D01*
X47500Y333490D02*
X54164D01*
X57497Y336823D01*
X54164Y340155D01*
X47500D01*
X52498D01*
Y333490D01*
X47500Y343487D02*
X57497D01*
Y348485D01*
X55831Y350152D01*
X52498D01*
X50832Y348485D01*
Y343487D01*
Y346819D02*
X47500Y350152D01*
X1003497Y422000D02*
X993500D01*
X998498D01*
Y428664D01*
X1003497D01*
X993500D01*
Y431997D02*
Y435329D01*
Y433663D01*
X1003497D01*
X1001831Y431997D01*
X924497Y422000D02*
X914500D01*
X919498D01*
Y428664D01*
X924497D01*
X914500D01*
Y438661D02*
Y431997D01*
X921165Y438661D01*
X922831D01*
X924497Y436995D01*
Y433663D01*
X922831Y431997D01*
X847497Y421000D02*
X837500D01*
X842498D01*
Y427665D01*
X847497D01*
X837500D01*
X845831Y430997D02*
X847497Y432663D01*
Y435995D01*
X845831Y437661D01*
X844164D01*
X842498Y435995D01*
Y434329D01*
Y435995D01*
X840832Y437661D01*
X839166D01*
X837500Y435995D01*
Y432663D01*
X839166Y430997D01*
X1069497Y269000D02*
X1061166D01*
X1059500Y270666D01*
Y273998D01*
X1061166Y275664D01*
X1069497D01*
X1067831Y285661D02*
X1069497Y283995D01*
Y280663D01*
X1067831Y278997D01*
X1066164D01*
X1064498Y280663D01*
Y283995D01*
X1062832Y285661D01*
X1061166D01*
X1059500Y283995D01*
Y280663D01*
X1061166Y278997D01*
X1067831Y295658D02*
X1069497Y293992D01*
Y290660D01*
X1067831Y288994D01*
X1061166D01*
X1059500Y290660D01*
Y293992D01*
X1061166Y295658D01*
X1059500Y308987D02*
X1069497D01*
Y313985D01*
X1067831Y315652D01*
X1064498D01*
X1062832Y313985D01*
Y308987D01*
Y312319D02*
X1059500Y315652D01*
Y320650D02*
Y323982D01*
X1061166Y325648D01*
X1064498D01*
X1066164Y323982D01*
Y320650D01*
X1064498Y318984D01*
X1061166D01*
X1059500Y320650D01*
X1069497Y328981D02*
X1059500D01*
Y333979D01*
X1061166Y335645D01*
X1062832D01*
X1064498D01*
X1066164Y333979D01*
Y328981D01*
X1059500Y340644D02*
Y343976D01*
X1061166Y345642D01*
X1064498D01*
X1066164Y343976D01*
Y340644D01*
X1064498Y338977D01*
X1061166D01*
X1059500Y340644D01*
X1067831Y350640D02*
X1066164D01*
Y348974D01*
Y352306D01*
Y350640D01*
X1061166D01*
X1059500Y352306D01*
Y357305D02*
Y360637D01*
Y358971D01*
X1066164D01*
Y357305D01*
Y372300D02*
Y367302D01*
X1064498Y365635D01*
X1061166D01*
X1059500Y367302D01*
Y372300D01*
Y375632D02*
Y380631D01*
X1061166Y382297D01*
X1062832Y380631D01*
Y377298D01*
X1064498Y375632D01*
X1066164Y377298D01*
Y382297D01*
X785831Y310164D02*
X787497Y308498D01*
Y305166D01*
X785831Y303500D01*
X784164D01*
X782498Y305166D01*
Y308498D01*
X780832Y310164D01*
X779166D01*
X777500Y308498D01*
Y305166D01*
X779166Y303500D01*
X787497Y318495D02*
Y315163D01*
X785831Y313497D01*
X779166D01*
X777500Y315163D01*
Y318495D01*
X779166Y320161D01*
X785831D01*
X787497Y318495D01*
X777500Y323494D02*
X787497D01*
X777500Y330158D01*
X787497D01*
X777500Y333490D02*
X784164D01*
X787497Y336823D01*
X784164Y340155D01*
X777500D01*
X782498D01*
Y333490D01*
X777500Y343487D02*
X787497D01*
Y348485D01*
X785831Y350152D01*
X782498D01*
X780832Y348485D01*
Y343487D01*
Y346819D02*
X777500Y350152D01*
D45*
X605298Y89413D02*
X612795D01*
X610296D01*
X605298Y84415D01*
X609047Y88164D01*
X612795Y84415D01*
X605298Y81916D02*
Y79417D01*
Y80666D01*
X612795D01*
Y81916D01*
Y79417D01*
X605298Y75668D02*
X612795D01*
Y70669D01*
X605298Y68170D02*
X612795D01*
Y63172D01*
X621114Y91895D02*
X619865Y93145D01*
Y95644D01*
X621114Y96894D01*
X622364D01*
X623613Y95644D01*
Y93145D01*
X624863Y91895D01*
X626113D01*
X627362Y93145D01*
Y95644D01*
X626113Y96894D01*
X619865Y89396D02*
X627362D01*
X624863Y86897D01*
X627362Y84398D01*
X619865D01*
Y81898D02*
Y79399D01*
Y80649D01*
X627362D01*
Y81898D01*
Y79399D01*
X619865Y75651D02*
Y70652D01*
Y73151D01*
X627362D01*
X621114Y63155D02*
X619865Y64404D01*
Y66903D01*
X621114Y68153D01*
X626113D01*
X627362Y66903D01*
Y64404D01*
X626113Y63155D01*
X619865Y60655D02*
X627362D01*
X623613D01*
Y55657D01*
X619865D01*
X627362D01*
X605298Y480413D02*
X612795D01*
X610296D01*
X605298Y475415D01*
X609047Y479164D01*
X612795Y475415D01*
X605298Y472916D02*
Y470417D01*
Y471666D01*
X612795D01*
Y472916D01*
Y470417D01*
X605298Y466668D02*
X612795D01*
Y461669D01*
X605298Y459170D02*
X612795D01*
Y454172D01*
X621114Y482895D02*
X619865Y484145D01*
Y486644D01*
X621114Y487894D01*
X622364D01*
X623613Y486644D01*
Y484145D01*
X624863Y482895D01*
X626113D01*
X627362Y484145D01*
Y486644D01*
X626113Y487894D01*
X619865Y480396D02*
X627362D01*
X624863Y477897D01*
X627362Y475398D01*
X619865D01*
Y472898D02*
Y470399D01*
Y471649D01*
X627362D01*
Y472898D01*
Y470399D01*
X619865Y466651D02*
Y461652D01*
Y464151D01*
X627362D01*
X621114Y454155D02*
X619865Y455404D01*
Y457903D01*
X621114Y459153D01*
X626113D01*
X627362Y457903D01*
Y455404D01*
X626113Y454155D01*
X619865Y451655D02*
X627362D01*
X623613D01*
Y446657D01*
X619865D01*
X627362D01*
X489835Y182331D02*
X491001Y183498D01*
X493334D01*
X494500Y182331D01*
Y181165D01*
X493334Y179999D01*
X491001D01*
X489835Y178833D01*
Y177666D01*
X491001Y176500D01*
X493334D01*
X494500Y177666D01*
X484003Y183498D02*
X486336D01*
X487502Y182331D01*
Y177666D01*
X486336Y176500D01*
X484003D01*
X482837Y177666D01*
Y182331D01*
X484003Y183498D01*
X480505Y176500D02*
Y183498D01*
X475839Y176500D01*
Y183498D01*
X473507Y176500D02*
Y181165D01*
X471174Y183498D01*
X468842Y181165D01*
Y176500D01*
Y179999D01*
X473507D01*
X466509Y176500D02*
Y183498D01*
X463010D01*
X461844Y182331D01*
Y179999D01*
X463010Y178833D01*
X466509D01*
X464177D02*
X461844Y176500D01*
X624000Y257498D02*
Y251666D01*
X622834Y250500D01*
X620501D01*
X619335Y251666D01*
Y257498D01*
X612337Y256331D02*
X613503Y257498D01*
X615836D01*
X617002Y256331D01*
Y255165D01*
X615836Y253999D01*
X613503D01*
X612337Y252833D01*
Y251666D01*
X613503Y250500D01*
X615836D01*
X617002Y251666D01*
X605339Y256331D02*
X606506Y257498D01*
X608838D01*
X610005Y256331D01*
Y251666D01*
X608838Y250500D01*
X606506D01*
X605339Y251666D01*
X596009Y250500D02*
Y257498D01*
X592510D01*
X591344Y256331D01*
Y253999D01*
X592510Y252833D01*
X596009D01*
X593677D02*
X591344Y250500D01*
X587845D02*
X585512D01*
X584346Y251666D01*
Y253999D01*
X585512Y255165D01*
X587845D01*
X589011Y253999D01*
Y251666D01*
X587845Y250500D01*
X582014Y257498D02*
Y250500D01*
X578515D01*
X577348Y251666D01*
Y252833D01*
Y253999D01*
X578515Y255165D01*
X582014D01*
X573849Y250500D02*
X571517D01*
X570351Y251666D01*
Y253999D01*
X571517Y255165D01*
X573849D01*
X575016Y253999D01*
Y251666D01*
X573849Y250500D01*
X566852Y256331D02*
Y255165D01*
X568018D01*
X565686D01*
X566852D01*
Y251666D01*
X565686Y250500D01*
X562187D02*
X559854D01*
X561020D01*
Y255165D01*
X562187D01*
X551690D02*
X555189D01*
X556355Y253999D01*
Y251666D01*
X555189Y250500D01*
X551690D01*
X549357D02*
X545859D01*
X544692Y251666D01*
X545859Y252833D01*
X548191D01*
X549357Y253999D01*
X548191Y255165D01*
X544692D01*
X489835Y294831D02*
X491001Y295998D01*
X493334D01*
X494500Y294831D01*
Y293665D01*
X493334Y292499D01*
X491001D01*
X489835Y291333D01*
Y290166D01*
X491001Y289000D01*
X493334D01*
X494500Y290166D01*
X484003Y295998D02*
X486336D01*
X487502Y294831D01*
Y290166D01*
X486336Y289000D01*
X484003D01*
X482837Y290166D01*
Y294831D01*
X484003Y295998D01*
X480505Y289000D02*
Y295998D01*
X475839Y289000D01*
Y295998D01*
X473507Y289000D02*
Y293665D01*
X471174Y295998D01*
X468842Y293665D01*
Y289000D01*
Y292499D01*
X473507D01*
X466509Y289000D02*
Y295998D01*
X463010D01*
X461844Y294831D01*
Y292499D01*
X463010Y291333D01*
X466509D01*
X464177D02*
X461844Y289000D01*
X624000Y369998D02*
Y364166D01*
X622834Y363000D01*
X620501D01*
X619335Y364166D01*
Y369998D01*
X612337Y368831D02*
X613503Y369998D01*
X615836D01*
X617002Y368831D01*
Y367665D01*
X615836Y366499D01*
X613503D01*
X612337Y365333D01*
Y364166D01*
X613503Y363000D01*
X615836D01*
X617002Y364166D01*
X605339Y368831D02*
X606506Y369998D01*
X608838D01*
X610005Y368831D01*
Y364166D01*
X608838Y363000D01*
X606506D01*
X605339Y364166D01*
X596009Y363000D02*
Y369998D01*
X592510D01*
X591344Y368831D01*
Y366499D01*
X592510Y365333D01*
X596009D01*
X593677D02*
X591344Y363000D01*
X587845D02*
X585512D01*
X584346Y364166D01*
Y366499D01*
X585512Y367665D01*
X587845D01*
X589011Y366499D01*
Y364166D01*
X587845Y363000D01*
X582014Y369998D02*
Y363000D01*
X578515D01*
X577348Y364166D01*
Y365333D01*
Y366499D01*
X578515Y367665D01*
X582014D01*
X573849Y363000D02*
X571517D01*
X570351Y364166D01*
Y366499D01*
X571517Y367665D01*
X573849D01*
X575016Y366499D01*
Y364166D01*
X573849Y363000D01*
X566852Y368831D02*
Y367665D01*
X568018D01*
X565686D01*
X566852D01*
Y364166D01*
X565686Y363000D01*
X562187D02*
X559854D01*
X561020D01*
Y367665D01*
X562187D01*
X551690D02*
X555189D01*
X556355Y366499D01*
Y364166D01*
X555189Y363000D01*
X551690D01*
X549357D02*
X545859D01*
X544692Y364166D01*
X545859Y365333D01*
X548191D01*
X549357Y366499D01*
X548191Y367665D01*
X544692D01*
D46*
X505315Y98469D02*
X499317D01*
Y95469D01*
X500317Y94470D01*
X502316D01*
X503316Y95469D01*
Y98469D01*
Y96469D02*
X505315Y94470D01*
Y91471D02*
Y89471D01*
X504315Y88472D01*
X502316D01*
X501316Y89471D01*
Y91471D01*
X502316Y92470D01*
X504315D01*
X505315Y91471D01*
X499317Y86472D02*
X505315D01*
Y83473D01*
X504315Y82474D01*
X503316D01*
X502316D01*
X501316Y83473D01*
Y86472D01*
X505315Y79475D02*
Y77475D01*
X504315Y76476D01*
X502316D01*
X501316Y77475D01*
Y79475D01*
X502316Y80474D01*
X504315D01*
X505315Y79475D01*
X500317Y73477D02*
X501316D01*
Y74476D01*
Y72477D01*
Y73477D01*
X504315D01*
X505315Y72477D01*
Y69478D02*
Y67479D01*
Y68478D01*
X501316D01*
Y69478D01*
Y60481D02*
Y63480D01*
X502316Y64480D01*
X504315D01*
X505315Y63480D01*
Y60481D01*
Y58481D02*
Y55482D01*
X504315Y54483D01*
X503316Y55482D01*
Y57482D01*
X502316Y58481D01*
X501316Y57482D01*
Y54483D01*
X505315Y489468D02*
X499317D01*
Y486470D01*
X500317Y485470D01*
X502316D01*
X503316Y486470D01*
Y489468D01*
Y487469D02*
X505315Y485470D01*
Y482471D02*
Y480471D01*
X504315Y479472D01*
X502316D01*
X501316Y480471D01*
Y482471D01*
X502316Y483470D01*
X504315D01*
X505315Y482471D01*
X499317Y477472D02*
X505315D01*
Y474473D01*
X504315Y473474D01*
X503316D01*
X502316D01*
X501316Y474473D01*
Y477472D01*
X505315Y470475D02*
Y468475D01*
X504315Y467476D01*
X502316D01*
X501316Y468475D01*
Y470475D01*
X502316Y471474D01*
X504315D01*
X505315Y470475D01*
X500317Y464477D02*
X501316D01*
Y465476D01*
Y463477D01*
Y464477D01*
X504315D01*
X505315Y463477D01*
Y460478D02*
Y458478D01*
Y459478D01*
X501316D01*
Y460478D01*
Y451481D02*
Y454480D01*
X502316Y455479D01*
X504315D01*
X505315Y454480D01*
Y451481D01*
Y449481D02*
Y446482D01*
X504315Y445483D01*
X503316Y446482D01*
Y448482D01*
X502316Y449481D01*
X501316Y448482D01*
Y445483D01*
M02*
