%FSLAX25Y25*%
%MOIN*%
G70*
G01*
G75*
G04 Layer_Physical_Order=1*
G04 Layer_Color=255*
%ADD10R,0.12992X0.05118*%
%ADD11R,0.12992X0.01969*%
%ADD12R,0.01969X0.01575*%
%ADD13R,0.03543X0.04331*%
%ADD14R,0.04331X0.03543*%
%ADD15C,0.01000*%
%ADD16R,0.03937X0.03543*%
%ADD17R,0.01614X0.04016*%
%ADD18R,0.04921X0.05512*%
%ADD19R,0.04724X0.05512*%
%ADD20R,0.05512X0.04724*%
%ADD21O,0.08661X0.02362*%
%ADD22R,0.03543X0.03937*%
%ADD23R,0.04016X0.01614*%
%ADD24R,0.05512X0.04724*%
%ADD25R,0.05512X0.04921*%
%ADD26O,0.02362X0.08661*%
%ADD27R,0.05906X0.05906*%
%ADD28C,0.05906*%
%ADD29R,0.05906X0.05906*%
%ADD30C,0.05000*%
%ADD31C,0.14950*%
%ADD32C,0.10000*%
%ADD33C,0.06000*%
%ADD34C,0.10787*%
D10*
X595000Y18500D02*
D03*
X555000Y134500D02*
D03*
X515000Y18500D02*
D03*
X595000Y134500D02*
D03*
X555000Y18500D02*
D03*
X515000Y134500D02*
D03*
X595000Y409500D02*
D03*
X555000Y525500D02*
D03*
X515000Y409500D02*
D03*
X595000Y525500D02*
D03*
X555000Y409500D02*
D03*
X515000Y525500D02*
D03*
D11*
X595000Y24012D02*
D03*
Y12988D02*
D03*
X555000Y128988D02*
D03*
Y140012D02*
D03*
X515000Y24012D02*
D03*
Y12988D02*
D03*
X595000Y128988D02*
D03*
Y140012D02*
D03*
X555000Y24012D02*
D03*
Y12988D02*
D03*
X515000Y128988D02*
D03*
Y140012D02*
D03*
X595000Y415012D02*
D03*
Y403988D02*
D03*
X555000Y519988D02*
D03*
Y531012D02*
D03*
X515000Y415012D02*
D03*
Y403988D02*
D03*
X595000Y519988D02*
D03*
Y531012D02*
D03*
X555000Y415012D02*
D03*
Y403988D02*
D03*
X515000Y519988D02*
D03*
Y531012D02*
D03*
D12*
X595000Y25784D02*
D03*
Y11216D02*
D03*
X555000Y127216D02*
D03*
Y141783D02*
D03*
X515000Y25784D02*
D03*
Y11216D02*
D03*
X595000Y127216D02*
D03*
Y141783D02*
D03*
X555000Y25784D02*
D03*
Y11216D02*
D03*
X515000Y127216D02*
D03*
Y141783D02*
D03*
X595000Y416784D02*
D03*
Y402216D02*
D03*
X555000Y518217D02*
D03*
Y532784D02*
D03*
X515000Y416784D02*
D03*
Y402216D02*
D03*
X595000Y518217D02*
D03*
Y532784D02*
D03*
X555000Y416784D02*
D03*
Y402216D02*
D03*
X515000Y518217D02*
D03*
Y532784D02*
D03*
D13*
X609000Y14500D02*
D03*
Y22374D02*
D03*
Y138500D02*
D03*
Y130626D02*
D03*
X569000Y138500D02*
D03*
Y130626D02*
D03*
Y14500D02*
D03*
Y22374D02*
D03*
X529000Y14500D02*
D03*
Y22374D02*
D03*
Y138500D02*
D03*
Y130626D02*
D03*
X609000Y405500D02*
D03*
Y413374D02*
D03*
Y529500D02*
D03*
Y521626D02*
D03*
X569000Y529500D02*
D03*
Y521626D02*
D03*
Y405500D02*
D03*
Y413374D02*
D03*
X529000Y405500D02*
D03*
Y413374D02*
D03*
Y529500D02*
D03*
Y521626D02*
D03*
X254500Y281626D02*
D03*
Y289500D02*
D03*
X246500Y281626D02*
D03*
Y289500D02*
D03*
X179500Y281126D02*
D03*
Y289000D02*
D03*
X171500Y281126D02*
D03*
Y289000D02*
D03*
X101200Y281426D02*
D03*
Y289300D02*
D03*
X93200Y281426D02*
D03*
Y289300D02*
D03*
X984500Y281626D02*
D03*
Y289500D02*
D03*
X976500Y281626D02*
D03*
Y289500D02*
D03*
X909500Y281126D02*
D03*
Y289000D02*
D03*
X901500Y281126D02*
D03*
Y289000D02*
D03*
X831200Y281426D02*
D03*
Y289300D02*
D03*
X823200Y281426D02*
D03*
Y289300D02*
D03*
X543000Y230000D02*
D03*
Y237874D02*
D03*
X535000Y230000D02*
D03*
Y237874D02*
D03*
X572000Y206500D02*
D03*
X515000Y237874D02*
D03*
Y230000D02*
D03*
X565626Y191106D02*
D03*
Y183232D02*
D03*
X543000Y342500D02*
D03*
Y350374D02*
D03*
X535000Y342500D02*
D03*
Y350374D02*
D03*
X572000Y319000D02*
D03*
X515000Y350374D02*
D03*
Y342500D02*
D03*
X565626Y303606D02*
D03*
Y295732D02*
D03*
D14*
X523000Y96500D02*
D03*
X515126D02*
D03*
X523000Y487500D02*
D03*
X515126D02*
D03*
X169626Y483500D02*
D03*
X177500D02*
D03*
X211374D02*
D03*
X203500D02*
D03*
X186563D02*
D03*
X194437D02*
D03*
X246626Y297500D02*
D03*
X254500D02*
D03*
X171626Y297000D02*
D03*
X179500D02*
D03*
X93326Y297300D02*
D03*
X101200D02*
D03*
X286549Y361000D02*
D03*
X294423D02*
D03*
X202000Y360000D02*
D03*
X209874D02*
D03*
X146549D02*
D03*
X154423D02*
D03*
X294423Y352750D02*
D03*
X286549D02*
D03*
X294423Y344500D02*
D03*
X286549D02*
D03*
X209874Y351750D02*
D03*
X202000D02*
D03*
X209874Y343500D02*
D03*
X202000D02*
D03*
X154423Y351750D02*
D03*
X146549D02*
D03*
X154423Y343500D02*
D03*
X146549D02*
D03*
X268800Y302200D02*
D03*
X193900D02*
D03*
X115900D02*
D03*
X899626Y483500D02*
D03*
X907500D02*
D03*
X941374D02*
D03*
X933500D02*
D03*
X916563D02*
D03*
X924437D02*
D03*
X976626Y297500D02*
D03*
X984500D02*
D03*
X901626Y297000D02*
D03*
X909500D02*
D03*
X823326Y297300D02*
D03*
X831200D02*
D03*
X1016549Y361000D02*
D03*
X1024423D02*
D03*
X932000Y360000D02*
D03*
X939874D02*
D03*
X876549D02*
D03*
X884423D02*
D03*
X1024423Y352750D02*
D03*
X1016549D02*
D03*
X1024423Y344500D02*
D03*
X1016549D02*
D03*
X939874Y351750D02*
D03*
X932000D02*
D03*
X939874Y343500D02*
D03*
X932000D02*
D03*
X884423Y351750D02*
D03*
X876549D02*
D03*
X884423Y343500D02*
D03*
X876549D02*
D03*
X998800Y302200D02*
D03*
X923900D02*
D03*
X845900D02*
D03*
X573626Y183106D02*
D03*
X581500D02*
D03*
X573626Y191500D02*
D03*
X581500D02*
D03*
X418626Y181500D02*
D03*
X426500D02*
D03*
X436626D02*
D03*
X444500D02*
D03*
X573626Y295606D02*
D03*
X581500D02*
D03*
X573626Y304000D02*
D03*
X581500D02*
D03*
X418626Y294000D02*
D03*
X426500D02*
D03*
X436626D02*
D03*
X444500D02*
D03*
D15*
X535874Y22374D02*
X529000D01*
X576026D02*
X569000D01*
X616026D02*
X609000D01*
X576074Y130626D02*
X569000D01*
X615974D02*
X609000D01*
X527488Y140012D02*
X515000D01*
X607488D02*
X595000D01*
X527488Y12988D02*
X515000D01*
X567488D02*
X555000D01*
X607488D02*
X595000D01*
X535974Y130626D02*
X529000D01*
X515000Y126500D02*
Y127216D01*
X565000Y106500D02*
Y117217D01*
X555000Y127216D01*
Y128988D01*
X595000Y126500D02*
Y127216D01*
Y128988D01*
X520000Y91626D02*
X515126Y96500D01*
Y106374D01*
X535000Y106500D02*
X515000Y126500D01*
Y127216D01*
Y128988D01*
X520000Y76500D02*
X515000D01*
X520000D02*
Y91626D01*
X522000Y95500D02*
X523000Y96500D01*
Y104500D01*
X525000Y106500D01*
X522000Y66500D02*
X515000D01*
X522000D02*
Y95500D01*
X545000Y81500D02*
Y106500D01*
X520000Y56500D02*
X545000Y81500D01*
X515000Y25784D02*
X520000Y30784D01*
X515000Y24012D02*
Y25784D01*
X555000D02*
X550000Y30784D01*
Y56500D01*
X555000Y61500D01*
X567488Y140012D02*
X555000D01*
X575000Y106500D02*
X595000Y126500D01*
X520000Y30784D02*
Y56500D01*
X555000Y61500D02*
Y106500D01*
X590000Y30784D02*
Y56500D01*
X595000Y25784D02*
X590000Y30784D01*
Y56500D02*
X585000Y61500D01*
Y106500D01*
X535874Y413374D02*
X529000D01*
X576026D02*
X569000D01*
X616026D02*
X609000D01*
X576074Y521626D02*
X569000D01*
X615974D02*
X609000D01*
X527488Y531012D02*
X515000D01*
X607488D02*
X595000D01*
X527488Y403988D02*
X515000D01*
X567488D02*
X555000D01*
X607488D02*
X595000D01*
X535974Y521626D02*
X529000D01*
X515000Y517500D02*
Y518217D01*
X565000Y497500D02*
Y508216D01*
X555000Y518217D01*
Y519988D01*
X595000Y517500D02*
Y518217D01*
Y519988D01*
X520000Y482626D02*
X515126Y487500D01*
Y497374D01*
X535000Y497500D02*
X515000Y517500D01*
Y518217D01*
Y519988D01*
X520000Y467500D02*
X515000D01*
X520000D02*
Y482626D01*
X522000Y486500D02*
X523000Y487500D01*
Y495500D01*
X525000Y497500D01*
X522000Y457500D02*
X515000D01*
X522000D02*
Y486500D01*
X545000Y472500D02*
Y497500D01*
X520000Y447500D02*
X545000Y472500D01*
X515000Y416784D02*
X520000Y421783D01*
X515000Y415012D02*
Y416784D01*
X555000D02*
X550000Y421783D01*
Y447500D01*
X555000Y452500D01*
X567488Y531012D02*
X555000D01*
X575000Y497500D02*
X595000Y517500D01*
X520000Y421783D02*
Y447500D01*
X555000Y452500D02*
Y497500D01*
X590000Y421783D02*
Y447500D01*
X595000Y416784D02*
X590000Y421783D01*
Y447500D02*
X585000Y452500D01*
Y497500D01*
X174953Y449547D02*
X180547D01*
X174953Y467953D02*
Y449547D01*
X133547Y443547D02*
X186047D01*
Y467953D02*
Y443547D01*
X265551Y277000D02*
X264500Y275949D01*
Y269043D01*
Y261957D02*
Y254000D01*
X189500Y261457D02*
Y253500D01*
X209449Y299406D02*
Y291500D01*
X209500Y314500D02*
Y306543D01*
X112551Y277000D02*
X111500Y275949D01*
Y269043D01*
Y261957D02*
Y254000D01*
X131400Y314900D02*
Y307043D01*
X114400Y376457D02*
Y368549D01*
Y391600D02*
Y383543D01*
X261900Y376457D02*
Y368549D01*
Y391600D02*
Y383543D01*
X243051Y353500D02*
Y345592D01*
X243100Y338457D02*
Y330600D01*
X273118Y409000D02*
X275677D01*
Y402177D01*
X247000Y401000D02*
X255055D01*
X247000Y411000D02*
X254957D01*
X247000Y427000D02*
X254957D01*
X247000Y437000D02*
X255055D01*
X261945D02*
Y427098D01*
X262941Y427898D02*
X268000D01*
X264043Y409000D02*
X268000D01*
X262043Y411000D02*
X264043Y409000D01*
X262043Y411000D02*
Y401098D01*
X174500Y400500D02*
X182555D01*
X174500Y410500D02*
X182457D01*
X174500Y426500D02*
X182457D01*
X174500Y436500D02*
X182555D01*
X189445D02*
Y426598D01*
X190941Y427898D02*
X196000D01*
X191043Y409000D02*
X196000D01*
X189543Y410500D02*
X191043Y409000D01*
X189543Y410500D02*
Y400598D01*
X201118Y409000D02*
X203677D01*
X101000Y401000D02*
X109055D01*
X101000Y411000D02*
X108957D01*
X101000Y427000D02*
X108957D01*
X101000Y437000D02*
X109055D01*
X115945D02*
Y427098D01*
X116941Y427898D02*
X122000D01*
X118043Y409000D02*
X122000D01*
X116043Y411000D02*
X118043Y409000D01*
X116043Y411000D02*
Y401098D01*
X127118Y409000D02*
X129677D01*
Y401823D01*
X170500Y482626D02*
Y473500D01*
X186563Y479563D02*
X180500Y473500D01*
X186563Y483500D02*
Y479563D01*
X179000Y488000D02*
X177500Y486500D01*
X179000Y488000D02*
X193500D01*
X194437Y487063D01*
X195500Y488000D02*
X202000D01*
X203500Y486500D01*
Y483500D01*
X254874Y282000D02*
X265551D01*
X257000Y287000D02*
X265551D01*
X254500Y289500D02*
X257000Y287000D01*
X246500Y297374D02*
Y289500D01*
X284500Y292051D02*
X284449Y292000D01*
X284500Y299957D02*
Y292051D01*
X246500Y281626D02*
X254500D01*
Y304500D02*
Y297500D01*
X260000Y295000D02*
X254500Y289500D01*
X171500Y296874D02*
Y289000D01*
X179500Y304000D02*
Y297000D01*
X190553Y313617D02*
X184000Y307064D01*
Y293500D01*
X179500Y289000D01*
X101774Y282000D02*
X112551D01*
X93200Y281426D02*
X101200D01*
X103500Y287000D02*
X112551D01*
X101200Y289300D02*
X103500Y287000D01*
X93200Y297174D02*
Y289300D01*
X101200Y303800D02*
Y297300D01*
X107000Y295100D02*
X101200Y289300D01*
X107000Y308064D02*
Y295100D01*
X112554Y313617D02*
X107000Y308064D01*
X114449Y358500D02*
X145049D01*
X146549Y360000D02*
X145049Y358500D01*
X154423Y368121D02*
Y360000D01*
X153543Y369000D02*
X154423Y368121D01*
X153543Y380000D02*
Y369000D01*
X138500Y380000D02*
X146457D01*
X153543Y384957D02*
Y380000D01*
X146000Y392500D02*
X153543Y384957D01*
X129000Y392500D02*
X146000D01*
X124559Y396941D02*
X129000Y392500D01*
X124559Y409000D02*
Y396941D01*
X146457Y369000D02*
Y351842D01*
X154423Y360000D02*
X150500Y356077D01*
Y348000D01*
X150000Y347500D01*
X120449D02*
X150000D01*
X114449Y353500D02*
X120449Y347500D01*
X154423Y351750D02*
Y343500D01*
X142000D02*
X146549D01*
X142000D02*
X125000Y326500D01*
Y320000D02*
X136500D01*
X139000Y317500D01*
X154500Y339000D02*
X141000Y325500D01*
X154500Y343423D02*
Y339000D01*
X202000Y369408D02*
Y360000D01*
X209874Y368620D02*
Y360000D01*
X201908Y388592D02*
Y380000D01*
X208995D02*
Y369500D01*
Y388506D02*
Y380000D01*
X198559Y398941D02*
X208995Y388506D01*
X198559Y409000D02*
Y398941D01*
X209874Y351750D02*
Y343500D01*
X209449Y281500D02*
X216500D01*
X207500Y319500D02*
X212000D01*
X216500Y315000D01*
Y281500D01*
X219000Y316000D02*
Y276500D01*
X209874Y325126D02*
X219000Y316000D01*
X209874Y343500D02*
Y325126D01*
X209449Y276500D02*
X219000D01*
X207500Y319500D02*
X202500Y314500D01*
X202000Y360000D02*
Y356000D01*
Y351750D01*
X233000Y368500D02*
X243051D01*
X177000D02*
Y308000D01*
X171626Y302626D01*
Y297000D01*
X247000Y373000D02*
X250500Y369500D01*
X209874Y360000D02*
X218000D01*
X231000Y373000D02*
X247000D01*
X231000D02*
X218000Y360000D01*
X243051Y358500D02*
X244992D01*
X250500Y364008D02*
X244992Y358500D01*
X250500Y369500D02*
Y364008D01*
X225500Y363500D02*
X243051D01*
X225500D02*
X218000Y356000D01*
X202000D02*
X218000D01*
X177500Y486500D02*
Y483500D01*
X176000Y488000D02*
X177500Y486500D01*
X115945Y444555D02*
Y437000D01*
X171500Y281126D02*
X179500D01*
Y289000D02*
X182000Y286500D01*
X190551D01*
X179874Y281500D02*
X190551D01*
X131400Y299957D02*
Y292049D01*
X141000Y325500D02*
Y277000D01*
X190551Y276500D02*
X189500Y275449D01*
Y268543D01*
X95551Y353500D02*
Y345694D01*
X95400Y338457D02*
Y330600D01*
X105500Y363500D02*
X114449D01*
X184543Y268543D02*
X189500D01*
X184543D02*
Y207043D01*
X84000Y445000D02*
X115500D01*
X84000D02*
X78000Y439000D01*
Y226500D01*
X85957Y376457D02*
X114400D01*
X84043Y269043D02*
X111500D01*
X84000Y269000D02*
Y229500D01*
X106500Y207000D01*
X84000Y269000D02*
Y267500D01*
X84043Y269043D02*
X84000Y269000D01*
X106500Y207000D02*
X233500D01*
X129508Y292000D02*
X131449D01*
X251500Y360000D02*
Y310748D01*
X255000Y363500D02*
X251500Y360000D01*
X255000Y363500D02*
X261949D01*
X246626Y305874D02*
Y297500D01*
X251500Y310748D02*
X246626Y305874D01*
X286549Y319451D02*
X291500Y314500D01*
X284449Y277000D02*
X286390D01*
X294423Y285033D02*
X286390Y277000D01*
X291500Y314500D02*
Y287110D01*
X286390Y282000D01*
X284449D02*
X286390D01*
X294423Y344500D02*
Y285033D01*
X284500Y315000D02*
Y307043D01*
X293543Y381000D02*
Y371000D01*
X294423Y370121D02*
Y361000D01*
X270559Y409000D02*
Y397441D01*
X278000Y390000D01*
X278500Y381000D02*
X286457D01*
X293543Y385957D02*
Y381000D01*
X289500Y390000D02*
X293543Y385957D01*
X278000Y390000D02*
X289500D01*
X261949Y358500D02*
X279000D01*
X281500Y361000D02*
X279000Y358500D01*
X286457Y371000D02*
Y361000D01*
Y352842D01*
X281500Y361000D02*
X286457D01*
X286549D01*
X261949Y353500D02*
X278000D01*
X283000Y348500D01*
X290500D01*
Y357000D02*
Y348500D01*
Y357000D02*
X294500D01*
Y360923D02*
Y357000D01*
X261949Y368500D02*
X278000D01*
X78000Y226500D02*
X117500Y187000D01*
X233500D01*
X237043Y345543D02*
X243100D01*
X237043D02*
X233500Y342000D01*
Y207000D01*
X203677Y409000D02*
Y402323D01*
X194953Y477953D02*
X190500Y473500D01*
Y472405D01*
X127118Y437118D02*
Y427898D01*
X133547Y443547D02*
X127118Y437118D01*
X190500Y472405D02*
X186047Y467953D01*
X190500Y463500D02*
Y437555D01*
X201118Y452618D02*
Y427898D01*
X204953Y456453D02*
X201118Y452618D01*
X195500Y456000D02*
X198559Y452941D01*
Y427898D01*
X180500Y465500D02*
Y463500D01*
X177500Y483500D02*
Y478250D01*
X158500Y488000D02*
X159000D01*
X176000D01*
X159000D02*
X116000Y445000D01*
X170500Y473500D02*
Y472405D01*
X177500Y478250D02*
X176047Y476797D01*
X170500Y472405D02*
X174953Y467953D01*
X176047Y476797D02*
Y469953D01*
X180500Y465500D01*
X129780Y428000D02*
X154500D01*
X210500Y482626D02*
Y473500D01*
X194953Y477953D02*
X202344D01*
X200500Y473500D02*
Y472500D01*
X195500Y467500D01*
Y456000D01*
X202344Y477953D02*
X204953Y475344D01*
Y456453D01*
X198559Y427898D02*
Y418559D01*
X124559Y427898D02*
Y418941D01*
X125000Y418500D01*
X270500D01*
X270559Y418559D02*
X270500Y418500D01*
X270559Y427898D02*
Y418559D01*
X262000Y445500D02*
Y437055D01*
X275677Y442323D02*
Y427898D01*
X210500Y473500D02*
X244500D01*
X275677Y442323D01*
X258543Y269043D02*
X264500D01*
X258543D02*
X258000Y268500D01*
X276957Y299957D02*
X284500D01*
X93500Y308000D02*
Y297474D01*
X105500Y363500D02*
Y320000D01*
X93500Y308000D01*
X85957Y376457D02*
X81000Y371500D01*
Y227500D02*
X111500Y197000D01*
X233500D01*
X95400Y345543D02*
X101957D01*
Y322457D01*
X84000Y304500D02*
Y269000D01*
X101957Y322457D02*
X84000Y304500D01*
X123457Y299957D02*
X131400D01*
X81000Y313500D02*
X86000D01*
X81000Y371500D02*
Y313500D01*
Y227500D01*
X279500Y287000D02*
X284449D01*
X280000Y274508D02*
Y230300D01*
X278618Y275889D02*
X280000Y274508D01*
X279500Y283992D02*
X278618Y283110D01*
X279500Y287000D02*
Y283992D01*
X278618Y283110D02*
Y275889D01*
X265551Y292000D02*
X270500D01*
Y288992D02*
X271382Y288110D01*
X270500Y292000D02*
Y288992D01*
X271382Y288110D02*
Y231682D01*
X270000Y230300D01*
X204500Y286500D02*
X209449D01*
X204500Y283492D02*
X203618Y282611D01*
X204500Y286500D02*
Y283492D01*
X203618Y233218D02*
X200700Y230300D01*
X203618Y282611D02*
Y233218D01*
X190551Y291500D02*
X195500D01*
Y288492D02*
X196382Y287611D01*
X195500Y291500D02*
Y288492D01*
X196382Y287611D02*
Y235982D01*
X190700Y230300D01*
X131449Y282000D02*
X139000D01*
Y317500D02*
Y282000D01*
X131449Y277000D02*
X141000D01*
X126500Y287000D02*
X131449D01*
X126500D02*
Y283992D01*
X124506Y281999D01*
Y233406D02*
X121400Y230300D01*
X124506Y281999D02*
Y233406D01*
X112551Y292000D02*
X117500D01*
Y288992D02*
X118382Y288110D01*
X117500Y292000D02*
Y288992D01*
X118382Y288110D02*
Y237282D01*
X111400Y230300D01*
X301000Y338000D02*
Y222500D01*
X275500Y197000D01*
X233500D02*
X275500D01*
X258000Y268500D02*
Y222500D01*
X265454Y313617D02*
X260000Y308164D01*
Y295000D01*
X201000Y300000D02*
X208957D01*
X294423Y352750D02*
Y344500D01*
X194437Y487063D02*
Y486937D01*
Y483500D01*
X195500Y488000D02*
X194437Y486937D01*
X206500Y434000D02*
Y428000D01*
X203677Y427898D02*
X206398D01*
X201118D02*
Y422382D01*
X201618Y421882D01*
X239882D01*
X240500Y422500D02*
X239882Y421882D01*
X240500Y441000D02*
Y422500D01*
X250000Y450500D02*
X240500Y441000D01*
X250000Y450500D02*
X263500D01*
X273000Y441000D01*
Y428016D01*
X268800Y302200D02*
X269700D01*
X277500Y310000D02*
X269700Y302200D01*
X277500Y316000D02*
Y310000D01*
X281000Y319500D02*
X277500Y316000D01*
X281000Y319500D02*
X286500D01*
X286549Y344500D02*
Y319451D01*
X202000Y310300D02*
X193900Y302200D01*
X202000Y343500D02*
Y310300D01*
X125000Y311300D02*
X115900Y302200D01*
X125000Y326500D02*
Y320000D01*
Y311300D01*
X904953Y449547D02*
X910547D01*
X904953Y467953D02*
Y449547D01*
X863547Y443547D02*
X916047D01*
Y467953D02*
Y443547D01*
X995551Y277000D02*
X994500Y275949D01*
Y269043D01*
Y261957D02*
Y254000D01*
X919500Y261457D02*
Y253500D01*
X939449Y299406D02*
Y291500D01*
X939500Y314500D02*
Y306543D01*
X842551Y277000D02*
X841500Y275949D01*
Y269043D01*
Y261957D02*
Y254000D01*
X861400Y314900D02*
Y307043D01*
X844400Y376457D02*
Y368549D01*
Y391600D02*
Y383543D01*
X991900Y376457D02*
Y368549D01*
Y391600D02*
Y383543D01*
X973051Y353500D02*
Y345592D01*
X973100Y338457D02*
Y330600D01*
X1003118Y409000D02*
X1005677D01*
Y402177D01*
X977000Y401000D02*
X985055D01*
X977000Y411000D02*
X984957D01*
X977000Y427000D02*
X984957D01*
X977000Y437000D02*
X985055D01*
X991945D02*
Y427098D01*
X992941Y427898D02*
X998000D01*
X994043Y409000D02*
X998000D01*
X992043Y411000D02*
X994043Y409000D01*
X992043Y411000D02*
Y401098D01*
X904500Y400500D02*
X912555D01*
X904500Y410500D02*
X912457D01*
X904500Y426500D02*
X912457D01*
X904500Y436500D02*
X912555D01*
X919445D02*
Y426598D01*
X920941Y427898D02*
X926000D01*
X921043Y409000D02*
X926000D01*
X919543Y410500D02*
X921043Y409000D01*
X919543Y410500D02*
Y400598D01*
X931118Y409000D02*
X933677D01*
X831000Y401000D02*
X839055D01*
X831000Y411000D02*
X838957D01*
X831000Y427000D02*
X838957D01*
X831000Y437000D02*
X839055D01*
X845945D02*
Y427098D01*
X846941Y427898D02*
X852000D01*
X848043Y409000D02*
X852000D01*
X846043Y411000D02*
X848043Y409000D01*
X846043Y411000D02*
Y401098D01*
X857118Y409000D02*
X859677D01*
Y401823D01*
X900500Y482626D02*
Y473500D01*
X916563Y479563D02*
X910500Y473500D01*
X916563Y483500D02*
Y479563D01*
X909000Y488000D02*
X907500Y486500D01*
X909000Y488000D02*
X923500D01*
X924437Y487063D01*
X925500Y488000D02*
X932000D01*
X933500Y486500D01*
Y483500D01*
X984874Y282000D02*
X995551D01*
X987000Y287000D02*
X995551D01*
X984500Y289500D02*
X987000Y287000D01*
X976500Y297374D02*
Y289500D01*
X1014500Y292051D02*
X1014449Y292000D01*
X1014500Y299957D02*
Y292051D01*
X976500Y281626D02*
X984500D01*
Y304500D02*
Y297500D01*
X990000Y295000D02*
X984500Y289500D01*
X901500Y296874D02*
Y289000D01*
X909500Y304000D02*
Y297000D01*
X920553Y313617D02*
X914000Y307064D01*
Y293500D01*
X909500Y289000D01*
X831774Y282000D02*
X842551D01*
X823200Y281426D02*
X831200D01*
X833500Y287000D02*
X842551D01*
X831200Y289300D02*
X833500Y287000D01*
X823200Y297174D02*
Y289300D01*
X831200Y303800D02*
Y297300D01*
X837000Y295100D02*
X831200Y289300D01*
X837000Y308064D02*
Y295100D01*
X842554Y313617D02*
X837000Y308064D01*
X844449Y358500D02*
X875049D01*
X876549Y360000D02*
X875049Y358500D01*
X884423Y368121D02*
Y360000D01*
X883543Y369000D02*
X884423Y368121D01*
X883543Y380000D02*
Y369000D01*
X868500Y380000D02*
X876457D01*
X883543Y384957D02*
Y380000D01*
X876000Y392500D02*
X883543Y384957D01*
X859000Y392500D02*
X876000D01*
X854559Y396941D02*
X859000Y392500D01*
X854559Y409000D02*
Y396941D01*
X876457Y369000D02*
Y351842D01*
X884423Y360000D02*
X880500Y356077D01*
Y348000D01*
X880000Y347500D01*
X850449D02*
X880000D01*
X844449Y353500D02*
X850449Y347500D01*
X884423Y351750D02*
Y343500D01*
X872000D02*
X876549D01*
X872000D02*
X855000Y326500D01*
Y320000D02*
X866500D01*
X869000Y317500D01*
X884500Y339000D02*
X871000Y325500D01*
X884500Y343423D02*
Y339000D01*
X932000Y369408D02*
Y360000D01*
X939874Y368620D02*
Y360000D01*
X931908Y388592D02*
Y380000D01*
X938995D02*
Y369500D01*
Y388506D02*
Y380000D01*
X928559Y398941D02*
X938995Y388506D01*
X928559Y409000D02*
Y398941D01*
X939874Y351750D02*
Y343500D01*
X939449Y281500D02*
X946500D01*
X937500Y319500D02*
X942000D01*
X946500Y315000D01*
Y281500D01*
X949000Y316000D02*
Y276500D01*
X939874Y325126D02*
X949000Y316000D01*
X939874Y343500D02*
Y325126D01*
X939449Y276500D02*
X949000D01*
X937500Y319500D02*
X932500Y314500D01*
X932000Y360000D02*
Y356000D01*
Y351750D01*
X963000Y368500D02*
X973051D01*
X907000D02*
Y308000D01*
X901626Y302626D01*
Y297000D01*
X977000Y373000D02*
X980500Y369500D01*
X939874Y360000D02*
X948000D01*
X961000Y373000D02*
X977000D01*
X961000D02*
X948000Y360000D01*
X973051Y358500D02*
X974992D01*
X980500Y364008D02*
X974992Y358500D01*
X980500Y369500D02*
Y364008D01*
X955500Y363500D02*
X973051D01*
X955500D02*
X948000Y356000D01*
X932000D02*
X948000D01*
X907500Y486500D02*
Y483500D01*
X906000Y488000D02*
X907500Y486500D01*
X845945Y444555D02*
Y437000D01*
X901500Y281126D02*
X909500D01*
Y289000D02*
X912000Y286500D01*
X920551D01*
X909874Y281500D02*
X920551D01*
X861400Y299957D02*
Y292049D01*
X871000Y325500D02*
Y277000D01*
X920551Y276500D02*
X919500Y275449D01*
Y268543D01*
X825551Y353500D02*
Y345694D01*
X825400Y338457D02*
Y330600D01*
X835500Y363500D02*
X844449D01*
X914543Y268543D02*
X919500D01*
X914543D02*
Y207043D01*
X814000Y445000D02*
X845500D01*
X814000D02*
X808000Y439000D01*
Y226500D01*
X815957Y376457D02*
X844400D01*
X814043Y269043D02*
X841500D01*
X814000Y269000D02*
Y229500D01*
X836500Y207000D01*
X814000Y269000D02*
Y267500D01*
X814043Y269043D02*
X814000Y269000D01*
X836500Y207000D02*
X963500D01*
X859508Y292000D02*
X861449D01*
X981500Y360000D02*
Y310748D01*
X985000Y363500D02*
X981500Y360000D01*
X985000Y363500D02*
X991949D01*
X976626Y305874D02*
Y297500D01*
X981500Y310748D02*
X976626Y305874D01*
X1016549Y319451D02*
X1021500Y314500D01*
X1014449Y277000D02*
X1016390D01*
X1024423Y285033D02*
X1016390Y277000D01*
X1021500Y314500D02*
Y287110D01*
X1016390Y282000D01*
X1014449D02*
X1016390D01*
X1024423Y344500D02*
Y285033D01*
X1014500Y315000D02*
Y307043D01*
X1023543Y381000D02*
Y371000D01*
X1024423Y370121D02*
Y361000D01*
X1000559Y409000D02*
Y397441D01*
X1008000Y390000D01*
X1008500Y381000D02*
X1016457D01*
X1023543Y385957D02*
Y381000D01*
X1019500Y390000D02*
X1023543Y385957D01*
X1008000Y390000D02*
X1019500D01*
X991949Y358500D02*
X1009000D01*
X1011500Y361000D02*
X1009000Y358500D01*
X1016457Y371000D02*
Y361000D01*
Y352842D01*
X1011500Y361000D02*
X1016457D01*
X1016549D01*
X991949Y353500D02*
X1008000D01*
X1013000Y348500D01*
X1020500D01*
Y357000D02*
Y348500D01*
Y357000D02*
X1024500D01*
Y360923D02*
Y357000D01*
X991949Y368500D02*
X1008000D01*
X808000Y226500D02*
X847500Y187000D01*
X963500D01*
X967043Y345543D02*
X973100D01*
X967043D02*
X963500Y342000D01*
Y207000D01*
X933677Y409000D02*
Y402323D01*
X924953Y477953D02*
X920500Y473500D01*
Y472405D01*
X857118Y437118D02*
Y427898D01*
X863547Y443547D02*
X857118Y437118D01*
X920500Y472405D02*
X916047Y467953D01*
X920500Y463500D02*
Y437555D01*
X931118Y452618D02*
Y427898D01*
X934953Y456453D02*
X931118Y452618D01*
X925500Y456000D02*
X928559Y452941D01*
Y427898D01*
X910500Y465500D02*
Y463500D01*
X907500Y483500D02*
Y478250D01*
X888500Y488000D02*
X889000D01*
X906000D01*
X889000D02*
X846000Y445000D01*
X900500Y473500D02*
Y472405D01*
X907500Y478250D02*
X906047Y476797D01*
X900500Y472405D02*
X904953Y467953D01*
X906047Y476797D02*
Y469953D01*
X910500Y465500D01*
X859779Y428000D02*
X884500D01*
X940500Y482626D02*
Y473500D01*
X924953Y477953D02*
X932344D01*
X930500Y473500D02*
Y472500D01*
X925500Y467500D01*
Y456000D01*
X932344Y477953D02*
X934953Y475344D01*
Y456453D01*
X928559Y427898D02*
Y418559D01*
X854559Y427898D02*
Y418941D01*
X855000Y418500D01*
X1000500D01*
X1000559Y418559D02*
X1000500Y418500D01*
X1000559Y427898D02*
Y418559D01*
X992000Y445500D02*
Y437055D01*
X1005677Y442323D02*
Y427898D01*
X940500Y473500D02*
X974500D01*
X1005677Y442323D01*
X988543Y269043D02*
X994500D01*
X988543D02*
X988000Y268500D01*
X1006957Y299957D02*
X1014500D01*
X823500Y308000D02*
Y297474D01*
X835500Y363500D02*
Y320000D01*
X823500Y308000D01*
X815957Y376457D02*
X811000Y371500D01*
Y227500D02*
X841500Y197000D01*
X963500D01*
X825400Y345543D02*
X831957D01*
Y322457D01*
X814000Y304500D02*
Y269000D01*
X831957Y322457D02*
X814000Y304500D01*
X853457Y299957D02*
X861400D01*
X811000Y313500D02*
X816000D01*
X811000Y371500D02*
Y313500D01*
Y227500D01*
X1009500Y287000D02*
X1014449D01*
X1010000Y274508D02*
Y230300D01*
X1008618Y275889D02*
X1010000Y274508D01*
X1009500Y283992D02*
X1008618Y283110D01*
X1009500Y287000D02*
Y283992D01*
X1008618Y283110D02*
Y275889D01*
X995551Y292000D02*
X1000500D01*
Y288992D02*
X1001382Y288110D01*
X1000500Y292000D02*
Y288992D01*
X1001382Y288110D02*
Y231682D01*
X1000000Y230300D01*
X934500Y286500D02*
X939449D01*
X934500Y283492D02*
X933618Y282611D01*
X934500Y286500D02*
Y283492D01*
X933618Y233218D02*
X930700Y230300D01*
X933618Y282611D02*
Y233218D01*
X920551Y291500D02*
X925500D01*
Y288492D02*
X926382Y287611D01*
X925500Y291500D02*
Y288492D01*
X926382Y287611D02*
Y235982D01*
X920700Y230300D01*
X861449Y282000D02*
X869000D01*
Y317500D02*
Y282000D01*
X861449Y277000D02*
X871000D01*
X856500Y287000D02*
X861449D01*
X856500D02*
Y283992D01*
X854506Y281999D01*
Y233406D02*
X851400Y230300D01*
X854506Y281999D02*
Y233406D01*
X842551Y292000D02*
X847500D01*
Y288992D02*
X848382Y288110D01*
X847500Y292000D02*
Y288992D01*
X848382Y288110D02*
Y237282D01*
X841400Y230300D01*
X1031000Y338000D02*
Y222500D01*
X1005500Y197000D01*
X963500D02*
X1005500D01*
X988000Y268500D02*
Y222500D01*
X995453Y313617D02*
X990000Y308164D01*
Y295000D01*
X931000Y300000D02*
X938957D01*
X1024423Y352750D02*
Y344500D01*
X924437Y487063D02*
Y486937D01*
Y483500D01*
X925500Y488000D02*
X924437Y486937D01*
X936500Y434000D02*
Y428000D01*
X933677Y427898D02*
X936398D01*
X931118D02*
Y422382D01*
X931618Y421882D01*
X969882D01*
X970500Y422500D02*
X969882Y421882D01*
X970500Y441000D02*
Y422500D01*
X980000Y450500D02*
X970500Y441000D01*
X980000Y450500D02*
X993500D01*
X1003000Y441000D01*
Y428016D01*
X998800Y302200D02*
X999700D01*
X1007500Y310000D02*
X999700Y302200D01*
X1007500Y316000D02*
Y310000D01*
X1011000Y319500D02*
X1007500Y316000D01*
X1011000Y319500D02*
X1016500D01*
X1016549Y344500D02*
Y319451D01*
X932000Y310300D02*
X923900Y302200D01*
X932000Y343500D02*
Y310300D01*
X855000Y311300D02*
X845900Y302200D01*
X855000Y326500D02*
Y320000D01*
Y311300D01*
X449000Y218445D02*
X458705D01*
X477000Y218740D02*
X486705D01*
X458102Y219638D02*
Y225000D01*
X477000Y218740D02*
Y225000D01*
Y230118D02*
Y232677D01*
X449000Y204000D02*
Y211555D01*
X459000Y204000D02*
Y211653D01*
X477000Y204000D02*
Y211653D01*
X487000Y204000D02*
Y211555D01*
X430000Y205500D02*
X442945Y218445D01*
X449000D01*
X437559Y227559D02*
X458102D01*
X430500Y220500D02*
X437559Y227559D01*
X477000Y232677D02*
X483823D01*
X537000Y184043D02*
Y196551D01*
X522000Y184000D02*
X529957D01*
X521449Y216000D02*
X522000Y215449D01*
X513043Y216000D02*
X521449D01*
X498000D02*
X505957D01*
X496408Y229908D02*
X505000D01*
X505879Y237874D02*
X515000D01*
Y230000D02*
X524908D01*
X515000Y237874D02*
X524121D01*
X535000D02*
X543000D01*
X534908Y229908D02*
X535000Y230000D01*
X525092D02*
X535000D01*
X583949Y222500D02*
X584500Y221949D01*
X575543Y222500D02*
X583949D01*
X560500D02*
X568457D01*
X581500Y183106D02*
Y191500D01*
X565752Y183106D02*
X573626D01*
X558606Y191106D02*
X565626D01*
X428500Y205500D02*
Y215500D01*
X413500Y220500D02*
X418500Y215500D01*
X413500Y220500D02*
Y226797D01*
X416821Y230118D01*
X458102D01*
X418500Y225500D02*
X419500D01*
X424500Y220500D01*
X430500D01*
X418500Y235500D02*
X421000D01*
X426000Y240500D01*
X431677D01*
X439500Y232677D01*
X458102D01*
X418500Y181626D02*
Y195500D01*
Y205500D02*
X424000Y200000D01*
Y187000D02*
Y200000D01*
Y187000D02*
X434000D01*
X436626Y184374D01*
Y181500D02*
Y184374D01*
X428500Y205500D02*
X430000D01*
X428500D02*
X444500Y189500D01*
Y181500D02*
Y189500D01*
X426500Y178000D02*
Y181500D01*
Y178000D02*
X428500Y176000D01*
X442000D01*
X444500Y178500D01*
Y181500D01*
X477000Y227559D02*
X485559D01*
X494994Y236995D01*
X505000D01*
X532000Y215449D02*
Y222000D01*
X535000Y225000D01*
Y230000D01*
X537000Y215449D02*
Y222500D01*
X539000Y224500D01*
Y233000D01*
X538000Y234000D02*
X539000Y233000D01*
X532816Y234000D02*
X538000D01*
X529816Y237000D02*
X532816Y234000D01*
X525005Y237000D02*
X529816D01*
X543500Y229500D02*
X556000D01*
X543000Y230000D02*
X543500Y229500D01*
X543000Y237874D02*
X543374Y237500D01*
X599500Y221949D02*
Y231000D01*
X543000Y237874D02*
X546626D01*
X553000Y231500D01*
X594500Y221949D02*
Y229000D01*
X594000Y229500D02*
X594500Y229000D01*
X556000Y229500D02*
X594000D01*
X553000Y231500D02*
X599000D01*
X599500Y231000D01*
X581500Y191500D02*
X590000D01*
X594500Y196000D01*
Y203051D01*
X599500Y194043D02*
Y203051D01*
X600500Y185957D02*
X609043D01*
X667945Y183500D02*
Y191945D01*
X684445Y175500D02*
Y183945D01*
X677555Y232555D02*
X694500Y249500D01*
X677555Y175500D02*
Y232555D01*
X661055Y226055D02*
X684500Y249500D01*
X651945Y191500D02*
Y199945D01*
X661055Y183500D02*
Y226055D01*
X584500Y203051D02*
Y208000D01*
X589500Y217000D02*
Y221949D01*
X592508Y217000D02*
X593390Y216118D01*
X589500Y217000D02*
X592508D01*
X584500Y208000D02*
X590618Y214118D01*
X639118D02*
X640500Y215500D01*
X590618Y214118D02*
X639118D01*
X593390Y216118D02*
X631118D01*
X640500Y225500D01*
X599500Y203051D02*
X644949D01*
Y201161D02*
Y203051D01*
X645055Y191500D02*
Y203055D01*
X657000Y215000D01*
Y232000D01*
X674500Y249500D01*
X537055Y178555D02*
Y183988D01*
X589500Y196500D02*
Y203051D01*
X589000Y196000D02*
X589500Y196500D01*
X573626Y191500D02*
X574563D01*
X579063Y196000D02*
X589000D01*
X574563Y191500D02*
X579063Y196000D01*
X556000Y219500D02*
Y229500D01*
X560583Y209846D02*
Y214917D01*
X556000Y219500D02*
X560583Y214917D01*
Y203153D02*
X565736Y198000D01*
X571000D01*
X573626Y195374D01*
Y191500D02*
Y195374D01*
X575543Y214543D02*
Y222500D01*
X545000Y183500D02*
Y206500D01*
Y183500D02*
X545268Y183232D01*
X527000Y207000D02*
Y215449D01*
Y207000D02*
X527500Y206500D01*
X545000D01*
X513043Y183457D02*
Y216000D01*
X545268Y183232D02*
X565626D01*
X645055Y178555D02*
Y191500D01*
X537055Y178555D02*
X645055D01*
X513043Y183457D02*
X522000Y174500D01*
X551000D01*
X669000Y175500D02*
X677555D01*
X452500Y170500D02*
X664000D01*
X669000Y175500D01*
X551000Y174500D02*
X652055D01*
X661055Y183500D01*
X444500Y178500D02*
X452500Y170500D01*
X449000Y330945D02*
X458705D01*
X477000Y331240D02*
X486705D01*
X458102Y332138D02*
Y337500D01*
X477000Y331240D02*
Y337500D01*
Y342618D02*
Y345177D01*
X449000Y316500D02*
Y324055D01*
X459000Y316500D02*
Y324153D01*
X477000Y316500D02*
Y324153D01*
X487000Y316500D02*
Y324055D01*
X430000Y318000D02*
X442945Y330945D01*
X449000D01*
X437559Y340059D02*
X458102D01*
X430500Y333000D02*
X437559Y340059D01*
X477000Y345177D02*
X483823D01*
X537000Y296543D02*
Y309051D01*
X522000Y296500D02*
X529957D01*
X521449Y328500D02*
X522000Y327949D01*
X513043Y328500D02*
X521449D01*
X498000D02*
X505957D01*
X496408Y342408D02*
X505000D01*
X505879Y350374D02*
X515000D01*
Y342500D02*
X524908D01*
X515000Y350374D02*
X524121D01*
X535000D02*
X543000D01*
X534908Y342408D02*
X535000Y342500D01*
X525092D02*
X535000D01*
X583949Y335000D02*
X584500Y334449D01*
X575543Y335000D02*
X583949D01*
X560500D02*
X568457D01*
X581500Y295606D02*
Y304000D01*
X565752Y295606D02*
X573626D01*
X558606Y303606D02*
X565626D01*
X428500Y318000D02*
Y328000D01*
X413500Y333000D02*
X418500Y328000D01*
X413500Y333000D02*
Y339297D01*
X416821Y342618D01*
X458102D01*
X418500Y338000D02*
X419500D01*
X424500Y333000D01*
X430500D01*
X418500Y348000D02*
X421000D01*
X426000Y353000D01*
X431677D01*
X439500Y345177D01*
X458102D01*
X418500Y294126D02*
Y308000D01*
Y318000D02*
X424000Y312500D01*
Y299500D02*
Y312500D01*
Y299500D02*
X434000D01*
X436626Y296874D01*
Y294000D02*
Y296874D01*
X428500Y318000D02*
X430000D01*
X428500D02*
X444500Y302000D01*
Y294000D02*
Y302000D01*
X426500Y290500D02*
Y294000D01*
Y290500D02*
X428500Y288500D01*
X442000D01*
X444500Y291000D01*
Y294000D01*
X477000Y340059D02*
X485559D01*
X494994Y349495D01*
X505000D01*
X532000Y327949D02*
Y334500D01*
X535000Y337500D01*
Y342500D01*
X537000Y327949D02*
Y335000D01*
X539000Y337000D01*
Y345500D01*
X538000Y346500D02*
X539000Y345500D01*
X532816Y346500D02*
X538000D01*
X529816Y349500D02*
X532816Y346500D01*
X525005Y349500D02*
X529816D01*
X543500Y342000D02*
X556000D01*
X543000Y342500D02*
X543500Y342000D01*
X543000Y350374D02*
X543374Y350000D01*
X599500Y334449D02*
Y343500D01*
X543000Y350374D02*
X546626D01*
X553000Y344000D01*
X594500Y334449D02*
Y341500D01*
X594000Y342000D02*
X594500Y341500D01*
X556000Y342000D02*
X594000D01*
X553000Y344000D02*
X599000D01*
X599500Y343500D01*
X581500Y304000D02*
X590000D01*
X594500Y308500D01*
Y315551D01*
X599500Y306543D02*
Y315551D01*
X600500Y298457D02*
X609043D01*
X667945Y296000D02*
Y304445D01*
X684445Y288000D02*
Y296445D01*
X677555Y345055D02*
X694500Y362000D01*
X677555Y288000D02*
Y345055D01*
X661055Y338555D02*
X684500Y362000D01*
X651945Y304000D02*
Y312445D01*
X661055Y296000D02*
Y338555D01*
X584500Y315551D02*
Y320500D01*
X589500Y329500D02*
Y334449D01*
X592508Y329500D02*
X593390Y328618D01*
X589500Y329500D02*
X592508D01*
X584500Y320500D02*
X590618Y326618D01*
X639118D02*
X640500Y328000D01*
X590618Y326618D02*
X639118D01*
X593390Y328618D02*
X631118D01*
X640500Y338000D01*
X599500Y315551D02*
X644949D01*
Y313661D02*
Y315551D01*
X645055Y304000D02*
Y315555D01*
X657000Y327500D01*
Y344500D01*
X674500Y362000D01*
X537055Y291055D02*
Y296488D01*
X589500Y309000D02*
Y315551D01*
X589000Y308500D02*
X589500Y309000D01*
X573626Y304000D02*
X574563D01*
X579063Y308500D02*
X589000D01*
X574563Y304000D02*
X579063Y308500D01*
X556000Y332000D02*
Y342000D01*
X560583Y322346D02*
Y327417D01*
X556000Y332000D02*
X560583Y327417D01*
Y315653D02*
X565736Y310500D01*
X571000D01*
X573626Y307874D01*
Y304000D02*
Y307874D01*
X575543Y327043D02*
Y335000D01*
X545000Y296000D02*
Y319000D01*
Y296000D02*
X545268Y295732D01*
X527000Y319500D02*
Y327949D01*
Y319500D02*
X527500Y319000D01*
X545000D01*
X513043Y295957D02*
Y328500D01*
X545268Y295732D02*
X565626D01*
X645055Y291055D02*
Y304000D01*
X537055Y291055D02*
X645055D01*
X513043Y295957D02*
X522000Y287000D01*
X551000D01*
X669000Y288000D02*
X677555D01*
X452500Y283000D02*
X664000D01*
X669000Y288000D01*
X551000Y287000D02*
X652055D01*
X661055Y296000D01*
X444500Y291000D02*
X452500Y283000D01*
D16*
X265454Y313617D02*
D03*
X272147D02*
D03*
X190553D02*
D03*
X197247D02*
D03*
X112554D02*
D03*
X119246D02*
D03*
X995453D02*
D03*
X1002147D02*
D03*
X920553D02*
D03*
X927246D02*
D03*
X842554D02*
D03*
X849247D02*
D03*
D17*
X268000Y409000D02*
D03*
X270559D02*
D03*
X273118D02*
D03*
X275677D02*
D03*
X268000Y427898D02*
D03*
X270559D02*
D03*
X273118D02*
D03*
X275677D02*
D03*
X196000Y409000D02*
D03*
X198559D02*
D03*
X201118D02*
D03*
X203677D02*
D03*
X196000Y427898D02*
D03*
X198559D02*
D03*
X201118D02*
D03*
X203677D02*
D03*
X122000Y409000D02*
D03*
X124559D02*
D03*
X127118D02*
D03*
X129677D02*
D03*
X122000Y427898D02*
D03*
X124559D02*
D03*
X127118D02*
D03*
X129677D02*
D03*
X998000Y409000D02*
D03*
X1000559D02*
D03*
X1003118D02*
D03*
X1005677D02*
D03*
X998000Y427898D02*
D03*
X1000559D02*
D03*
X1003118D02*
D03*
X1005677D02*
D03*
X926000Y409000D02*
D03*
X928559D02*
D03*
X931118D02*
D03*
X933677D02*
D03*
X926000Y427898D02*
D03*
X928559D02*
D03*
X931118D02*
D03*
X933677D02*
D03*
X852000Y409000D02*
D03*
X854559D02*
D03*
X857118D02*
D03*
X859677D02*
D03*
X852000Y427898D02*
D03*
X854559D02*
D03*
X857118D02*
D03*
X859677D02*
D03*
D18*
X261945Y401000D02*
D03*
X255055D02*
D03*
X261945Y437000D02*
D03*
X255055D02*
D03*
X189445Y400500D02*
D03*
X182555D02*
D03*
X189445Y436500D02*
D03*
X182555D02*
D03*
X115945Y401000D02*
D03*
X109055D02*
D03*
X115945Y437000D02*
D03*
X109055D02*
D03*
X991945Y401000D02*
D03*
X985055D02*
D03*
X991945Y437000D02*
D03*
X985055D02*
D03*
X919445Y400500D02*
D03*
X912555D02*
D03*
X919445Y436500D02*
D03*
X912555D02*
D03*
X845945Y401000D02*
D03*
X839055D02*
D03*
X845945Y437000D02*
D03*
X839055D02*
D03*
X645055Y191500D02*
D03*
X651945D02*
D03*
X661055Y183500D02*
D03*
X667945D02*
D03*
X677555Y175500D02*
D03*
X684445D02*
D03*
X645055Y304000D02*
D03*
X651945D02*
D03*
X661055Y296000D02*
D03*
X667945D02*
D03*
X677555Y288000D02*
D03*
X684445D02*
D03*
D19*
X254957Y411000D02*
D03*
X262043D02*
D03*
X254957Y427000D02*
D03*
X262043D02*
D03*
X182457Y410500D02*
D03*
X189543D02*
D03*
X182457Y426500D02*
D03*
X189543D02*
D03*
X108957Y411000D02*
D03*
X116043D02*
D03*
X286457Y371000D02*
D03*
X293543D02*
D03*
X108957Y427000D02*
D03*
X116043D02*
D03*
X201908Y369500D02*
D03*
X208995D02*
D03*
X146457Y369000D02*
D03*
X153543D02*
D03*
X286457Y381000D02*
D03*
X293543D02*
D03*
X201908Y380000D02*
D03*
X208995D02*
D03*
X146457D02*
D03*
X153543D02*
D03*
X984957Y411000D02*
D03*
X992043D02*
D03*
X984957Y427000D02*
D03*
X992043D02*
D03*
X912457Y410500D02*
D03*
X919543D02*
D03*
X912457Y426500D02*
D03*
X919543D02*
D03*
X838957Y411000D02*
D03*
X846043D02*
D03*
X1016457Y371000D02*
D03*
X1023543D02*
D03*
X838957Y427000D02*
D03*
X846043D02*
D03*
X931908Y369500D02*
D03*
X938995D02*
D03*
X876457Y369000D02*
D03*
X883543D02*
D03*
X1016457Y381000D02*
D03*
X1023543D02*
D03*
X931908Y380000D02*
D03*
X938995D02*
D03*
X876457D02*
D03*
X883543D02*
D03*
X537043Y184000D02*
D03*
X529957D02*
D03*
X513043Y216000D02*
D03*
X505957D02*
D03*
X575543Y222500D02*
D03*
X568457D02*
D03*
X537043Y296500D02*
D03*
X529957D02*
D03*
X513043Y328500D02*
D03*
X505957D02*
D03*
X575543Y335000D02*
D03*
X568457D02*
D03*
D20*
X284500Y299957D02*
D03*
Y307043D02*
D03*
X264500Y269043D02*
D03*
Y261957D02*
D03*
X209500Y299457D02*
D03*
Y306543D02*
D03*
X189500Y268543D02*
D03*
Y261457D02*
D03*
X131400Y299957D02*
D03*
Y307043D02*
D03*
X111500Y269043D02*
D03*
Y261957D02*
D03*
X261900Y376457D02*
D03*
Y383543D02*
D03*
X243100Y345543D02*
D03*
Y338457D02*
D03*
X114400Y376457D02*
D03*
Y383543D02*
D03*
X95400Y345543D02*
D03*
Y338457D02*
D03*
X1014500Y299957D02*
D03*
Y307043D02*
D03*
X994500Y269043D02*
D03*
Y261957D02*
D03*
X939500Y299457D02*
D03*
Y306543D02*
D03*
X919500Y268543D02*
D03*
Y261457D02*
D03*
X861400Y299957D02*
D03*
Y307043D02*
D03*
X841500Y269043D02*
D03*
Y261957D02*
D03*
X991900Y376457D02*
D03*
Y383543D02*
D03*
X973100Y345543D02*
D03*
Y338457D02*
D03*
X844400Y376457D02*
D03*
Y383543D02*
D03*
X825400Y345543D02*
D03*
Y338457D02*
D03*
X600500Y193043D02*
D03*
Y185957D02*
D03*
Y305543D02*
D03*
Y298457D02*
D03*
D21*
X284449Y277000D02*
D03*
Y282000D02*
D03*
Y287000D02*
D03*
Y292000D02*
D03*
X265551Y277000D02*
D03*
Y282000D02*
D03*
Y287000D02*
D03*
Y292000D02*
D03*
X209449Y276500D02*
D03*
Y281500D02*
D03*
Y286500D02*
D03*
Y291500D02*
D03*
X190551Y276500D02*
D03*
Y281500D02*
D03*
Y286500D02*
D03*
Y291500D02*
D03*
X131449Y277000D02*
D03*
Y282000D02*
D03*
Y287000D02*
D03*
Y292000D02*
D03*
X112551Y277000D02*
D03*
Y282000D02*
D03*
Y287000D02*
D03*
Y292000D02*
D03*
X261949Y353500D02*
D03*
Y358500D02*
D03*
Y363500D02*
D03*
Y368500D02*
D03*
X243051Y353500D02*
D03*
Y358500D02*
D03*
Y363500D02*
D03*
Y368500D02*
D03*
X114449Y353500D02*
D03*
Y358500D02*
D03*
Y363500D02*
D03*
Y368500D02*
D03*
X95551Y353500D02*
D03*
Y358500D02*
D03*
Y363500D02*
D03*
Y368500D02*
D03*
X1014449Y277000D02*
D03*
Y282000D02*
D03*
Y287000D02*
D03*
Y292000D02*
D03*
X995551Y277000D02*
D03*
Y282000D02*
D03*
Y287000D02*
D03*
Y292000D02*
D03*
X939449Y276500D02*
D03*
Y281500D02*
D03*
Y286500D02*
D03*
Y291500D02*
D03*
X920551Y276500D02*
D03*
Y281500D02*
D03*
Y286500D02*
D03*
Y291500D02*
D03*
X861449Y277000D02*
D03*
Y282000D02*
D03*
Y287000D02*
D03*
Y292000D02*
D03*
X842551Y277000D02*
D03*
Y282000D02*
D03*
Y287000D02*
D03*
Y292000D02*
D03*
X991949Y353500D02*
D03*
Y358500D02*
D03*
Y363500D02*
D03*
Y368500D02*
D03*
X973051Y353500D02*
D03*
Y358500D02*
D03*
Y363500D02*
D03*
Y368500D02*
D03*
X844449Y353500D02*
D03*
Y358500D02*
D03*
Y363500D02*
D03*
Y368500D02*
D03*
X825551Y353500D02*
D03*
Y358500D02*
D03*
Y363500D02*
D03*
Y368500D02*
D03*
D22*
X560583Y209846D02*
D03*
Y203153D02*
D03*
Y322346D02*
D03*
Y315653D02*
D03*
D23*
X477000Y225000D02*
D03*
Y227559D02*
D03*
Y230118D02*
D03*
Y232677D02*
D03*
X458102Y225000D02*
D03*
Y227559D02*
D03*
Y230118D02*
D03*
Y232677D02*
D03*
X477000Y337500D02*
D03*
Y340059D02*
D03*
Y342618D02*
D03*
Y345177D02*
D03*
X458102Y337500D02*
D03*
Y340059D02*
D03*
Y342618D02*
D03*
Y345177D02*
D03*
D24*
X525000Y229908D02*
D03*
Y236995D02*
D03*
X477000Y211653D02*
D03*
Y218740D02*
D03*
X459000Y211653D02*
D03*
Y218740D02*
D03*
X505000Y229908D02*
D03*
Y236995D02*
D03*
X525000Y342408D02*
D03*
Y349495D02*
D03*
X477000Y324153D02*
D03*
Y331240D02*
D03*
X459000Y324153D02*
D03*
Y331240D02*
D03*
X505000Y342408D02*
D03*
Y349495D02*
D03*
D25*
X487000Y218445D02*
D03*
Y211555D02*
D03*
X449000Y218445D02*
D03*
Y211555D02*
D03*
X487000Y330945D02*
D03*
Y324055D02*
D03*
X449000Y330945D02*
D03*
Y324055D02*
D03*
D26*
X599500Y221949D02*
D03*
X594500D02*
D03*
X589500D02*
D03*
X584500D02*
D03*
X599500Y203051D02*
D03*
X594500D02*
D03*
X589500D02*
D03*
X584500D02*
D03*
X537000Y215449D02*
D03*
X532000D02*
D03*
X527000D02*
D03*
X522000D02*
D03*
X537000Y196551D02*
D03*
X532000D02*
D03*
X527000D02*
D03*
X522000D02*
D03*
X599500Y334449D02*
D03*
X594500D02*
D03*
X589500D02*
D03*
X584500D02*
D03*
X599500Y315551D02*
D03*
X594500D02*
D03*
X589500D02*
D03*
X584500D02*
D03*
X537000Y327949D02*
D03*
X532000D02*
D03*
X527000D02*
D03*
X522000D02*
D03*
X537000Y309051D02*
D03*
X532000D02*
D03*
X527000D02*
D03*
X522000D02*
D03*
D27*
X625000Y46500D02*
D03*
Y106500D02*
D03*
Y437500D02*
D03*
Y497500D02*
D03*
X170500Y473500D02*
D03*
X900500D02*
D03*
X674500Y249500D02*
D03*
Y362000D02*
D03*
D28*
X615000Y46500D02*
D03*
X605000D02*
D03*
X595000D02*
D03*
X585000D02*
D03*
X575000D02*
D03*
X565000D02*
D03*
X555000D02*
D03*
X545000D02*
D03*
X535000D02*
D03*
X525000D02*
D03*
X515000D02*
D03*
X505000D02*
D03*
X495000D02*
D03*
X485000D02*
D03*
X615000Y106500D02*
D03*
X605000D02*
D03*
X595000D02*
D03*
X585000D02*
D03*
X575000D02*
D03*
X565000D02*
D03*
X555000D02*
D03*
X545000D02*
D03*
X535000D02*
D03*
X525000D02*
D03*
X515000D02*
D03*
X505000D02*
D03*
X495000D02*
D03*
X485000D02*
D03*
X591500Y86500D02*
D03*
Y76500D02*
D03*
X515000Y66500D02*
D03*
Y76500D02*
D03*
X615000Y437500D02*
D03*
X605000D02*
D03*
X595000D02*
D03*
X585000D02*
D03*
X575000D02*
D03*
X565000D02*
D03*
X555000D02*
D03*
X545000D02*
D03*
X535000D02*
D03*
X525000D02*
D03*
X515000D02*
D03*
X505000D02*
D03*
X495000D02*
D03*
X485000D02*
D03*
X615000Y497500D02*
D03*
X605000D02*
D03*
X595000D02*
D03*
X585000D02*
D03*
X575000D02*
D03*
X565000D02*
D03*
X555000D02*
D03*
X545000D02*
D03*
X535000D02*
D03*
X525000D02*
D03*
X515000D02*
D03*
X505000D02*
D03*
X495000D02*
D03*
X485000D02*
D03*
X591500Y477500D02*
D03*
Y467500D02*
D03*
X515000Y457500D02*
D03*
Y467500D02*
D03*
X233500Y177000D02*
D03*
Y187000D02*
D03*
Y197000D02*
D03*
X210500Y463500D02*
D03*
Y473500D02*
D03*
X200500Y463500D02*
D03*
Y473500D02*
D03*
X190500Y463500D02*
D03*
Y473500D02*
D03*
X180500Y463500D02*
D03*
Y473500D02*
D03*
X170500Y463500D02*
D03*
X963500Y177000D02*
D03*
Y187000D02*
D03*
Y197000D02*
D03*
X940500Y463500D02*
D03*
Y473500D02*
D03*
X930500Y463500D02*
D03*
Y473500D02*
D03*
X920500Y463500D02*
D03*
Y473500D02*
D03*
X910500Y463500D02*
D03*
Y473500D02*
D03*
X900500Y463500D02*
D03*
X704500Y249500D02*
D03*
X694500D02*
D03*
X684500D02*
D03*
X428500Y235500D02*
D03*
X418500D02*
D03*
X428500Y225500D02*
D03*
X418500D02*
D03*
X428500Y215500D02*
D03*
X418500D02*
D03*
X428500Y205500D02*
D03*
X418500D02*
D03*
X428500Y195500D02*
D03*
X704500Y362000D02*
D03*
X694500D02*
D03*
X684500D02*
D03*
X428500Y348000D02*
D03*
X418500D02*
D03*
X428500Y338000D02*
D03*
X418500D02*
D03*
X428500Y328000D02*
D03*
X418500D02*
D03*
X428500Y318000D02*
D03*
X418500D02*
D03*
X428500Y308000D02*
D03*
D29*
X591500Y66500D02*
D03*
X515000Y86500D02*
D03*
X591500Y457500D02*
D03*
X515000Y477500D02*
D03*
X233500Y207000D02*
D03*
X963500D02*
D03*
X418500Y195500D02*
D03*
Y308000D02*
D03*
D30*
X535874Y22374D02*
D03*
X576026D02*
D03*
X616026D02*
D03*
X576074Y130626D02*
D03*
X615974D02*
D03*
X535974D02*
D03*
X535874Y413374D02*
D03*
X576026D02*
D03*
X616026D02*
D03*
X576074Y521626D02*
D03*
X615974D02*
D03*
X535974D02*
D03*
X180547Y449547D02*
D03*
X264500Y254000D02*
D03*
X284500Y315000D02*
D03*
X189500Y253500D02*
D03*
X209500Y314500D02*
D03*
X111500Y254000D02*
D03*
X131400Y314900D02*
D03*
X114400Y391600D02*
D03*
X261900D02*
D03*
X243100Y330600D02*
D03*
X275677Y402177D02*
D03*
X247000Y401000D02*
D03*
Y411000D02*
D03*
Y427000D02*
D03*
Y437000D02*
D03*
X174500Y400500D02*
D03*
Y410500D02*
D03*
Y426500D02*
D03*
Y436500D02*
D03*
X203500Y402000D02*
D03*
X101000Y401000D02*
D03*
Y411000D02*
D03*
Y427000D02*
D03*
Y437000D02*
D03*
X129677Y401823D02*
D03*
X254500Y304500D02*
D03*
X179500Y304000D02*
D03*
X101200Y303800D02*
D03*
X138500Y380000D02*
D03*
X201908Y388592D02*
D03*
X233000Y368500D02*
D03*
X177000D02*
D03*
X95400Y330600D02*
D03*
X278500Y381000D02*
D03*
X278000Y368500D02*
D03*
X301000Y338000D02*
D03*
X154500Y428000D02*
D03*
X262000Y445500D02*
D03*
X123457Y299957D02*
D03*
X86000Y313500D02*
D03*
X258000Y220500D02*
D03*
X201000Y300000D02*
D03*
X206500Y434000D02*
D03*
X276957Y299957D02*
D03*
X910547Y449547D02*
D03*
X994500Y254000D02*
D03*
X1014500Y315000D02*
D03*
X919500Y253500D02*
D03*
X939500Y314500D02*
D03*
X841500Y254000D02*
D03*
X861400Y314900D02*
D03*
X844400Y391600D02*
D03*
X991900D02*
D03*
X973100Y330600D02*
D03*
X1005677Y402177D02*
D03*
X977000Y401000D02*
D03*
Y411000D02*
D03*
Y427000D02*
D03*
Y437000D02*
D03*
X904500Y400500D02*
D03*
Y410500D02*
D03*
Y426500D02*
D03*
Y436500D02*
D03*
X933500Y402000D02*
D03*
X831000Y401000D02*
D03*
Y411000D02*
D03*
Y427000D02*
D03*
Y437000D02*
D03*
X859677Y401823D02*
D03*
X984500Y304500D02*
D03*
X909500Y304000D02*
D03*
X831200Y303800D02*
D03*
X868500Y380000D02*
D03*
X931908Y388592D02*
D03*
X963000Y368500D02*
D03*
X907000D02*
D03*
X825400Y330600D02*
D03*
X1008500Y381000D02*
D03*
X1008000Y368500D02*
D03*
X1031000Y338000D02*
D03*
X884500Y428000D02*
D03*
X992000Y445500D02*
D03*
X853457Y299957D02*
D03*
X816000Y313500D02*
D03*
X988000Y220500D02*
D03*
X931000Y300000D02*
D03*
X936500Y434000D02*
D03*
X1006957Y299957D02*
D03*
X449000Y204000D02*
D03*
X459000D02*
D03*
X477000D02*
D03*
X487000D02*
D03*
X483823Y232677D02*
D03*
X522000Y184000D02*
D03*
X498000Y216000D02*
D03*
X496408Y229908D02*
D03*
X560500Y222500D02*
D03*
X558606Y191106D02*
D03*
X609043Y185957D02*
D03*
X667945Y191945D02*
D03*
X651945Y199945D02*
D03*
X684445Y183945D02*
D03*
X575543Y214543D02*
D03*
X551000Y174500D02*
D03*
X449000Y316500D02*
D03*
X459000D02*
D03*
X477000D02*
D03*
X487000D02*
D03*
X483823Y345177D02*
D03*
X522000Y296500D02*
D03*
X498000Y328500D02*
D03*
X496408Y342408D02*
D03*
X560500Y335000D02*
D03*
X558606Y303606D02*
D03*
X609043Y298457D02*
D03*
X667945Y304445D02*
D03*
X651945Y312445D02*
D03*
X684445Y296445D02*
D03*
X575543Y327043D02*
D03*
X551000Y287000D02*
D03*
D31*
X480000Y16500D02*
D03*
Y139020D02*
D03*
X630000Y136500D02*
D03*
Y16500D02*
D03*
X480000Y407500D02*
D03*
Y530020D02*
D03*
X630000Y527500D02*
D03*
Y407500D02*
D03*
D32*
X326250Y420500D02*
D03*
Y235500D02*
D03*
X53750D02*
D03*
Y420500D02*
D03*
X1056250D02*
D03*
Y235500D02*
D03*
X783750D02*
D03*
Y420500D02*
D03*
D33*
X270000Y230300D02*
D03*
X280000D02*
D03*
X190700D02*
D03*
X200700D02*
D03*
X111400D02*
D03*
X121400D02*
D03*
X1000000D02*
D03*
X1010000D02*
D03*
X920700D02*
D03*
X930700D02*
D03*
X841400D02*
D03*
X851400D02*
D03*
X640500Y225500D02*
D03*
Y215500D02*
D03*
Y338000D02*
D03*
Y328000D02*
D03*
D34*
X250000Y250300D02*
D03*
X290000D02*
D03*
X170700D02*
D03*
X210700D02*
D03*
X91400D02*
D03*
X131400D02*
D03*
X980000D02*
D03*
X1020000D02*
D03*
X900700D02*
D03*
X940700D02*
D03*
X821400D02*
D03*
X861400D02*
D03*
X620500Y235500D02*
D03*
Y195500D02*
D03*
Y348000D02*
D03*
Y308000D02*
D03*
M02*
