%FSLAX25Y25*%
%MOIN*%
G70*
G01*
G75*
G04 Layer_Color=16711935*
%ADD10R,0.12992X0.05118*%
%ADD11R,0.12992X0.01969*%
%ADD12R,0.01969X0.01575*%
%ADD13R,0.03543X0.04331*%
%ADD14R,0.04331X0.03543*%
%ADD15C,0.01000*%
%ADD16R,0.03937X0.03543*%
%ADD17R,0.01614X0.04016*%
%ADD18R,0.04921X0.05512*%
%ADD19R,0.04724X0.05512*%
%ADD20R,0.05512X0.04724*%
%ADD21O,0.08661X0.02362*%
%ADD22R,0.03543X0.03937*%
%ADD23R,0.04016X0.01614*%
%ADD24R,0.05512X0.04724*%
%ADD25R,0.05512X0.04921*%
%ADD26O,0.02362X0.08661*%
%ADD27R,0.05906X0.05906*%
%ADD28C,0.05906*%
%ADD29R,0.05906X0.05906*%
%ADD30C,0.05000*%
%ADD31C,0.14950*%
%ADD32C,0.10000*%
%ADD33C,0.06000*%
%ADD34C,0.10787*%
%ADD35R,0.04724X0.04724*%
%ADD36R,0.10000X0.05984*%
%ADD37R,0.05984X0.10000*%
%ADD38R,0.04724X0.04724*%
%ADD39C,0.00787*%
%ADD40C,0.00800*%
%ADD41C,0.00700*%
%ADD42C,0.00984*%
%ADD43C,0.02362*%
%ADD44C,0.02000*%
%ADD45C,0.01500*%
%ADD46C,0.01200*%
%ADD47R,0.13792X0.05918*%
%ADD48R,0.13792X0.02769*%
%ADD49R,0.02769X0.02375*%
%ADD50R,0.04343X0.05131*%
%ADD51R,0.05131X0.04343*%
%ADD52R,0.04737X0.04343*%
%ADD53R,0.02414X0.04816*%
%ADD54R,0.05721X0.06312*%
%ADD55R,0.05524X0.06312*%
%ADD56R,0.06312X0.05524*%
%ADD57O,0.09461X0.03162*%
%ADD58R,0.04343X0.04737*%
%ADD59R,0.04816X0.02414*%
%ADD60R,0.06312X0.05524*%
%ADD61R,0.06312X0.05721*%
%ADD62O,0.03162X0.09461*%
%ADD63R,0.06706X0.06706*%
%ADD64C,0.06706*%
%ADD65R,0.06706X0.06706*%
%ADD66C,0.05800*%
%ADD67C,0.15750*%
%ADD68C,0.10800*%
%ADD69C,0.06800*%
%ADD70C,0.11587*%
%ADD71R,0.05524X0.05524*%
%ADD72R,0.10800X0.06784*%
%ADD73R,0.06784X0.10800*%
%ADD74R,0.05524X0.05524*%
D50*
X662500Y239177D02*
D03*
Y231303D02*
D03*
X704500D02*
D03*
Y239177D02*
D03*
X654500Y231303D02*
D03*
Y239177D02*
D03*
X662500Y351677D02*
D03*
Y343803D02*
D03*
X704500D02*
D03*
Y351677D02*
D03*
X654500Y343803D02*
D03*
Y351677D02*
D03*
D51*
X209403Y177000D02*
D03*
X217277D02*
D03*
X939403D02*
D03*
X947277D02*
D03*
X662500Y247500D02*
D03*
X654626D02*
D03*
X654500Y255500D02*
D03*
X662374D02*
D03*
X662500Y360000D02*
D03*
X654626D02*
D03*
X654500Y368000D02*
D03*
X662374D02*
D03*
D63*
X625000Y46500D02*
D03*
Y106500D02*
D03*
Y437500D02*
D03*
Y497500D02*
D03*
X170500Y473500D02*
D03*
X900500D02*
D03*
X674500Y249500D02*
D03*
Y362000D02*
D03*
D64*
X615000Y46500D02*
D03*
X605000D02*
D03*
X595000D02*
D03*
X585000D02*
D03*
X575000D02*
D03*
X565000D02*
D03*
X555000D02*
D03*
X545000D02*
D03*
X535000D02*
D03*
X525000D02*
D03*
X515000D02*
D03*
X505000D02*
D03*
X495000D02*
D03*
X485000D02*
D03*
X615000Y106500D02*
D03*
X605000D02*
D03*
X595000D02*
D03*
X585000D02*
D03*
X575000D02*
D03*
X565000D02*
D03*
X555000D02*
D03*
X545000D02*
D03*
X535000D02*
D03*
X525000D02*
D03*
X515000D02*
D03*
X505000D02*
D03*
X495000D02*
D03*
X485000D02*
D03*
X591500Y86500D02*
D03*
Y76500D02*
D03*
X515000Y66500D02*
D03*
Y76500D02*
D03*
X615000Y437500D02*
D03*
X605000D02*
D03*
X595000D02*
D03*
X585000D02*
D03*
X575000D02*
D03*
X565000D02*
D03*
X555000D02*
D03*
X545000D02*
D03*
X535000D02*
D03*
X525000D02*
D03*
X515000D02*
D03*
X505000D02*
D03*
X495000D02*
D03*
X485000D02*
D03*
X615000Y497500D02*
D03*
X605000D02*
D03*
X595000D02*
D03*
X585000D02*
D03*
X575000D02*
D03*
X565000D02*
D03*
X555000D02*
D03*
X545000D02*
D03*
X535000D02*
D03*
X525000D02*
D03*
X515000D02*
D03*
X505000D02*
D03*
X495000D02*
D03*
X485000D02*
D03*
X591500Y477500D02*
D03*
Y467500D02*
D03*
X515000Y457500D02*
D03*
Y467500D02*
D03*
X233500Y177000D02*
D03*
Y187000D02*
D03*
Y197000D02*
D03*
X210500Y463500D02*
D03*
Y473500D02*
D03*
X200500Y463500D02*
D03*
Y473500D02*
D03*
X190500Y463500D02*
D03*
Y473500D02*
D03*
X180500Y463500D02*
D03*
Y473500D02*
D03*
X170500Y463500D02*
D03*
X963500Y177000D02*
D03*
Y187000D02*
D03*
Y197000D02*
D03*
X940500Y463500D02*
D03*
Y473500D02*
D03*
X930500Y463500D02*
D03*
Y473500D02*
D03*
X920500Y463500D02*
D03*
Y473500D02*
D03*
X910500Y463500D02*
D03*
Y473500D02*
D03*
X900500Y463500D02*
D03*
X704500Y249500D02*
D03*
X694500D02*
D03*
X684500D02*
D03*
X428500Y235500D02*
D03*
X418500D02*
D03*
X428500Y225500D02*
D03*
X418500D02*
D03*
X428500Y215500D02*
D03*
X418500D02*
D03*
X428500Y205500D02*
D03*
X418500D02*
D03*
X428500Y195500D02*
D03*
X704500Y362000D02*
D03*
X694500D02*
D03*
X684500D02*
D03*
X428500Y348000D02*
D03*
X418500D02*
D03*
X428500Y338000D02*
D03*
X418500D02*
D03*
X428500Y328000D02*
D03*
X418500D02*
D03*
X428500Y318000D02*
D03*
X418500D02*
D03*
X428500Y308000D02*
D03*
D65*
X591500Y66500D02*
D03*
X515000Y86500D02*
D03*
X591500Y457500D02*
D03*
X515000Y477500D02*
D03*
X233500Y207000D02*
D03*
X963500D02*
D03*
X418500Y195500D02*
D03*
Y308000D02*
D03*
D66*
X535874Y22374D02*
D03*
X576026D02*
D03*
X616026D02*
D03*
X576074Y130626D02*
D03*
X615974D02*
D03*
X535974D02*
D03*
X535874Y413374D02*
D03*
X576026D02*
D03*
X616026D02*
D03*
X576074Y521626D02*
D03*
X615974D02*
D03*
X535974D02*
D03*
X180547Y449547D02*
D03*
X264500Y254000D02*
D03*
X284500Y315000D02*
D03*
X189500Y253500D02*
D03*
X209500Y314500D02*
D03*
X111500Y254000D02*
D03*
X131400Y314900D02*
D03*
X114400Y391600D02*
D03*
X261900D02*
D03*
X243100Y330600D02*
D03*
X275677Y402177D02*
D03*
X247000Y401000D02*
D03*
Y411000D02*
D03*
Y427000D02*
D03*
Y437000D02*
D03*
X174500Y400500D02*
D03*
Y410500D02*
D03*
Y426500D02*
D03*
Y436500D02*
D03*
X203500Y402000D02*
D03*
X101000Y401000D02*
D03*
Y411000D02*
D03*
Y427000D02*
D03*
Y437000D02*
D03*
X129677Y401823D02*
D03*
X254500Y304500D02*
D03*
X179500Y304000D02*
D03*
X101200Y303800D02*
D03*
X138500Y380000D02*
D03*
X201908Y388592D02*
D03*
X233000Y368500D02*
D03*
X177000D02*
D03*
X95400Y330600D02*
D03*
X278500Y381000D02*
D03*
X278000Y368500D02*
D03*
X301000Y338000D02*
D03*
X154500Y428000D02*
D03*
X262000Y445500D02*
D03*
X123457Y299957D02*
D03*
X86000Y313500D02*
D03*
X258000Y220500D02*
D03*
X201000Y300000D02*
D03*
X206500Y434000D02*
D03*
X276957Y299957D02*
D03*
X910547Y449547D02*
D03*
X994500Y254000D02*
D03*
X1014500Y315000D02*
D03*
X919500Y253500D02*
D03*
X939500Y314500D02*
D03*
X841500Y254000D02*
D03*
X861400Y314900D02*
D03*
X844400Y391600D02*
D03*
X991900D02*
D03*
X973100Y330600D02*
D03*
X1005677Y402177D02*
D03*
X977000Y401000D02*
D03*
Y411000D02*
D03*
Y427000D02*
D03*
Y437000D02*
D03*
X904500Y400500D02*
D03*
Y410500D02*
D03*
Y426500D02*
D03*
Y436500D02*
D03*
X933500Y402000D02*
D03*
X831000Y401000D02*
D03*
Y411000D02*
D03*
Y427000D02*
D03*
Y437000D02*
D03*
X859677Y401823D02*
D03*
X984500Y304500D02*
D03*
X909500Y304000D02*
D03*
X831200Y303800D02*
D03*
X868500Y380000D02*
D03*
X931908Y388592D02*
D03*
X963000Y368500D02*
D03*
X907000D02*
D03*
X825400Y330600D02*
D03*
X1008500Y381000D02*
D03*
X1008000Y368500D02*
D03*
X1031000Y338000D02*
D03*
X884500Y428000D02*
D03*
X992000Y445500D02*
D03*
X853457Y299957D02*
D03*
X816000Y313500D02*
D03*
X988000Y220500D02*
D03*
X931000Y300000D02*
D03*
X936500Y434000D02*
D03*
X1006957Y299957D02*
D03*
X449000Y204000D02*
D03*
X459000D02*
D03*
X477000D02*
D03*
X487000D02*
D03*
X483823Y232677D02*
D03*
X522000Y184000D02*
D03*
X498000Y216000D02*
D03*
X496408Y229908D02*
D03*
X560500Y222500D02*
D03*
X558606Y191106D02*
D03*
X609043Y185957D02*
D03*
X667945Y191945D02*
D03*
X651945Y199945D02*
D03*
X684445Y183945D02*
D03*
X575543Y214543D02*
D03*
X551000Y174500D02*
D03*
X449000Y316500D02*
D03*
X459000D02*
D03*
X477000D02*
D03*
X487000D02*
D03*
X483823Y345177D02*
D03*
X522000Y296500D02*
D03*
X498000Y328500D02*
D03*
X496408Y342408D02*
D03*
X560500Y335000D02*
D03*
X558606Y303606D02*
D03*
X609043Y298457D02*
D03*
X667945Y304445D02*
D03*
X651945Y312445D02*
D03*
X684445Y296445D02*
D03*
X575543Y327043D02*
D03*
X551000Y287000D02*
D03*
D67*
X480000Y16500D02*
D03*
Y139020D02*
D03*
X630000Y136500D02*
D03*
Y16500D02*
D03*
X480000Y407500D02*
D03*
Y530020D02*
D03*
X630000Y527500D02*
D03*
Y407500D02*
D03*
D68*
X326250Y420500D02*
D03*
Y235500D02*
D03*
X53750D02*
D03*
Y420500D02*
D03*
X1056250D02*
D03*
Y235500D02*
D03*
X783750D02*
D03*
Y420500D02*
D03*
D69*
X270000Y230300D02*
D03*
X280000D02*
D03*
X190700D02*
D03*
X200700D02*
D03*
X111400D02*
D03*
X121400D02*
D03*
X1000000D02*
D03*
X1010000D02*
D03*
X920700D02*
D03*
X930700D02*
D03*
X841400D02*
D03*
X851400D02*
D03*
X640500Y225500D02*
D03*
Y215500D02*
D03*
Y338000D02*
D03*
Y328000D02*
D03*
D70*
X250000Y250300D02*
D03*
X290000D02*
D03*
X170700D02*
D03*
X210700D02*
D03*
X91400D02*
D03*
X131400D02*
D03*
X980000D02*
D03*
X1020000D02*
D03*
X900700D02*
D03*
X940700D02*
D03*
X821400D02*
D03*
X861400D02*
D03*
X620500Y235500D02*
D03*
Y195500D02*
D03*
Y348000D02*
D03*
Y308000D02*
D03*
D71*
X209600Y187100D02*
D03*
X217080D02*
D03*
X939600D02*
D03*
X947080D02*
D03*
D72*
X213600Y197100D02*
D03*
Y210604D02*
D03*
X943600Y197100D02*
D03*
Y210604D02*
D03*
D73*
X261500Y207000D02*
D03*
X275004D02*
D03*
X261500Y190000D02*
D03*
X275004D02*
D03*
X991500Y207000D02*
D03*
X1005004D02*
D03*
X991500Y190000D02*
D03*
X1005004D02*
D03*
D74*
X684500Y231500D02*
D03*
Y238980D02*
D03*
X674500D02*
D03*
Y231500D02*
D03*
X694500Y238980D02*
D03*
Y231500D02*
D03*
X684500Y344000D02*
D03*
Y351480D02*
D03*
X674500D02*
D03*
Y344000D02*
D03*
X694500Y351480D02*
D03*
Y344000D02*
D03*
M02*
