M48
;Layer_Color=9474304
;FILE_FORMAT=2:5
INCH,LZ
;TYPE=PLATED
T1F00S00C0.02800
T2F00S00C0.03543
T3F00S00C0.03819
T4F00S00C0.08228
T5F00S00C0.14950
%
T01
X0535874Y0022374
X0576026
X0616026
X0615974Y0130626
X0576074
X0535974
X0988Y02205
X09945Y0254
X1006957Y0299957
X09845Y03045
X0931Y03
X09095Y0304
X0853457Y0299957
X08312Y03038
X08415Y0254
X09195Y02535
X0684445Y0296445
X0667945Y0304445
X0651945Y0312445
Y0199945
X0667945Y0191945
X0684445Y0183945
X0609043Y0185957
X0558606Y0191106
X0551Y01745
X0522Y0184
X0487Y0204
X0477
X0498Y0216
X0496408Y0229908
X0483823Y0232677
X05605Y02225
X0575543Y0214543
X0551Y0287
X0558606Y0303606
X0522Y02965
X0609043Y0298457
X0459Y0204
X0449
X0258Y02205
X02645Y0254
X0276957Y0299957
X02545Y03045
X0201Y03
X01795Y0304
X01895Y02535
X01115Y0254
X0123457Y0299957
X01012Y03038
X0086Y03135
X00954Y03306
X01314Y03149
X01385Y038
X0129677Y0401823
X01144Y03916
X0101Y0401
Y0411
Y0427
Y0437
X01545Y0428
X01745Y04265
Y04365
X0180547Y0449547
X02065Y0434
X02035Y0402
X0201908Y0388592
X01745Y04005
Y04105
X0177Y03685
X0233
X0278
X02785Y0381
X0275677Y0402177
X02619Y03916
X0247Y0401
Y0411
Y0427
Y0437
X0262Y04455
X02431Y03306
X02095Y03145
X02845Y0315
X0301Y0338
X0449Y03165
X0459
X0477
X0487
X0498Y03285
X0496408Y0342408
X0483823Y0345177
X05605Y0335
X0575543Y0327043
X0576026Y0413374
X0616026
X0535874
X0831Y0411
Y0401
X08444Y03916
X0859677Y0401823
X08685Y038
X0907Y03685
X09045Y04005
Y04105
Y04265
Y04365
X0910547Y0449547
X09365Y0434
X09335Y0402
X0931908Y0388592
X08845Y0428
X0831Y0427
Y0437
X08254Y03306
X0816Y03135
X08614Y03149
X09395Y03145
X09731Y03306
X0963Y03685
X1008
X10085Y0381
X1005677Y0402177
X09919Y03916
X0977Y0401
Y0411
Y0427
Y0437
X0992Y04455
X1031Y0338
X10145Y0315
X0615974Y0521626
X0576074
X0535974
T02
X0485Y00465
X0495
X0505
X0515
X0525
X0535
X0545
X0555
X0565
X0575
X0585
X0595
X0605
X0615
X05915Y00665
Y00765
Y00865
X0595Y01065
X0605
X0615
X0585
X0575
X0565
X0555
X0545
X0535
X0525
X0515
X0505
X0495
X0485
X0515Y00865
Y00765
Y00665
X0625Y00465
Y01065
X09635Y0177
Y0187
Y0197
Y0207
X07045Y02495
X06945
X06845
X06745
X04285Y02355
X04185
Y02255
X04285
Y02155
X04185
Y02055
X04285
Y01955
X04185
Y0308
X04285
X02335Y0207
Y0197
Y0187
Y0177
X02105Y04635
X02005
X01905
X01805
X01705
X04185Y0348
X04285
Y0338
X04185
Y0328
X04285
Y0318
X04185
X0485Y04375
X0495
X0505
X0515
X0525
X0535
X0545
X0555
X0565
X0575
X0585
X0595
X0605
X0615
X05915Y04575
Y04675
X0515
Y04575
X0625Y04375
X06745Y0362
X06845
X06945
X07045
X09005Y04635
X09105
X09205
X09305
X09405
Y04735
X09305
X09205
X09105
X09005
X0625Y04975
X0615
X0605
X0595
X0585
X0575
X0565
X0555
X0545
X0535
X0525
X0515
X0505
X0495
X0485
X0515Y04775
X05915
X02105Y04735
X02005
X01905
X01805
X01705
T03
X1Y02303
X101
X09307
X09207
X08514
X08414
X06405Y02255
Y02155
X028Y02303
X027
X02007
X01907
X01214
X01114
X06405Y0328
Y0338
T04
X09407Y02503
X098
X102
X09007
X08614
X08214
X06205Y02355
Y01955
Y0308
X029Y02503
X025
X02107
X01707
X01314
X00914
X06205Y0348
T05
X048Y00165
Y013902
X063Y01365
Y00165
X105625Y02355
X078375
X032625
X005375
Y04205
X032625
X048Y04075
X063
X078375Y04205
X105625
X063Y05275
X048Y053002
M30
