M48
;Layer_Color=9474304
;FILE_FORMAT=2:5
INCH,LZ
;TYPE=PLATED
T1F00S00C0.02800
T2F00S00C0.03543
T3F00S00C0.03819
T4F00S00C0.03937
T6F00S00C0.08228
T7F00S00C0.14950
%
T01
X00565Y00385
X00665
X00845
X00945
X01055Y00505
X0103908Y0064408
X0091323Y0067177
X01295Y00185
Y0131
X00945Y0151
X00845
X00665
X00565
X0166106Y0138106
X01585Y01215
X0216543Y0132957
X0259445Y0146945
X0275445Y0138945
X0291945Y0130945
Y0018445
X0275445Y0026445
X0259445Y0034445
X0216543Y0020457
X0166106Y0025606
X01585Y0009
X0168Y0057
X0183043Y0049043
X0394Y00385
X0404
X0422
X0432
X0443Y00505
X0441408Y0064408
X0428823Y0067177
X0467Y00185
Y0131
X0432Y0151
X0422
X0404
X0394
X0503606Y0138106
X0496Y01215
X0554043Y0132957
X0596945Y0146945
X0612945Y0138945
Y0026445
X0596945Y0034445
X0554043Y0020457
X0503606Y0025606
X0496Y0009
X05055Y0057
X0520543Y0049043
X0629445Y0018445
Y0130945
Y0243445
X0612945Y0251445
X0596945Y0259445
X0554043Y0245457
X0503606Y0250606
X0496Y0234
X05055Y0282
X0520543Y0274043
Y0161543
X05055Y01695
X0443Y0163
X0441408Y0176908
X0428823Y0179677
X0432Y02635
X0422
X0404
X0394
X0443Y02755
X0441408Y0289408
X0428823Y0292177
X0467Y02435
X0291945Y0243445
X0275445Y0251445
X0259445Y0259445
X0216543Y0245457
X0166106Y0250606
X01585Y0234
X0168Y0282
X0183043Y0274043
Y0161543
X0168Y01695
X01055Y0163
X0103908Y0176908
X0091323Y0179677
X00945Y02635
X00845
X00665
X00565
X01055Y02755
X0103908Y0289408
X0091323Y0292177
X01295Y02435
Y0356
X00945Y0376
X00845
X00665
X00565
X01055Y0388
X0103908Y0401908
X0091323Y0404677
X0168Y03945
X0183043Y0386543
X0166106Y0363106
X01585Y03465
X0216543Y0357957
X0259445Y0371945
X0275445Y0363945
X0291945Y0355945
X0394Y0376
X0404
X0422
X0432
X0443Y0388
X0441408Y0401908
X0428823Y0404677
X0467Y0356
X0496Y03465
X0503606Y0363106
X05055Y03945
X0520543Y0386543
X0554043Y0357957
X0596945Y0371945
X0612945Y0363945
X0629445Y0355945
X05465Y05615
X0500543Y0573457
X04856Y05814
X04967Y05512
X0487Y0536
X04699Y05454
X03995Y0551
X03895
X03735
X03635
X04089Y05644
X0398677Y0579677
X04205Y05885
X04Y06245
X039
X0374
X0364
X03725Y06045
X0132957Y0613457
X0146945Y0570555
X0138945Y0554555
X0130945Y0538055
X0018445
X0026445Y0554555
X0034445Y0570555
X0020457Y0613457
X0025606Y0663894
X0009Y06715
X00185Y07005
X00385Y07355
Y07455
Y07635
Y07735
X00505Y07245
X0064408Y0726092
X0067177Y0738677
X0057Y0662
X0049043Y0646957
X01215Y06715
X0138106Y0663894
X0131Y07005
X0151Y07355
Y07455
Y07635
Y07735
X0163Y07245
X0176908Y0726092
X0179677Y0738677
X01695Y0662
X0161543Y0646957
X0350953Y0630547
X03665Y06565
X03985Y06535
X0411908Y0651908
X0432Y0627
Y0683
Y0728
X04195Y07285
X0398323Y0725677
X04089Y07119
X03995Y0697
X03895
X03735
X03635
X0355Y0712
X04625Y0751
X04855Y07345
X0500543Y0726957
X0496Y07045
X04699Y06931
X0486Y06595
X05005Y0651
X04965Y06295
X0547Y06395
X05465Y07145
X058Y0708
T02
X0026Y003
Y004
Y005
Y006
Y007
X0036
Y006
Y005
Y004
Y003
Y01425
Y01525
X0026
Y01425
X0282Y0084
X0292
X0302
X0312
X03635Y007
X03735
Y006
X03635
Y005
X03735
Y004
X03635
Y003
X03735
Y01425
Y01525
X03635
Y01425
X06195Y0084
X06295
X06395
X06495
Y01965
X06395
X06295
Y0309
X06395
X06495
X06195
Y01965
X03735Y01825
X03635
Y01725
X03735
Y01625
X03635
Y0255
Y0265
Y0275
Y0285
Y0295
X03735
Y0285
Y0275
Y0265
Y0255
X0312Y0309
X0302
X0292
X0282
Y01965
X0292
X0302
X0312
X0036Y01825
X0026
Y01725
X0036
Y01625
X0026
Y0255
Y0265
Y0275
Y0285
Y0295
X0036
Y0285
Y0275
Y0265
Y0255
Y03675
X0026
Y03775
X0036
Y03875
X0026
Y03975
X0036
Y04075
X0026
X0282Y04215
X0292
X0302
X0312
X03635Y04075
Y03975
Y03875
Y03775
Y03675
X03735
Y03775
Y03875
Y03975
Y04075
X06195Y04215
X06295
X06395
X06495
X0337Y06205
X0327
X01965Y0548
Y0538
Y0528
Y0518
X0084
Y0528
Y0538
Y0548
X0327Y06305
Y06405
Y06505
Y06605
X0337
Y06505
Y06405
Y06305
X05935Y06835
X06035
X06135
X06235
X01825Y0794
X01725
X01625
Y0804
X01725
X01825
X01525
X01425
Y0794
X01525
X007
X006
X005
X004
X003
Y0804
X004
X005
X006
X007
T03
X0248Y005
Y006
X05855
Y005
Y01625
Y01725
Y0275
Y0285
X0248
Y0275
Y01725
Y01625
X05702Y05614
Y05714
Y06407
Y06507
Y072
Y073
T04
X0236Y03875
X05735
X01625Y0594
X005
T06
X0228Y003
Y007
Y01425
X05655
Y007
Y003
Y01825
Y0255
Y0295
X0228
Y0255
Y01825
X05502Y05414
Y05814
Y06207
Y06607
Y07
Y074
T07
X0565Y050375
X038
Y077625
X0565
M30
