%FSLAX25Y25*%
%MOIN*%
G70*
G01*
G75*
G04 Layer_Color=16711935*
%ADD10R,0.03543X0.04331*%
%ADD11R,0.04331X0.03543*%
%ADD12R,0.03543X0.03937*%
%ADD13R,0.04724X0.05512*%
%ADD14R,0.04016X0.01614*%
%ADD15R,0.05512X0.04724*%
%ADD16R,0.05512X0.04921*%
%ADD17R,0.04921X0.05512*%
%ADD18O,0.02362X0.08661*%
%ADD19C,0.01000*%
%ADD20O,0.08661X0.02362*%
%ADD21R,0.05512X0.04921*%
%ADD22R,0.05512X0.04724*%
%ADD23R,0.01614X0.04016*%
%ADD24R,0.03937X0.03543*%
%ADD25R,0.04331X0.03543*%
%ADD26C,0.05906*%
%ADD27R,0.05906X0.05906*%
%ADD28R,0.05906X0.05906*%
%ADD29C,0.06000*%
%ADD30C,0.05000*%
%ADD31C,0.10787*%
%ADD32R,0.05906X0.05906*%
%ADD33C,0.10000*%
%ADD34R,0.04724X0.04724*%
%ADD35R,0.04724X0.04724*%
%ADD36C,0.00787*%
%ADD37C,0.00984*%
%ADD38C,0.02362*%
%ADD39C,0.00800*%
%ADD40C,0.01500*%
%ADD41C,0.02000*%
%ADD42R,0.04343X0.05131*%
%ADD43R,0.05131X0.04343*%
%ADD44R,0.04343X0.04737*%
%ADD45R,0.05524X0.06312*%
%ADD46R,0.04816X0.02414*%
%ADD47R,0.06312X0.05524*%
%ADD48R,0.06312X0.05721*%
%ADD49R,0.05721X0.06312*%
%ADD50O,0.03162X0.09461*%
%ADD51O,0.09461X0.03162*%
%ADD52R,0.06312X0.05721*%
%ADD53R,0.06312X0.05524*%
%ADD54R,0.02414X0.04816*%
%ADD55R,0.04737X0.04343*%
%ADD56R,0.05131X0.04343*%
%ADD57C,0.06706*%
%ADD58R,0.06706X0.06706*%
%ADD59R,0.06706X0.06706*%
%ADD60C,0.06800*%
%ADD61C,0.05800*%
%ADD62C,0.11587*%
%ADD63R,0.06706X0.06706*%
%ADD64C,0.10800*%
%ADD65R,0.05524X0.05524*%
%ADD66R,0.05524X0.05524*%
D42*
X270000Y73677D02*
D03*
Y65803D02*
D03*
X312000D02*
D03*
Y73677D02*
D03*
X262000Y65803D02*
D03*
Y73677D02*
D03*
X90000Y560126D02*
D03*
Y568000D02*
D03*
X82000Y567874D02*
D03*
Y560000D02*
D03*
X202500Y560126D02*
D03*
Y568000D02*
D03*
X194500Y567874D02*
D03*
Y560000D02*
D03*
X262000Y411177D02*
D03*
Y403303D02*
D03*
X312000Y411177D02*
D03*
Y403303D02*
D03*
X270000D02*
D03*
Y411177D02*
D03*
X599500D02*
D03*
Y403303D02*
D03*
X649500Y411177D02*
D03*
Y403303D02*
D03*
X607500D02*
D03*
Y411177D02*
D03*
Y73677D02*
D03*
Y65803D02*
D03*
X649500D02*
D03*
Y73677D02*
D03*
X599500Y65803D02*
D03*
Y73677D02*
D03*
X607500Y186177D02*
D03*
Y178303D02*
D03*
X649500D02*
D03*
Y186177D02*
D03*
X599500Y178303D02*
D03*
Y186177D02*
D03*
X607500Y298677D02*
D03*
Y290803D02*
D03*
X649500D02*
D03*
Y298677D02*
D03*
X599500Y290803D02*
D03*
Y298677D02*
D03*
X270000Y186177D02*
D03*
Y178303D02*
D03*
X312000D02*
D03*
Y186177D02*
D03*
X262000Y178303D02*
D03*
Y186177D02*
D03*
X270000Y298677D02*
D03*
Y290803D02*
D03*
X312000D02*
D03*
Y298677D02*
D03*
X262000Y290803D02*
D03*
Y298677D02*
D03*
X586700Y655800D02*
D03*
Y647926D02*
D03*
Y671777D02*
D03*
Y663903D02*
D03*
X623500D02*
D03*
Y671777D02*
D03*
X595900Y710454D02*
D03*
Y702580D02*
D03*
X590100D02*
D03*
Y710454D02*
D03*
D43*
X270000Y82000D02*
D03*
X262126D02*
D03*
X262000Y90000D02*
D03*
X269874D02*
D03*
X65803Y560000D02*
D03*
X73677D02*
D03*
X178303D02*
D03*
X186177D02*
D03*
X269874Y427500D02*
D03*
X262000D02*
D03*
X262126Y419500D02*
D03*
X270000D02*
D03*
X607374Y427500D02*
D03*
X599500D02*
D03*
X599626Y419500D02*
D03*
X607500D02*
D03*
Y82000D02*
D03*
X599626D02*
D03*
X599500Y90000D02*
D03*
X607374D02*
D03*
X607500Y194500D02*
D03*
X599626D02*
D03*
X599500Y202500D02*
D03*
X607374D02*
D03*
X607500Y307000D02*
D03*
X599626D02*
D03*
X599500Y315000D02*
D03*
X607374D02*
D03*
X270000Y194500D02*
D03*
X262126D02*
D03*
X262000Y202500D02*
D03*
X269874D02*
D03*
X270000Y307000D02*
D03*
X262126D02*
D03*
X262000Y315000D02*
D03*
X269874D02*
D03*
D48*
X591800Y720055D02*
D03*
Y726945D02*
D03*
X603700Y703755D02*
D03*
Y710645D02*
D03*
X613500Y703755D02*
D03*
Y710645D02*
D03*
D56*
X73677Y568000D02*
D03*
X65803D02*
D03*
X73677Y518000D02*
D03*
X65803D02*
D03*
X186177Y568000D02*
D03*
X178303D02*
D03*
X186177Y518000D02*
D03*
X178303D02*
D03*
D57*
X312000Y84000D02*
D03*
X302000D02*
D03*
X292000D02*
D03*
X36000Y70000D02*
D03*
X26000D02*
D03*
X36000Y60000D02*
D03*
X26000D02*
D03*
X36000Y50000D02*
D03*
X26000D02*
D03*
X36000Y40000D02*
D03*
X26000D02*
D03*
X36000Y30000D02*
D03*
X30000Y794000D02*
D03*
X40000Y804000D02*
D03*
Y794000D02*
D03*
X50000Y804000D02*
D03*
Y794000D02*
D03*
X60000Y804000D02*
D03*
Y794000D02*
D03*
X70000Y804000D02*
D03*
Y794000D02*
D03*
X84000Y538000D02*
D03*
Y528000D02*
D03*
Y518000D02*
D03*
X50000Y594000D02*
D03*
X142500Y794000D02*
D03*
X152500Y804000D02*
D03*
Y794000D02*
D03*
X162500Y804000D02*
D03*
Y794000D02*
D03*
X172500Y804000D02*
D03*
Y794000D02*
D03*
X182500Y804000D02*
D03*
Y794000D02*
D03*
X196500Y538000D02*
D03*
Y528000D02*
D03*
Y518000D02*
D03*
X162500Y594000D02*
D03*
X36000Y367500D02*
D03*
X26000Y377500D02*
D03*
X36000D02*
D03*
X26000Y387500D02*
D03*
X36000D02*
D03*
X26000Y397500D02*
D03*
X36000D02*
D03*
X26000Y407500D02*
D03*
X36000D02*
D03*
X292000Y421500D02*
D03*
X302000D02*
D03*
X312000D02*
D03*
X236000Y387500D02*
D03*
X373500Y367500D02*
D03*
X363500Y377500D02*
D03*
X373500D02*
D03*
X363500Y387500D02*
D03*
X373500D02*
D03*
X363500Y397500D02*
D03*
X373500D02*
D03*
X363500Y407500D02*
D03*
X373500D02*
D03*
X629500Y421500D02*
D03*
X639500D02*
D03*
X649500D02*
D03*
X573500Y387500D02*
D03*
X649500Y84000D02*
D03*
X639500D02*
D03*
X629500D02*
D03*
X373500Y70000D02*
D03*
X363500D02*
D03*
X373500Y60000D02*
D03*
X363500D02*
D03*
X373500Y50000D02*
D03*
X363500D02*
D03*
X373500Y40000D02*
D03*
X363500D02*
D03*
X373500Y30000D02*
D03*
X649500Y196500D02*
D03*
X639500D02*
D03*
X629500D02*
D03*
X373500Y182500D02*
D03*
X363500D02*
D03*
X373500Y172500D02*
D03*
X363500D02*
D03*
X373500Y162500D02*
D03*
X363500D02*
D03*
X373500Y152500D02*
D03*
X363500D02*
D03*
X373500Y142500D02*
D03*
X649500Y309000D02*
D03*
X639500D02*
D03*
X629500D02*
D03*
X373500Y295000D02*
D03*
X363500D02*
D03*
X373500Y285000D02*
D03*
X363500D02*
D03*
X373500Y275000D02*
D03*
X363500D02*
D03*
X373500Y265000D02*
D03*
X363500D02*
D03*
X373500Y255000D02*
D03*
X312000Y196500D02*
D03*
X302000D02*
D03*
X292000D02*
D03*
X36000Y182500D02*
D03*
X26000D02*
D03*
X36000Y172500D02*
D03*
X26000D02*
D03*
X36000Y162500D02*
D03*
X26000D02*
D03*
X36000Y152500D02*
D03*
X26000D02*
D03*
X36000Y142500D02*
D03*
X312000Y309000D02*
D03*
X302000D02*
D03*
X292000D02*
D03*
X36000Y295000D02*
D03*
X26000D02*
D03*
X36000Y285000D02*
D03*
X26000D02*
D03*
X36000Y275000D02*
D03*
X26000D02*
D03*
X36000Y265000D02*
D03*
X26000D02*
D03*
X36000Y255000D02*
D03*
X623500Y683500D02*
D03*
X613500D02*
D03*
X603500D02*
D03*
X337000Y660500D02*
D03*
X327000D02*
D03*
X337000Y650500D02*
D03*
X327000D02*
D03*
X337000Y640500D02*
D03*
X327000D02*
D03*
X337000Y630500D02*
D03*
X327000D02*
D03*
X337000Y620500D02*
D03*
D58*
X282000Y84000D02*
D03*
Y421500D02*
D03*
X226276Y397224D02*
D03*
Y377776D02*
D03*
X245724D02*
D03*
Y397224D02*
D03*
X619500Y421500D02*
D03*
X563776Y397224D02*
D03*
Y377776D02*
D03*
X583224D02*
D03*
Y397224D02*
D03*
X619500Y84000D02*
D03*
Y196500D02*
D03*
Y309000D02*
D03*
X282000Y196500D02*
D03*
Y309000D02*
D03*
X593500Y683500D02*
D03*
D59*
X26000Y30000D02*
D03*
X84000Y548000D02*
D03*
X59724Y603724D02*
D03*
X40276D02*
D03*
Y584276D02*
D03*
X59724D02*
D03*
X196500Y548000D02*
D03*
X172224Y603724D02*
D03*
X152776D02*
D03*
Y584276D02*
D03*
X172224D02*
D03*
X26000Y367500D02*
D03*
X363500D02*
D03*
Y30000D02*
D03*
Y142500D02*
D03*
Y255000D02*
D03*
X26000Y142500D02*
D03*
Y255000D02*
D03*
X327000Y620500D02*
D03*
D60*
X248000Y60000D02*
D03*
Y50000D02*
D03*
X585500Y60000D02*
D03*
Y50000D02*
D03*
Y172500D02*
D03*
Y162500D02*
D03*
Y285000D02*
D03*
Y275000D02*
D03*
X248000Y172500D02*
D03*
Y162500D02*
D03*
Y285000D02*
D03*
Y275000D02*
D03*
X570200Y720000D02*
D03*
Y730000D02*
D03*
Y640700D02*
D03*
Y650700D02*
D03*
Y561400D02*
D03*
Y571400D02*
D03*
D61*
X56500Y38500D02*
D03*
X66500D02*
D03*
X84500D02*
D03*
X94500D02*
D03*
X91323Y67177D02*
D03*
X129500Y18500D02*
D03*
X105500Y50500D02*
D03*
X103908Y64408D02*
D03*
X168000Y57000D02*
D03*
X166106Y25606D02*
D03*
X216543Y20457D02*
D03*
X275445Y26445D02*
D03*
X259445Y34445D02*
D03*
X291945Y18445D02*
D03*
X183043Y49043D02*
D03*
X158500Y9000D02*
D03*
X9000Y671500D02*
D03*
X18445Y538055D02*
D03*
X34445Y570555D02*
D03*
X26445Y554555D02*
D03*
X20457Y613457D02*
D03*
X25606Y663894D02*
D03*
X57000Y662000D02*
D03*
X64408Y726092D02*
D03*
X50500Y724500D02*
D03*
X18500Y700500D02*
D03*
X67177Y738677D02*
D03*
X38500Y735500D02*
D03*
Y745500D02*
D03*
Y763500D02*
D03*
Y773500D02*
D03*
X49043Y646957D02*
D03*
X121500Y671500D02*
D03*
X130945Y538055D02*
D03*
X146945Y570555D02*
D03*
X138945Y554555D02*
D03*
X132957Y613457D02*
D03*
X138106Y663894D02*
D03*
X169500Y662000D02*
D03*
X176908Y726092D02*
D03*
X163000Y724500D02*
D03*
X131000Y700500D02*
D03*
X179677Y738677D02*
D03*
X151000Y735500D02*
D03*
Y745500D02*
D03*
Y763500D02*
D03*
Y773500D02*
D03*
X161543Y646957D02*
D03*
X158500Y346500D02*
D03*
X291945Y355945D02*
D03*
X259445Y371945D02*
D03*
X275445Y363945D02*
D03*
X216543Y357957D02*
D03*
X166106Y363106D02*
D03*
X168000Y394500D02*
D03*
X103908Y401908D02*
D03*
X105500Y388000D02*
D03*
X129500Y356000D02*
D03*
X91323Y404677D02*
D03*
X94500Y376000D02*
D03*
X84500D02*
D03*
X66500D02*
D03*
X56500D02*
D03*
X183043Y386543D02*
D03*
X496000Y346500D02*
D03*
X629445Y355945D02*
D03*
X596945Y371945D02*
D03*
X612945Y363945D02*
D03*
X554043Y357957D02*
D03*
X503606Y363106D02*
D03*
X505500Y394500D02*
D03*
X441408Y401908D02*
D03*
X443000Y388000D02*
D03*
X467000Y356000D02*
D03*
X428823Y404677D02*
D03*
X432000Y376000D02*
D03*
X422000D02*
D03*
X404000D02*
D03*
X394000D02*
D03*
X520543Y386543D02*
D03*
X394000Y38500D02*
D03*
X404000D02*
D03*
X422000D02*
D03*
X432000D02*
D03*
X428823Y67177D02*
D03*
X467000Y18500D02*
D03*
X443000Y50500D02*
D03*
X441408Y64408D02*
D03*
X505500Y57000D02*
D03*
X503606Y25606D02*
D03*
X554043Y20457D02*
D03*
X612945Y26445D02*
D03*
X596945Y34445D02*
D03*
X629445Y18445D02*
D03*
X520543Y49043D02*
D03*
X496000Y9000D02*
D03*
X394000Y151000D02*
D03*
X404000D02*
D03*
X422000D02*
D03*
X432000D02*
D03*
X428823Y179677D02*
D03*
X467000Y131000D02*
D03*
X443000Y163000D02*
D03*
X441408Y176908D02*
D03*
X505500Y169500D02*
D03*
X503606Y138106D02*
D03*
X554043Y132957D02*
D03*
X612945Y138945D02*
D03*
X596945Y146945D02*
D03*
X629445Y130945D02*
D03*
X520543Y161543D02*
D03*
X496000Y121500D02*
D03*
X394000Y263500D02*
D03*
X404000D02*
D03*
X422000D02*
D03*
X432000D02*
D03*
X428823Y292177D02*
D03*
X467000Y243500D02*
D03*
X443000Y275500D02*
D03*
X441408Y289408D02*
D03*
X505500Y282000D02*
D03*
X503606Y250606D02*
D03*
X554043Y245457D02*
D03*
X612945Y251445D02*
D03*
X596945Y259445D02*
D03*
X629445Y243445D02*
D03*
X520543Y274043D02*
D03*
X496000Y234000D02*
D03*
X56500Y151000D02*
D03*
X66500D02*
D03*
X84500D02*
D03*
X94500D02*
D03*
X91323Y179677D02*
D03*
X129500Y131000D02*
D03*
X105500Y163000D02*
D03*
X103908Y176908D02*
D03*
X168000Y169500D02*
D03*
X166106Y138106D02*
D03*
X216543Y132957D02*
D03*
X275445Y138945D02*
D03*
X259445Y146945D02*
D03*
X291945Y130945D02*
D03*
X183043Y161543D02*
D03*
X158500Y121500D02*
D03*
X56500Y263500D02*
D03*
X66500D02*
D03*
X84500D02*
D03*
X94500D02*
D03*
X91323Y292177D02*
D03*
X129500Y243500D02*
D03*
X105500Y275500D02*
D03*
X103908Y289408D02*
D03*
X168000Y282000D02*
D03*
X166106Y250606D02*
D03*
X216543Y245457D02*
D03*
X275445Y251445D02*
D03*
X259445Y259445D02*
D03*
X291945Y243445D02*
D03*
X183043Y274043D02*
D03*
X158500Y234000D02*
D03*
X350953Y630547D02*
D03*
X546500Y714500D02*
D03*
X485500Y734500D02*
D03*
X547000Y639500D02*
D03*
X486000Y659500D02*
D03*
X546500Y561500D02*
D03*
X485600Y581400D02*
D03*
X408900Y564400D02*
D03*
Y711900D02*
D03*
X469900Y693100D02*
D03*
X398323Y725677D02*
D03*
X399500Y697000D02*
D03*
X389500D02*
D03*
X373500D02*
D03*
X363500D02*
D03*
X400000Y624500D02*
D03*
X390000D02*
D03*
X374000D02*
D03*
X364000D02*
D03*
X398500Y653500D02*
D03*
X399500Y551000D02*
D03*
X389500D02*
D03*
X373500D02*
D03*
X363500D02*
D03*
X398677Y579677D02*
D03*
X496000Y704500D02*
D03*
X496500Y629500D02*
D03*
X496700Y551200D02*
D03*
X420500Y588500D02*
D03*
X411908Y651908D02*
D03*
X432000Y683000D02*
D03*
Y627000D02*
D03*
X469900Y545400D02*
D03*
X419500Y728500D02*
D03*
X432000Y728000D02*
D03*
X462500Y751000D02*
D03*
X372500Y604500D02*
D03*
X355000Y712000D02*
D03*
X500543Y726957D02*
D03*
Y573457D02*
D03*
X487000Y536000D02*
D03*
X580000Y708000D02*
D03*
X500500Y651000D02*
D03*
X366500Y656500D02*
D03*
D62*
X228000Y70000D02*
D03*
Y30000D02*
D03*
X565500Y70000D02*
D03*
Y30000D02*
D03*
Y182500D02*
D03*
Y142500D02*
D03*
Y295000D02*
D03*
Y255000D02*
D03*
X228000Y182500D02*
D03*
Y142500D02*
D03*
Y295000D02*
D03*
Y255000D02*
D03*
X550200Y700000D02*
D03*
Y740000D02*
D03*
Y620700D02*
D03*
Y660700D02*
D03*
Y541400D02*
D03*
Y581400D02*
D03*
D63*
X30000Y804000D02*
D03*
X142500D02*
D03*
D64*
X380000Y776250D02*
D03*
X565000D02*
D03*
Y503750D02*
D03*
X380000D02*
D03*
D65*
X292000Y66000D02*
D03*
Y73480D02*
D03*
X282000D02*
D03*
Y66000D02*
D03*
X302000Y73480D02*
D03*
Y66000D02*
D03*
Y403500D02*
D03*
Y410980D02*
D03*
X282000Y403500D02*
D03*
Y410980D02*
D03*
X292000D02*
D03*
Y403500D02*
D03*
X639500D02*
D03*
Y410980D02*
D03*
X619500Y403500D02*
D03*
Y410980D02*
D03*
X629500D02*
D03*
Y403500D02*
D03*
Y66000D02*
D03*
Y73480D02*
D03*
X619500D02*
D03*
Y66000D02*
D03*
X639500Y73480D02*
D03*
Y66000D02*
D03*
X629500Y178500D02*
D03*
Y185980D02*
D03*
X619500D02*
D03*
Y178500D02*
D03*
X639500Y185980D02*
D03*
Y178500D02*
D03*
X629500Y291000D02*
D03*
Y298480D02*
D03*
X619500D02*
D03*
Y291000D02*
D03*
X639500Y298480D02*
D03*
Y291000D02*
D03*
X292000Y178500D02*
D03*
Y185980D02*
D03*
X282000D02*
D03*
Y178500D02*
D03*
X302000Y185980D02*
D03*
Y178500D02*
D03*
X292000Y291000D02*
D03*
Y298480D02*
D03*
X282000D02*
D03*
Y291000D02*
D03*
X302000Y298480D02*
D03*
Y291000D02*
D03*
X593300Y664100D02*
D03*
Y671580D02*
D03*
X603200D02*
D03*
Y664100D02*
D03*
X613400D02*
D03*
Y671580D02*
D03*
D66*
X66000Y528000D02*
D03*
X73480D02*
D03*
X66000Y548000D02*
D03*
X73480D02*
D03*
Y538000D02*
D03*
X66000D02*
D03*
X178500Y528000D02*
D03*
X185980D02*
D03*
X178500Y548000D02*
D03*
X185980D02*
D03*
Y538000D02*
D03*
X178500D02*
D03*
M02*
