%FSLAX25Y25*%
%MOIN*%
G70*
G01*
G75*
G04 Layer_Color=8421504*
%ADD10R,0.03543X0.04331*%
%ADD11R,0.04331X0.03543*%
%ADD12R,0.03543X0.03937*%
%ADD13R,0.04724X0.05512*%
%ADD14R,0.04016X0.01614*%
%ADD15R,0.05512X0.04724*%
%ADD16R,0.05512X0.04921*%
%ADD17R,0.04921X0.05512*%
%ADD18O,0.02362X0.08661*%
%ADD19C,0.01000*%
%ADD20O,0.08661X0.02362*%
%ADD21R,0.05512X0.04921*%
%ADD22R,0.05512X0.04724*%
%ADD23R,0.01614X0.04016*%
%ADD24R,0.03937X0.03543*%
%ADD25R,0.04331X0.03543*%
%ADD26C,0.05906*%
%ADD27R,0.05906X0.05906*%
%ADD28R,0.05906X0.05906*%
%ADD29C,0.06000*%
%ADD30C,0.05000*%
%ADD31C,0.10787*%
%ADD32R,0.05906X0.05906*%
%ADD33C,0.10000*%
%ADD34R,0.04724X0.04724*%
%ADD35R,0.04724X0.04724*%
%ADD36C,0.00787*%
%ADD37C,0.00984*%
%ADD38C,0.02362*%
%ADD39C,0.00800*%
%ADD40C,0.01500*%
%ADD41C,0.02000*%
D10*
X150500Y64500D02*
D03*
Y72374D02*
D03*
X142500Y64500D02*
D03*
Y72374D02*
D03*
X179500Y41000D02*
D03*
X122500Y72374D02*
D03*
Y64500D02*
D03*
X173126Y25606D02*
D03*
Y17732D02*
D03*
X16000Y778000D02*
D03*
Y785874D02*
D03*
Y796000D02*
D03*
Y803874D02*
D03*
X26000Y641000D02*
D03*
Y648874D02*
D03*
X17606Y641000D02*
D03*
Y648874D02*
D03*
X128500Y778000D02*
D03*
Y785874D02*
D03*
Y796000D02*
D03*
Y803874D02*
D03*
X138500Y641000D02*
D03*
Y648874D02*
D03*
X130106Y641000D02*
D03*
Y648874D02*
D03*
X173126Y355232D02*
D03*
Y363106D02*
D03*
X122500Y402000D02*
D03*
Y409874D02*
D03*
X179500Y378500D02*
D03*
X142500Y409874D02*
D03*
Y402000D02*
D03*
X150500Y409874D02*
D03*
Y402000D02*
D03*
X510626Y355232D02*
D03*
Y363106D02*
D03*
X460000Y402000D02*
D03*
Y409874D02*
D03*
X517000Y378500D02*
D03*
X480000Y409874D02*
D03*
Y402000D02*
D03*
X488000Y409874D02*
D03*
Y402000D02*
D03*
Y64500D02*
D03*
Y72374D02*
D03*
X480000Y64500D02*
D03*
Y72374D02*
D03*
X517000Y41000D02*
D03*
X460000Y72374D02*
D03*
Y64500D02*
D03*
X510626Y25606D02*
D03*
Y17732D02*
D03*
X488000Y177000D02*
D03*
Y184874D02*
D03*
X480000Y177000D02*
D03*
Y184874D02*
D03*
X517000Y153500D02*
D03*
X460000Y184874D02*
D03*
Y177000D02*
D03*
X510626Y138106D02*
D03*
Y130232D02*
D03*
X488000Y289500D02*
D03*
Y297374D02*
D03*
X480000Y289500D02*
D03*
Y297374D02*
D03*
X517000Y266000D02*
D03*
X460000Y297374D02*
D03*
Y289500D02*
D03*
X510626Y250606D02*
D03*
Y242732D02*
D03*
X150500Y177000D02*
D03*
Y184874D02*
D03*
X142500Y177000D02*
D03*
Y184874D02*
D03*
X179500Y153500D02*
D03*
X122500Y184874D02*
D03*
Y177000D02*
D03*
X173126Y138106D02*
D03*
Y130232D02*
D03*
X150500Y289500D02*
D03*
Y297374D02*
D03*
X142500Y289500D02*
D03*
Y297374D02*
D03*
X179500Y266000D02*
D03*
X122500Y297374D02*
D03*
Y289500D02*
D03*
X173126Y250606D02*
D03*
Y242732D02*
D03*
X317000Y619626D02*
D03*
Y627500D02*
D03*
Y661374D02*
D03*
Y653500D02*
D03*
Y636563D02*
D03*
Y644437D02*
D03*
X503000Y696626D02*
D03*
Y704500D02*
D03*
X503500Y621626D02*
D03*
Y629500D02*
D03*
X503200Y543326D02*
D03*
Y551200D02*
D03*
X439500Y736549D02*
D03*
Y744423D02*
D03*
X440500Y652000D02*
D03*
Y659874D02*
D03*
Y596549D02*
D03*
Y604423D02*
D03*
X447750Y744423D02*
D03*
Y736549D02*
D03*
X456000Y744423D02*
D03*
Y736549D02*
D03*
X448750Y659874D02*
D03*
Y652000D02*
D03*
X457000Y659874D02*
D03*
Y652000D02*
D03*
X448750Y604423D02*
D03*
Y596549D02*
D03*
X457000Y604423D02*
D03*
Y596549D02*
D03*
X498300Y718800D02*
D03*
Y643900D02*
D03*
Y565900D02*
D03*
D11*
X181126Y17606D02*
D03*
X189000D02*
D03*
X181126Y26000D02*
D03*
X189000D02*
D03*
X26126Y16000D02*
D03*
X34000D02*
D03*
X44126D02*
D03*
X52000D02*
D03*
X17732Y656874D02*
D03*
X25606D02*
D03*
X64500Y707500D02*
D03*
X72374D02*
D03*
X41000Y650500D02*
D03*
X130232Y656874D02*
D03*
X138106D02*
D03*
X177000Y707500D02*
D03*
X184874D02*
D03*
X153500Y650500D02*
D03*
X52000Y353500D02*
D03*
X44126D02*
D03*
X34000D02*
D03*
X26126D02*
D03*
X189000Y363500D02*
D03*
X181126D02*
D03*
X189000Y355106D02*
D03*
X181126D02*
D03*
X389500Y353500D02*
D03*
X381626D02*
D03*
X371500D02*
D03*
X363626D02*
D03*
X526500Y363500D02*
D03*
X518626D02*
D03*
X526500Y355106D02*
D03*
X518626D02*
D03*
Y17606D02*
D03*
X526500D02*
D03*
X518626Y26000D02*
D03*
X526500D02*
D03*
X363626Y16000D02*
D03*
X371500D02*
D03*
X381626D02*
D03*
X389500D02*
D03*
X518626Y130106D02*
D03*
X526500D02*
D03*
X518626Y138500D02*
D03*
X526500D02*
D03*
X363626Y128500D02*
D03*
X371500D02*
D03*
X381626D02*
D03*
X389500D02*
D03*
X518626Y242606D02*
D03*
X526500D02*
D03*
X518626Y251000D02*
D03*
X526500D02*
D03*
X363626Y241000D02*
D03*
X371500D02*
D03*
X381626D02*
D03*
X389500D02*
D03*
X181126Y130106D02*
D03*
X189000D02*
D03*
X181126Y138500D02*
D03*
X189000D02*
D03*
X26126Y128500D02*
D03*
X34000D02*
D03*
X44126D02*
D03*
X52000D02*
D03*
X181126Y242606D02*
D03*
X189000D02*
D03*
X181126Y251000D02*
D03*
X189000D02*
D03*
X26126Y241000D02*
D03*
X34000D02*
D03*
X44126D02*
D03*
X52000D02*
D03*
X518874Y704500D02*
D03*
X511000D02*
D03*
X518874Y696500D02*
D03*
X511000D02*
D03*
X519374Y629500D02*
D03*
X511500D02*
D03*
X519374Y621500D02*
D03*
X511500D02*
D03*
X519074Y551200D02*
D03*
X511200D02*
D03*
X519074Y543200D02*
D03*
X511200D02*
D03*
D12*
X168083Y44346D02*
D03*
Y37653D02*
D03*
Y375153D02*
D03*
Y381846D02*
D03*
X505583Y375153D02*
D03*
Y381846D02*
D03*
Y44346D02*
D03*
Y37653D02*
D03*
Y156846D02*
D03*
Y150154D02*
D03*
Y269346D02*
D03*
Y262653D02*
D03*
X168083Y156846D02*
D03*
Y150154D02*
D03*
Y269346D02*
D03*
Y262653D02*
D03*
X486883Y715453D02*
D03*
Y722147D02*
D03*
Y640554D02*
D03*
Y647247D02*
D03*
Y562554D02*
D03*
Y569246D02*
D03*
D13*
X144543Y18500D02*
D03*
X137457D02*
D03*
X120543Y50500D02*
D03*
X113457D02*
D03*
X183043Y57000D02*
D03*
X175957D02*
D03*
X71495Y717500D02*
D03*
X64408D02*
D03*
X53240Y763500D02*
D03*
X46154D02*
D03*
X53240Y745500D02*
D03*
X46154D02*
D03*
X20457Y622000D02*
D03*
X27543D02*
D03*
X71495Y697500D02*
D03*
X64408D02*
D03*
X183994Y717500D02*
D03*
X176908D02*
D03*
X165740Y763500D02*
D03*
X158653D02*
D03*
X165740Y745500D02*
D03*
X158653D02*
D03*
X132957Y622000D02*
D03*
X140043D02*
D03*
X183994Y697500D02*
D03*
X176908D02*
D03*
X175957Y394500D02*
D03*
X183043D02*
D03*
X113457Y388000D02*
D03*
X120543D02*
D03*
X137457Y356000D02*
D03*
X144543D02*
D03*
X513457Y394500D02*
D03*
X520543D02*
D03*
X450957Y388000D02*
D03*
X458043D02*
D03*
X474957Y356000D02*
D03*
X482043D02*
D03*
Y18500D02*
D03*
X474957D02*
D03*
X458043Y50500D02*
D03*
X450957D02*
D03*
X520543Y57000D02*
D03*
X513457D02*
D03*
X482043Y131000D02*
D03*
X474957D02*
D03*
X458043Y163000D02*
D03*
X450957D02*
D03*
X520543Y169500D02*
D03*
X513457D02*
D03*
X482043Y243500D02*
D03*
X474957D02*
D03*
X458043Y275500D02*
D03*
X450957D02*
D03*
X520543Y282000D02*
D03*
X513457D02*
D03*
X144543Y131000D02*
D03*
X137457D02*
D03*
X120543Y163000D02*
D03*
X113457D02*
D03*
X183043Y169500D02*
D03*
X175957D02*
D03*
X144543Y243500D02*
D03*
X137457D02*
D03*
X120543Y275500D02*
D03*
X113457D02*
D03*
X183043Y282000D02*
D03*
X175957D02*
D03*
X500543Y734500D02*
D03*
X493457D02*
D03*
X531457Y714500D02*
D03*
X538543D02*
D03*
X501043Y659500D02*
D03*
X493957D02*
D03*
X531957Y639500D02*
D03*
X539043D02*
D03*
X500543Y581400D02*
D03*
X493457D02*
D03*
X531457Y561500D02*
D03*
X538543D02*
D03*
X424043Y711900D02*
D03*
X416957D02*
D03*
X454957Y693100D02*
D03*
X462043D02*
D03*
X424043Y564400D02*
D03*
X416957D02*
D03*
X454957Y545400D02*
D03*
X462043D02*
D03*
D14*
X84500Y59500D02*
D03*
Y62059D02*
D03*
Y64618D02*
D03*
Y67177D02*
D03*
X65602Y59500D02*
D03*
Y62059D02*
D03*
Y64618D02*
D03*
Y67177D02*
D03*
Y404677D02*
D03*
Y402118D02*
D03*
Y399559D02*
D03*
Y397000D02*
D03*
X84500Y404677D02*
D03*
Y402118D02*
D03*
Y399559D02*
D03*
Y397000D02*
D03*
X403102Y404677D02*
D03*
Y402118D02*
D03*
Y399559D02*
D03*
Y397000D02*
D03*
X422000Y404677D02*
D03*
Y402118D02*
D03*
Y399559D02*
D03*
Y397000D02*
D03*
Y59500D02*
D03*
Y62059D02*
D03*
Y64618D02*
D03*
Y67177D02*
D03*
X403102Y59500D02*
D03*
Y62059D02*
D03*
Y64618D02*
D03*
Y67177D02*
D03*
X422000Y172000D02*
D03*
Y174559D02*
D03*
Y177118D02*
D03*
Y179677D02*
D03*
X403102Y172000D02*
D03*
Y174559D02*
D03*
Y177118D02*
D03*
Y179677D02*
D03*
X422000Y284500D02*
D03*
Y287059D02*
D03*
Y289618D02*
D03*
Y292177D02*
D03*
X403102Y284500D02*
D03*
Y287059D02*
D03*
Y289618D02*
D03*
Y292177D02*
D03*
X84500Y172000D02*
D03*
Y174559D02*
D03*
Y177118D02*
D03*
Y179677D02*
D03*
X65602Y172000D02*
D03*
Y174559D02*
D03*
Y177118D02*
D03*
Y179677D02*
D03*
X84500Y284500D02*
D03*
Y287059D02*
D03*
Y289618D02*
D03*
Y292177D02*
D03*
X65602Y284500D02*
D03*
Y287059D02*
D03*
Y289618D02*
D03*
Y292177D02*
D03*
X391500Y718000D02*
D03*
Y720559D02*
D03*
Y723118D02*
D03*
Y725677D02*
D03*
X372602Y718000D02*
D03*
Y720559D02*
D03*
Y723118D02*
D03*
Y725677D02*
D03*
X391500Y646000D02*
D03*
Y648559D02*
D03*
Y651118D02*
D03*
Y653677D02*
D03*
X372602Y646000D02*
D03*
Y648559D02*
D03*
Y651118D02*
D03*
Y653677D02*
D03*
X391500Y572000D02*
D03*
Y574559D02*
D03*
Y577118D02*
D03*
Y579677D02*
D03*
X372602Y572000D02*
D03*
Y574559D02*
D03*
Y577118D02*
D03*
Y579677D02*
D03*
D15*
X132500Y64408D02*
D03*
Y71495D02*
D03*
X208000Y27543D02*
D03*
Y20457D02*
D03*
X84500Y46154D02*
D03*
Y53240D02*
D03*
X66500Y46154D02*
D03*
Y53240D02*
D03*
X112500Y64408D02*
D03*
Y71495D02*
D03*
Y408994D02*
D03*
Y401908D02*
D03*
X66500Y390740D02*
D03*
Y383653D02*
D03*
X84500Y390740D02*
D03*
Y383653D02*
D03*
X208000Y357957D02*
D03*
Y365043D02*
D03*
X132500Y408994D02*
D03*
Y401908D02*
D03*
X450000Y408994D02*
D03*
Y401908D02*
D03*
X404000Y390740D02*
D03*
Y383653D02*
D03*
X422000Y390740D02*
D03*
Y383653D02*
D03*
X545500Y357957D02*
D03*
Y365043D02*
D03*
X470000Y408994D02*
D03*
Y401908D02*
D03*
Y64408D02*
D03*
Y71495D02*
D03*
X545500Y27543D02*
D03*
Y20457D02*
D03*
X422000Y46154D02*
D03*
Y53240D02*
D03*
X404000Y46154D02*
D03*
Y53240D02*
D03*
X450000Y64408D02*
D03*
Y71495D02*
D03*
X470000Y176908D02*
D03*
Y183994D02*
D03*
X545500Y140043D02*
D03*
Y132957D02*
D03*
X422000Y158653D02*
D03*
Y165740D02*
D03*
X404000Y158653D02*
D03*
Y165740D02*
D03*
X450000Y176908D02*
D03*
Y183994D02*
D03*
X470000Y289408D02*
D03*
Y296495D02*
D03*
X545500Y252543D02*
D03*
Y245457D02*
D03*
X422000Y271153D02*
D03*
Y278240D02*
D03*
X404000Y271153D02*
D03*
Y278240D02*
D03*
X450000Y289408D02*
D03*
Y296495D02*
D03*
X132500Y176908D02*
D03*
Y183994D02*
D03*
X208000Y140043D02*
D03*
Y132957D02*
D03*
X84500Y158653D02*
D03*
Y165740D02*
D03*
X66500Y158653D02*
D03*
Y165740D02*
D03*
X112500Y176908D02*
D03*
Y183994D02*
D03*
X132500Y289408D02*
D03*
Y296495D02*
D03*
X208000Y252543D02*
D03*
Y245457D02*
D03*
X84500Y271153D02*
D03*
Y278240D02*
D03*
X66500Y271153D02*
D03*
Y278240D02*
D03*
X112500Y289408D02*
D03*
Y296495D02*
D03*
X389500Y704957D02*
D03*
Y712043D02*
D03*
X373500Y704957D02*
D03*
Y712043D02*
D03*
X390000Y632457D02*
D03*
Y639543D02*
D03*
X374000Y632457D02*
D03*
Y639543D02*
D03*
X389500Y558957D02*
D03*
Y566043D02*
D03*
X429500Y736457D02*
D03*
Y743543D02*
D03*
X373500Y558957D02*
D03*
Y566043D02*
D03*
X431000Y651908D02*
D03*
Y658994D02*
D03*
X431500Y596457D02*
D03*
Y603543D02*
D03*
X419500Y736457D02*
D03*
Y743543D02*
D03*
X420500Y651908D02*
D03*
Y658994D02*
D03*
Y596457D02*
D03*
Y603543D02*
D03*
D16*
X94500Y52945D02*
D03*
Y46055D02*
D03*
X56500Y52945D02*
D03*
Y46055D02*
D03*
Y383555D02*
D03*
Y390445D02*
D03*
X94500Y383555D02*
D03*
Y390445D02*
D03*
X394000Y383555D02*
D03*
Y390445D02*
D03*
X432000Y383555D02*
D03*
Y390445D02*
D03*
Y52945D02*
D03*
Y46055D02*
D03*
X394000Y52945D02*
D03*
Y46055D02*
D03*
X432000Y165445D02*
D03*
Y158555D02*
D03*
X394000Y165445D02*
D03*
Y158555D02*
D03*
X432000Y277945D02*
D03*
Y271055D02*
D03*
X394000Y277945D02*
D03*
Y271055D02*
D03*
X94500Y165445D02*
D03*
Y158555D02*
D03*
X56500Y165445D02*
D03*
Y158555D02*
D03*
X94500Y277945D02*
D03*
Y271055D02*
D03*
X56500Y277945D02*
D03*
Y271055D02*
D03*
X399500Y711945D02*
D03*
Y705055D02*
D03*
X363500Y711945D02*
D03*
Y705055D02*
D03*
X400000Y639445D02*
D03*
Y632555D02*
D03*
X364000Y639445D02*
D03*
Y632555D02*
D03*
X399500Y565945D02*
D03*
Y559055D02*
D03*
X363500Y565945D02*
D03*
Y559055D02*
D03*
D17*
X252555Y26000D02*
D03*
X259445D02*
D03*
X268555Y18000D02*
D03*
X275445D02*
D03*
X285055Y10000D02*
D03*
X291945D02*
D03*
X46055Y773500D02*
D03*
X52945D02*
D03*
X46055Y735500D02*
D03*
X52945D02*
D03*
X158555Y773500D02*
D03*
X165445D02*
D03*
X158555Y735500D02*
D03*
X165445D02*
D03*
X291945Y347500D02*
D03*
X285055D02*
D03*
X275445Y355500D02*
D03*
X268555D02*
D03*
X259445Y363500D02*
D03*
X252555D02*
D03*
X629445Y347500D02*
D03*
X622555D02*
D03*
X612945Y355500D02*
D03*
X606055D02*
D03*
X596945Y363500D02*
D03*
X590055D02*
D03*
Y26000D02*
D03*
X596945D02*
D03*
X606055Y18000D02*
D03*
X612945D02*
D03*
X622555Y10000D02*
D03*
X629445D02*
D03*
X590055Y138500D02*
D03*
X596945D02*
D03*
X606055Y130500D02*
D03*
X612945D02*
D03*
X622555Y122500D02*
D03*
X629445D02*
D03*
X590055Y251000D02*
D03*
X596945D02*
D03*
X606055Y243000D02*
D03*
X612945D02*
D03*
X622555Y235000D02*
D03*
X629445D02*
D03*
X252555Y138500D02*
D03*
X259445D02*
D03*
X268555Y130500D02*
D03*
X275445D02*
D03*
X285055Y122500D02*
D03*
X291945D02*
D03*
X252555Y251000D02*
D03*
X259445D02*
D03*
X268555Y243000D02*
D03*
X275445D02*
D03*
X285055Y235000D02*
D03*
X291945D02*
D03*
D18*
X207000Y56449D02*
D03*
X202000D02*
D03*
X197000D02*
D03*
X192000D02*
D03*
X207000Y37551D02*
D03*
X202000D02*
D03*
X197000D02*
D03*
X192000D02*
D03*
X144500Y49949D02*
D03*
X139500D02*
D03*
X134500D02*
D03*
X129500D02*
D03*
X144500Y31051D02*
D03*
X139500D02*
D03*
X134500D02*
D03*
X129500D02*
D03*
Y368551D02*
D03*
X134500D02*
D03*
X139500D02*
D03*
X144500D02*
D03*
X129500Y387449D02*
D03*
X134500D02*
D03*
X139500D02*
D03*
X144500D02*
D03*
X192000Y375051D02*
D03*
X197000D02*
D03*
X202000D02*
D03*
X207000D02*
D03*
X192000Y393949D02*
D03*
X197000D02*
D03*
X202000D02*
D03*
X207000D02*
D03*
X467000Y368551D02*
D03*
X472000D02*
D03*
X477000D02*
D03*
X482000D02*
D03*
X467000Y387449D02*
D03*
X472000D02*
D03*
X477000D02*
D03*
X482000D02*
D03*
X529500Y375051D02*
D03*
X534500D02*
D03*
X539500D02*
D03*
X544500D02*
D03*
X529500Y393949D02*
D03*
X534500D02*
D03*
X539500D02*
D03*
X544500D02*
D03*
Y56449D02*
D03*
X539500D02*
D03*
X534500D02*
D03*
X529500D02*
D03*
X544500Y37551D02*
D03*
X539500D02*
D03*
X534500D02*
D03*
X529500D02*
D03*
X482000Y49949D02*
D03*
X477000D02*
D03*
X472000D02*
D03*
X467000D02*
D03*
X482000Y31051D02*
D03*
X477000D02*
D03*
X472000D02*
D03*
X467000D02*
D03*
X544500Y168949D02*
D03*
X539500D02*
D03*
X534500D02*
D03*
X529500D02*
D03*
X544500Y150051D02*
D03*
X539500D02*
D03*
X534500D02*
D03*
X529500D02*
D03*
X482000Y162449D02*
D03*
X477000D02*
D03*
X472000D02*
D03*
X467000D02*
D03*
X482000Y143551D02*
D03*
X477000D02*
D03*
X472000D02*
D03*
X467000D02*
D03*
X544500Y281449D02*
D03*
X539500D02*
D03*
X534500D02*
D03*
X529500D02*
D03*
X544500Y262551D02*
D03*
X539500D02*
D03*
X534500D02*
D03*
X529500D02*
D03*
X482000Y274949D02*
D03*
X477000D02*
D03*
X472000D02*
D03*
X467000D02*
D03*
X482000Y256051D02*
D03*
X477000D02*
D03*
X472000D02*
D03*
X467000D02*
D03*
X207000Y168949D02*
D03*
X202000D02*
D03*
X197000D02*
D03*
X192000D02*
D03*
X207000Y150051D02*
D03*
X202000D02*
D03*
X197000D02*
D03*
X192000D02*
D03*
X144500Y162449D02*
D03*
X139500D02*
D03*
X134500D02*
D03*
X129500D02*
D03*
X144500Y143551D02*
D03*
X139500D02*
D03*
X134500D02*
D03*
X129500D02*
D03*
X207000Y281449D02*
D03*
X202000D02*
D03*
X197000D02*
D03*
X192000D02*
D03*
X207000Y262551D02*
D03*
X202000D02*
D03*
X197000D02*
D03*
X192000D02*
D03*
X144500Y274949D02*
D03*
X139500D02*
D03*
X134500D02*
D03*
X129500D02*
D03*
X144500Y256051D02*
D03*
X139500D02*
D03*
X134500D02*
D03*
X129500D02*
D03*
X523500Y734449D02*
D03*
X518500D02*
D03*
X513500D02*
D03*
X508500D02*
D03*
X523500Y715551D02*
D03*
X518500D02*
D03*
X513500D02*
D03*
X508500D02*
D03*
X524000Y659449D02*
D03*
X519000D02*
D03*
X514000D02*
D03*
X509000D02*
D03*
X524000Y640551D02*
D03*
X519000D02*
D03*
X514000D02*
D03*
X509000D02*
D03*
X523500Y581449D02*
D03*
X518500D02*
D03*
X513500D02*
D03*
X508500D02*
D03*
X523500Y562551D02*
D03*
X518500D02*
D03*
X513500D02*
D03*
X508500D02*
D03*
X447000Y711949D02*
D03*
X442000D02*
D03*
X437000D02*
D03*
X432000D02*
D03*
X447000Y693051D02*
D03*
X442000D02*
D03*
X437000D02*
D03*
X432000D02*
D03*
X447000Y564449D02*
D03*
X442000D02*
D03*
X437000D02*
D03*
X432000D02*
D03*
X447000Y545551D02*
D03*
X442000D02*
D03*
X437000D02*
D03*
X432000D02*
D03*
D20*
X31051Y700500D02*
D03*
Y695500D02*
D03*
Y690500D02*
D03*
Y685500D02*
D03*
X49949Y700500D02*
D03*
Y695500D02*
D03*
Y690500D02*
D03*
Y685500D02*
D03*
X37551Y638000D02*
D03*
Y633000D02*
D03*
Y628000D02*
D03*
Y623000D02*
D03*
X56449Y638000D02*
D03*
Y633000D02*
D03*
Y628000D02*
D03*
Y623000D02*
D03*
X143551Y700500D02*
D03*
Y695500D02*
D03*
Y690500D02*
D03*
Y685500D02*
D03*
X162449Y700500D02*
D03*
Y695500D02*
D03*
Y690500D02*
D03*
Y685500D02*
D03*
X150051Y638000D02*
D03*
Y633000D02*
D03*
Y628000D02*
D03*
Y623000D02*
D03*
X168949Y638000D02*
D03*
Y633000D02*
D03*
Y628000D02*
D03*
Y623000D02*
D03*
D21*
X10000Y538055D02*
D03*
Y544945D02*
D03*
X18000Y554555D02*
D03*
Y561445D02*
D03*
X26000Y570555D02*
D03*
Y577445D02*
D03*
X122500Y538055D02*
D03*
Y544945D02*
D03*
X130500Y554555D02*
D03*
Y561445D02*
D03*
X138500Y570555D02*
D03*
Y577445D02*
D03*
D22*
X57000Y654043D02*
D03*
Y646957D02*
D03*
X50500Y716543D02*
D03*
Y709457D02*
D03*
X18500Y692543D02*
D03*
Y685457D02*
D03*
X169500Y654043D02*
D03*
Y646957D02*
D03*
X163000Y716543D02*
D03*
Y709457D02*
D03*
X131000Y692543D02*
D03*
Y685457D02*
D03*
D23*
X67177Y764398D02*
D03*
X64618D02*
D03*
X62059D02*
D03*
X59500D02*
D03*
X67177Y745500D02*
D03*
X64618D02*
D03*
X62059D02*
D03*
X59500D02*
D03*
X179677Y764398D02*
D03*
X177118D02*
D03*
X174559D02*
D03*
X172000D02*
D03*
X179677Y745500D02*
D03*
X177118D02*
D03*
X174559D02*
D03*
X172000D02*
D03*
D24*
X37653Y661917D02*
D03*
X44346D02*
D03*
X150154D02*
D03*
X156846D02*
D03*
D25*
X72374Y687500D02*
D03*
X64500D02*
D03*
X72374Y679500D02*
D03*
X64500D02*
D03*
X184874Y687500D02*
D03*
X177000D02*
D03*
X184874Y679500D02*
D03*
X177000D02*
D03*
M02*
