M48
;Layer_Color=9474304
;FILE_FORMAT=2:3
INCH,LZ
;TYPE=PLATED
T1F00S00C0.028
T2F00S00C0.035
T3F00S00C0.040
T4F00S00C0.190
%
T01
X1031Y014
X11195Y0193
X11217Y02489
X10965Y02575
X11075Y0286
X11333Y02861
X11393Y02964
X11571Y02763
X11695Y02698
X1194Y02602
X12132Y02434
X1203Y02198
X11983Y02116
X12415Y02755
X12471Y02844
X10715Y0249
X1042Y0249
X10278Y02491
X1021Y02608
X10018Y02451
X09886Y02369
X09657Y02225
X09437Y02098
X09546Y01728
X09593Y01642
X1047Y0167
X10472Y02149
X10575Y0215
X1071Y02015
X09922Y02898
X09214Y02403
X09283Y02289
X0976Y03195
X09945Y03605
X10345
X10475
X10455Y0337
X1087Y03475
X10865Y03685
X10415Y0386
Y04005
X10405Y0428
X10445Y0453
X107Y04575
X108
X1005Y0462
X09945
X11345Y0397
X1155Y03615
X1147Y035
Y033
X1161Y03341
X1161Y0344
X11715Y034
X1177Y036
X11945Y0387
X1201Y0405
X11075Y0342
X1097
T02
X11875Y0182
X11925Y01907
X11975Y01993
X12243Y02457
X12293Y02543
X12343Y0263
X1087Y02705
X1077
X1067
X1057
X1047
Y02805
X1057
X1067
X1077
X1087
X09419Y01949
X09469Y01862
X09369Y02036
X09114Y02477
X09064Y02564
X09014Y0265
X1032Y03185
X1042Y03185
Y03285
X1052Y03285
X1052Y03185
X1062Y03185
X1072Y03185
X1072Y03285
X1082Y03285
X1082Y03185
X1092Y03185
X1092Y03285
X1062Y03285
X1032
X1029Y0462
X1019
X1039
X109
X11Y0462
X111Y0462
X1102Y03285
X1102Y03185
T03
X11122Y0154
X11035Y0159
X09215Y03495
X09128Y03445
X11755Y04085
X11755Y04185
T04
X10675Y0142
X0936Y0387
X12085Y0372
M30
