%FSLAX23Y23*%
%MOIN*%
G70*
G01*
G75*
G04 Layer_Color=65535*
%ADD10R,0.057X0.065*%
G04:AMPARAMS|DCode=11|XSize=14mil|YSize=87mil|CornerRadius=0mil|HoleSize=0mil|Usage=FLASHONLY|Rotation=30.000|XOffset=0mil|YOffset=0mil|HoleType=Round|Shape=Rectangle|*
%AMROTATEDRECTD11*
4,1,4,0.016,-0.041,-0.028,0.034,-0.016,0.041,0.028,-0.034,0.016,-0.041,0.0*
%
%ADD11ROTATEDRECTD11*%

G04:AMPARAMS|DCode=12|XSize=55mil|YSize=47mil|CornerRadius=0mil|HoleSize=0mil|Usage=FLASHONLY|Rotation=210.000|XOffset=0mil|YOffset=0mil|HoleType=Round|Shape=Rectangle|*
%AMROTATEDRECTD12*
4,1,4,0.012,0.034,0.036,-0.007,-0.012,-0.034,-0.036,0.007,0.012,0.034,0.0*
%
%ADD12ROTATEDRECTD12*%

G04:AMPARAMS|DCode=13|XSize=12mil|YSize=35mil|CornerRadius=0mil|HoleSize=0mil|Usage=FLASHONLY|Rotation=30.000|XOffset=0mil|YOffset=0mil|HoleType=Round|Shape=Rectangle|*
%AMROTATEDRECTD13*
4,1,4,0.004,-0.018,-0.014,0.012,-0.004,0.018,0.014,-0.012,0.004,-0.018,0.0*
%
%ADD13ROTATEDRECTD13*%

G04:AMPARAMS|DCode=14|XSize=47mil|YSize=31mil|CornerRadius=0mil|HoleSize=0mil|Usage=FLASHONLY|Rotation=210.000|XOffset=0mil|YOffset=0mil|HoleType=Round|Shape=Rectangle|*
%AMROTATEDRECTD14*
4,1,4,0.013,0.025,0.028,-0.002,-0.013,-0.025,-0.028,0.002,0.013,0.025,0.0*
%
%ADD14ROTATEDRECTD14*%

G04:AMPARAMS|DCode=15|XSize=53mil|YSize=41mil|CornerRadius=0mil|HoleSize=0mil|Usage=FLASHONLY|Rotation=210.000|XOffset=0mil|YOffset=0mil|HoleType=Round|Shape=Rectangle|*
%AMROTATEDRECTD15*
4,1,4,0.013,0.031,0.033,-0.005,-0.013,-0.031,-0.033,0.005,0.013,0.031,0.0*
%
%ADD15ROTATEDRECTD15*%

G04:AMPARAMS|DCode=16|XSize=59mil|YSize=49mil|CornerRadius=0mil|HoleSize=0mil|Usage=FLASHONLY|Rotation=210.000|XOffset=0mil|YOffset=0mil|HoleType=Round|Shape=Rectangle|*
%AMROTATEDRECTD16*
4,1,4,0.013,0.036,0.038,-0.007,-0.013,-0.036,-0.038,0.007,0.013,0.036,0.0*
%
%ADD16ROTATEDRECTD16*%

G04:AMPARAMS|DCode=17|XSize=59mil|YSize=49mil|CornerRadius=0mil|HoleSize=0mil|Usage=FLASHONLY|Rotation=300.000|XOffset=0mil|YOffset=0mil|HoleType=Round|Shape=Rectangle|*
%AMROTATEDRECTD17*
4,1,4,-0.036,0.013,0.007,0.038,0.036,-0.013,-0.007,-0.038,-0.036,0.013,0.0*
%
%ADD17ROTATEDRECTD17*%

%ADD18R,0.055X0.047*%
G04:AMPARAMS|DCode=19|XSize=55mil|YSize=47mil|CornerRadius=0mil|HoleSize=0mil|Usage=FLASHONLY|Rotation=120.000|XOffset=0mil|YOffset=0mil|HoleType=Round|Shape=Rectangle|*
%AMROTATEDRECTD19*
4,1,4,0.034,-0.012,-0.007,-0.036,-0.034,0.012,0.007,0.036,0.034,-0.012,0.0*
%
%ADD19ROTATEDRECTD19*%

G04:AMPARAMS|DCode=20|XSize=55mil|YSize=47mil|CornerRadius=0mil|HoleSize=0mil|Usage=FLASHONLY|Rotation=240.000|XOffset=0mil|YOffset=0mil|HoleType=Round|Shape=Rectangle|*
%AMROTATEDRECTD20*
4,1,4,-0.007,0.036,0.034,0.012,0.007,-0.036,-0.034,-0.012,-0.007,0.036,0.0*
%
%ADD20ROTATEDRECTD20*%

%ADD21R,0.047X0.055*%
G04:AMPARAMS|DCode=22|XSize=55mil|YSize=47mil|CornerRadius=0mil|HoleSize=0mil|Usage=FLASHONLY|Rotation=330.000|XOffset=0mil|YOffset=0mil|HoleType=Round|Shape=Rectangle|*
%AMROTATEDRECTD22*
4,1,4,-0.036,-0.007,-0.012,0.034,0.036,0.007,0.012,-0.034,-0.036,-0.007,0.0*
%
%ADD22ROTATEDRECTD22*%

%ADD23R,0.035X0.012*%
G04:AMPARAMS|DCode=24|XSize=12mil|YSize=35mil|CornerRadius=0mil|HoleSize=0mil|Usage=FLASHONLY|Rotation=150.000|XOffset=0mil|YOffset=0mil|HoleType=Round|Shape=Rectangle|*
%AMROTATEDRECTD24*
4,1,4,0.014,0.012,-0.004,-0.018,-0.014,-0.012,0.004,0.018,0.014,0.012,0.0*
%
%ADD24ROTATEDRECTD24*%

%ADD25R,0.053X0.041*%
G04:AMPARAMS|DCode=26|XSize=53mil|YSize=41mil|CornerRadius=0mil|HoleSize=0mil|Usage=FLASHONLY|Rotation=120.000|XOffset=0mil|YOffset=0mil|HoleType=Round|Shape=Rectangle|*
%AMROTATEDRECTD26*
4,1,4,0.031,-0.013,-0.005,-0.033,-0.031,0.013,0.005,0.033,0.031,-0.013,0.0*
%
%ADD26ROTATEDRECTD26*%

G04:AMPARAMS|DCode=27|XSize=53mil|YSize=41mil|CornerRadius=0mil|HoleSize=0mil|Usage=FLASHONLY|Rotation=240.000|XOffset=0mil|YOffset=0mil|HoleType=Round|Shape=Rectangle|*
%AMROTATEDRECTD27*
4,1,4,-0.005,0.033,0.031,0.013,0.005,-0.033,-0.031,-0.013,-0.005,0.033,0.0*
%
%ADD27ROTATEDRECTD27*%

%ADD28R,0.047X0.031*%
G04:AMPARAMS|DCode=29|XSize=47mil|YSize=31mil|CornerRadius=0mil|HoleSize=0mil|Usage=FLASHONLY|Rotation=300.000|XOffset=0mil|YOffset=0mil|HoleType=Round|Shape=Rectangle|*
%AMROTATEDRECTD29*
4,1,4,-0.025,0.013,0.002,0.028,0.025,-0.013,-0.002,-0.028,-0.025,0.013,0.0*
%
%ADD29ROTATEDRECTD29*%

G04:AMPARAMS|DCode=30|XSize=47mil|YSize=31mil|CornerRadius=0mil|HoleSize=0mil|Usage=FLASHONLY|Rotation=60.000|XOffset=0mil|YOffset=0mil|HoleType=Round|Shape=Rectangle|*
%AMROTATEDRECTD30*
4,1,4,0.002,-0.028,-0.025,-0.013,-0.002,0.028,0.025,0.013,0.002,-0.028,0.0*
%
%ADD30ROTATEDRECTD30*%

%ADD31R,0.059X0.049*%
%ADD32R,0.049X0.059*%
G04:AMPARAMS|DCode=33|XSize=59mil|YSize=49mil|CornerRadius=0mil|HoleSize=0mil|Usage=FLASHONLY|Rotation=60.000|XOffset=0mil|YOffset=0mil|HoleType=Round|Shape=Rectangle|*
%AMROTATEDRECTD33*
4,1,4,0.007,-0.038,-0.036,-0.013,-0.007,0.038,0.036,0.013,0.007,-0.038,0.0*
%
%ADD33ROTATEDRECTD33*%

G04:AMPARAMS|DCode=34|XSize=59mil|YSize=49mil|CornerRadius=0mil|HoleSize=0mil|Usage=FLASHONLY|Rotation=150.000|XOffset=0mil|YOffset=0mil|HoleType=Round|Shape=Rectangle|*
%AMROTATEDRECTD34*
4,1,4,0.038,0.007,0.013,-0.036,-0.038,-0.007,-0.013,0.036,0.038,0.007,0.0*
%
%ADD34ROTATEDRECTD34*%

%ADD35R,0.087X0.014*%
G04:AMPARAMS|DCode=36|XSize=14mil|YSize=87mil|CornerRadius=0mil|HoleSize=0mil|Usage=FLASHONLY|Rotation=150.000|XOffset=0mil|YOffset=0mil|HoleType=Round|Shape=Rectangle|*
%AMROTATEDRECTD36*
4,1,4,0.028,0.034,-0.016,-0.041,-0.028,-0.034,0.016,0.041,0.028,0.034,0.0*
%
%ADD36ROTATEDRECTD36*%

G04:AMPARAMS|DCode=37|XSize=47mil|YSize=31mil|CornerRadius=0mil|HoleSize=0mil|Usage=FLASHONLY|Rotation=330.000|XOffset=0mil|YOffset=0mil|HoleType=Round|Shape=Rectangle|*
%AMROTATEDRECTD37*
4,1,4,-0.028,-0.002,-0.013,0.025,0.028,0.002,0.013,-0.025,-0.028,-0.002,0.0*
%
%ADD37ROTATEDRECTD37*%

G04:AMPARAMS|DCode=38|XSize=53mil|YSize=41mil|CornerRadius=0mil|HoleSize=0mil|Usage=FLASHONLY|Rotation=330.000|XOffset=0mil|YOffset=0mil|HoleType=Round|Shape=Rectangle|*
%AMROTATEDRECTD38*
4,1,4,-0.033,-0.005,-0.013,0.031,0.033,0.005,0.013,-0.031,-0.033,-0.005,0.0*
%
%ADD38ROTATEDRECTD38*%

%ADD39R,0.031X0.047*%
%ADD40R,0.041X0.053*%
%ADD41C,0.010*%
%ADD42C,0.130*%
%ADD43C,0.060*%
%ADD44P,0.084X4X165.0*%
%ADD45C,0.059*%
%ADD46R,0.059X0.059*%
%ADD47P,0.084X4X285.0*%
%ADD48C,0.050*%
%ADD49R,0.045X0.024*%
%ADD50R,0.077X0.049*%
%ADD51R,0.049X0.077*%
%ADD52C,0.024*%
%ADD53C,0.010*%
%ADD54C,0.008*%
%ADD55C,0.008*%
D41*
X10735Y1710D02*
X10768D01*
X10752D01*
Y1610D01*
X10735D01*
X10768D01*
X10818Y1710D02*
X10852D01*
X10835D01*
Y1610D01*
X10818D01*
X10852D01*
X10902Y1710D02*
X10935D01*
X10918D01*
Y1610D01*
X10902D01*
X10935D01*
X10627Y1863D02*
X10610Y1880D01*
X10577D01*
X10560Y1863D01*
Y1847D01*
X10577Y1830D01*
X10610D01*
X10627Y1813D01*
Y1797D01*
X10610Y1780D01*
X10577D01*
X10560Y1797D01*
X10710Y1780D02*
X10677D01*
X10660Y1797D01*
Y1830D01*
X10677Y1847D01*
X10710D01*
X10727Y1830D01*
Y1813D01*
X10660D01*
X10777Y1847D02*
X10810D01*
X10827Y1830D01*
Y1780D01*
X10777D01*
X10760Y1797D01*
X10777Y1813D01*
X10827D01*
X10860Y1880D02*
Y1780D01*
X10910D01*
X10927Y1797D01*
Y1813D01*
X10910Y1830D01*
X10860D01*
X10910D01*
X10927Y1847D01*
Y1863D01*
X10910Y1880D01*
X10860D01*
X11010Y1780D02*
X10977D01*
X10960Y1797D01*
Y1830D01*
X10977Y1847D01*
X11010D01*
X11027Y1830D01*
Y1813D01*
X10960D01*
X11110Y1780D02*
X11076D01*
X11060Y1797D01*
Y1830D01*
X11076Y1847D01*
X11110D01*
X11126Y1830D01*
Y1813D01*
X11060D01*
X9340Y3355D02*
Y3455D01*
X9390D01*
X9407Y3438D01*
Y3405D01*
X9390Y3388D01*
X9340D01*
X9373D02*
X9407Y3355D01*
X9457D02*
X9490D01*
X9507Y3372D01*
Y3405D01*
X9490Y3422D01*
X9457D01*
X9440Y3405D01*
Y3372D01*
X9457Y3355D01*
X9540Y3455D02*
Y3355D01*
X9590D01*
X9607Y3372D01*
Y3388D01*
Y3405D01*
X9590Y3422D01*
X9540D01*
X9657Y3355D02*
X9690D01*
X9707Y3372D01*
Y3405D01*
X9690Y3422D01*
X9657D01*
X9640Y3405D01*
Y3372D01*
X9657Y3355D01*
X9757Y3438D02*
Y3422D01*
X9740D01*
X9773D01*
X9757D01*
Y3372D01*
X9773Y3355D01*
X9823D02*
X9856D01*
X9840D01*
Y3422D01*
X9823D01*
X9973D02*
X9923D01*
X9906Y3405D01*
Y3372D01*
X9923Y3355D01*
X9973D01*
X10006D02*
X10056D01*
X10073Y3372D01*
X10056Y3388D01*
X10023D01*
X10006Y3405D01*
X10023Y3422D01*
X10073D01*
X9415Y3630D02*
Y3547D01*
X9432Y3530D01*
X9465D01*
X9482Y3547D01*
Y3630D01*
X9582Y3613D02*
X9565Y3630D01*
X9532D01*
X9515Y3613D01*
Y3597D01*
X9532Y3580D01*
X9565D01*
X9582Y3563D01*
Y3547D01*
X9565Y3530D01*
X9532D01*
X9515Y3547D01*
X9682Y3613D02*
X9665Y3630D01*
X9632D01*
X9615Y3613D01*
Y3547D01*
X9632Y3530D01*
X9665D01*
X9682Y3547D01*
X10425Y3045D02*
X10400Y3070D01*
X10350D01*
X10325Y3045D01*
Y3020D01*
X10350Y2995D01*
X10400D01*
X10425Y2970D01*
Y2945D01*
X10400Y2920D01*
X10350D01*
X10325Y2945D01*
X10550Y3070D02*
X10500D01*
X10475Y3045D01*
Y2945D01*
X10500Y2920D01*
X10550D01*
X10575Y2945D01*
Y3045D01*
X10550Y3070D01*
X10625Y2920D02*
Y3070D01*
X10725Y2920D01*
Y3070D01*
X10775Y2920D02*
Y3020D01*
X10825Y3070D01*
X10875Y3020D01*
Y2920D01*
Y2995D01*
X10775D01*
X10925Y2920D02*
Y3070D01*
X11000D01*
X11025Y3045D01*
Y2995D01*
X11000Y2970D01*
X10925D01*
X10975D02*
X11025Y2920D01*
X11405Y3805D02*
Y3845D01*
X11425Y3865D01*
X11445Y3845D01*
Y3805D01*
Y3835D01*
X11405D01*
X11465Y3865D02*
Y3815D01*
X11475Y3805D01*
X11495D01*
X11505Y3815D01*
Y3865D01*
X11525D02*
X11565Y3805D01*
Y3865D02*
X11525Y3805D01*
X11405Y3685D02*
Y3745D01*
X11435D01*
X11445Y3735D01*
Y3715D01*
X11435Y3705D01*
X11405D01*
X11465Y3745D02*
Y3685D01*
X11485Y3705D01*
X11505Y3685D01*
Y3745D01*
X11525Y3685D02*
Y3745D01*
X11555D01*
X11565Y3735D01*
Y3715D01*
X11555Y3705D01*
X11525D01*
X11545D02*
X11565Y3685D01*
X11445Y3977D02*
X11435Y3987D01*
X11415D01*
X11405Y3977D01*
Y3937D01*
X11415Y3927D01*
X11435D01*
X11445Y3937D01*
X11465Y3987D02*
Y3927D01*
X11505D01*
X11525Y3987D02*
Y3927D01*
Y3947D01*
X11565Y3987D01*
X11535Y3957D01*
X11565Y3927D01*
X9147Y2219D02*
X9133Y2223D01*
X9116Y2213D01*
X9112Y2199D01*
X9132Y2165D01*
X9146Y2161D01*
X9163Y2171D01*
X9167Y2185D01*
X9189Y2186D02*
X9207Y2196D01*
X9198Y2191D01*
X9168Y2243D01*
X9164Y2229D01*
X9203Y2263D02*
X9237Y2283D01*
X9242Y2274D01*
X9228Y2220D01*
X9233Y2211D01*
X9290Y2232D02*
X9324Y2252D01*
X9337Y2271D02*
X9354Y2281D01*
X9345Y2276D01*
X9315Y2328D01*
X9312Y2314D01*
X9202Y2124D02*
X9188Y2128D01*
X9171Y2118D01*
X9167Y2104D01*
X9187Y2069D01*
X9201Y2066D01*
X9218Y2076D01*
X9222Y2089D01*
X9244Y2091D02*
X9262Y2101D01*
X9253Y2096D01*
X9223Y2148D01*
X9219Y2134D01*
X9263Y2159D02*
X9266Y2173D01*
X9284Y2183D01*
X9297Y2179D01*
X9302Y2170D01*
X9299Y2157D01*
X9312Y2153D01*
X9317Y2144D01*
X9314Y2131D01*
X9296Y2121D01*
X9283Y2124D01*
X9278Y2133D01*
X9281Y2147D01*
X9268Y2150D01*
X9263Y2159D01*
X9281Y2147D02*
X9299Y2157D01*
X9345Y2137D02*
X9379Y2157D01*
X9392Y2176D02*
X9409Y2186D01*
X9400Y2181D01*
X9370Y2233D01*
X9367Y2219D01*
X9756Y1994D02*
X9760Y2008D01*
X9750Y2025D01*
X9736Y2029D01*
X9702Y2009D01*
X9698Y1995D01*
X9708Y1978D01*
X9722Y1974D01*
X9766Y1977D02*
X9780Y1973D01*
X9790Y1956D01*
X9786Y1942D01*
X9778Y1937D01*
X9764Y1941D01*
X9759Y1949D01*
X9764Y1941D01*
X9760Y1927D01*
X9752Y1922D01*
X9738Y1926D01*
X9728Y1943D01*
X9732Y1957D01*
X9773Y1865D02*
X9753Y1900D01*
X9808Y1885D01*
X9816Y1890D01*
X9820Y1904D01*
X9810Y1921D01*
X9796Y1925D01*
X9774Y1843D02*
X9794Y1808D01*
X9813Y1796D02*
X9823Y1778D01*
X9818Y1787D01*
X9870Y1817D01*
X9856Y1821D01*
X9413Y3038D02*
X9416Y3052D01*
X9406Y3069D01*
X9393Y3073D01*
X9358Y3053D01*
X9355Y3039D01*
X9365Y3022D01*
X9378Y3018D01*
X9451Y2991D02*
X9431Y3026D01*
X9406Y3011D01*
X9416Y2993D01*
X9406Y3011D01*
X9380Y2996D01*
X9461Y2974D02*
X9410Y2944D01*
X9425Y2918D01*
X9438Y2914D01*
X9447Y2919D01*
X9451Y2933D01*
X9436Y2959D01*
X9451Y2933D01*
X9464Y2929D01*
X9473Y2934D01*
X9476Y2948D01*
X9461Y2974D01*
X9440Y2892D02*
X9450Y2875D01*
X9445Y2883D01*
X9496Y2913D01*
X9483Y2917D01*
X9571Y3187D02*
X9575Y3201D01*
X9565Y3218D01*
X9551Y3222D01*
X9516Y3202D01*
X9513Y3188D01*
X9523Y3171D01*
X9536Y3167D01*
X9590Y3175D02*
X9600Y3157D01*
X9595Y3166D01*
X9543Y3136D01*
X9538Y3145D01*
X9548Y3127D01*
X9563Y3101D02*
X9615Y3131D01*
X9583Y3067D01*
X9635Y3097D01*
X9645Y3079D02*
X9593Y3049D01*
X9619Y3064D01*
X9639Y3030D01*
X9665Y3045D01*
X9613Y3015D01*
X9623Y2998D02*
X9633Y2980D01*
X9628Y2989D01*
X9680Y3019D01*
X9666Y3023D01*
X9979Y3098D02*
X9983Y3112D01*
X9973Y3129D01*
X9959Y3133D01*
X9924Y3113D01*
X9921Y3099D01*
X9931Y3082D01*
X9944Y3078D01*
X9998Y3086D02*
X9946Y3056D01*
X9966Y3021D01*
X9976Y3004D02*
X10028Y3034D01*
X10020Y3007D01*
X10048Y2999D01*
X9996Y2969D01*
X10058Y2982D02*
X10006Y2952D01*
X10021Y2926D01*
X10034Y2922D01*
X10069Y2942D01*
X10073Y2956D01*
X10058Y2982D01*
X10036Y2900D02*
X10046Y2883D01*
X10041Y2891D01*
X10093Y2921D01*
X10079Y2925D01*
X9505Y3090D02*
X9508Y3104D01*
X9498Y3121D01*
X9485Y3124D01*
X9450Y3104D01*
X9446Y3091D01*
X9456Y3074D01*
X9470Y3070D01*
X9535Y3038D02*
X9538Y3052D01*
X9528Y3069D01*
X9515Y3073D01*
X9506Y3068D01*
X9502Y3054D01*
X9512Y3037D01*
X9509Y3023D01*
X9500Y3018D01*
X9486Y3022D01*
X9476Y3039D01*
X9480Y3053D01*
X9553Y3026D02*
X9501Y2996D01*
X9527Y3011D01*
X9547Y2976D01*
X9573Y2991D01*
X9521Y2961D01*
X9531Y2944D02*
X9541Y2926D01*
X9536Y2935D01*
X9588Y2965D01*
X9575Y2969D01*
X9676Y3223D02*
X9624Y3193D01*
X9644Y3159D01*
X9654Y3141D02*
X9664Y3124D01*
X9659Y3133D01*
X9711Y3163D01*
X9697Y3166D01*
X9670Y3093D02*
X9690Y3058D01*
X9709Y3046D02*
X9719Y3029D01*
X9714Y3037D01*
X9766Y3067D01*
X9752Y3071D01*
X9658Y1984D02*
X9607Y1954D01*
X9627Y1919D01*
X9708Y1897D02*
X9688Y1932D01*
X9662Y1917D01*
X9681Y1904D01*
X9686Y1896D01*
X9682Y1882D01*
X9665Y1872D01*
X9652Y1876D01*
X9642Y1893D01*
X9645Y1907D01*
X9658Y1845D02*
X9678Y1810D01*
X9696Y1798D02*
X9706Y1780D01*
X9701Y1789D01*
X9753Y1819D01*
X9740Y1823D01*
X9258Y2996D02*
X9310Y3026D01*
X9325Y3000D01*
X9321Y2986D01*
X9304Y2976D01*
X9290Y2980D01*
X9275Y3006D01*
X9285Y2989D02*
X9278Y2961D01*
X9360Y2939D02*
X9340Y2974D01*
X9314Y2959D01*
X9324Y2942D01*
X9314Y2959D01*
X9288Y2944D01*
X9370Y2922D02*
X9318Y2892D01*
X9333Y2866D01*
X9347Y2862D01*
X9355Y2867D01*
X9359Y2881D01*
X9344Y2907D01*
X9359Y2881D01*
X9373Y2877D01*
X9381Y2882D01*
X9385Y2896D01*
X9370Y2922D01*
X9348Y2840D02*
X9358Y2823D01*
X9353Y2831D01*
X9405Y2861D01*
X9391Y2865D01*
X10183Y1897D02*
X10217Y1917D01*
X10245Y1910D01*
X10237Y1883D01*
X10203Y1863D01*
X10229Y1878D01*
X10209Y1912D01*
X10265Y1875D02*
X10213Y1845D01*
X10228Y1819D01*
X10241Y1816D01*
X10276Y1836D01*
X10280Y1849D01*
X10265Y1875D01*
X10306Y1784D02*
X10310Y1797D01*
X10300Y1815D01*
X10286Y1818D01*
X10251Y1798D01*
X10248Y1785D01*
X10258Y1767D01*
X10271Y1764D01*
X10273Y1741D02*
X10283Y1724D01*
X10278Y1733D01*
X10330Y1763D01*
X10316Y1766D01*
X9865Y3985D02*
Y3945D01*
X9845Y3925D01*
X9825Y3945D01*
Y3985D01*
Y3955D01*
X9865D01*
X9805Y3925D02*
Y3985D01*
X9775D01*
X9765Y3975D01*
Y3935D01*
X9775Y3925D01*
X9805D01*
X9705Y3935D02*
X9715Y3925D01*
X9735D01*
X9745Y3935D01*
Y3975D01*
X9735Y3985D01*
X9715D01*
X9705Y3975D01*
X9645Y3985D02*
X9685D01*
X9645Y3945D01*
Y3935D01*
X9655Y3925D01*
X9675D01*
X9685Y3935D01*
X11964Y3208D02*
X11930Y3228D01*
X11922Y3255D01*
X11950Y3262D01*
X11984Y3242D01*
X11958Y3257D01*
X11938Y3223D01*
X11942Y3290D02*
X11994Y3260D01*
X12009Y3286D01*
X12006Y3299D01*
X11971Y3319D01*
X11957Y3316D01*
X11942Y3290D01*
X12001Y3371D02*
X11987Y3368D01*
X11977Y3350D01*
X11981Y3337D01*
X12016Y3317D01*
X12029Y3320D01*
X12039Y3338D01*
X12036Y3351D01*
X12011Y3389D02*
X12007Y3402D01*
X12017Y3420D01*
X12031Y3423D01*
X12040Y3418D01*
X12043Y3405D01*
X12038Y3396D01*
X12043Y3405D01*
X12057Y3408D01*
X12066Y3403D01*
X12069Y3390D01*
X12059Y3372D01*
X12046Y3369D01*
X10285Y3405D02*
Y3445D01*
X10305Y3465D01*
X10325Y3445D01*
Y3405D01*
Y3435D01*
X10285D01*
X10345Y3445D02*
Y3405D01*
Y3425D01*
X10355Y3435D01*
X10365Y3445D01*
X10375D01*
X10445Y3465D02*
Y3405D01*
X10415D01*
X10405Y3415D01*
Y3435D01*
X10415Y3445D01*
X10445D01*
X10465D02*
Y3415D01*
X10475Y3405D01*
X10505D01*
Y3445D01*
X10525Y3405D02*
X10545D01*
X10535D01*
Y3445D01*
X10525D01*
X10575Y3405D02*
Y3445D01*
X10605D01*
X10615Y3435D01*
Y3405D01*
X10645D02*
X10665D01*
X10675Y3415D01*
Y3435D01*
X10665Y3445D01*
X10645D01*
X10635Y3435D01*
Y3415D01*
X10645Y3405D01*
X9939Y1699D02*
X9943Y1713D01*
X9933Y1730D01*
X9919Y1734D01*
X9885Y1714D01*
X9881Y1700D01*
X9891Y1683D01*
X9905Y1679D01*
X9906Y1657D02*
X9916Y1639D01*
X9911Y1648D01*
X9963Y1678D01*
X9949Y1682D01*
X9922Y1608D02*
X9942Y1574D01*
X9961Y1561D02*
X9971Y1544D01*
X9966Y1553D01*
X10018Y1583D01*
X10004Y1586D01*
X9825Y4290D02*
X9835Y4280D01*
X9855D01*
X9865Y4290D01*
Y4330D01*
X9855Y4340D01*
X9835D01*
X9825Y4330D01*
X9805Y4340D02*
X9785D01*
X9795D01*
Y4280D01*
X9805Y4290D01*
X9755Y4350D02*
X9715D01*
X9655Y4340D02*
X9695D01*
X9655Y4300D01*
Y4290D01*
X9665Y4280D01*
X9685D01*
X9695Y4290D01*
X12248Y3090D02*
X12235Y3086D01*
X12225Y3069D01*
X12228Y3055D01*
X12263Y3035D01*
X12277Y3039D01*
X12287Y3056D01*
X12283Y3070D01*
X12302Y3082D02*
X12312Y3100D01*
X12307Y3091D01*
X12255Y3121D01*
X12258Y3107D01*
X12335Y3121D02*
X12355Y3155D01*
X12313Y3202D02*
X12310Y3216D01*
X12320Y3233D01*
X12333Y3237D01*
X12342Y3232D01*
X12346Y3218D01*
X12341Y3210D01*
X12346Y3218D01*
X12359Y3222D01*
X12368Y3217D01*
X12372Y3203D01*
X12362Y3186D01*
X12348Y3182D01*
X10248Y1635D02*
X10234Y1638D01*
X10217Y1628D01*
X10213Y1615D01*
X10233Y1580D01*
X10247Y1576D01*
X10264Y1586D01*
X10268Y1600D01*
X10325Y1621D02*
X10290Y1601D01*
X10305Y1656D01*
X10300Y1665D01*
X10286Y1668D01*
X10269Y1658D01*
X10265Y1645D01*
X10347Y1623D02*
X10382Y1643D01*
X10394Y1661D02*
X10411Y1671D01*
X10403Y1666D01*
X10373Y1718D01*
X10369Y1705D01*
X9610Y4065D02*
X9620Y4075D01*
Y4095D01*
X9610Y4105D01*
X9570D01*
X9560Y4095D01*
Y4075D01*
X9570Y4065D01*
X9560Y4005D02*
Y4045D01*
X9600Y4005D01*
X9610D01*
X9620Y4015D01*
Y4035D01*
X9610Y4045D01*
X9550Y3985D02*
Y3945D01*
X9560Y3885D02*
Y3925D01*
X9600Y3885D01*
X9610D01*
X9620Y3895D01*
Y3915D01*
X9610Y3925D01*
X12161Y3389D02*
X12165Y3375D01*
X12182Y3365D01*
X12196Y3369D01*
X12216Y3403D01*
X12212Y3417D01*
X12195Y3427D01*
X12181Y3423D01*
X12134Y3462D02*
X12169Y3442D01*
X12114Y3427D01*
X12109Y3419D01*
X12113Y3405D01*
X12130Y3395D01*
X12144Y3399D01*
X12122Y3481D02*
X12087Y3501D01*
X12040Y3459D02*
X12026Y3455D01*
X12009Y3465D01*
X12005Y3479D01*
X12010Y3487D01*
X12024Y3491D01*
X12033Y3486D01*
X12024Y3491D01*
X12020Y3505D01*
X12025Y3513D01*
X12039Y3517D01*
X12056Y3507D01*
X12060Y3493D01*
X10144Y2812D02*
X10148Y2826D01*
X10138Y2843D01*
X10124Y2847D01*
X10089Y2827D01*
X10086Y2813D01*
X10096Y2796D01*
X10109Y2792D01*
X10183Y2765D02*
X10164Y2778D01*
X10137Y2785D01*
X10119Y2775D01*
X10116Y2761D01*
X10126Y2744D01*
X10139Y2740D01*
X10148Y2745D01*
X10152Y2759D01*
X10137Y2785D01*
X10132Y2713D02*
X10152Y2679D01*
X10171Y2666D02*
X10181Y2649D01*
X10176Y2658D01*
X10228Y2688D01*
X10214Y2691D01*
X10705Y3555D02*
X10715Y3545D01*
X10735D01*
X10745Y3555D01*
Y3595D01*
X10735Y3605D01*
X10715D01*
X10705Y3595D01*
X10645Y3545D02*
X10665Y3555D01*
X10685Y3575D01*
Y3595D01*
X10675Y3605D01*
X10655D01*
X10645Y3595D01*
Y3585D01*
X10655Y3575D01*
X10685D01*
X10625Y3615D02*
X10585D01*
X10525Y3605D02*
X10565D01*
X10525Y3565D01*
Y3555D01*
X10535Y3545D01*
X10555D01*
X10565Y3555D01*
X11173Y2693D02*
X11159Y2690D01*
X11149Y2672D01*
X11153Y2659D01*
X11188Y2639D01*
X11201Y2642D01*
X11211Y2660D01*
X11208Y2673D01*
X11194Y2750D02*
X11193Y2728D01*
X11200Y2701D01*
X11218Y2691D01*
X11231Y2694D01*
X11241Y2711D01*
X11238Y2725D01*
X11229Y2730D01*
X11215Y2726D01*
X11200Y2701D01*
X11265Y2732D02*
X11285Y2767D01*
X11243Y2814D02*
X11239Y2828D01*
X11249Y2845D01*
X11263Y2849D01*
X11272Y2844D01*
X11275Y2830D01*
X11270Y2822D01*
X11275Y2830D01*
X11289Y2834D01*
X11298Y2829D01*
X11301Y2815D01*
X11291Y2798D01*
X11278Y2794D01*
X9120Y2927D02*
X9123Y2940D01*
X9113Y2958D01*
X9100Y2961D01*
X9065Y2941D01*
X9061Y2928D01*
X9071Y2910D01*
X9085Y2907D01*
X9086Y2884D02*
X9096Y2867D01*
X9091Y2876D01*
X9143Y2906D01*
X9130Y2909D01*
X9126Y2815D02*
X9178Y2845D01*
X9137Y2856D01*
X9157Y2821D01*
X9133Y2784D02*
X9153Y2749D01*
X9171Y2737D02*
X9181Y2720D01*
X9176Y2728D01*
X9228Y2758D01*
X9215Y2762D01*
X11310Y4380D02*
X11320Y4370D01*
X11340D01*
X11350Y4380D01*
Y4420D01*
X11340Y4430D01*
X11320D01*
X11310Y4420D01*
X11290Y4430D02*
X11270D01*
X11280D01*
Y4370D01*
X11290Y4380D01*
X11210Y4430D02*
Y4370D01*
X11240Y4400D01*
X11200D01*
X11180Y4440D02*
X11140D01*
X11080Y4430D02*
X11120D01*
X11080Y4390D01*
Y4380D01*
X11090Y4370D01*
X11110D01*
X11120Y4380D01*
X11556Y1756D02*
X11542Y1753D01*
X11532Y1735D01*
X11536Y1722D01*
X11570Y1702D01*
X11584Y1705D01*
X11594Y1723D01*
X11590Y1736D01*
X11609Y1749D02*
X11619Y1766D01*
X11614Y1757D01*
X11562Y1787D01*
X11566Y1774D01*
X11649Y1818D02*
X11597Y1848D01*
X11608Y1807D01*
X11628Y1841D01*
X11673Y1839D02*
X11693Y1873D01*
X11651Y1921D02*
X11647Y1934D01*
X11657Y1952D01*
X11671Y1955D01*
X11679Y1950D01*
X11683Y1937D01*
X11678Y1928D01*
X11683Y1937D01*
X11697Y1940D01*
X11705Y1935D01*
X11709Y1922D01*
X11699Y1904D01*
X11685Y1901D01*
X9205Y2976D02*
X9208Y2989D01*
X9198Y3007D01*
X9185Y3010D01*
X9150Y2990D01*
X9147Y2977D01*
X9157Y2959D01*
X9170Y2956D01*
X9171Y2933D02*
X9181Y2916D01*
X9176Y2925D01*
X9228Y2955D01*
X9215Y2958D01*
X9268Y2885D02*
X9250Y2898D01*
X9222Y2905D01*
X9205Y2895D01*
X9201Y2881D01*
X9211Y2864D01*
X9225Y2860D01*
X9234Y2865D01*
X9237Y2879D01*
X9222Y2905D01*
X9218Y2833D02*
X9238Y2799D01*
X9256Y2786D02*
X9266Y2769D01*
X9261Y2778D01*
X9313Y2808D01*
X9300Y2811D01*
X11310Y4273D02*
X11320Y4263D01*
X11340D01*
X11350Y4273D01*
Y4313D01*
X11340Y4323D01*
X11320D01*
X11310Y4313D01*
X11290Y4323D02*
X11270D01*
X11280D01*
Y4263D01*
X11290Y4273D01*
X11200Y4263D02*
X11220Y4273D01*
X11240Y4293D01*
Y4313D01*
X11230Y4323D01*
X11210D01*
X11200Y4313D01*
Y4303D01*
X11210Y4293D01*
X11240D01*
X11180Y4333D02*
X11140D01*
X11080Y4323D02*
X11120D01*
X11080Y4283D01*
Y4273D01*
X11090Y4263D01*
X11110D01*
X11120Y4273D01*
X11464Y1815D02*
X11451Y1811D01*
X11441Y1794D01*
X11444Y1780D01*
X11479Y1760D01*
X11493Y1764D01*
X11503Y1781D01*
X11499Y1795D01*
X11518Y1807D02*
X11528Y1824D01*
X11523Y1816D01*
X11471Y1846D01*
X11474Y1832D01*
X11511Y1915D02*
X11509Y1893D01*
X11517Y1865D01*
X11534Y1855D01*
X11548Y1859D01*
X11558Y1876D01*
X11554Y1890D01*
X11545Y1895D01*
X11532Y1891D01*
X11517Y1865D01*
X11581Y1897D02*
X11601Y1932D01*
X11559Y1979D02*
X11556Y1993D01*
X11566Y2010D01*
X11579Y2014D01*
X11588Y2009D01*
X11592Y1995D01*
X11587Y1987D01*
X11592Y1995D01*
X11605Y1999D01*
X11614Y1994D01*
X11618Y1980D01*
X11608Y1963D01*
X11594Y1959D01*
X9081Y2314D02*
X9067Y2318D01*
X9050Y2308D01*
X9046Y2294D01*
X9066Y2259D01*
X9080Y2256D01*
X9097Y2266D01*
X9101Y2279D01*
X9098Y2324D02*
X9102Y2338D01*
X9119Y2348D01*
X9133Y2344D01*
X9138Y2335D01*
X9134Y2322D01*
X9125Y2317D01*
X9134Y2322D01*
X9148Y2318D01*
X9153Y2309D01*
X9149Y2296D01*
X9132Y2286D01*
X9118Y2289D01*
X9201Y2326D02*
X9171Y2378D01*
X9160Y2337D01*
X9195Y2357D01*
X9232Y2332D02*
X9267Y2352D01*
X9279Y2371D02*
X9296Y2381D01*
X9288Y2376D01*
X9258Y2428D01*
X9254Y2414D01*
X10780Y4755D02*
X10790Y4765D01*
Y4785D01*
X10780Y4795D01*
X10740D01*
X10730Y4785D01*
Y4765D01*
X10740Y4755D01*
X10780Y4735D02*
X10790Y4725D01*
Y4705D01*
X10780Y4695D01*
X10770D01*
X10760Y4705D01*
Y4715D01*
Y4705D01*
X10750Y4695D01*
X10740D01*
X10730Y4705D01*
Y4725D01*
X10740Y4735D01*
X10730Y4645D02*
X10790D01*
X10760Y4675D01*
Y4635D01*
X10720Y4615D02*
Y4575D01*
X10730Y4515D02*
Y4555D01*
X10770Y4515D01*
X10780D01*
X10790Y4525D01*
Y4545D01*
X10780Y4555D01*
X12159Y2031D02*
X12163Y2018D01*
X12180Y2008D01*
X12194Y2011D01*
X12214Y2046D01*
X12210Y2060D01*
X12193Y2070D01*
X12179Y2066D01*
X12142Y2041D02*
X12128Y2038D01*
X12111Y2048D01*
X12107Y2061D01*
X12112Y2070D01*
X12126Y2074D01*
X12135Y2069D01*
X12126Y2074D01*
X12122Y2087D01*
X12127Y2096D01*
X12141Y2100D01*
X12158Y2090D01*
X12162Y2076D01*
X12089Y2130D02*
X12059Y2078D01*
X12100Y2089D01*
X12065Y2109D01*
X12068Y2153D02*
X12033Y2173D01*
X11986Y2131D02*
X11972Y2128D01*
X11955Y2138D01*
X11951Y2151D01*
X11956Y2160D01*
X11970Y2164D01*
X11979Y2159D01*
X11970Y2164D01*
X11966Y2177D01*
X11971Y2186D01*
X11985Y2190D01*
X12002Y2180D01*
X12006Y2166D01*
X10515Y2590D02*
X10505Y2600D01*
X10485D01*
X10475Y2590D01*
Y2550D01*
X10485Y2540D01*
X10505D01*
X10515Y2550D01*
X10535Y2600D02*
Y2540D01*
Y2570D01*
X10545Y2580D01*
X10565D01*
X10575Y2570D01*
Y2540D01*
X10625D02*
X10605D01*
X10595Y2550D01*
Y2570D01*
X10605Y2580D01*
X10625D01*
X10635Y2570D01*
Y2560D01*
X10595D01*
X10685Y2540D02*
X10665D01*
X10655Y2550D01*
Y2570D01*
X10665Y2580D01*
X10685D01*
X10695Y2570D01*
Y2560D01*
X10655D01*
X10725Y2590D02*
Y2580D01*
X10715D01*
X10735D01*
X10725D01*
Y2550D01*
X10735Y2540D01*
X10775Y2580D02*
X10795D01*
X10805Y2570D01*
Y2540D01*
X10775D01*
X10765Y2550D01*
X10775Y2560D01*
X10805D01*
X10825Y2600D02*
Y2540D01*
Y2570D01*
X10835Y2580D01*
X10855D01*
X10865Y2570D01*
Y2540D01*
X9289Y2013D02*
X9237Y1983D01*
X9263Y1998D01*
X9283Y1963D01*
X9309Y1978D01*
X9257Y1948D01*
X9319Y1961D02*
X9329Y1944D01*
X9324Y1952D01*
X9272Y1922D01*
X9267Y1931D01*
X9277Y1914D01*
X9344Y1918D02*
X9292Y1888D01*
X9312Y1853D01*
X9389Y1840D02*
X9379Y1857D01*
X9366Y1861D01*
X9331Y1841D01*
X9327Y1827D01*
X9337Y1810D01*
X9351Y1806D01*
X9386Y1826D01*
X9389Y1840D01*
X9352Y1784D02*
X9362Y1766D01*
X9357Y1775D01*
X9409Y1805D01*
X9396Y1809D01*
X10415Y4705D02*
Y4765D01*
Y4735D01*
X10375D01*
Y4705D01*
Y4765D01*
X10355Y4705D02*
X10335D01*
X10345D01*
Y4765D01*
X10355D01*
X10335D01*
X10305Y4705D02*
Y4765D01*
X10265D01*
X10215Y4705D02*
X10235D01*
X10245Y4715D01*
Y4755D01*
X10235Y4765D01*
X10215D01*
X10205Y4755D01*
Y4715D01*
X10215Y4705D01*
X10145Y4765D02*
X10185D01*
X10145Y4725D01*
Y4715D01*
X10155Y4705D01*
X10175D01*
X10185Y4715D01*
X12290Y2389D02*
X12342Y2359D01*
X12316Y2374D01*
X12336Y2408D01*
X12310Y2423D01*
X12362Y2393D01*
X12320Y2441D02*
X12330Y2458D01*
X12325Y2449D01*
X12377Y2419D01*
X12372Y2411D01*
X12382Y2428D01*
X12345Y2484D02*
X12397Y2454D01*
X12417Y2489D01*
X12390Y2562D02*
X12380Y2545D01*
X12384Y2531D01*
X12419Y2511D01*
X12432Y2515D01*
X12442Y2532D01*
X12439Y2546D01*
X12404Y2565D01*
X12390Y2562D01*
X12414Y2583D02*
X12410Y2596D01*
X12420Y2614D01*
X12434Y2617D01*
X12443Y2612D01*
X12446Y2599D01*
X12441Y2590D01*
X12446Y2599D01*
X12460Y2602D01*
X12469Y2597D01*
X12472Y2584D01*
X12462Y2566D01*
X12449Y2563D01*
X10173Y2620D02*
X10121Y2590D01*
X10141Y2555D01*
X10171Y2503D02*
X10151Y2538D01*
X10206Y2523D01*
X10215Y2528D01*
X10218Y2542D01*
X10208Y2559D01*
X10195Y2563D01*
X10173Y2481D02*
X10193Y2446D01*
X10211Y2434D02*
X10221Y2417D01*
X10216Y2425D01*
X10268Y2455D01*
X10255Y2459D01*
X10295Y3550D02*
Y3610D01*
X10255D01*
X10195D02*
X10235D01*
X10195Y3570D01*
Y3560D01*
X10205Y3550D01*
X10225D01*
X10235Y3560D01*
X10175Y3620D02*
X10135D01*
X10075Y3610D02*
X10115D01*
X10075Y3570D01*
Y3560D01*
X10085Y3550D01*
X10105D01*
X10115Y3560D01*
X11359Y3036D02*
X11411Y3006D01*
X11431Y3041D01*
X11461Y3093D02*
X11441Y3058D01*
X11427Y3113D01*
X11418Y3118D01*
X11404Y3114D01*
X11394Y3097D01*
X11398Y3083D01*
X11480Y3105D02*
X11500Y3139D01*
X11458Y3187D02*
X11454Y3200D01*
X11464Y3218D01*
X11478Y3221D01*
X11487Y3216D01*
X11490Y3203D01*
X11485Y3194D01*
X11490Y3203D01*
X11504Y3206D01*
X11513Y3201D01*
X11516Y3188D01*
X11506Y3170D01*
X11493Y3167D01*
X9992Y2366D02*
X10022Y2314D01*
X10056Y2334D01*
X10049Y2388D02*
X10052Y2401D01*
X10070Y2411D01*
X10083Y2408D01*
X10088Y2399D01*
X10085Y2385D01*
X10076Y2380D01*
X10085Y2385D01*
X10098Y2382D01*
X10103Y2373D01*
X10100Y2359D01*
X10082Y2349D01*
X10069Y2353D01*
X10131Y2366D02*
X10165Y2386D01*
X10178Y2404D02*
X10195Y2414D01*
X10186Y2409D01*
X10156Y2461D01*
X10153Y2448D01*
X10370Y3930D02*
X10310D01*
Y3890D01*
X10360Y3870D02*
X10370Y3860D01*
Y3840D01*
X10360Y3830D01*
X10350D01*
X10340Y3840D01*
Y3850D01*
Y3840D01*
X10330Y3830D01*
X10320D01*
X10310Y3840D01*
Y3860D01*
X10320Y3870D01*
X10300Y3810D02*
Y3770D01*
X10310Y3710D02*
Y3750D01*
X10350Y3710D01*
X10360D01*
X10370Y3720D01*
Y3740D01*
X10360Y3750D01*
X11647Y2795D02*
X11677Y2847D01*
X11643Y2867D01*
X11600Y2833D02*
X11587Y2830D01*
X11569Y2840D01*
X11566Y2853D01*
X11571Y2862D01*
X11584Y2866D01*
X11593Y2861D01*
X11584Y2866D01*
X11581Y2879D01*
X11586Y2888D01*
X11599Y2892D01*
X11617Y2882D01*
X11620Y2868D01*
X11578Y2915D02*
X11544Y2935D01*
X11496Y2893D02*
X11483Y2890D01*
X11465Y2900D01*
X11462Y2913D01*
X11467Y2922D01*
X11480Y2926D01*
X11489Y2921D01*
X11480Y2926D01*
X11477Y2939D01*
X11482Y2948D01*
X11495Y2952D01*
X11513Y2942D01*
X11516Y2928D01*
X9943Y2090D02*
X9891Y2060D01*
X9911Y2026D01*
X9936Y1982D02*
X9988Y2012D01*
X9947Y2023D01*
X9967Y1989D01*
X9943Y1951D02*
X9963Y1917D01*
X9981Y1904D02*
X9991Y1887D01*
X9986Y1896D01*
X10038Y1926D01*
X10025Y1929D01*
X10155Y4100D02*
Y4160D01*
X10115D01*
X10065D02*
Y4100D01*
X10095Y4130D01*
X10055D01*
X10035Y4170D02*
X9995D01*
X9935Y4160D02*
X9975D01*
X9935Y4120D01*
Y4110D01*
X9945Y4100D01*
X9965D01*
X9975Y4110D01*
X11917Y2893D02*
X11969Y2863D01*
X11989Y2897D01*
X12014Y2941D02*
X11962Y2971D01*
X11973Y2930D01*
X11993Y2964D01*
X12038Y2962D02*
X12058Y2996D01*
X12016Y3044D02*
X12012Y3057D01*
X12022Y3074D01*
X12036Y3078D01*
X12045Y3073D01*
X12048Y3060D01*
X12043Y3051D01*
X12048Y3060D01*
X12062Y3063D01*
X12071Y3058D01*
X12074Y3045D01*
X12064Y3027D01*
X12051Y3024D01*
X8880Y2602D02*
X8932Y2632D01*
X8925Y2605D01*
X8952Y2597D01*
X8900Y2567D01*
X8977Y2554D02*
X8967Y2571D01*
X8953Y2575D01*
X8919Y2555D01*
X8915Y2541D01*
X8925Y2524D01*
X8939Y2521D01*
X8973Y2541D01*
X8977Y2554D01*
X8992Y2528D02*
X8940Y2498D01*
X8955Y2472D01*
X8969Y2469D01*
X9003Y2489D01*
X9007Y2502D01*
X8992Y2528D01*
X9042Y2442D02*
X9022Y2476D01*
X8970Y2446D01*
X8990Y2412D01*
X8996Y2461D02*
X9006Y2444D01*
X9000Y2394D02*
X9010Y2377D01*
X9005Y2386D01*
X9057Y2416D01*
X9043Y2419D01*
X11135Y4770D02*
Y4710D01*
X11115Y4730D01*
X11095Y4710D01*
Y4770D01*
X11045Y4710D02*
X11065D01*
X11075Y4720D01*
Y4760D01*
X11065Y4770D01*
X11045D01*
X11035Y4760D01*
Y4720D01*
X11045Y4710D01*
X11015D02*
Y4770D01*
X10985D01*
X10975Y4760D01*
Y4720D01*
X10985Y4710D01*
X11015D01*
X10915D02*
X10955D01*
Y4770D01*
X10915D01*
X10955Y4740D02*
X10935D01*
X10855Y4770D02*
X10895D01*
X10855Y4730D01*
Y4720D01*
X10865Y4710D01*
X10885D01*
X10895Y4720D01*
X11977Y1715D02*
X11925Y1745D01*
X11952Y1753D01*
X11945Y1780D01*
X11997Y1750D01*
X11970Y1823D02*
X11960Y1806D01*
X11963Y1792D01*
X11998Y1772D01*
X12012Y1776D01*
X12022Y1793D01*
X12018Y1807D01*
X11983Y1827D01*
X11970Y1823D01*
X11985Y1849D02*
X12037Y1819D01*
X12052Y1845D01*
X12048Y1859D01*
X12013Y1879D01*
X12000Y1875D01*
X11985Y1849D01*
X12035Y1936D02*
X12015Y1901D01*
X12067Y1871D01*
X12087Y1906D01*
X12041Y1886D02*
X12051Y1903D01*
X12053Y1948D02*
X12050Y1962D01*
X12060Y1979D01*
X12073Y1983D01*
X12082Y1978D01*
X12086Y1964D01*
X12081Y1955D01*
X12086Y1964D01*
X12099Y1968D01*
X12108Y1963D01*
X12112Y1949D01*
X12102Y1932D01*
X12088Y1928D01*
X9809Y2013D02*
X9861Y2043D01*
X9876Y2017D01*
X9872Y2003D01*
X9855Y1993D01*
X9841Y1997D01*
X9826Y2023D01*
X9836Y2005D02*
X9829Y1978D01*
X9854Y1935D02*
X9906Y1965D01*
X9865Y1976D01*
X9885Y1941D01*
X9912Y1934D02*
X9926Y1930D01*
X9936Y1913D01*
X9932Y1899D01*
X9924Y1894D01*
X9910Y1898D01*
X9905Y1907D01*
X9910Y1898D01*
X9906Y1884D01*
X9898Y1879D01*
X9884Y1883D01*
X9874Y1900D01*
X9878Y1914D01*
X9890Y1852D02*
X9910Y1817D01*
X9929Y1805D02*
X9939Y1788D01*
X9934Y1796D01*
X9986Y1826D01*
X9972Y1830D01*
X10155Y4250D02*
Y4190D01*
X10125D01*
X10115Y4200D01*
Y4220D01*
X10125Y4230D01*
X10155D01*
X10135D02*
X10115Y4250D01*
X10065D02*
Y4190D01*
X10095Y4220D01*
X10055D01*
X10035Y4200D02*
X10025Y4190D01*
X10005D01*
X9995Y4200D01*
Y4210D01*
X10005Y4220D01*
X10015D01*
X10005D01*
X9995Y4230D01*
Y4240D01*
X10005Y4250D01*
X10025D01*
X10035Y4240D01*
X9975Y4260D02*
X9935D01*
X9875Y4250D02*
X9915D01*
X9875Y4210D01*
Y4200D01*
X9885Y4190D01*
X9905D01*
X9915Y4200D01*
X12052Y2815D02*
X12000Y2845D01*
X12015Y2871D01*
X12028Y2875D01*
X12046Y2865D01*
X12049Y2851D01*
X12034Y2825D01*
X12044Y2843D02*
X12072Y2850D01*
X12097Y2893D02*
X12045Y2923D01*
X12056Y2882D01*
X12076Y2917D01*
X12068Y2944D02*
X12065Y2958D01*
X12075Y2975D01*
X12088Y2979D01*
X12097Y2974D01*
X12101Y2960D01*
X12096Y2951D01*
X12101Y2960D01*
X12114Y2964D01*
X12123Y2959D01*
X12127Y2945D01*
X12117Y2928D01*
X12103Y2924D01*
X12150Y2966D02*
X12170Y3001D01*
X12128Y3048D02*
X12125Y3062D01*
X12135Y3079D01*
X12148Y3083D01*
X12157Y3078D01*
X12161Y3064D01*
X12156Y3055D01*
X12161Y3064D01*
X12174Y3068D01*
X12183Y3063D01*
X12187Y3049D01*
X12177Y3032D01*
X12163Y3028D01*
X10079Y2215D02*
X10049Y2267D01*
X10075Y2282D01*
X10089Y2278D01*
X10099Y2261D01*
X10095Y2247D01*
X10069Y2232D01*
X10086Y2242D02*
X10114Y2235D01*
X10157Y2260D02*
X10127Y2312D01*
X10116Y2271D01*
X10151Y2291D01*
X10209Y2290D02*
X10179Y2342D01*
X10168Y2301D01*
X10203Y2321D01*
X10240Y2296D02*
X10275Y2316D01*
X10287Y2335D02*
X10304Y2345D01*
X10296Y2340D01*
X10266Y2392D01*
X10262Y2378D01*
X10200Y3930D02*
X10260D01*
Y3900D01*
X10250Y3890D01*
X10230D01*
X10220Y3900D01*
Y3930D01*
Y3910D02*
X10200Y3890D01*
Y3840D02*
X10260D01*
X10230Y3870D01*
Y3830D01*
X10200Y3780D02*
X10260D01*
X10230Y3810D01*
Y3770D01*
X10190Y3750D02*
Y3710D01*
X10200Y3650D02*
Y3690D01*
X10240Y3650D01*
X10250D01*
X10260Y3660D01*
Y3680D01*
X10250Y3690D01*
X11735Y2946D02*
X11705Y2894D01*
X11679Y2909D01*
X11675Y2923D01*
X11685Y2940D01*
X11699Y2944D01*
X11725Y2929D01*
X11707Y2939D02*
X11700Y2966D01*
X11657Y2991D02*
X11627Y2939D01*
X11668Y2950D01*
X11633Y2970D01*
X11605Y3021D02*
X11575Y2969D01*
X11616Y2980D01*
X11581Y3000D01*
X11584Y3045D02*
X11549Y3065D01*
X11502Y3023D02*
X11488Y3019D01*
X11471Y3029D01*
X11467Y3043D01*
X11472Y3052D01*
X11486Y3055D01*
X11495Y3050D01*
X11486Y3055D01*
X11482Y3069D01*
X11487Y3078D01*
X11501Y3081D01*
X11518Y3071D01*
X11522Y3058D01*
X9865Y2777D02*
X9830Y2757D01*
X9823Y2730D01*
X9850Y2723D01*
X9885Y2743D01*
X9906Y2686D02*
X9910Y2700D01*
X9900Y2717D01*
X9886Y2721D01*
X9851Y2701D01*
X9848Y2687D01*
X9858Y2670D01*
X9871Y2666D01*
X9889Y2676D01*
X9879Y2693D01*
X9873Y2644D02*
X9907Y2664D01*
X9935Y2656D01*
X9927Y2629D01*
X9893Y2609D01*
X9919Y2624D01*
X9899Y2659D01*
X9903Y2592D02*
X9913Y2574D01*
X9908Y2583D01*
X9960Y2613D01*
X9946Y2617D01*
X10790Y3825D02*
Y3865D01*
X10770Y3885D01*
X10750Y3865D01*
Y3825D01*
X10690Y3835D02*
X10700Y3825D01*
X10720D01*
X10730Y3835D01*
Y3875D01*
X10720Y3885D01*
X10700D01*
X10690Y3875D01*
Y3855D01*
X10710D01*
X10670Y3885D02*
Y3845D01*
X10650Y3825D01*
X10630Y3845D01*
Y3885D01*
Y3855D01*
X10670D01*
X10570Y3885D02*
X10610D01*
X10570Y3845D01*
Y3835D01*
X10580Y3825D01*
X10600D01*
X10610Y3835D01*
X11358Y2495D02*
X11393Y2475D01*
X11420Y2482D01*
X11413Y2509D01*
X11378Y2529D01*
X11417Y2576D02*
X11403Y2573D01*
X11393Y2555D01*
X11397Y2542D01*
X11431Y2522D01*
X11445Y2525D01*
X11455Y2543D01*
X11451Y2556D01*
X11434Y2566D01*
X11424Y2549D01*
X11470Y2569D02*
X11435Y2589D01*
X11428Y2616D01*
X11455Y2623D01*
X11490Y2603D01*
X11464Y2618D01*
X11444Y2584D01*
X11457Y2645D02*
X11453Y2659D01*
X11463Y2676D01*
X11477Y2680D01*
X11485Y2675D01*
X11489Y2661D01*
X11484Y2653D01*
X11489Y2661D01*
X11503Y2665D01*
X11511Y2660D01*
X11515Y2646D01*
X11505Y2629D01*
X11491Y2625D01*
X10670Y4745D02*
X10680Y4755D01*
Y4775D01*
X10670Y4785D01*
X10630D01*
X10620Y4775D01*
Y4755D01*
X10630Y4745D01*
X10620Y4725D02*
Y4705D01*
Y4715D01*
X10680D01*
X10670Y4725D01*
X10680Y4675D02*
Y4635D01*
X10670D01*
X10630Y4675D01*
X10620D01*
X10610Y4615D02*
Y4575D01*
X10620Y4515D02*
Y4555D01*
X10660Y4515D01*
X10670D01*
X10680Y4525D01*
Y4545D01*
X10670Y4555D01*
X12211Y2140D02*
X12214Y2127D01*
X12231Y2117D01*
X12245Y2120D01*
X12265Y2155D01*
X12261Y2169D01*
X12244Y2179D01*
X12231Y2175D01*
X12218Y2194D02*
X12201Y2204D01*
X12210Y2199D01*
X12180Y2147D01*
X12193Y2150D01*
X12145Y2167D02*
X12110Y2187D01*
X12115Y2195D01*
X12170Y2210D01*
X12175Y2219D01*
X12128Y2257D02*
X12093Y2277D01*
X12046Y2235D02*
X12032Y2232D01*
X12015Y2242D01*
X12011Y2255D01*
X12016Y2264D01*
X12030Y2268D01*
X12039Y2263D01*
X12030Y2268D01*
X12026Y2281D01*
X12031Y2290D01*
X12045Y2294D01*
X12062Y2284D01*
X12066Y2270D01*
X10555Y4745D02*
X10565Y4755D01*
Y4775D01*
X10555Y4785D01*
X10515D01*
X10505Y4775D01*
Y4755D01*
X10515Y4745D01*
X10505Y4725D02*
Y4705D01*
Y4715D01*
X10565D01*
X10555Y4725D01*
Y4675D02*
X10565Y4665D01*
Y4645D01*
X10555Y4635D01*
X10545D01*
X10535Y4645D01*
X10525Y4635D01*
X10515D01*
X10505Y4645D01*
Y4665D01*
X10515Y4675D01*
X10525D01*
X10535Y4665D01*
X10545Y4675D01*
X10555D01*
X10535Y4665D02*
Y4645D01*
X10495Y4615D02*
Y4575D01*
X10505Y4515D02*
Y4555D01*
X10545Y4515D01*
X10555D01*
X10565Y4525D01*
Y4545D01*
X10555Y4555D01*
X12268Y2240D02*
X12272Y2226D01*
X12289Y2216D01*
X12303Y2220D01*
X12323Y2255D01*
X12319Y2268D01*
X12302Y2278D01*
X12288Y2275D01*
X12276Y2293D02*
X12258Y2303D01*
X12267Y2298D01*
X12237Y2246D01*
X12251Y2250D01*
X12207Y2275D02*
X12194Y2271D01*
X12176Y2281D01*
X12173Y2295D01*
X12178Y2304D01*
X12191Y2307D01*
X12188Y2321D01*
X12193Y2330D01*
X12206Y2333D01*
X12224Y2323D01*
X12227Y2310D01*
X12222Y2301D01*
X12209Y2297D01*
X12212Y2284D01*
X12207Y2275D01*
X12209Y2297D02*
X12191Y2307D01*
X12185Y2357D02*
X12151Y2377D01*
X12104Y2335D02*
X12090Y2331D01*
X12073Y2341D01*
X12069Y2355D01*
X12074Y2364D01*
X12088Y2367D01*
X12096Y2362D01*
X12088Y2367D01*
X12084Y2381D01*
X12089Y2390D01*
X12103Y2393D01*
X12120Y2383D01*
X12124Y2370D01*
X10150Y4305D02*
X10160Y4295D01*
X10180D01*
X10190Y4305D01*
Y4345D01*
X10180Y4355D01*
X10160D01*
X10150Y4345D01*
X10130Y4305D02*
X10120Y4295D01*
X10100D01*
X10090Y4305D01*
Y4315D01*
X10100Y4325D01*
X10110D01*
X10100D01*
X10090Y4335D01*
Y4345D01*
X10100Y4355D01*
X10120D01*
X10130Y4345D01*
X10030Y4355D02*
X10070D01*
X10030Y4315D01*
Y4305D01*
X10040Y4295D01*
X10060D01*
X10070Y4305D01*
X10010Y4365D02*
X9970D01*
X9910Y4355D02*
X9950D01*
X9910Y4315D01*
Y4305D01*
X9920Y4295D01*
X9940D01*
X9950Y4305D01*
X12097Y2783D02*
X12083Y2780D01*
X12073Y2762D01*
X12077Y2749D01*
X12111Y2729D01*
X12125Y2732D01*
X12135Y2750D01*
X12131Y2763D01*
X12107Y2801D02*
X12103Y2814D01*
X12113Y2832D01*
X12127Y2835D01*
X12135Y2830D01*
X12139Y2817D01*
X12134Y2808D01*
X12139Y2817D01*
X12153Y2820D01*
X12161Y2815D01*
X12165Y2802D01*
X12155Y2784D01*
X12141Y2781D01*
X12200Y2862D02*
X12180Y2828D01*
X12165Y2882D01*
X12157Y2887D01*
X12143Y2884D01*
X12133Y2866D01*
X12137Y2853D01*
X12219Y2875D02*
X12239Y2909D01*
X12197Y2957D02*
X12193Y2970D01*
X12203Y2987D01*
X12217Y2991D01*
X12225Y2986D01*
X12229Y2972D01*
X12224Y2964D01*
X12229Y2972D01*
X12243Y2976D01*
X12251Y2971D01*
X12255Y2957D01*
X12245Y2940D01*
X12231Y2937D01*
X11260Y4060D02*
X11270Y4050D01*
X11290D01*
X11300Y4060D01*
Y4100D01*
X11290Y4110D01*
X11270D01*
X11260Y4100D01*
X11200Y4050D02*
X11240D01*
Y4080D01*
X11220D01*
X11240D01*
Y4110D01*
X11180Y4050D02*
Y4110D01*
X11150D01*
X11140Y4100D01*
Y4090D01*
X11150Y4080D01*
X11180D01*
X11150D01*
X11140Y4070D01*
Y4060D01*
X11150Y4050D01*
X11180D01*
X11080Y4110D02*
X11120D01*
X11080Y4070D01*
Y4060D01*
X11090Y4050D01*
X11110D01*
X11120Y4060D01*
X11308Y1957D02*
X11294Y1953D01*
X11284Y1936D01*
X11288Y1922D01*
X11323Y1902D01*
X11336Y1906D01*
X11346Y1923D01*
X11343Y1937D01*
X11329Y2014D02*
X11309Y1979D01*
X11335Y1964D01*
X11345Y1982D01*
X11335Y1964D01*
X11361Y1949D01*
X11339Y2031D02*
X11391Y2001D01*
X11406Y2027D01*
X11403Y2041D01*
X11394Y2046D01*
X11380Y2042D01*
X11365Y2016D01*
X11380Y2042D01*
X11377Y2056D01*
X11368Y2061D01*
X11354Y2057D01*
X11339Y2031D01*
X11378Y2078D02*
X11374Y2092D01*
X11384Y2109D01*
X11398Y2113D01*
X11407Y2108D01*
X11410Y2094D01*
X11405Y2086D01*
X11410Y2094D01*
X11424Y2098D01*
X11433Y2093D01*
X11436Y2079D01*
X11426Y2062D01*
X11413Y2058D01*
X11310Y3847D02*
X11320Y3837D01*
X11340D01*
X11350Y3847D01*
Y3887D01*
X11340Y3897D01*
X11320D01*
X11310Y3887D01*
X11290Y3837D02*
X11270D01*
X11280D01*
Y3897D01*
X11290D01*
X11270D01*
X11240D02*
Y3837D01*
X11200Y3897D01*
Y3837D01*
X11180D02*
Y3897D01*
Y3867D01*
X11140D01*
Y3837D01*
Y3897D01*
X11080D02*
X11120D01*
X11080Y3857D01*
Y3847D01*
X11090Y3837D01*
X11110D01*
X11120Y3847D01*
X11095Y2022D02*
X11082Y2018D01*
X11072Y2001D01*
X11075Y1987D01*
X11110Y1967D01*
X11124Y1971D01*
X11134Y1988D01*
X11130Y2002D01*
X11097Y2044D02*
X11107Y2062D01*
X11102Y2053D01*
X11154Y2023D01*
X11149Y2014D01*
X11159Y2032D01*
X11174Y2058D02*
X11122Y2088D01*
X11194Y2092D01*
X11142Y2122D01*
X11152Y2140D02*
X11204Y2110D01*
X11178Y2125D01*
X11198Y2159D01*
X11172Y2174D01*
X11224Y2144D01*
X11190Y2187D02*
X11187Y2200D01*
X11197Y2218D01*
X11210Y2221D01*
X11219Y2216D01*
X11223Y2203D01*
X11218Y2194D01*
X11223Y2203D01*
X11236Y2206D01*
X11245Y2201D01*
X11249Y2188D01*
X11239Y2170D01*
X11225Y2167D01*
X11020Y3555D02*
X11030Y3545D01*
X11050D01*
X11060Y3555D01*
Y3595D01*
X11050Y3605D01*
X11030D01*
X11020Y3595D01*
X11000Y3545D02*
Y3605D01*
X10960D01*
X10940D02*
Y3545D01*
X10920Y3565D01*
X10900Y3545D01*
Y3605D01*
X10880Y3545D02*
Y3605D01*
X10850D01*
X10840Y3595D01*
Y3555D01*
X10850Y3545D01*
X10880D01*
X10780Y3605D02*
X10820D01*
X10780Y3565D01*
Y3555D01*
X10790Y3545D01*
X10810D01*
X10820Y3555D01*
X11015Y2420D02*
X11002Y2417D01*
X10992Y2399D01*
X10995Y2386D01*
X11030Y2366D01*
X11044Y2369D01*
X11054Y2387D01*
X11050Y2400D01*
X11017Y2443D02*
X11069Y2413D01*
X11089Y2447D01*
X11099Y2465D02*
X11047Y2495D01*
X11074Y2502D01*
X11067Y2529D01*
X11119Y2499D01*
X11077Y2547D02*
X11129Y2517D01*
X11144Y2543D01*
X11140Y2556D01*
X11105Y2576D01*
X11092Y2573D01*
X11077Y2547D01*
X11115Y2594D02*
X11112Y2607D01*
X11122Y2625D01*
X11135Y2628D01*
X11144Y2623D01*
X11148Y2610D01*
X11143Y2601D01*
X11148Y2610D01*
X11161Y2613D01*
X11170Y2608D01*
X11174Y2595D01*
X11164Y2577D01*
X11150Y2574D01*
X11260Y3953D02*
X11270Y3943D01*
X11290D01*
X11300Y3953D01*
Y3993D01*
X11290Y4003D01*
X11270D01*
X11260Y3993D01*
X11200Y3953D02*
X11210Y3943D01*
X11230D01*
X11240Y3953D01*
Y3963D01*
X11230Y3973D01*
X11210D01*
X11200Y3983D01*
Y3993D01*
X11210Y4003D01*
X11230D01*
X11240Y3993D01*
X11180Y3943D02*
Y4003D01*
Y3973D01*
X11140D01*
Y3943D01*
Y4003D01*
X11080D02*
X11120D01*
X11080Y3963D01*
Y3953D01*
X11090Y3943D01*
X11110D01*
X11120Y3953D01*
X11214Y2011D02*
X11200Y2008D01*
X11190Y1990D01*
X11194Y1977D01*
X11229Y1957D01*
X11242Y1960D01*
X11252Y1978D01*
X11249Y1991D01*
X11244Y2063D02*
X11230Y2060D01*
X11220Y2042D01*
X11224Y2029D01*
X11233Y2024D01*
X11246Y2027D01*
X11256Y2045D01*
X11270Y2048D01*
X11279Y2043D01*
X11282Y2030D01*
X11272Y2012D01*
X11259Y2009D01*
X11245Y2085D02*
X11297Y2055D01*
X11271Y2070D01*
X11291Y2105D01*
X11265Y2120D01*
X11317Y2090D01*
X11284Y2132D02*
X11280Y2146D01*
X11290Y2163D01*
X11304Y2167D01*
X11313Y2162D01*
X11316Y2148D01*
X11311Y2140D01*
X11316Y2148D01*
X11330Y2152D01*
X11339Y2147D01*
X11342Y2133D01*
X11332Y2116D01*
X11319Y2112D01*
X11289Y3735D02*
Y3795D01*
X11249D01*
X11229D02*
X11209D01*
X11219D01*
Y3735D01*
X11229Y3745D01*
X11179Y3805D02*
X11139D01*
X11079Y3795D02*
X11119D01*
X11079Y3755D01*
Y3745D01*
X11089Y3735D01*
X11109D01*
X11119Y3745D01*
X11008Y2097D02*
X11060Y2067D01*
X11080Y2102D01*
X11090Y2119D02*
X11100Y2136D01*
X11095Y2128D01*
X11043Y2158D01*
X11046Y2144D01*
X11123Y2157D02*
X11143Y2192D01*
X11101Y2239D02*
X11098Y2253D01*
X11108Y2270D01*
X11121Y2274D01*
X11130Y2269D01*
X11134Y2255D01*
X11129Y2247D01*
X11134Y2255D01*
X11147Y2259D01*
X11156Y2254D01*
X11160Y2240D01*
X11150Y2223D01*
X11136Y2219D01*
X10190Y4410D02*
Y4470D01*
X10150D01*
X10090Y4410D02*
X10130D01*
Y4440D01*
X10110Y4430D01*
X10100D01*
X10090Y4440D01*
Y4460D01*
X10100Y4470D01*
X10120D01*
X10130Y4460D01*
X10070Y4480D02*
X10030D01*
X9970Y4470D02*
X10010D01*
X9970Y4430D01*
Y4420D01*
X9980Y4410D01*
X10000D01*
X10010Y4420D01*
X12168Y2697D02*
X12220Y2667D01*
X12240Y2702D01*
X12218Y2784D02*
X12198Y2749D01*
X12224Y2734D01*
X12226Y2756D01*
X12231Y2765D01*
X12244Y2769D01*
X12262Y2759D01*
X12265Y2745D01*
X12255Y2728D01*
X12242Y2724D01*
X12289Y2766D02*
X12309Y2801D01*
X12267Y2848D02*
X12263Y2862D01*
X12273Y2879D01*
X12287Y2883D01*
X12296Y2878D01*
X12299Y2864D01*
X12294Y2855D01*
X12299Y2864D01*
X12313Y2868D01*
X12322Y2863D01*
X12325Y2849D01*
X12315Y2832D01*
X12302Y2828D01*
X11301Y4222D02*
Y4162D01*
X11271D01*
X11261Y4172D01*
Y4192D01*
X11271Y4202D01*
X11301D01*
X11281D02*
X11261Y4222D01*
X11201Y4162D02*
X11241D01*
Y4192D01*
X11221D01*
X11241D01*
Y4222D01*
X11181Y4162D02*
Y4222D01*
X11151D01*
X11141Y4212D01*
Y4202D01*
X11151Y4192D01*
X11181D01*
X11151D01*
X11141Y4182D01*
Y4172D01*
X11151Y4162D01*
X11181D01*
X11081Y4222D02*
X11121D01*
X11081Y4182D01*
Y4172D01*
X11091Y4162D01*
X11111D01*
X11121Y4172D01*
X11425Y1842D02*
X11373Y1872D01*
X11388Y1898D01*
X11401Y1902D01*
X11419Y1892D01*
X11422Y1878D01*
X11407Y1852D01*
X11417Y1870D02*
X11445Y1877D01*
X11423Y1959D02*
X11403Y1924D01*
X11429Y1909D01*
X11439Y1927D01*
X11429Y1909D01*
X11455Y1894D01*
X11433Y1976D02*
X11485Y1946D01*
X11500Y1972D01*
X11496Y1986D01*
X11487Y1991D01*
X11474Y1987D01*
X11459Y1961D01*
X11474Y1987D01*
X11470Y2001D01*
X11461Y2006D01*
X11448Y2002D01*
X11433Y1976D01*
X11471Y2023D02*
X11468Y2037D01*
X11478Y2054D01*
X11491Y2058D01*
X11500Y2053D01*
X11504Y2039D01*
X11499Y2031D01*
X11504Y2039D01*
X11517Y2043D01*
X11526Y2038D01*
X11530Y2024D01*
X11520Y2007D01*
X11506Y2003D01*
X11855Y4030D02*
Y4090D01*
X11885D01*
X11895Y4080D01*
Y4060D01*
X11885Y4050D01*
X11855D01*
X11875D02*
X11895Y4030D01*
X11955D02*
X11915D01*
X11955Y4070D01*
Y4080D01*
X11945Y4090D01*
X11925D01*
X11915Y4080D01*
X11830Y3600D02*
Y3660D01*
X11860D01*
X11870Y3650D01*
Y3630D01*
X11860Y3620D01*
X11830D01*
X11850D02*
X11870Y3600D01*
X11890D02*
X11910D01*
X11900D01*
Y3660D01*
X11890Y3650D01*
D52*
X9825Y2582D02*
G03*
X9825Y2582I-12J0D01*
G01*
X10180Y1766D02*
G03*
X10180Y1766I-12J0D01*
G01*
X9776Y4068D02*
G03*
X9776Y4068I-12J0D01*
G01*
X12094Y3256D02*
G03*
X12094Y3256I-12J0D01*
G01*
X10658Y3966D02*
G03*
X10658Y3966I-12J0D01*
G01*
X11564Y2548D02*
G03*
X11564Y2548I-12J0D01*
G01*
D53*
X9776Y2672D02*
G03*
X9776Y2672I-5J0D01*
G01*
X10166Y1868D02*
G03*
X10166Y1868I-5J0D01*
G01*
X9860Y4023D02*
G03*
X9860Y4023I-5J0D01*
G01*
X12003Y3200D02*
G03*
X12003Y3200I-5J0D01*
G01*
X10749Y3958D02*
G03*
X10749Y3958I-5J0D01*
G01*
X11501Y2467D02*
G03*
X11501Y2467I-5J0D01*
G01*
D54*
X11687Y3687D02*
X11713Y3687D01*
X11687Y3753D02*
X11713D01*
X11603Y3749D02*
X11603Y3691D01*
X11687Y3802D02*
X11713Y3802D01*
X11687Y3868D02*
X11713Y3868D01*
X11603Y3806D02*
X11603Y3864D01*
X9528Y2463D02*
X9563Y2402D01*
X9828Y2636D02*
X9864Y2575D01*
X9563Y2402D02*
X9864Y2575D01*
X9528Y2463D02*
X9828Y2636D01*
X9387Y2104D02*
X9537Y1844D01*
X9300Y2054D02*
X9387Y2104D01*
X9300Y2054D02*
X9450Y1794D01*
X9537Y1844D01*
X10420Y2655D02*
X10920D01*
X10420Y2855D02*
X10920D01*
X10420Y2655D02*
Y2855D01*
X10920Y2655D02*
Y2855D01*
X10002Y1682D02*
X10006Y1675D01*
X10043Y1706D02*
X10047Y1699D01*
X11070Y3335D02*
X11070Y3135D01*
X10270Y3135D02*
X10270Y3335D01*
X10270Y3135D02*
X11070Y3135D01*
X10270Y3335D02*
X11070D01*
X10077Y1759D02*
X10110Y1701D01*
X10182Y1820D02*
X10216Y1762D01*
X10110Y1701D02*
X10216Y1762D01*
X10077Y1759D02*
X10182Y1820D01*
X9810Y2970D02*
X9814Y2964D01*
X9776Y2951D02*
X9780Y2944D01*
X11687Y3927D02*
X11713Y3927D01*
X11687Y3993D02*
X11713Y3993D01*
X11603Y3989D02*
X11603Y3931D01*
X9452Y2767D02*
X9454Y2764D01*
X9412Y2744D02*
X9414Y2741D01*
X9596Y2072D02*
X9600Y2065D01*
X9562Y2052D02*
X9565Y2045D01*
X9561Y4191D02*
Y4199D01*
X9609Y4191D02*
Y4199D01*
X10152Y1523D02*
X10159Y1527D01*
X10128Y1564D02*
X10135Y1568D01*
X12295Y3368D02*
X12301Y3364D01*
X12271Y3327D02*
X12278Y3323D01*
X9766Y4201D02*
X9774D01*
X9766Y4249D02*
X9774D01*
X12197Y3178D02*
X12201Y3185D01*
X12238Y3155D02*
X12242Y3162D01*
X9803Y4029D02*
Y4151D01*
X9737D02*
X9737Y4029D01*
X9803Y4029D01*
X9737Y4151D02*
X9803D01*
X12029Y3242D02*
X12135Y3181D01*
X12062Y3300D02*
X12168Y3239D01*
X12029Y3242D02*
X12062Y3300D01*
X12135Y3181D02*
X12168Y3239D01*
X10850Y4570D02*
Y4670D01*
X11150D01*
Y4570D02*
Y4670D01*
X10850Y4570D02*
X11150D01*
X10140D02*
Y4670D01*
X10440D01*
Y4570D02*
Y4670D01*
X10140Y4570D02*
X10440D01*
X9095Y2409D02*
X9182Y2459D01*
X8945Y2669D02*
X9095Y2409D01*
X8945Y2669D02*
X9032Y2719D01*
X9182Y2459D01*
X11957Y2061D02*
X12044Y2011D01*
X11894Y1752D02*
X12044Y2011D01*
X11807Y1802D02*
X11894Y1752D01*
X11807Y1802D02*
X11957Y2061D01*
X12325Y2698D02*
X12411Y2648D01*
X12261Y2388D02*
X12411Y2648D01*
X12175Y2438D02*
X12261Y2388D01*
X12175Y2438D02*
X12325Y2698D01*
X10248Y4022D02*
X10248Y4018D01*
X10202D02*
Y4022D01*
X9965Y2209D02*
X9968Y2211D01*
X9987Y2170D02*
X9991Y2172D01*
X11791Y2858D02*
X11795Y2856D01*
X11814Y2898D02*
X11817Y2896D01*
X10202Y4183D02*
Y4187D01*
X10248Y4183D02*
X10248Y4187D01*
X9849Y2090D02*
X9852Y2092D01*
X9826Y2129D02*
X9829Y2131D01*
X11961Y2813D02*
X11965Y2811D01*
X11939Y2773D02*
X11942Y2771D01*
X10315Y4016D02*
Y4024D01*
X10355Y4016D02*
Y4024D01*
X9926Y2273D02*
X9933Y2277D01*
X9906Y2307D02*
X9913Y2311D01*
X11758Y2794D02*
X11765Y2790D01*
X11738Y2760D02*
X11745Y2756D01*
X10355Y4181D02*
Y4189D01*
X10315Y4181D02*
Y4189D01*
X9768Y2227D02*
X9774Y2231D01*
X9787Y2193D02*
X9794Y2197D01*
X11881Y2677D02*
X11888Y2673D01*
X11901Y2712D02*
X11907Y2708D01*
X10510Y3716D02*
Y3724D01*
X10550Y3716D02*
Y3724D01*
X10685Y4273D02*
X10685Y3927D01*
X10615D02*
Y4273D01*
Y3927D02*
X10685D01*
X10615Y4273D02*
X10685D01*
X10071Y2603D02*
X10078Y2607D01*
X10051Y2637D02*
X10058Y2641D01*
X11417Y2783D02*
X11423Y2779D01*
X11397Y2749D02*
X11404Y2745D01*
X11499Y2534D02*
X11799Y2360D01*
X11534Y2595D02*
X11834Y2422D01*
X11499Y2534D02*
X11534Y2595D01*
X11799Y2360D02*
X11834Y2422D01*
X11178Y2362D02*
X11182Y2369D01*
X11213Y2342D02*
X11216Y2349D01*
X11542Y2149D02*
X11544Y2152D01*
X11581Y2126D02*
X11583Y2130D01*
X12116Y2596D02*
X12120Y2603D01*
X12150Y2576D02*
X12154Y2583D01*
X10971Y3750D02*
X10979D01*
X10971Y3790D02*
X10979D01*
X10978Y4168D02*
X10982D01*
X10978Y4214D02*
X10982D01*
X10296Y4420D02*
X10304Y4420D01*
X10296Y4460D02*
X10304D01*
X11898Y3942D02*
X11902D01*
X11898Y3988D02*
X11902Y3988D01*
X11888Y3753D02*
X11888Y3757D01*
X11842Y3753D02*
X11842Y3757D01*
D55*
X10930Y2785D02*
X10947D01*
X10938D01*
Y2835D01*
X10930Y2827D01*
X10972D02*
X10980Y2835D01*
X10997D01*
X11005Y2827D01*
Y2793D01*
X10997Y2785D01*
X10980D01*
X10972Y2793D01*
Y2827D01*
X10930Y2693D02*
X10938Y2685D01*
X10955D01*
X10963Y2693D01*
Y2727D01*
X10955Y2735D01*
X10938D01*
X10930Y2727D01*
Y2718D01*
X10938Y2710D01*
X10963D01*
X10390Y2685D02*
X10407D01*
X10398D01*
Y2735D01*
X10390Y2727D01*
X10403Y2785D02*
X10370D01*
X10403Y2818D01*
Y2827D01*
X10395Y2835D01*
X10378D01*
X10370Y2827D01*
X10253Y3265D02*
X10220D01*
X10253Y3298D01*
Y3307D01*
X10245Y3315D01*
X10228D01*
X10220Y3307D01*
X10220Y3165D02*
X10237D01*
X10228D01*
Y3215D01*
X10220Y3207D01*
X11080Y3165D02*
X11097D01*
X11088D01*
Y3215D01*
X11080Y3207D01*
X11155Y3215D02*
X11122D01*
Y3190D01*
X11138Y3198D01*
X11147D01*
X11155Y3190D01*
Y3173D01*
X11147Y3165D01*
X11130D01*
X11122Y3173D01*
X11080Y3265D02*
X11097D01*
X11088D01*
Y3315D01*
X11080Y3307D01*
X11155Y3315D02*
X11138Y3307D01*
X11122Y3290D01*
Y3273D01*
X11130Y3265D01*
X11147D01*
X11155Y3273D01*
Y3282D01*
X11147Y3290D01*
X11122D01*
M02*
