%FSLAX23Y23*%
%MOIN*%
G70*
G01*
G75*
G04 Layer_Physical_Order=2*
G04 Layer_Color=16711680*
%ADD10R,0.057X0.065*%
G04:AMPARAMS|DCode=11|XSize=14mil|YSize=87mil|CornerRadius=0mil|HoleSize=0mil|Usage=FLASHONLY|Rotation=30.000|XOffset=0mil|YOffset=0mil|HoleType=Round|Shape=Rectangle|*
%AMROTATEDRECTD11*
4,1,4,0.016,-0.041,-0.028,0.034,-0.016,0.041,0.028,-0.034,0.016,-0.041,0.0*
%
%ADD11ROTATEDRECTD11*%

G04:AMPARAMS|DCode=12|XSize=55mil|YSize=47mil|CornerRadius=0mil|HoleSize=0mil|Usage=FLASHONLY|Rotation=210.000|XOffset=0mil|YOffset=0mil|HoleType=Round|Shape=Rectangle|*
%AMROTATEDRECTD12*
4,1,4,0.012,0.034,0.036,-0.007,-0.012,-0.034,-0.036,0.007,0.012,0.034,0.0*
%
%ADD12ROTATEDRECTD12*%

G04:AMPARAMS|DCode=13|XSize=12mil|YSize=35mil|CornerRadius=0mil|HoleSize=0mil|Usage=FLASHONLY|Rotation=30.000|XOffset=0mil|YOffset=0mil|HoleType=Round|Shape=Rectangle|*
%AMROTATEDRECTD13*
4,1,4,0.004,-0.018,-0.014,0.012,-0.004,0.018,0.014,-0.012,0.004,-0.018,0.0*
%
%ADD13ROTATEDRECTD13*%

G04:AMPARAMS|DCode=14|XSize=47mil|YSize=31mil|CornerRadius=0mil|HoleSize=0mil|Usage=FLASHONLY|Rotation=210.000|XOffset=0mil|YOffset=0mil|HoleType=Round|Shape=Rectangle|*
%AMROTATEDRECTD14*
4,1,4,0.013,0.025,0.028,-0.002,-0.013,-0.025,-0.028,0.002,0.013,0.025,0.0*
%
%ADD14ROTATEDRECTD14*%

G04:AMPARAMS|DCode=15|XSize=53mil|YSize=41mil|CornerRadius=0mil|HoleSize=0mil|Usage=FLASHONLY|Rotation=210.000|XOffset=0mil|YOffset=0mil|HoleType=Round|Shape=Rectangle|*
%AMROTATEDRECTD15*
4,1,4,0.013,0.031,0.033,-0.005,-0.013,-0.031,-0.033,0.005,0.013,0.031,0.0*
%
%ADD15ROTATEDRECTD15*%

G04:AMPARAMS|DCode=16|XSize=59mil|YSize=49mil|CornerRadius=0mil|HoleSize=0mil|Usage=FLASHONLY|Rotation=210.000|XOffset=0mil|YOffset=0mil|HoleType=Round|Shape=Rectangle|*
%AMROTATEDRECTD16*
4,1,4,0.013,0.036,0.038,-0.007,-0.013,-0.036,-0.038,0.007,0.013,0.036,0.0*
%
%ADD16ROTATEDRECTD16*%

G04:AMPARAMS|DCode=17|XSize=59mil|YSize=49mil|CornerRadius=0mil|HoleSize=0mil|Usage=FLASHONLY|Rotation=300.000|XOffset=0mil|YOffset=0mil|HoleType=Round|Shape=Rectangle|*
%AMROTATEDRECTD17*
4,1,4,-0.036,0.013,0.007,0.038,0.036,-0.013,-0.007,-0.038,-0.036,0.013,0.0*
%
%ADD17ROTATEDRECTD17*%

%ADD18R,0.055X0.047*%
G04:AMPARAMS|DCode=19|XSize=55mil|YSize=47mil|CornerRadius=0mil|HoleSize=0mil|Usage=FLASHONLY|Rotation=120.000|XOffset=0mil|YOffset=0mil|HoleType=Round|Shape=Rectangle|*
%AMROTATEDRECTD19*
4,1,4,0.034,-0.012,-0.007,-0.036,-0.034,0.012,0.007,0.036,0.034,-0.012,0.0*
%
%ADD19ROTATEDRECTD19*%

G04:AMPARAMS|DCode=20|XSize=55mil|YSize=47mil|CornerRadius=0mil|HoleSize=0mil|Usage=FLASHONLY|Rotation=240.000|XOffset=0mil|YOffset=0mil|HoleType=Round|Shape=Rectangle|*
%AMROTATEDRECTD20*
4,1,4,-0.007,0.036,0.034,0.012,0.007,-0.036,-0.034,-0.012,-0.007,0.036,0.0*
%
%ADD20ROTATEDRECTD20*%

%ADD21R,0.047X0.055*%
G04:AMPARAMS|DCode=22|XSize=55mil|YSize=47mil|CornerRadius=0mil|HoleSize=0mil|Usage=FLASHONLY|Rotation=330.000|XOffset=0mil|YOffset=0mil|HoleType=Round|Shape=Rectangle|*
%AMROTATEDRECTD22*
4,1,4,-0.036,-0.007,-0.012,0.034,0.036,0.007,0.012,-0.034,-0.036,-0.007,0.0*
%
%ADD22ROTATEDRECTD22*%

%ADD23R,0.035X0.012*%
G04:AMPARAMS|DCode=24|XSize=12mil|YSize=35mil|CornerRadius=0mil|HoleSize=0mil|Usage=FLASHONLY|Rotation=150.000|XOffset=0mil|YOffset=0mil|HoleType=Round|Shape=Rectangle|*
%AMROTATEDRECTD24*
4,1,4,0.014,0.012,-0.004,-0.018,-0.014,-0.012,0.004,0.018,0.014,0.012,0.0*
%
%ADD24ROTATEDRECTD24*%

%ADD25R,0.053X0.041*%
G04:AMPARAMS|DCode=26|XSize=53mil|YSize=41mil|CornerRadius=0mil|HoleSize=0mil|Usage=FLASHONLY|Rotation=120.000|XOffset=0mil|YOffset=0mil|HoleType=Round|Shape=Rectangle|*
%AMROTATEDRECTD26*
4,1,4,0.031,-0.013,-0.005,-0.033,-0.031,0.013,0.005,0.033,0.031,-0.013,0.0*
%
%ADD26ROTATEDRECTD26*%

G04:AMPARAMS|DCode=27|XSize=53mil|YSize=41mil|CornerRadius=0mil|HoleSize=0mil|Usage=FLASHONLY|Rotation=240.000|XOffset=0mil|YOffset=0mil|HoleType=Round|Shape=Rectangle|*
%AMROTATEDRECTD27*
4,1,4,-0.005,0.033,0.031,0.013,0.005,-0.033,-0.031,-0.013,-0.005,0.033,0.0*
%
%ADD27ROTATEDRECTD27*%

%ADD28R,0.047X0.031*%
G04:AMPARAMS|DCode=29|XSize=47mil|YSize=31mil|CornerRadius=0mil|HoleSize=0mil|Usage=FLASHONLY|Rotation=300.000|XOffset=0mil|YOffset=0mil|HoleType=Round|Shape=Rectangle|*
%AMROTATEDRECTD29*
4,1,4,-0.025,0.013,0.002,0.028,0.025,-0.013,-0.002,-0.028,-0.025,0.013,0.0*
%
%ADD29ROTATEDRECTD29*%

G04:AMPARAMS|DCode=30|XSize=47mil|YSize=31mil|CornerRadius=0mil|HoleSize=0mil|Usage=FLASHONLY|Rotation=60.000|XOffset=0mil|YOffset=0mil|HoleType=Round|Shape=Rectangle|*
%AMROTATEDRECTD30*
4,1,4,0.002,-0.028,-0.025,-0.013,-0.002,0.028,0.025,0.013,0.002,-0.028,0.0*
%
%ADD30ROTATEDRECTD30*%

%ADD31R,0.059X0.049*%
%ADD32R,0.049X0.059*%
G04:AMPARAMS|DCode=33|XSize=59mil|YSize=49mil|CornerRadius=0mil|HoleSize=0mil|Usage=FLASHONLY|Rotation=60.000|XOffset=0mil|YOffset=0mil|HoleType=Round|Shape=Rectangle|*
%AMROTATEDRECTD33*
4,1,4,0.007,-0.038,-0.036,-0.013,-0.007,0.038,0.036,0.013,0.007,-0.038,0.0*
%
%ADD33ROTATEDRECTD33*%

G04:AMPARAMS|DCode=34|XSize=59mil|YSize=49mil|CornerRadius=0mil|HoleSize=0mil|Usage=FLASHONLY|Rotation=150.000|XOffset=0mil|YOffset=0mil|HoleType=Round|Shape=Rectangle|*
%AMROTATEDRECTD34*
4,1,4,0.038,0.007,0.013,-0.036,-0.038,-0.007,-0.013,0.036,0.038,0.007,0.0*
%
%ADD34ROTATEDRECTD34*%

%ADD35R,0.087X0.014*%
G04:AMPARAMS|DCode=36|XSize=14mil|YSize=87mil|CornerRadius=0mil|HoleSize=0mil|Usage=FLASHONLY|Rotation=150.000|XOffset=0mil|YOffset=0mil|HoleType=Round|Shape=Rectangle|*
%AMROTATEDRECTD36*
4,1,4,0.028,0.034,-0.016,-0.041,-0.028,-0.034,0.016,0.041,0.028,0.034,0.0*
%
%ADD36ROTATEDRECTD36*%

G04:AMPARAMS|DCode=37|XSize=47mil|YSize=31mil|CornerRadius=0mil|HoleSize=0mil|Usage=FLASHONLY|Rotation=330.000|XOffset=0mil|YOffset=0mil|HoleType=Round|Shape=Rectangle|*
%AMROTATEDRECTD37*
4,1,4,-0.028,-0.002,-0.013,0.025,0.028,0.002,0.013,-0.025,-0.028,-0.002,0.0*
%
%ADD37ROTATEDRECTD37*%

G04:AMPARAMS|DCode=38|XSize=53mil|YSize=41mil|CornerRadius=0mil|HoleSize=0mil|Usage=FLASHONLY|Rotation=330.000|XOffset=0mil|YOffset=0mil|HoleType=Round|Shape=Rectangle|*
%AMROTATEDRECTD38*
4,1,4,-0.033,-0.005,-0.013,0.031,0.033,0.005,0.013,-0.031,-0.033,-0.005,0.0*
%
%ADD38ROTATEDRECTD38*%

%ADD39R,0.031X0.047*%
%ADD40R,0.041X0.053*%
%ADD41C,0.010*%
%ADD42C,0.130*%
%ADD43C,0.060*%
%ADD44P,0.084X4X165.0*%
%ADD45C,0.059*%
%ADD46R,0.059X0.059*%
%ADD47P,0.084X4X285.0*%
%ADD48C,0.050*%
%ADD49R,0.045X0.024*%
%ADD50R,0.077X0.049*%
%ADD51R,0.049X0.077*%
G36*
X11058Y3641D02*
X11053Y3639D01*
X11053Y3640D01*
X10479D01*
X10475Y3640D01*
X10471Y3640D01*
X10349D01*
X10345Y3640D01*
X10341Y3640D01*
X10178D01*
Y4490D01*
X11058D01*
Y3641D01*
D02*
G37*
G36*
X12146Y3473D02*
X12146Y3472D01*
X12367Y3345D01*
X12191Y3041D01*
X12186Y3039D01*
X11964Y3167D01*
X12141Y3474D01*
X12146Y3473D01*
D02*
G37*
G36*
X9900Y4010D02*
X9895Y4010D01*
X9545D01*
X9545Y4261D01*
X9549Y4265D01*
X9900D01*
Y4010D01*
D02*
G37*
G36*
X9887Y3099D02*
X9890Y3093D01*
X10177Y2596D01*
X10180Y2590D01*
X10183Y2586D01*
X10245Y2479D01*
X10247Y2473D01*
X10251Y2469D01*
X10323Y2344D01*
X9590Y1921D01*
X9590Y1921D01*
X9585Y1920D01*
X9149Y2676D01*
X9882Y3100D01*
X9887Y3099D01*
D02*
G37*
G36*
X10326Y1609D02*
X10325Y1604D01*
X10103Y1476D01*
X9927Y1780D01*
X9928Y1785D01*
X10150Y1913D01*
X10326Y1609D01*
D02*
G37*
G36*
X12219Y2684D02*
X12224Y2681D01*
X12225Y2676D01*
X11795Y1930D01*
X11788Y1928D01*
X11785Y1924D01*
X11071Y2336D01*
X11362Y2841D01*
X11364Y2843D01*
X11365Y2845D01*
X11422Y2945D01*
X11424Y2947D01*
X11425Y2949D01*
X11508Y3094D01*
X12219Y2684D01*
D02*
G37*
%LPC*%
G36*
X11212Y2524D02*
X11208Y2523D01*
X11199Y2520D01*
X11192Y2514D01*
X11186Y2507D01*
X11183Y2498D01*
X11182Y2494D01*
X11212D01*
Y2524D01*
D02*
G37*
G36*
X11222D02*
Y2494D01*
X11251D01*
X11251Y2498D01*
X11247Y2507D01*
X11242Y2514D01*
X11234Y2520D01*
X11226Y2523D01*
X11222Y2524D01*
D02*
G37*
G36*
X10013Y2486D02*
X10009Y2485D01*
X10000Y2481D01*
X9993Y2476D01*
X9987Y2469D01*
X9984Y2460D01*
X9983Y2456D01*
X10013D01*
Y2486D01*
D02*
G37*
G36*
X10023D02*
Y2456D01*
X10053D01*
X10052Y2460D01*
X10049Y2469D01*
X10043Y2476D01*
X10036Y2481D01*
X10027Y2485D01*
X10023Y2486D01*
D02*
G37*
G36*
X11945Y2637D02*
Y2607D01*
X11975D01*
X11974Y2611D01*
X11971Y2620D01*
X11965Y2627D01*
X11958Y2633D01*
X11949Y2636D01*
X11945Y2637D01*
D02*
G37*
G36*
X11690Y2693D02*
X11660D01*
X11661Y2689D01*
X11665Y2680D01*
X11670Y2673D01*
X11677Y2667D01*
X11686Y2664D01*
X11690Y2663D01*
Y2693D01*
D02*
G37*
G36*
X11730D02*
X11700D01*
Y2663D01*
X11704Y2664D01*
X11713Y2667D01*
X11720Y2673D01*
X11726Y2680D01*
X11729Y2689D01*
X11730Y2693D01*
D02*
G37*
G36*
X11935Y2597D02*
X11906D01*
X11906Y2593D01*
X11910Y2585D01*
X11915Y2577D01*
X11923Y2572D01*
X11931Y2568D01*
X11935Y2568D01*
Y2597D01*
D02*
G37*
G36*
X11975D02*
X11945D01*
Y2568D01*
X11949Y2568D01*
X11958Y2572D01*
X11965Y2577D01*
X11971Y2585D01*
X11974Y2593D01*
X11975Y2597D01*
D02*
G37*
G36*
X11935Y2637D02*
X11931Y2636D01*
X11923Y2633D01*
X11915Y2627D01*
X11910Y2620D01*
X11906Y2611D01*
X11906Y2607D01*
X11935D01*
Y2637D01*
D02*
G37*
G36*
X9662Y2260D02*
Y2230D01*
X9692D01*
X9692Y2235D01*
X9688Y2243D01*
X9682Y2250D01*
X9675Y2256D01*
X9667Y2259D01*
X9662Y2260D01*
D02*
G37*
G36*
X9881Y2364D02*
X9852D01*
X9852Y2360D01*
X9856Y2351D01*
X9861Y2344D01*
X9869Y2338D01*
X9877Y2335D01*
X9881Y2334D01*
Y2364D01*
D02*
G37*
G36*
X9921D02*
X9891D01*
Y2334D01*
X9895Y2335D01*
X9904Y2338D01*
X9911Y2344D01*
X9917Y2351D01*
X9920Y2360D01*
X9921Y2364D01*
D02*
G37*
G36*
X9652Y2220D02*
X9623D01*
X9623Y2216D01*
X9627Y2208D01*
X9632Y2200D01*
X9640Y2195D01*
X9648Y2191D01*
X9652Y2191D01*
Y2220D01*
D02*
G37*
G36*
X9692D02*
X9662D01*
Y2191D01*
X9667Y2191D01*
X9675Y2195D01*
X9682Y2200D01*
X9688Y2208D01*
X9692Y2216D01*
X9692Y2220D01*
D02*
G37*
G36*
X9652Y2260D02*
X9648Y2259D01*
X9640Y2256D01*
X9632Y2250D01*
X9627Y2243D01*
X9623Y2235D01*
X9623Y2230D01*
X9652D01*
Y2260D01*
D02*
G37*
G36*
X10053Y2446D02*
X10023D01*
Y2416D01*
X10027Y2417D01*
X10036Y2420D01*
X10043Y2426D01*
X10049Y2433D01*
X10052Y2442D01*
X10053Y2446D01*
D02*
G37*
G36*
X11212Y2484D02*
X11182D01*
X11183Y2480D01*
X11186Y2471D01*
X11192Y2464D01*
X11199Y2458D01*
X11208Y2455D01*
X11212Y2454D01*
Y2484D01*
D02*
G37*
G36*
X11251D02*
X11222D01*
Y2454D01*
X11226Y2455D01*
X11234Y2458D01*
X11242Y2464D01*
X11247Y2471D01*
X11251Y2480D01*
X11251Y2484D01*
D02*
G37*
G36*
X9881Y2404D02*
X9877Y2403D01*
X9869Y2400D01*
X9861Y2394D01*
X9856Y2387D01*
X9852Y2378D01*
X9852Y2374D01*
X9881D01*
Y2404D01*
D02*
G37*
G36*
X9891D02*
Y2374D01*
X9921D01*
X9920Y2378D01*
X9917Y2387D01*
X9911Y2394D01*
X9904Y2400D01*
X9895Y2403D01*
X9891Y2404D01*
D02*
G37*
G36*
X10013Y2446D02*
X9983D01*
X9984Y2442D01*
X9987Y2433D01*
X9993Y2426D01*
X10000Y2420D01*
X10009Y2417D01*
X10013Y2416D01*
Y2446D01*
D02*
G37*
G36*
X11690Y2732D02*
X11686Y2732D01*
X11677Y2728D01*
X11670Y2723D01*
X11665Y2715D01*
X11661Y2707D01*
X11660Y2703D01*
X11690D01*
Y2732D01*
D02*
G37*
G36*
X10420Y3895D02*
Y3865D01*
X10450D01*
X10449Y3869D01*
X10446Y3878D01*
X10440Y3885D01*
X10433Y3891D01*
X10424Y3894D01*
X10420Y3895D01*
D02*
G37*
G36*
X10410Y4000D02*
X10380D01*
X10381Y3996D01*
X10384Y3987D01*
X10390Y3980D01*
X10397Y3974D01*
X10406Y3971D01*
X10410Y3970D01*
Y4000D01*
D02*
G37*
G36*
X10450D02*
X10420D01*
Y3970D01*
X10424Y3971D01*
X10433Y3974D01*
X10440Y3980D01*
X10446Y3987D01*
X10449Y3996D01*
X10450Y4000D01*
D02*
G37*
G36*
X10410Y3855D02*
X10380D01*
X10381Y3851D01*
X10384Y3842D01*
X10390Y3835D01*
X10397Y3829D01*
X10406Y3826D01*
X10410Y3825D01*
Y3855D01*
D02*
G37*
G36*
X10450D02*
X10420D01*
Y3825D01*
X10424Y3826D01*
X10433Y3829D01*
X10440Y3835D01*
X10446Y3842D01*
X10449Y3851D01*
X10450Y3855D01*
D02*
G37*
G36*
X10410Y3895D02*
X10406Y3894D01*
X10397Y3891D01*
X10390Y3885D01*
X10384Y3878D01*
X10381Y3869D01*
X10380Y3865D01*
X10410D01*
Y3895D01*
D02*
G37*
G36*
X10440Y4275D02*
X10410D01*
Y4245D01*
X10414Y4246D01*
X10423Y4249D01*
X10430Y4255D01*
X10436Y4262D01*
X10439Y4271D01*
X10440Y4275D01*
D02*
G37*
G36*
X10400Y4315D02*
X10396Y4314D01*
X10387Y4311D01*
X10380Y4305D01*
X10374Y4298D01*
X10371Y4289D01*
X10370Y4285D01*
X10400D01*
Y4315D01*
D02*
G37*
G36*
X10410D02*
Y4285D01*
X10440D01*
X10439Y4289D01*
X10436Y4298D01*
X10430Y4305D01*
X10423Y4311D01*
X10414Y4314D01*
X10410Y4315D01*
D02*
G37*
G36*
Y4040D02*
X10406Y4039D01*
X10397Y4036D01*
X10390Y4030D01*
X10384Y4023D01*
X10381Y4014D01*
X10380Y4010D01*
X10410D01*
Y4040D01*
D02*
G37*
G36*
X10420D02*
Y4010D01*
X10450D01*
X10449Y4014D01*
X10446Y4023D01*
X10440Y4030D01*
X10433Y4036D01*
X10424Y4039D01*
X10420Y4040D01*
D02*
G37*
G36*
X10400Y4275D02*
X10370D01*
X10371Y4271D01*
X10374Y4262D01*
X10380Y4255D01*
X10387Y4249D01*
X10396Y4246D01*
X10400Y4245D01*
Y4275D01*
D02*
G37*
G36*
X10870Y3720D02*
Y3690D01*
X10900D01*
X10899Y3694D01*
X10896Y3703D01*
X10890Y3710D01*
X10883Y3716D01*
X10874Y3719D01*
X10870Y3720D01*
D02*
G37*
G36*
X11566Y2798D02*
X11562Y2797D01*
X11554Y2794D01*
X11546Y2788D01*
X11541Y2781D01*
X11537Y2773D01*
X11537Y2768D01*
X11566D01*
Y2798D01*
D02*
G37*
G36*
X11576D02*
Y2768D01*
X11606D01*
X11605Y2773D01*
X11602Y2781D01*
X11596Y2788D01*
X11589Y2794D01*
X11581Y2797D01*
X11576Y2798D01*
D02*
G37*
G36*
X9917Y2893D02*
X9887D01*
X9888Y2888D01*
X9891Y2880D01*
X9897Y2873D01*
X9904Y2867D01*
X9913Y2863D01*
X9917Y2863D01*
Y2893D01*
D02*
G37*
G36*
X11700Y2732D02*
Y2703D01*
X11730D01*
X11729Y2707D01*
X11726Y2715D01*
X11720Y2723D01*
X11713Y2728D01*
X11704Y2732D01*
X11700Y2732D01*
D02*
G37*
G36*
X11566Y2758D02*
X11537D01*
X11537Y2754D01*
X11541Y2746D01*
X11546Y2738D01*
X11554Y2733D01*
X11562Y2729D01*
X11566Y2729D01*
Y2758D01*
D02*
G37*
G36*
X11606D02*
X11576D01*
Y2729D01*
X11581Y2729D01*
X11589Y2733D01*
X11596Y2738D01*
X11602Y2746D01*
X11605Y2754D01*
X11606Y2758D01*
D02*
G37*
G36*
X10860Y3680D02*
X10830D01*
X10831Y3676D01*
X10834Y3667D01*
X10840Y3660D01*
X10847Y3654D01*
X10856Y3651D01*
X10860Y3650D01*
Y3680D01*
D02*
G37*
G36*
X10900D02*
X10870D01*
Y3650D01*
X10874Y3651D01*
X10883Y3654D01*
X10890Y3660D01*
X10896Y3667D01*
X10899Y3676D01*
X10900Y3680D01*
D02*
G37*
G36*
X10860Y3720D02*
X10856Y3719D01*
X10847Y3716D01*
X10840Y3710D01*
X10834Y3703D01*
X10831Y3694D01*
X10830Y3690D01*
X10860D01*
Y3720D01*
D02*
G37*
G36*
X9956Y2893D02*
X9927D01*
Y2863D01*
X9931Y2863D01*
X9939Y2867D01*
X9947Y2873D01*
X9952Y2880D01*
X9956Y2888D01*
X9956Y2893D01*
D02*
G37*
G36*
X9917Y2932D02*
X9913Y2932D01*
X9904Y2928D01*
X9897Y2923D01*
X9891Y2915D01*
X9888Y2907D01*
X9887Y2903D01*
X9917D01*
Y2932D01*
D02*
G37*
G36*
X9927D02*
Y2903D01*
X9956D01*
X9956Y2907D01*
X9952Y2915D01*
X9947Y2923D01*
X9939Y2928D01*
X9931Y2932D01*
X9927Y2932D01*
D02*
G37*
%LPD*%
D15*
X9093Y2920D02*
D03*
X9131Y2854D02*
D03*
D16*
X8988Y2855D02*
D03*
X9022Y2795D02*
D03*
D21*
X10630Y1735D02*
D03*
X10700D02*
D03*
D32*
X11206Y4595D02*
D03*
X11274Y4595D02*
D03*
D34*
X11740Y1788D02*
D03*
X11706Y1728D02*
D03*
D38*
X11600Y1784D02*
D03*
X11638Y1851D02*
D03*
D40*
X11202Y4470D02*
D03*
X11278Y4470D02*
D03*
X11947Y3960D02*
D03*
X12023Y3960D02*
D03*
D41*
X11947Y3872D02*
Y3960D01*
X12025Y3870D02*
Y3958D01*
X11945Y3790D02*
X12025Y3870D01*
X11945Y3625D02*
Y3790D01*
X11720Y3400D02*
X11945Y3625D01*
X11715Y3400D02*
X11720D01*
X11830Y4050D02*
X12010D01*
X11825Y4045D02*
X11830Y4050D01*
X11470Y3500D02*
Y3615D01*
X11610Y3755D01*
X11805D01*
X11825Y3775D01*
Y4045D01*
X11990Y4050D02*
X12010D01*
X10471Y2149D02*
X10655Y1965D01*
X10700Y1680D02*
Y1735D01*
X10690Y1670D02*
X10700Y1680D01*
X10625Y1670D02*
X10690D01*
X10535Y1580D02*
X10625Y1670D01*
X10535Y1415D02*
Y1580D01*
X10522Y1402D02*
X10535Y1415D01*
X10470Y1402D02*
X10522D01*
X10590Y1910D02*
X10646D01*
X10550Y1870D02*
X10590Y1910D01*
X10550Y1705D02*
Y1870D01*
X10515Y1670D02*
X10550Y1705D01*
X10470Y1670D02*
X10515D01*
X10312Y1402D02*
X10470D01*
Y1498D02*
Y1670D01*
X10630Y1735D02*
Y1780D01*
X10649Y1799D01*
Y1833D01*
X10700Y1735D02*
X10730D01*
X10785Y1790D01*
Y1855D01*
X10770Y1870D02*
X10785Y1855D01*
X10890Y2060D02*
Y2122D01*
X10825Y2060D02*
X10890D01*
X10825Y1925D02*
Y2060D01*
X10770Y1870D02*
X10825Y1925D01*
X10741Y1870D02*
X10770D01*
X10797Y2022D02*
Y2125D01*
X10740Y1965D02*
X10797Y2022D01*
X10740Y1909D02*
Y1965D01*
X10739Y1910D02*
X10740Y1909D01*
X10741Y1907D01*
X10695Y1840D02*
Y1895D01*
X10705Y1830D02*
X10739D01*
X10695Y1840D02*
X10705Y1830D01*
X10695Y1895D02*
X10710Y1910D01*
X10739D01*
X10472Y2149D02*
X10715Y2392D01*
X10471Y2149D02*
X10472Y2149D01*
X9593Y1642D02*
X10472Y2149D01*
X10655Y1965D02*
X10740D01*
X10210Y2608D02*
X10278Y2491D01*
X10715Y2392D02*
Y2490D01*
X10719Y2495D01*
X10895D01*
X10965Y2565D01*
X11075Y2860D02*
X11076Y2861D01*
X11333D01*
X11393Y2964D01*
X11610Y3341D02*
X12471Y2844D01*
X10770Y2805D02*
Y2870D01*
X10780Y2615D02*
X10870Y2705D01*
X10788Y2660D02*
X10825Y2698D01*
X10853Y2750D02*
X10925D01*
X10965Y2790D01*
X10869Y2795D02*
X10870D01*
X10570Y2805D02*
Y2842D01*
X10465Y2947D02*
X10570Y2842D01*
Y2805D02*
X10670D01*
X9330Y2013D02*
X9369Y2036D01*
X11875Y1820D02*
X11944Y1838D01*
X12243Y2457D02*
X12286Y2432D01*
X12434Y2687D01*
X12415Y2755D02*
X12434Y2687D01*
X12030Y2198D02*
X12044Y2202D01*
X11100Y4620D02*
Y4635D01*
X11065Y4670D02*
X11100Y4635D01*
X10390Y4620D02*
Y4670D01*
X10100D02*
X10390D01*
X10050Y4620D02*
X10100Y4670D01*
X10800Y4575D02*
Y4670D01*
X11065D01*
X10390D02*
X10800D01*
X12074Y2063D02*
X12286Y2432D01*
X8995Y2582D02*
X9014Y2650D01*
X8995Y2582D02*
X9128Y2353D01*
X9214Y2403D01*
X9478Y1746D02*
X9478Y1746D01*
X10470Y3590D02*
X10475Y3595D01*
Y3605D01*
X9128Y2353D02*
X9478Y1746D01*
X10520Y3120D02*
X10770Y2870D01*
X9283Y2289D02*
X9299Y2350D01*
X9102Y2692D02*
X9299Y2350D01*
X9437Y2098D02*
X9591Y1831D01*
X9591D02*
X10357Y2273D01*
X11983Y2116D02*
X12074Y2063D01*
X11944Y1838D02*
X12074Y2063D01*
X11974Y2183D02*
X12030Y2198D01*
X11805Y1889D02*
X11974Y2183D01*
X10700Y4575D02*
X10760Y4515D01*
X11075D01*
X9102Y2692D02*
X9104Y2699D01*
X9305Y2869D02*
X9919Y3224D01*
X11475Y3298D02*
X12415Y2755D01*
X12132Y2434D02*
X12304Y2732D01*
X11433Y3234D02*
X12304Y2732D01*
X9945Y3605D02*
Y4620D01*
X9014Y2650D02*
X9028Y2664D01*
X9251Y2815D02*
X9305Y2869D01*
X9150Y2815D02*
X9251D01*
X9131Y2834D02*
X9150Y2815D01*
X11460Y1983D02*
X11465Y1980D01*
X11021Y2236D02*
X11460Y1983D01*
X11745Y1785D02*
X11875Y1820D01*
X11716Y1866D02*
X11805Y1889D01*
X11652Y1754D02*
X11700Y1726D01*
X11600Y1784D02*
X11652Y1754D01*
X11716Y1866D01*
X11460Y1983D02*
X11629Y1885D01*
X11638Y1851D01*
X9014Y2650D02*
Y2787D01*
X9102Y2692D02*
Y2799D01*
X8994Y2863D02*
X9038Y2888D01*
X9093Y2920D01*
X9038Y2882D02*
Y2888D01*
X9070Y2831D02*
X9102Y2799D01*
X9038Y2882D02*
X9070Y2850D01*
Y2831D02*
Y2850D01*
X11176Y4185D02*
Y4370D01*
Y4185D02*
Y4195D01*
Y3670D02*
Y4185D01*
X11075Y4515D02*
X11090Y4530D01*
X11278Y4474D02*
Y4530D01*
Y4595D01*
X11090Y4530D02*
X11278D01*
X11100Y4620D02*
X11130D01*
X11155Y4595D01*
X11202D01*
X11206Y4401D02*
Y4470D01*
X11176Y4371D02*
X11206Y4401D01*
X11046Y3540D02*
X11176Y3670D01*
X10720Y3540D02*
X11046D01*
X9945Y3535D02*
X10055Y3425D01*
X9945Y3535D02*
Y3605D01*
X9478Y1746D02*
X9546Y1728D01*
X9215Y3485D02*
Y3495D01*
X9500Y3195D02*
X9760D01*
X9500D02*
Y3311D01*
X9281Y3273D02*
X9422Y3414D01*
X9401Y3435D02*
X9422Y3414D01*
X9260Y3294D02*
X9401Y3435D01*
X9239Y3315D02*
X9260Y3294D01*
X9239Y3315D02*
X9380Y3456D01*
X9359Y3478D02*
X9380Y3456D01*
X9217Y3336D02*
X9359Y3478D01*
X9196Y3357D02*
X9217Y3336D01*
X9196Y3357D02*
X9338Y3499D01*
X9316Y3520D02*
X9338Y3499D01*
X9246Y3449D02*
X9316Y3520D01*
X9215Y3480D02*
X9246Y3449D01*
X9281Y3273D02*
X9302Y3251D01*
X9376Y3325D01*
X9485D01*
X9500Y3311D01*
X11610Y3440D02*
X11770Y3600D01*
X11185Y1920D02*
X11195Y1930D01*
X11080Y1840D02*
X11135D01*
X11035Y1590D02*
Y1660D01*
X10935D02*
X11035D01*
X10935D02*
Y1690D01*
X11135D01*
Y1720D01*
X10935D02*
X11135D01*
X10935D02*
Y1750D01*
X11135D01*
Y1780D01*
X10935D02*
X11135D01*
X10935D02*
Y1810D01*
X11135D01*
Y1840D01*
X11042Y1878D02*
Y1918D01*
X11045Y1920D01*
X11185D01*
X11042Y1878D02*
X11080Y1840D01*
X11755Y3970D02*
Y4085D01*
X11710Y3970D02*
X11755D01*
X11710D02*
Y4070D01*
X11680D02*
X11710D01*
X11680Y3870D02*
Y4070D01*
X11650Y3870D02*
X11680D01*
X11650D02*
Y4070D01*
X11620D02*
X11650D01*
X11620Y3870D02*
Y4070D01*
X11590Y3870D02*
X11620D01*
X11590D02*
Y4070D01*
X11560D02*
X11590D01*
X11560Y3870D02*
Y4070D01*
X11345Y3970D02*
X11445D01*
X11530Y3885D01*
Y3870D02*
X11560D01*
X11530D02*
Y3885D01*
X9546Y1728D02*
X9546Y1728D01*
X10420Y2234D01*
X10575Y2150D02*
X10710Y2015D01*
X11050Y3500D02*
X11470D01*
X10970Y3420D02*
X11050Y3500D01*
X10420Y2615D02*
X10780D01*
X10420D02*
Y3065D01*
X10050Y3490D02*
Y4620D01*
X10120Y4530D02*
X10445D01*
X10120Y3540D02*
Y4530D01*
X10345Y3605D02*
X10470D01*
X10120Y3540D02*
X10620D01*
X10050Y3490D02*
X10335D01*
X10455Y3370D01*
X10330Y3425D02*
X10375Y3380D01*
X10190Y3425D02*
X10330D01*
X10055D02*
X10190D01*
X10195D01*
X10776Y3235D02*
X10820Y3279D01*
X10870Y3160D02*
Y3475D01*
X10720Y3285D02*
Y3540D01*
X10720Y3185D02*
X10780Y3125D01*
X10465Y2947D02*
Y3203D01*
X9919Y3224D02*
X10156D01*
X10195Y3185D01*
X10320D01*
X10420Y2234D02*
Y2490D01*
X10357Y2273D02*
X10370Y2286D01*
X10325Y3235D02*
X10370D01*
X10320Y3240D02*
X10325Y3235D01*
X10320Y3240D02*
Y3285D01*
X10370Y2286D02*
Y3235D01*
X10420Y3065D02*
Y3185D01*
X10620Y3285D02*
Y3540D01*
X10500Y3235D02*
X10776D01*
X10438Y3230D02*
X10465Y3203D01*
X10410Y3230D02*
X10438D01*
X10375Y3265D02*
X10410Y3230D01*
X10375Y3265D02*
Y3380D01*
X10420Y3285D02*
X10450D01*
X10500Y3235D01*
X11021Y2236D02*
Y3184D01*
X10965Y2790D02*
Y3230D01*
X11020Y3285D01*
X11318Y3350D02*
X11433Y3234D01*
X10925Y3285D02*
X10990Y3350D01*
X11318D01*
X10625Y2660D02*
X10788D01*
X10570Y2705D02*
X10620Y2655D01*
X10625Y2660D01*
X10470Y2805D02*
X10520Y2755D01*
X10820D02*
X10870Y2805D01*
X10520Y2755D02*
X10820D01*
X10825Y2698D02*
Y2723D01*
X10852Y2750D01*
X10780Y3125D02*
X10835D01*
X10870Y3160D01*
X10520Y3120D02*
Y3185D01*
X11075Y3420D02*
X11485D01*
X11550Y3485D01*
Y3615D01*
D42*
X10675Y1420D02*
D03*
X12085Y3720D02*
D03*
X9360Y3870D02*
D03*
D43*
X9128Y3445D02*
D03*
X9215Y3495D02*
D03*
X11755Y4185D02*
D03*
X11755Y4085D02*
D03*
X11122Y1540D02*
D03*
X11035Y1590D02*
D03*
D44*
X9469Y1862D02*
D03*
X9114Y2477D02*
D03*
D45*
X9419Y1949D02*
D03*
X9369Y2036D02*
D03*
X10870Y2805D02*
D03*
Y2705D02*
D03*
X10770Y2805D02*
D03*
Y2705D02*
D03*
X10670Y2805D02*
D03*
Y2705D02*
D03*
X10570Y2805D02*
D03*
Y2705D02*
D03*
X10470Y2805D02*
D03*
X10320Y3285D02*
D03*
X10420Y3185D02*
D03*
Y3285D02*
D03*
X10520Y3185D02*
D03*
X10520Y3285D02*
D03*
X10620Y3185D02*
D03*
X10620Y3285D02*
D03*
X10720Y3185D02*
D03*
X10720Y3285D02*
D03*
X10820Y3185D02*
D03*
X10820Y3285D02*
D03*
X10920Y3185D02*
D03*
X10920Y3285D02*
D03*
X11020Y3185D02*
D03*
X11020Y3285D02*
D03*
X11100Y4620D02*
D03*
X11000Y4620D02*
D03*
X10390Y4620D02*
D03*
X10290D02*
D03*
X9014Y2650D02*
D03*
X9064Y2564D02*
D03*
X11875Y1820D02*
D03*
X11925Y1907D02*
D03*
X12243Y2457D02*
D03*
X12293Y2543D02*
D03*
D46*
X10470Y2705D02*
D03*
X10320Y3185D02*
D03*
X10900Y4620D02*
D03*
X10190D02*
D03*
D47*
X11975Y1993D02*
D03*
X12343Y2630D02*
D03*
D48*
X11550Y3615D02*
D03*
X11610Y3440D02*
D03*
X11945Y3870D02*
D03*
X12010Y4050D02*
D03*
X9593Y1642D02*
D03*
X10472Y2149D02*
D03*
X10278Y2491D02*
D03*
X10210Y2608D02*
D03*
X10715Y2490D02*
D03*
X10965Y2575D02*
D03*
X11075Y2860D02*
D03*
X11333Y2861D02*
D03*
X11393Y2964D02*
D03*
X12471Y2844D02*
D03*
X11610Y3341D02*
D03*
X10710Y2015D02*
D03*
X9886Y2369D02*
D03*
X9922Y2898D02*
D03*
X9214Y2403D02*
D03*
X9283Y2289D02*
D03*
X9437Y2098D02*
D03*
X12132Y2434D02*
D03*
X10445Y4530D02*
D03*
X12415Y2755D02*
D03*
X12030Y2198D02*
D03*
X10050Y4620D02*
D03*
X10700Y4575D02*
D03*
X10800D02*
D03*
X11571Y2763D02*
D03*
X11695Y2698D02*
D03*
X10018Y2451D02*
D03*
X11940Y2602D02*
D03*
X9657Y2225D02*
D03*
X10405Y4280D02*
D03*
X10415Y4005D02*
D03*
Y3860D02*
D03*
X10865Y3685D02*
D03*
X10345Y3605D02*
D03*
X10475D02*
D03*
X9546Y1728D02*
D03*
X11983Y2116D02*
D03*
X9945Y4620D02*
D03*
Y3605D02*
D03*
X10470Y1670D02*
D03*
X10420Y2490D02*
D03*
X10310Y1400D02*
D03*
X9760Y3195D02*
D03*
X11470Y3300D02*
D03*
Y3500D02*
D03*
X11075Y3420D02*
D03*
X10970D02*
D03*
X11770Y3600D02*
D03*
X11195Y1930D02*
D03*
X11217Y2489D02*
D03*
X11345Y3970D02*
D03*
X10455Y3370D02*
D03*
X10575Y2150D02*
D03*
X10870Y3475D02*
D03*
X11715Y3400D02*
D03*
D49*
X10649Y1907D02*
D03*
Y1833D02*
D03*
X10741D02*
D03*
Y1870D02*
D03*
Y1907D02*
D03*
D50*
X10797Y2125D02*
D03*
X10893Y2125D02*
D03*
D51*
X10470Y1498D02*
D03*
Y1402D02*
D03*
M02*
