%FSLAX23Y23*%
%MOIN*%
G70*
G01*
G75*
G04 Layer_Color=32896*
%ADD10R,0.057X0.065*%
G04:AMPARAMS|DCode=11|XSize=14mil|YSize=87mil|CornerRadius=0mil|HoleSize=0mil|Usage=FLASHONLY|Rotation=30.000|XOffset=0mil|YOffset=0mil|HoleType=Round|Shape=Rectangle|*
%AMROTATEDRECTD11*
4,1,4,0.016,-0.041,-0.028,0.034,-0.016,0.041,0.028,-0.034,0.016,-0.041,0.0*
%
%ADD11ROTATEDRECTD11*%

G04:AMPARAMS|DCode=12|XSize=55mil|YSize=47mil|CornerRadius=0mil|HoleSize=0mil|Usage=FLASHONLY|Rotation=210.000|XOffset=0mil|YOffset=0mil|HoleType=Round|Shape=Rectangle|*
%AMROTATEDRECTD12*
4,1,4,0.012,0.034,0.036,-0.007,-0.012,-0.034,-0.036,0.007,0.012,0.034,0.0*
%
%ADD12ROTATEDRECTD12*%

G04:AMPARAMS|DCode=13|XSize=12mil|YSize=35mil|CornerRadius=0mil|HoleSize=0mil|Usage=FLASHONLY|Rotation=30.000|XOffset=0mil|YOffset=0mil|HoleType=Round|Shape=Rectangle|*
%AMROTATEDRECTD13*
4,1,4,0.004,-0.018,-0.014,0.012,-0.004,0.018,0.014,-0.012,0.004,-0.018,0.0*
%
%ADD13ROTATEDRECTD13*%

G04:AMPARAMS|DCode=14|XSize=47mil|YSize=31mil|CornerRadius=0mil|HoleSize=0mil|Usage=FLASHONLY|Rotation=210.000|XOffset=0mil|YOffset=0mil|HoleType=Round|Shape=Rectangle|*
%AMROTATEDRECTD14*
4,1,4,0.013,0.025,0.028,-0.002,-0.013,-0.025,-0.028,0.002,0.013,0.025,0.0*
%
%ADD14ROTATEDRECTD14*%

G04:AMPARAMS|DCode=15|XSize=53mil|YSize=41mil|CornerRadius=0mil|HoleSize=0mil|Usage=FLASHONLY|Rotation=210.000|XOffset=0mil|YOffset=0mil|HoleType=Round|Shape=Rectangle|*
%AMROTATEDRECTD15*
4,1,4,0.013,0.031,0.033,-0.005,-0.013,-0.031,-0.033,0.005,0.013,0.031,0.0*
%
%ADD15ROTATEDRECTD15*%

G04:AMPARAMS|DCode=16|XSize=59mil|YSize=49mil|CornerRadius=0mil|HoleSize=0mil|Usage=FLASHONLY|Rotation=210.000|XOffset=0mil|YOffset=0mil|HoleType=Round|Shape=Rectangle|*
%AMROTATEDRECTD16*
4,1,4,0.013,0.036,0.038,-0.007,-0.013,-0.036,-0.038,0.007,0.013,0.036,0.0*
%
%ADD16ROTATEDRECTD16*%

G04:AMPARAMS|DCode=17|XSize=59mil|YSize=49mil|CornerRadius=0mil|HoleSize=0mil|Usage=FLASHONLY|Rotation=300.000|XOffset=0mil|YOffset=0mil|HoleType=Round|Shape=Rectangle|*
%AMROTATEDRECTD17*
4,1,4,-0.036,0.013,0.007,0.038,0.036,-0.013,-0.007,-0.038,-0.036,0.013,0.0*
%
%ADD17ROTATEDRECTD17*%

%ADD18R,0.055X0.047*%
G04:AMPARAMS|DCode=19|XSize=55mil|YSize=47mil|CornerRadius=0mil|HoleSize=0mil|Usage=FLASHONLY|Rotation=120.000|XOffset=0mil|YOffset=0mil|HoleType=Round|Shape=Rectangle|*
%AMROTATEDRECTD19*
4,1,4,0.034,-0.012,-0.007,-0.036,-0.034,0.012,0.007,0.036,0.034,-0.012,0.0*
%
%ADD19ROTATEDRECTD19*%

G04:AMPARAMS|DCode=20|XSize=55mil|YSize=47mil|CornerRadius=0mil|HoleSize=0mil|Usage=FLASHONLY|Rotation=240.000|XOffset=0mil|YOffset=0mil|HoleType=Round|Shape=Rectangle|*
%AMROTATEDRECTD20*
4,1,4,-0.007,0.036,0.034,0.012,0.007,-0.036,-0.034,-0.012,-0.007,0.036,0.0*
%
%ADD20ROTATEDRECTD20*%

%ADD21R,0.047X0.055*%
G04:AMPARAMS|DCode=22|XSize=55mil|YSize=47mil|CornerRadius=0mil|HoleSize=0mil|Usage=FLASHONLY|Rotation=330.000|XOffset=0mil|YOffset=0mil|HoleType=Round|Shape=Rectangle|*
%AMROTATEDRECTD22*
4,1,4,-0.036,-0.007,-0.012,0.034,0.036,0.007,0.012,-0.034,-0.036,-0.007,0.0*
%
%ADD22ROTATEDRECTD22*%

%ADD23R,0.035X0.012*%
G04:AMPARAMS|DCode=24|XSize=12mil|YSize=35mil|CornerRadius=0mil|HoleSize=0mil|Usage=FLASHONLY|Rotation=150.000|XOffset=0mil|YOffset=0mil|HoleType=Round|Shape=Rectangle|*
%AMROTATEDRECTD24*
4,1,4,0.014,0.012,-0.004,-0.018,-0.014,-0.012,0.004,0.018,0.014,0.012,0.0*
%
%ADD24ROTATEDRECTD24*%

%ADD25R,0.053X0.041*%
G04:AMPARAMS|DCode=26|XSize=53mil|YSize=41mil|CornerRadius=0mil|HoleSize=0mil|Usage=FLASHONLY|Rotation=120.000|XOffset=0mil|YOffset=0mil|HoleType=Round|Shape=Rectangle|*
%AMROTATEDRECTD26*
4,1,4,0.031,-0.013,-0.005,-0.033,-0.031,0.013,0.005,0.033,0.031,-0.013,0.0*
%
%ADD26ROTATEDRECTD26*%

G04:AMPARAMS|DCode=27|XSize=53mil|YSize=41mil|CornerRadius=0mil|HoleSize=0mil|Usage=FLASHONLY|Rotation=240.000|XOffset=0mil|YOffset=0mil|HoleType=Round|Shape=Rectangle|*
%AMROTATEDRECTD27*
4,1,4,-0.005,0.033,0.031,0.013,0.005,-0.033,-0.031,-0.013,-0.005,0.033,0.0*
%
%ADD27ROTATEDRECTD27*%

%ADD28R,0.047X0.031*%
G04:AMPARAMS|DCode=29|XSize=47mil|YSize=31mil|CornerRadius=0mil|HoleSize=0mil|Usage=FLASHONLY|Rotation=300.000|XOffset=0mil|YOffset=0mil|HoleType=Round|Shape=Rectangle|*
%AMROTATEDRECTD29*
4,1,4,-0.025,0.013,0.002,0.028,0.025,-0.013,-0.002,-0.028,-0.025,0.013,0.0*
%
%ADD29ROTATEDRECTD29*%

G04:AMPARAMS|DCode=30|XSize=47mil|YSize=31mil|CornerRadius=0mil|HoleSize=0mil|Usage=FLASHONLY|Rotation=60.000|XOffset=0mil|YOffset=0mil|HoleType=Round|Shape=Rectangle|*
%AMROTATEDRECTD30*
4,1,4,0.002,-0.028,-0.025,-0.013,-0.002,0.028,0.025,0.013,0.002,-0.028,0.0*
%
%ADD30ROTATEDRECTD30*%

%ADD31R,0.059X0.049*%
%ADD32R,0.049X0.059*%
G04:AMPARAMS|DCode=33|XSize=59mil|YSize=49mil|CornerRadius=0mil|HoleSize=0mil|Usage=FLASHONLY|Rotation=60.000|XOffset=0mil|YOffset=0mil|HoleType=Round|Shape=Rectangle|*
%AMROTATEDRECTD33*
4,1,4,0.007,-0.038,-0.036,-0.013,-0.007,0.038,0.036,0.013,0.007,-0.038,0.0*
%
%ADD33ROTATEDRECTD33*%

G04:AMPARAMS|DCode=34|XSize=59mil|YSize=49mil|CornerRadius=0mil|HoleSize=0mil|Usage=FLASHONLY|Rotation=150.000|XOffset=0mil|YOffset=0mil|HoleType=Round|Shape=Rectangle|*
%AMROTATEDRECTD34*
4,1,4,0.038,0.007,0.013,-0.036,-0.038,-0.007,-0.013,0.036,0.038,0.007,0.0*
%
%ADD34ROTATEDRECTD34*%

%ADD35R,0.087X0.014*%
G04:AMPARAMS|DCode=36|XSize=14mil|YSize=87mil|CornerRadius=0mil|HoleSize=0mil|Usage=FLASHONLY|Rotation=150.000|XOffset=0mil|YOffset=0mil|HoleType=Round|Shape=Rectangle|*
%AMROTATEDRECTD36*
4,1,4,0.028,0.034,-0.016,-0.041,-0.028,-0.034,0.016,0.041,0.028,0.034,0.0*
%
%ADD36ROTATEDRECTD36*%

G04:AMPARAMS|DCode=37|XSize=47mil|YSize=31mil|CornerRadius=0mil|HoleSize=0mil|Usage=FLASHONLY|Rotation=330.000|XOffset=0mil|YOffset=0mil|HoleType=Round|Shape=Rectangle|*
%AMROTATEDRECTD37*
4,1,4,-0.028,-0.002,-0.013,0.025,0.028,0.002,0.013,-0.025,-0.028,-0.002,0.0*
%
%ADD37ROTATEDRECTD37*%

G04:AMPARAMS|DCode=38|XSize=53mil|YSize=41mil|CornerRadius=0mil|HoleSize=0mil|Usage=FLASHONLY|Rotation=330.000|XOffset=0mil|YOffset=0mil|HoleType=Round|Shape=Rectangle|*
%AMROTATEDRECTD38*
4,1,4,-0.033,-0.005,-0.013,0.031,0.033,0.005,0.013,-0.031,-0.033,-0.005,0.0*
%
%ADD38ROTATEDRECTD38*%

%ADD39R,0.031X0.047*%
%ADD40R,0.041X0.053*%
%ADD41C,0.010*%
%ADD42C,0.130*%
%ADD43C,0.060*%
%ADD44P,0.084X4X165.0*%
%ADD45C,0.059*%
%ADD46R,0.059X0.059*%
%ADD47P,0.084X4X285.0*%
%ADD48C,0.050*%
%ADD49R,0.045X0.024*%
%ADD50R,0.077X0.049*%
%ADD51R,0.049X0.077*%
%ADD52C,0.024*%
%ADD53C,0.010*%
%ADD54C,0.008*%
%ADD55C,0.008*%
D41*
X11053Y3038D02*
X11070Y3055D01*
X11103D01*
X11120Y3038D01*
Y3022D01*
X11103Y3005D01*
X11070D01*
X11053Y2988D01*
Y2972D01*
X11070Y2955D01*
X11103D01*
X11120Y2972D01*
X10970Y2955D02*
X11003D01*
X11020Y2972D01*
Y3005D01*
X11003Y3022D01*
X10970D01*
X10953Y3005D01*
Y2988D01*
X11020D01*
X10903Y3022D02*
X10870D01*
X10853Y3005D01*
Y2955D01*
X10903D01*
X10920Y2972D01*
X10903Y2988D01*
X10853D01*
X10820Y3055D02*
Y2955D01*
X10770D01*
X10753Y2972D01*
Y2988D01*
X10770Y3005D01*
X10820D01*
X10770D01*
X10753Y3022D01*
Y3038D01*
X10770Y3055D01*
X10820D01*
X10670Y2955D02*
X10703D01*
X10720Y2972D01*
Y3005D01*
X10703Y3022D01*
X10670D01*
X10653Y3005D01*
Y2988D01*
X10720D01*
X10570Y2955D02*
X10604D01*
X10620Y2972D01*
Y3005D01*
X10604Y3022D01*
X10570D01*
X10554Y3005D01*
Y2988D01*
X10620D01*
X10420Y3055D02*
X10387D01*
X10404D01*
Y2955D01*
X10420D01*
X10387D01*
X10337Y3055D02*
X10304D01*
X10320D01*
Y2955D01*
X10337D01*
X10304D01*
X10254Y3055D02*
X10220D01*
X10237D01*
Y2955D01*
X10254D01*
X10220D01*
X11595Y1716D02*
X11543Y1746D01*
X11528Y1720D01*
X11532Y1706D01*
X11549Y1696D01*
X11563Y1700D01*
X11578Y1726D01*
X11568Y1709D02*
X11575Y1681D01*
X11502Y1654D02*
X11498Y1668D01*
X11508Y1685D01*
X11522Y1689D01*
X11556Y1669D01*
X11560Y1655D01*
X11550Y1638D01*
X11536Y1634D01*
X11519Y1644D01*
X11529Y1662D01*
X11544Y1607D02*
X11524Y1573D01*
X11462Y1585D02*
X11448Y1582D01*
X11438Y1564D01*
X11442Y1551D01*
X11450Y1546D01*
X11464Y1549D01*
X11469Y1558D01*
X11464Y1549D01*
X11468Y1536D01*
X11476Y1531D01*
X11490Y1534D01*
X11500Y1552D01*
X11496Y1565D01*
X11555Y4440D02*
Y4500D01*
X11525D01*
X11515Y4490D01*
Y4470D01*
X11525Y4460D01*
X11555D01*
X11535D02*
X11515Y4440D01*
X11455Y4490D02*
X11465Y4500D01*
X11485D01*
X11495Y4490D01*
Y4450D01*
X11485Y4440D01*
X11465D01*
X11455Y4450D01*
Y4470D01*
X11475D01*
X11435Y4430D02*
X11395D01*
X11335Y4440D02*
X11375D01*
X11335Y4480D01*
Y4490D01*
X11345Y4500D01*
X11365D01*
X11375Y4490D01*
X9038Y2955D02*
X9090Y2985D01*
X9075Y3011D01*
X9061Y3015D01*
X9044Y3005D01*
X9040Y2991D01*
X9055Y2965D01*
X9045Y2982D02*
X9018Y2990D01*
X9031Y3066D02*
X9045Y3063D01*
X9055Y3045D01*
X9051Y3032D01*
X9017Y3012D01*
X9003Y3016D01*
X8993Y3033D01*
X8997Y3046D01*
X9014Y3056D01*
X9024Y3039D01*
X8969Y3054D02*
X8949Y3088D01*
X8948Y3111D02*
X8938Y3128D01*
X8943Y3119D01*
X8995Y3149D01*
X8991Y3136D01*
X12090Y3840D02*
Y3900D01*
X12060D01*
X12050Y3890D01*
Y3870D01*
X12060Y3860D01*
X12090D01*
X12070D02*
X12050Y3840D01*
X12030Y3890D02*
X12020Y3900D01*
X12000D01*
X11990Y3890D01*
Y3880D01*
X12000Y3870D01*
X12010D01*
X12000D01*
X11990Y3860D01*
Y3850D01*
X12000Y3840D01*
X12020D01*
X12030Y3850D01*
X11631Y1649D02*
X11628Y1663D01*
X11638Y1680D01*
X11651Y1684D01*
X11686Y1664D01*
X11690Y1650D01*
X11680Y1633D01*
X11666Y1629D01*
X11601Y1597D02*
X11598Y1611D01*
X11608Y1628D01*
X11621Y1632D01*
X11656Y1612D01*
X11660Y1598D01*
X11650Y1581D01*
X11636Y1577D01*
X11619Y1587D01*
X11629Y1604D01*
X11643Y1550D02*
X11623Y1515D01*
X11561Y1528D02*
X11548Y1524D01*
X11538Y1507D01*
X11541Y1493D01*
X11550Y1488D01*
X11564Y1492D01*
X11569Y1500D01*
X11564Y1492D01*
X11567Y1478D01*
X11576Y1473D01*
X11590Y1477D01*
X11600Y1494D01*
X11596Y1508D01*
X11515Y4615D02*
X11525Y4625D01*
X11545D01*
X11555Y4615D01*
Y4575D01*
X11545Y4565D01*
X11525D01*
X11515Y4575D01*
X11455Y4615D02*
X11465Y4625D01*
X11485D01*
X11495Y4615D01*
Y4575D01*
X11485Y4565D01*
X11465D01*
X11455Y4575D01*
Y4595D01*
X11475D01*
X11435Y4555D02*
X11395D01*
X11335Y4565D02*
X11375D01*
X11335Y4605D01*
Y4615D01*
X11345Y4625D01*
X11365D01*
X11375Y4615D01*
X8955Y2952D02*
X8968Y2948D01*
X8978Y2931D01*
X8975Y2917D01*
X8940Y2897D01*
X8927Y2901D01*
X8917Y2918D01*
X8920Y2932D01*
X8925Y3004D02*
X8938Y3000D01*
X8948Y2983D01*
X8945Y2969D01*
X8910Y2949D01*
X8897Y2953D01*
X8887Y2970D01*
X8890Y2984D01*
X8908Y2994D01*
X8918Y2977D01*
X8863Y2991D02*
X8843Y3026D01*
X8842Y3048D02*
X8832Y3065D01*
X8837Y3057D01*
X8888Y3087D01*
X8885Y3073D01*
X11370Y1418D02*
X11400Y1470D01*
X11385Y1444D01*
X11420Y1424D01*
X11405Y1398D01*
X11435Y1450D01*
X11427Y1397D02*
X11431Y1383D01*
X11448Y1373D01*
X11462Y1377D01*
X11467Y1385D01*
X11463Y1399D01*
X11454Y1404D01*
X11463Y1399D01*
X11477Y1403D01*
X11482Y1411D01*
X11478Y1425D01*
X11461Y1435D01*
X11447Y1431D01*
X11960Y4035D02*
X11900D01*
X11930D01*
Y4075D01*
X11960D01*
X11900D01*
Y4135D02*
Y4095D01*
X11940Y4135D01*
X11950D01*
X11960Y4125D01*
Y4105D01*
X11950Y4095D01*
X9155Y3697D02*
X9185Y3645D01*
X9170Y3671D01*
X9135Y3651D01*
X9120Y3677D01*
X9150Y3625D01*
X9133Y3615D02*
X9116Y3605D01*
X9124Y3610D01*
X9094Y3662D01*
X9108Y3658D01*
X10845Y2250D02*
X10855Y2260D01*
X10875D01*
X10885Y2250D01*
Y2210D01*
X10875Y2200D01*
X10855D01*
X10845Y2210D01*
X10825Y2200D02*
X10805D01*
X10815D01*
Y2260D01*
X10825Y2250D01*
X10355Y1505D02*
X10365Y1515D01*
X10385D01*
X10395Y1505D01*
Y1465D01*
X10385Y1455D01*
X10365D01*
X10355Y1465D01*
X10295Y1455D02*
X10335D01*
X10295Y1495D01*
Y1505D01*
X10305Y1515D01*
X10325D01*
X10335Y1505D01*
X10675Y1665D02*
X10685Y1675D01*
X10705D01*
X10715Y1665D01*
Y1625D01*
X10705Y1615D01*
X10685D01*
X10675Y1625D01*
X10655Y1665D02*
X10645Y1675D01*
X10625D01*
X10615Y1665D01*
Y1655D01*
X10625Y1645D01*
X10635D01*
X10625D01*
X10615Y1635D01*
Y1625D01*
X10625Y1615D01*
X10645D01*
X10655Y1625D01*
X10905Y1905D02*
Y1865D01*
X10885Y1845D01*
X10865Y1865D01*
Y1905D01*
X10845Y1845D02*
Y1905D01*
X10815D01*
X10805Y1895D01*
Y1875D01*
X10815Y1865D01*
X10845D01*
X10825D02*
X10805Y1845D01*
D53*
X10746Y1941D02*
G03*
X10746Y1941I-5J0D01*
G01*
D54*
X10687Y1809D02*
Y1931D01*
X10703Y1809D02*
Y1931D01*
X10687Y1809D02*
X10703D01*
X10687Y1931D02*
X10703D01*
X10661Y1711D02*
X10669D01*
X10661Y1759D02*
X10669D01*
X9091Y2877D02*
X9093Y2874D01*
X9131Y2900D02*
X9133Y2896D01*
X11238Y4447D02*
X11242Y4447D01*
X11238Y4493D02*
X11242Y4493D01*
X11638Y1805D02*
X11640Y1808D01*
X11598Y1827D02*
X11600Y1831D01*
X11983Y3937D02*
X11987Y3937D01*
X11983Y3983D02*
X11987D01*
M02*
